%TF.GenerationSoftware,KiCad,Pcbnew,8.0.6*%
%TF.CreationDate,2024-11-19T00:52:39-05:00*%
%TF.ProjectId,tr109-sensorboard,74723130-392d-4736-956e-736f72626f61,4*%
%TF.SameCoordinates,Original*%
%TF.FileFunction,Paste,Top*%
%TF.FilePolarity,Positive*%
%FSLAX46Y46*%
G04 Gerber Fmt 4.6, Leading zero omitted, Abs format (unit mm)*
G04 Created by KiCad (PCBNEW 8.0.6) date 2024-11-19 00:52:39*
%MOMM*%
%LPD*%
G01*
G04 APERTURE LIST*
G04 Aperture macros list*
%AMRoundRect*
0 Rectangle with rounded corners*
0 $1 Rounding radius*
0 $2 $3 $4 $5 $6 $7 $8 $9 X,Y pos of 4 corners*
0 Add a 4 corners polygon primitive as box body*
4,1,4,$2,$3,$4,$5,$6,$7,$8,$9,$2,$3,0*
0 Add four circle primitives for the rounded corners*
1,1,$1+$1,$2,$3*
1,1,$1+$1,$4,$5*
1,1,$1+$1,$6,$7*
1,1,$1+$1,$8,$9*
0 Add four rect primitives between the rounded corners*
20,1,$1+$1,$2,$3,$4,$5,0*
20,1,$1+$1,$4,$5,$6,$7,0*
20,1,$1+$1,$6,$7,$8,$9,0*
20,1,$1+$1,$8,$9,$2,$3,0*%
G04 Aperture macros list end*
%ADD10R,0.400000X0.400000*%
%ADD11RoundRect,0.249999X-0.325001X-0.450001X0.325001X-0.450001X0.325001X0.450001X-0.325001X0.450001X0*%
%ADD12RoundRect,0.250000X0.462500X0.625000X-0.462500X0.625000X-0.462500X-0.625000X0.462500X-0.625000X0*%
%ADD13RoundRect,0.250000X-0.462500X-0.625000X0.462500X-0.625000X0.462500X0.625000X-0.462500X0.625000X0*%
%ADD14RoundRect,0.150000X-0.825000X-0.150000X0.825000X-0.150000X0.825000X0.150000X-0.825000X0.150000X0*%
%ADD15R,0.800000X3.600000*%
%ADD16R,0.700000X2.600000*%
%ADD17R,0.800000X2.600000*%
%ADD18RoundRect,0.250000X0.625000X-0.462500X0.625000X0.462500X-0.625000X0.462500X-0.625000X-0.462500X0*%
%ADD19RoundRect,0.249999X0.325001X0.450001X-0.325001X0.450001X-0.325001X-0.450001X0.325001X-0.450001X0*%
%ADD20RoundRect,0.243750X0.243750X0.456250X-0.243750X0.456250X-0.243750X-0.456250X0.243750X-0.456250X0*%
%ADD21RoundRect,0.249999X0.450001X-0.325001X0.450001X0.325001X-0.450001X0.325001X-0.450001X-0.325001X0*%
G04 APERTURE END LIST*
D10*
%TO.C,U1*%
X114649100Y-103724500D03*
X114649100Y-104524500D03*
X114649100Y-105324500D03*
X114649100Y-106124500D03*
X112249100Y-106124500D03*
X112249100Y-105324500D03*
X112249100Y-104524500D03*
X112249100Y-103724500D03*
%TD*%
D11*
%TO.C,R4*%
X155807300Y-112483900D03*
X157857300Y-112483900D03*
%TD*%
%TO.C,R6*%
X139691000Y-104902000D03*
X141741000Y-104902000D03*
%TD*%
D12*
%TO.C,D10*%
X134685100Y-102133400D03*
X131710100Y-102133400D03*
%TD*%
D13*
%TO.C,D12*%
X140043840Y-107358180D03*
X143018840Y-107358180D03*
%TD*%
%TO.C,D11*%
X140088620Y-102133400D03*
X143063620Y-102133400D03*
%TD*%
D12*
%TO.C,D9*%
X128881200Y-102133400D03*
X125906200Y-102133400D03*
%TD*%
D13*
%TO.C,D15*%
X149164980Y-117472460D03*
X152139980Y-117472460D03*
%TD*%
D12*
%TO.C,D16*%
X157440960Y-117472460D03*
X154465960Y-117472460D03*
%TD*%
D11*
%TO.C,R5*%
X130572400Y-98145600D03*
X132622400Y-98145600D03*
%TD*%
D14*
%TO.C,U2*%
X103290600Y-108610400D03*
X103290600Y-109880400D03*
X103290600Y-111150400D03*
X103290600Y-112420400D03*
X103290600Y-113690400D03*
X103290600Y-114960400D03*
X103290600Y-116230400D03*
X103290600Y-117500400D03*
X108240600Y-117500400D03*
X108240600Y-116230400D03*
X108240600Y-114960400D03*
X108240600Y-113690400D03*
X108240600Y-112420400D03*
X108240600Y-111150400D03*
X108240600Y-109880400D03*
X108240600Y-108610400D03*
%TD*%
D11*
%TO.C,R10*%
X161421940Y-103949500D03*
X163471940Y-103949500D03*
%TD*%
D15*
%TO.C,U3*%
X147509600Y-107477400D03*
D16*
X150469600Y-107977400D03*
X151739600Y-107977400D03*
X153009600Y-107977400D03*
X154279600Y-107977400D03*
X155549600Y-107977400D03*
D17*
X158509600Y-107977400D03*
X158509600Y-101877400D03*
D16*
X155549600Y-101877400D03*
X154279600Y-101877400D03*
X153009600Y-101877400D03*
X151739600Y-101877400D03*
X150469600Y-101877400D03*
D17*
X147509600Y-101877400D03*
%TD*%
D18*
%TO.C,D17*%
X108686600Y-106389500D03*
X108686600Y-103414500D03*
%TD*%
%TO.C,D18*%
X118211600Y-106389500D03*
X118211600Y-103414500D03*
%TD*%
D19*
%TO.C,R11*%
X104915000Y-106370000D03*
X102865000Y-106370000D03*
%TD*%
D20*
%TO.C,C4*%
X153032700Y-99085400D03*
X151157700Y-99085400D03*
%TD*%
%TO.C,C3*%
X153032700Y-96738440D03*
X151157700Y-96738440D03*
%TD*%
D11*
%TO.C,R3*%
X144948800Y-97663000D03*
X146998800Y-97663000D03*
%TD*%
D20*
%TO.C,C1*%
X157477700Y-96738440D03*
X155602700Y-96738440D03*
%TD*%
%TO.C,C2*%
X157477700Y-99085400D03*
X155602700Y-99085400D03*
%TD*%
D11*
%TO.C,R2*%
X161484200Y-112852200D03*
X163534200Y-112852200D03*
%TD*%
%TO.C,R8*%
X161484200Y-116522500D03*
X163534200Y-116522500D03*
%TD*%
%TO.C,R1*%
X161484200Y-109181900D03*
X163534200Y-109181900D03*
%TD*%
D12*
%TO.C,D8*%
X153620800Y-112483900D03*
X150645800Y-112483900D03*
%TD*%
%TO.C,D7*%
X148167052Y-112483900D03*
X145192052Y-112483900D03*
%TD*%
%TO.C,D6*%
X142713310Y-112483900D03*
X139738310Y-112483900D03*
%TD*%
%TO.C,D5*%
X137259568Y-112483900D03*
X134284568Y-112483900D03*
%TD*%
%TO.C,D1*%
X115444600Y-112483900D03*
X112469600Y-112483900D03*
%TD*%
%TO.C,D2*%
X120898342Y-112483900D03*
X117923342Y-112483900D03*
%TD*%
%TO.C,D3*%
X126352084Y-112483900D03*
X123377084Y-112483900D03*
%TD*%
%TO.C,D4*%
X131805826Y-112483900D03*
X128830826Y-112483900D03*
%TD*%
D11*
%TO.C,R9*%
X161421940Y-106184700D03*
X163471940Y-106184700D03*
%TD*%
D21*
%TO.C,R7*%
X141071600Y-117216060D03*
X141071600Y-115166060D03*
%TD*%
D12*
%TO.C,D13*%
X116579980Y-117472460D03*
X113604980Y-117472460D03*
%TD*%
D19*
%TO.C,R14*%
X125802500Y-114833400D03*
X123752500Y-114833400D03*
%TD*%
%TO.C,R15*%
X132101700Y-114833400D03*
X130051700Y-114833400D03*
%TD*%
%TO.C,R16*%
X136445000Y-114833400D03*
X134395000Y-114833400D03*
%TD*%
D21*
%TO.C,R17*%
X137541000Y-101990000D03*
X137541000Y-99940000D03*
%TD*%
D11*
%TO.C,R18*%
X149330300Y-114846100D03*
X151380300Y-114846100D03*
%TD*%
D21*
%TO.C,R19*%
X140081000Y-99564300D03*
X140081000Y-97514300D03*
%TD*%
D11*
%TO.C,R20*%
X156264500Y-114579400D03*
X158314500Y-114579400D03*
%TD*%
D19*
%TO.C,R13*%
X120900300Y-114833400D03*
X118850300Y-114833400D03*
%TD*%
D11*
%TO.C,R12*%
X113925000Y-114833400D03*
X115975000Y-114833400D03*
%TD*%
D12*
%TO.C,D14*%
X130486480Y-117472460D03*
X127511480Y-117472460D03*
%TD*%
D19*
%TO.C,R22*%
X104915000Y-104150000D03*
X102865000Y-104150000D03*
%TD*%
D11*
%TO.C,R21*%
X120015000Y-117460000D03*
X122065000Y-117460000D03*
%TD*%
M02*
