M48
INCH
T1C0.0157
T2C0.0394
%
G90
G05
T1
X4.0079Y-4.5433
X4.085Y-4.04
X4.0901Y-4.2343
X4.135Y-4.4755
X4.147Y-4.627
X4.169Y-4.424
X4.1929Y-4.1188
X4.2169Y-4.1734
X4.3248Y-4.29
X4.3307Y-4.5748
X4.3465Y-4.3996
X4.3465Y-4.4508
X4.365Y-3.89
X4.365Y-3.95
X4.365Y-3.9196
X4.382Y-4.5835
X4.4Y-4.345
X4.405Y-3.805
X4.4165Y-4.571
X4.4245Y-4.482
X4.4423Y-4.04
X4.4488Y-4.1654
X4.4517Y-4.2623
X4.461Y-4.0685
X4.4729Y-4.0956
X4.4803Y-4.1575
X4.4963Y-4.3467
X4.531Y-4.6255
X4.6195Y-4.52
X4.661Y-4.6232
X4.675Y-3.95
X4.819Y-4.52
X4.82Y-4.285
X4.82Y-4.364
X4.8221Y-4.17
X4.923Y-4.646
X5.0195Y-4.555
X5.026Y-4.3784
X5.031Y-4.52
X5.053Y-4.2983
X5.0785Y-4.6415
X5.09Y-3.89
X5.148Y-3.953
X5.2469Y-4.5205
X5.493Y-4.639
X5.5539Y-4.2937
X5.5622Y-4.428
X5.612Y-4.623
X5.6305Y-4.291
X5.8135Y-4.57
X5.816Y-4.606
X5.8638Y-4.2815
X5.885Y-4.135
X5.886Y-4.01
X5.895Y-4.325
X5.932Y-4.62
X5.985Y-3.855
X6.0175Y-4.5395
X6.027Y-4.176
X6.045Y-4.0973
X6.07Y-4.1427
X6.079Y-3.799
X6.093Y-4.3235
X6.1245Y-4.093
X6.16Y-3.855
X6.18Y-4.02
X6.255Y-4.65
X6.2935Y-4.443
X6.3Y-4.02
X6.3085Y-4.2975
X6.336Y-4.5125
X6.4375Y-4.3705
T2
X4.2883Y-4.7476
X4.2883Y-4.8476
X4.3883Y-4.7476
X4.3883Y-4.8476
X4.4883Y-4.7476
X4.4883Y-4.8476
X4.5883Y-4.7476
X4.5883Y-4.8476
X4.6883Y-4.7476
X4.6883Y-4.8476
X4.7883Y-4.7476
X4.7883Y-4.8476
X4.8883Y-4.7476
X4.8883Y-4.8476
X4.9883Y-4.7476
X4.9883Y-4.8476
X5.0883Y-4.17
X5.0883Y-4.7476
X5.0883Y-4.8476
X5.1883Y-4.17
X5.1883Y-4.7476
X5.1883Y-4.8476
X5.2883Y-4.17
X5.2883Y-4.7476
X5.2883Y-4.8476
X5.3883Y-4.17
X5.3883Y-4.7476
X5.3883Y-4.8476
X5.4883Y-4.7476
X5.4883Y-4.8476
X5.5883Y-4.7476
X5.5883Y-4.8476
X5.6883Y-4.7476
X5.6883Y-4.8476
X5.7883Y-4.7476
X5.7883Y-4.8476
X5.8883Y-4.7476
X5.8883Y-4.8476
X5.9883Y-4.7476
X5.9883Y-4.8476
X6.0883Y-4.7476
X6.0883Y-4.8476
X6.1883Y-4.7476
X6.1883Y-4.8476
M30
