%TF.GenerationSoftware,KiCad,Pcbnew,8.0.6*%
%TF.CreationDate,2024-11-19T00:52:39-05:00*%
%TF.ProjectId,tr109-sensorboard,74723130-392d-4736-956e-736f72626f61,4*%
%TF.SameCoordinates,Original*%
%TF.FileFunction,Copper,L2,Bot*%
%TF.FilePolarity,Positive*%
%FSLAX46Y46*%
G04 Gerber Fmt 4.6, Leading zero omitted, Abs format (unit mm)*
G04 Created by KiCad (PCBNEW 8.0.6) date 2024-11-19 00:52:39*
%MOMM*%
%LPD*%
G01*
G04 APERTURE LIST*
%TA.AperFunction,ComponentPad*%
%ADD10R,1.700000X1.700000*%
%TD*%
%TA.AperFunction,ComponentPad*%
%ADD11O,1.700000X1.700000*%
%TD*%
%TA.AperFunction,SMDPad,CuDef*%
%ADD12R,1.000000X1.500000*%
%TD*%
%TA.AperFunction,ViaPad*%
%ADD13C,0.600000*%
%TD*%
%TA.AperFunction,Conductor*%
%ADD14C,0.250000*%
%TD*%
G04 APERTURE END LIST*
D10*
%TO.P,J47,1,3V3*%
%TO.N,3.3V*%
X157184000Y-120590000D03*
D11*
%TO.P,J47,2,5V*%
%TO.N,5V*%
X157184000Y-123130000D03*
%TO.P,J47,3,SDA/GPIO2*%
%TO.N,SDA*%
X154644000Y-120590000D03*
%TO.P,J47,4,5V*%
%TO.N,5V*%
X154644000Y-123130000D03*
%TO.P,J47,5,SCL/GPIO3*%
%TO.N,SCK*%
X152104000Y-120590000D03*
%TO.P,J47,6,GND*%
%TO.N,GND*%
X152104000Y-123130000D03*
%TO.P,J47,7,GCLK0/GPIO4*%
%TO.N,unconnected-(J47-GCLK0{slash}GPIO4-Pad7)*%
X149564000Y-120590000D03*
%TO.P,J47,8,GPIO14/TXD*%
%TO.N,unconnected-(J47-GPIO14{slash}TXD-Pad8)*%
X149564000Y-123130000D03*
%TO.P,J47,9,GND*%
%TO.N,GND*%
X147024000Y-120590000D03*
%TO.P,J47,10,GPIO15/RXD*%
%TO.N,unconnected-(J47-GPIO15{slash}RXD-Pad10)*%
X147024000Y-123130000D03*
%TO.P,J47,11,GPIO17*%
%TO.N,unconnected-(J47-GPIO17-Pad11)*%
X144484000Y-120590000D03*
%TO.P,J47,12,GPIO18/PWM0*%
%TO.N,unconnected-(J47-GPIO18{slash}PWM0-Pad12)*%
X144484000Y-123130000D03*
%TO.P,J47,13,GPIO27*%
%TO.N,unconnected-(J47-GPIO27-Pad13)*%
X141944000Y-120590000D03*
%TO.P,J47,14,GND*%
%TO.N,GND*%
X141944000Y-123130000D03*
%TO.P,J47,15,GPIO22*%
%TO.N,unconnected-(J47-GPIO22-Pad15)*%
X139404000Y-120590000D03*
%TO.P,J47,16,GPIO23*%
%TO.N,unconnected-(J47-GPIO23-Pad16)*%
X139404000Y-123130000D03*
%TO.P,J47,17,3V3*%
%TO.N,3.3V*%
X136864000Y-120590000D03*
%TO.P,J47,18,GPIO24*%
%TO.N,unconnected-(J47-GPIO24-Pad18)*%
X136864000Y-123130000D03*
%TO.P,J47,19,MOSI0/GPIO10*%
%TO.N,unconnected-(J47-MOSI0{slash}GPIO10-Pad19)*%
X134324000Y-120590000D03*
%TO.P,J47,20,GND*%
%TO.N,GND*%
X134324000Y-123130000D03*
%TO.P,J47,21,MISO0/GPIO9*%
%TO.N,unconnected-(J47-MISO0{slash}GPIO9-Pad21)*%
X131784000Y-120590000D03*
%TO.P,J47,22,GPIO25*%
%TO.N,unconnected-(J47-GPIO25-Pad22)*%
X131784000Y-123130000D03*
%TO.P,J47,23,SCLK0/GPIO11*%
%TO.N,unconnected-(J47-SCLK0{slash}GPIO11-Pad23)*%
X129244000Y-120590000D03*
%TO.P,J47,24,~{CE0}/GPIO8*%
%TO.N,unconnected-(J47-~{CE0}{slash}GPIO8-Pad24)*%
X129244000Y-123130000D03*
%TO.P,J47,25,GND*%
%TO.N,GND*%
X126704000Y-120590000D03*
%TO.P,J47,26,~{CE1}/GPIO7*%
%TO.N,unconnected-(J47-~{CE1}{slash}GPIO7-Pad26)*%
X126704000Y-123130000D03*
%TO.P,J47,27,ID_SD/GPIO0*%
%TO.N,unconnected-(J47-ID_SD{slash}GPIO0-Pad27)*%
X124164000Y-120590000D03*
%TO.P,J47,28,ID_SC/GPIO1*%
%TO.N,unconnected-(J47-ID_SC{slash}GPIO1-Pad28)*%
X124164000Y-123130000D03*
%TO.P,J47,29,GCLK1/GPIO5*%
%TO.N,unconnected-(J47-GCLK1{slash}GPIO5-Pad29)*%
X121624000Y-120590000D03*
%TO.P,J47,30,GND*%
%TO.N,GND*%
X121624000Y-123130000D03*
%TO.P,J47,31,GCLK2/GPIO6*%
%TO.N,unconnected-(J47-GCLK2{slash}GPIO6-Pad31)*%
X119084000Y-120590000D03*
%TO.P,J47,32,PWM0/GPIO12*%
%TO.N,unconnected-(J47-PWM0{slash}GPIO12-Pad32)*%
X119084000Y-123130000D03*
%TO.P,J47,33,PWM1/GPIO13*%
%TO.N,unconnected-(J47-PWM1{slash}GPIO13-Pad33)*%
X116544000Y-120590000D03*
%TO.P,J47,34,GND*%
%TO.N,GND*%
X116544000Y-123130000D03*
%TO.P,J47,35,GPIO19/MISO1*%
%TO.N,Shift_Serial*%
X114004000Y-120590000D03*
%TO.P,J47,36,GPIO16*%
%TO.N,unconnected-(J47-GPIO16-Pad36)*%
X114004000Y-123130000D03*
%TO.P,J47,37,GPIO26*%
%TO.N,Shift_Clock*%
X111464000Y-120590000D03*
%TO.P,J47,38,GPIO20/MOSI1*%
%TO.N,unconnected-(J47-GPIO20{slash}MOSI1-Pad38)*%
X111464000Y-123130000D03*
%TO.P,J47,39,GND*%
%TO.N,GND*%
X108924000Y-120590000D03*
%TO.P,J47,40,GPIO21/SCLK1*%
%TO.N,Shift_Latch*%
X108924000Y-123130000D03*
%TD*%
D10*
%TO.P,J3,1,Pin_1*%
%TO.N,SDA*%
X129244000Y-105918000D03*
D11*
%TO.P,J3,2,Pin_2*%
%TO.N,3.3V*%
X131784000Y-105918000D03*
%TO.P,J3,3,Pin_3*%
%TO.N,GND*%
X134324000Y-105918000D03*
%TO.P,J3,4,Pin_4*%
%TO.N,SCK*%
X136864000Y-105918000D03*
%TD*%
D12*
%TO.P,JP1,1,1*%
%TO.N,Net-(U3-AD-SELECT)*%
X157934900Y-114592100D03*
%TO.P,JP1,2,2*%
%TO.N,GND*%
X159234900Y-114592100D03*
%TD*%
D13*
%TO.N,GND*%
X152019000Y-97916998D03*
X103759000Y-102616000D03*
X113000000Y-105800006D03*
X133270000Y-114820000D03*
X117335300Y-114808000D03*
X127787400Y-114808000D03*
X156972000Y-102108000D03*
X156464000Y-97917000D03*
X128993902Y-117894100D03*
X160934400Y-114617500D03*
X113612244Y-104027928D03*
X112833600Y-102616000D03*
X111887000Y-96647000D03*
X122402600Y-114808000D03*
X105333800Y-117525800D03*
X160020000Y-102108000D03*
%TO.N,SCK*%
X113073276Y-108261590D03*
X142544800Y-117424200D03*
X149733000Y-109855000D03*
%TO.N,SDA*%
X113800000Y-105600000D03*
X153543000Y-104070600D03*
X147726400Y-116992400D03*
X148939690Y-108750100D03*
X122482001Y-105918003D03*
X154178000Y-105225400D03*
%TO.N,Net-(D6-K)*%
X141280000Y-112470000D03*
X141070000Y-109060000D03*
%TO.N,BETA*%
X122428000Y-110845600D03*
X122428000Y-108839000D03*
%TO.N,ALPHA*%
X127660400Y-111211090D03*
X128345000Y-109177410D03*
%TO.N,3.3V*%
X113310215Y-103338797D03*
X163512500Y-111010700D03*
X149479000Y-105029000D03*
X155562300Y-103962200D03*
X154406600Y-96494600D03*
X158877000Y-118110000D03*
X149504400Y-101854000D03*
%TO.N,DELTA*%
X111759998Y-110363000D03*
X114206223Y-110406281D03*
%TO.N,Net-(D13-K)*%
X118389400Y-117430100D03*
%TO.N,Shift_Clock*%
X111302800Y-116420900D03*
%TO.N,Shift_Serial*%
X112179100Y-116103400D03*
%TO.N,5V*%
X110400000Y-111750000D03*
X109850011Y-108966585D03*
X110000000Y-116200000D03*
X110871000Y-100330000D03*
X110400000Y-113050000D03*
X118745000Y-100330000D03*
%TO.N,Net-(D14-K)*%
X139522200Y-117830600D03*
%TO.N,LED_ON*%
X105892600Y-112369600D03*
X147662900Y-116078000D03*
X107109260Y-106004360D03*
X112382300Y-113842800D03*
X125044200Y-118008400D03*
X127495300Y-115697000D03*
X143014700Y-108991400D03*
X115087400Y-117487700D03*
%TO.N,Net-(D15-K)*%
X152844500Y-115303300D03*
X150672800Y-117348000D03*
%TO.N,ANIM1*%
X110871006Y-99558403D03*
X105029000Y-113677700D03*
%TO.N,ANIM2*%
X101800000Y-115400000D03*
X129286002Y-98805998D03*
X110870994Y-98806000D03*
X130759200Y-100406200D03*
%TO.N,Net-(D18-K)*%
X106500563Y-104618423D03*
X103888540Y-107551220D03*
%TO.N,Net-(U3-AD-SELECT)*%
X159854900Y-112852200D03*
X154762200Y-109816900D03*
%TO.N,Net-(U3-INT)*%
X153085800Y-106070400D03*
X160235900Y-109156500D03*
%TD*%
D14*
%TO.N,GND*%
X128993902Y-118300098D02*
X128993902Y-117894100D01*
X122402600Y-114808000D02*
X117335300Y-114808000D01*
X160020000Y-102108000D02*
X156972000Y-102108000D01*
X103759000Y-102616000D02*
X105283000Y-102616000D01*
X111252000Y-96647000D02*
X111887000Y-96647000D01*
X108924000Y-120590000D02*
X108924000Y-119299900D01*
X160909000Y-114592100D02*
X160934400Y-114617500D01*
X108432600Y-118808500D02*
X106616500Y-118808500D01*
X133258000Y-114808000D02*
X133270000Y-114820000D01*
X113000000Y-104640172D02*
X113612244Y-104027928D01*
X127787400Y-114808000D02*
X133258000Y-114808000D01*
X152019002Y-97917000D02*
X152019000Y-97916998D01*
X112833600Y-97593600D02*
X112014000Y-96774000D01*
X159234900Y-114592100D02*
X160909000Y-114592100D01*
X106616500Y-118808500D02*
X105333800Y-117525800D01*
X156464000Y-97917000D02*
X152019002Y-97917000D01*
X105283000Y-102616000D02*
X111252000Y-96647000D01*
X127787400Y-114808000D02*
X122402600Y-114808000D01*
X113000000Y-105800006D02*
X113000000Y-104640172D01*
X108924000Y-119299900D02*
X108432600Y-118808500D01*
X112833600Y-102616000D02*
X112833600Y-97593600D01*
X126704000Y-120590000D02*
X128993902Y-118300098D01*
%TO.N,SCK*%
X142544800Y-117424200D02*
X141973300Y-116852700D01*
X115328700Y-116852700D02*
X114783624Y-116307624D01*
X142544800Y-117424200D02*
X143789400Y-118668800D01*
X149733000Y-115893186D02*
X149733000Y-110279264D01*
X141973300Y-116852700D02*
X115328700Y-116852700D01*
X114783624Y-116307624D02*
X114783624Y-109971938D01*
X146957386Y-118668800D02*
X149733000Y-115893186D01*
X114783624Y-109971938D02*
X113073276Y-108261590D01*
X149733000Y-110279264D02*
X149733000Y-109855000D01*
X143789400Y-118668800D02*
X146957386Y-118668800D01*
%TO.N,SDA*%
X115455700Y-110121700D02*
X119659397Y-105918003D01*
X115455700Y-110121700D02*
X115455700Y-109789468D01*
X119659397Y-105918003D02*
X122482001Y-105918003D01*
X149053990Y-115755614D02*
X149053990Y-108864400D01*
X115531002Y-116332000D02*
X147066000Y-116332000D01*
X147726400Y-116992400D02*
X149053990Y-115755614D01*
X115455700Y-116256698D02*
X115531002Y-116332000D01*
X149053990Y-108864400D02*
X148939690Y-108750100D01*
X115455700Y-109789468D02*
X113800000Y-108133768D01*
X113800000Y-108133768D02*
X113800000Y-105600000D01*
X147066000Y-116332000D02*
X147726400Y-116992400D01*
X153543000Y-104590400D02*
X154178000Y-105225400D01*
X153543000Y-104070600D02*
X153543000Y-104590400D01*
X115455700Y-110121700D02*
X115455700Y-116256698D01*
%TO.N,Net-(D6-K)*%
X141097000Y-109087000D02*
X141070000Y-109060000D01*
X141280000Y-112470000D02*
X141280000Y-109911000D01*
X141097000Y-109728000D02*
X141097000Y-109087000D01*
X141280000Y-109911000D02*
X141097000Y-109728000D01*
%TO.N,BETA*%
X122428000Y-108762800D02*
X122428000Y-110845600D01*
X122428000Y-108839000D02*
X122428000Y-108762800D01*
%TO.N,ALPHA*%
X127660400Y-109862010D02*
X128345000Y-109177410D01*
X127660400Y-111211090D02*
X127660400Y-109862010D01*
%TO.N,3.3V*%
X113800000Y-102849012D02*
X113310215Y-103338797D01*
X104468446Y-111800000D02*
X104200000Y-111800000D01*
X136864000Y-120590000D02*
X135736599Y-121717401D01*
X102200000Y-117400000D02*
X101200000Y-116400000D01*
X114200000Y-100800000D02*
X113800000Y-101200000D01*
X104200000Y-117400000D02*
X104800000Y-116800000D01*
X103600000Y-117400000D02*
X102200000Y-117400000D01*
X104800000Y-115400000D02*
X106000000Y-114200000D01*
X154406600Y-96494600D02*
X112694600Y-96494600D01*
X101200000Y-106600000D02*
X101400000Y-106400000D01*
X107279001Y-120279001D02*
X105400000Y-118400000D01*
X103600000Y-117400000D02*
X104200000Y-117400000D01*
X112694600Y-96494600D02*
X112269599Y-96069599D01*
X155740100Y-121856500D02*
X157006600Y-120590000D01*
X106000000Y-113331554D02*
X104468446Y-111800000D01*
X107279001Y-120879001D02*
X107279001Y-120279001D01*
X104800000Y-116800000D02*
X104800000Y-115400000D01*
X138130500Y-121856500D02*
X155740100Y-121856500D01*
X113800000Y-101200000D02*
X113800000Y-102849012D01*
X101200000Y-116400000D02*
X101200000Y-106600000D01*
X136864000Y-120590000D02*
X138130500Y-121856500D01*
X112269599Y-96069599D02*
X110730401Y-96069599D01*
X157006600Y-120590000D02*
X157184000Y-120590000D01*
X106000000Y-114200000D02*
X106000000Y-113331554D01*
X135736599Y-121717401D02*
X108117401Y-121717401D01*
X105400000Y-118400000D02*
X103600000Y-118400000D01*
X103600000Y-118400000D02*
X103600000Y-117400000D01*
X108117401Y-121717401D02*
X107279001Y-120879001D01*
%TO.N,DELTA*%
X111803279Y-110406281D02*
X111759998Y-110363000D01*
X114206223Y-110406281D02*
X111803279Y-110406281D01*
%TO.N,Shift_Clock*%
X111470000Y-120584000D02*
X111464000Y-120590000D01*
X111470000Y-116588100D02*
X111470000Y-120584000D01*
X111302800Y-116420900D02*
X111470000Y-116588100D01*
%TO.N,Shift_Serial*%
X112179100Y-118765100D02*
X114004000Y-120590000D01*
X112179100Y-116103400D02*
X112179100Y-118765100D01*
%TO.N,5V*%
X118745000Y-100330000D02*
X118745000Y-100330000D01*
X152342401Y-109035401D02*
X152342401Y-104590401D01*
X158311401Y-122002599D02*
X158311401Y-119518079D01*
X110400000Y-113050000D02*
X110400000Y-115800000D01*
X110744000Y-100330000D02*
X108800000Y-102274000D01*
X151638000Y-103886000D02*
X121920000Y-103886000D01*
X121920000Y-103886000D02*
X121920000Y-103505000D01*
X156268322Y-117475000D02*
X156268322Y-112961322D01*
X108800000Y-102274000D02*
X108800000Y-107492310D01*
X158311401Y-119518079D02*
X156268322Y-117475000D01*
X110400000Y-109516574D02*
X109850011Y-108966585D01*
X110400000Y-115800000D02*
X110000000Y-116200000D01*
X121920000Y-103505000D02*
X118745000Y-100330000D01*
X152342401Y-104590401D02*
X151638000Y-103886000D01*
X109850011Y-108542321D02*
X109850011Y-108966585D01*
X156268322Y-112961322D02*
X152342401Y-109035401D01*
X108800000Y-107492310D02*
X109850011Y-108542321D01*
X110400000Y-111750000D02*
X110400000Y-109516574D01*
X157184000Y-123130000D02*
X158311401Y-122002599D01*
%TO.N,Net-(D14-K)*%
X128716749Y-117316699D02*
X139008299Y-117316699D01*
X139008299Y-117316699D02*
X139522200Y-117830600D01*
X128603348Y-117430100D02*
X128716749Y-117316699D01*
%TO.N,LED_ON*%
X105892600Y-107221020D02*
X107109260Y-106004360D01*
X105892600Y-112369600D02*
X110909100Y-112369600D01*
X115087400Y-117487700D02*
X115608100Y-118008400D01*
X147459700Y-115874800D02*
X147662900Y-116078000D01*
X143014700Y-114198400D02*
X143014700Y-108991400D01*
X141351000Y-115862100D02*
X141516100Y-115697000D01*
X141516100Y-115697000D02*
X143014700Y-114198400D01*
X141516100Y-115697000D02*
X141693900Y-115874800D01*
X115608100Y-118008400D02*
X125044200Y-118008400D01*
X110909100Y-112369600D02*
X112382300Y-113842800D01*
X127495300Y-115697000D02*
X127660400Y-115862100D01*
X127660400Y-115862100D02*
X141351000Y-115862100D01*
X141693900Y-115874800D02*
X147459700Y-115874800D01*
X105892600Y-112369600D02*
X105892600Y-107221020D01*
%TO.N,Net-(D15-K)*%
X150672800Y-116306600D02*
X150672800Y-117348000D01*
X151257000Y-115722400D02*
X150672800Y-116306600D01*
X152844500Y-115303300D02*
X152425400Y-115722400D01*
X152425400Y-115722400D02*
X151257000Y-115722400D01*
%TO.N,ANIM1*%
X105029000Y-113677700D02*
X102561839Y-111210539D01*
X110499597Y-99558403D02*
X110871006Y-99558403D01*
X102561839Y-111210539D02*
X102561839Y-107496161D01*
X102561839Y-107496161D02*
X110499597Y-99558403D01*
%TO.N,ANIM2*%
X110870994Y-98806000D02*
X110109000Y-98806000D01*
X110109000Y-98806000D02*
X101800000Y-107115000D01*
X101800000Y-107115000D02*
X101800000Y-115400000D01*
X129286002Y-98933002D02*
X129286002Y-98805998D01*
X130759200Y-100406200D02*
X129286002Y-98933002D01*
%TO.N,Net-(D18-K)*%
X103888540Y-107551220D02*
X106500563Y-104939197D01*
X106500563Y-104939197D02*
X106500563Y-104618423D01*
%TO.N,Net-(U3-AD-SELECT)*%
X158457958Y-112852200D02*
X159854900Y-112852200D01*
X158457958Y-111556858D02*
X156718000Y-109816900D01*
X157934900Y-114592100D02*
X157934900Y-113375258D01*
X157934900Y-113375258D02*
X158457958Y-112852200D01*
X156718000Y-109816900D02*
X154762200Y-109816900D01*
X158457958Y-112852200D02*
X158457958Y-111556858D01*
%TO.N,Net-(U3-INT)*%
X157162500Y-106083100D02*
X153098500Y-106083100D01*
X160235900Y-109156500D02*
X157162500Y-106083100D01*
X153098500Y-106083100D02*
X153085800Y-106070400D01*
%TD*%
%TA.AperFunction,Conductor*%
%TO.N,3.3V*%
G36*
X110277225Y-121265669D02*
G01*
X110299480Y-121291353D01*
X110331149Y-121339825D01*
X110388275Y-121427265D01*
X110388279Y-121427270D01*
X110540762Y-121592908D01*
X110595331Y-121635381D01*
X110718424Y-121731189D01*
X110751153Y-121748901D01*
X110751680Y-121749186D01*
X110802071Y-121799200D01*
X110817423Y-121868516D01*
X110792862Y-121935129D01*
X110751680Y-121970813D01*
X110718426Y-121988810D01*
X110718424Y-121988811D01*
X110540762Y-122127091D01*
X110388279Y-122292729D01*
X110299483Y-122428643D01*
X110245479Y-122474731D01*
X110175131Y-122484306D01*
X110110774Y-122454329D01*
X110088517Y-122428643D01*
X109999720Y-122292729D01*
X109883570Y-122166559D01*
X109847240Y-122127094D01*
X109847239Y-122127093D01*
X109847237Y-122127091D01*
X109738497Y-122042455D01*
X109669576Y-121988811D01*
X109636319Y-121970813D01*
X109585929Y-121920802D01*
X109570576Y-121851485D01*
X109595136Y-121784872D01*
X109636320Y-121749186D01*
X109636847Y-121748901D01*
X109669576Y-121731189D01*
X109847240Y-121592906D01*
X109999722Y-121427268D01*
X109999927Y-121426955D01*
X110005115Y-121419012D01*
X110088518Y-121291354D01*
X110142520Y-121245268D01*
X110212868Y-121235692D01*
X110277225Y-121265669D01*
G37*
%TD.AperFunction*%
%TA.AperFunction,Conductor*%
G36*
X112817225Y-121265669D02*
G01*
X112839480Y-121291353D01*
X112871149Y-121339825D01*
X112928275Y-121427265D01*
X112928279Y-121427270D01*
X113080762Y-121592908D01*
X113135331Y-121635381D01*
X113258424Y-121731189D01*
X113291153Y-121748901D01*
X113291680Y-121749186D01*
X113342071Y-121799200D01*
X113357423Y-121868516D01*
X113332862Y-121935129D01*
X113291680Y-121970813D01*
X113258426Y-121988810D01*
X113258424Y-121988811D01*
X113080762Y-122127091D01*
X112928279Y-122292729D01*
X112839483Y-122428643D01*
X112785479Y-122474731D01*
X112715131Y-122484306D01*
X112650774Y-122454329D01*
X112628517Y-122428643D01*
X112539720Y-122292729D01*
X112423570Y-122166559D01*
X112387240Y-122127094D01*
X112387239Y-122127093D01*
X112387237Y-122127091D01*
X112278497Y-122042455D01*
X112209576Y-121988811D01*
X112176319Y-121970813D01*
X112125929Y-121920802D01*
X112110576Y-121851485D01*
X112135136Y-121784872D01*
X112176320Y-121749186D01*
X112176847Y-121748901D01*
X112209576Y-121731189D01*
X112387240Y-121592906D01*
X112539722Y-121427268D01*
X112539927Y-121426955D01*
X112545115Y-121419012D01*
X112628518Y-121291354D01*
X112682520Y-121245268D01*
X112752868Y-121235692D01*
X112817225Y-121265669D01*
G37*
%TD.AperFunction*%
%TA.AperFunction,Conductor*%
G36*
X115357225Y-121265669D02*
G01*
X115379480Y-121291353D01*
X115411149Y-121339825D01*
X115468275Y-121427265D01*
X115468279Y-121427270D01*
X115620762Y-121592908D01*
X115675331Y-121635381D01*
X115798424Y-121731189D01*
X115831153Y-121748901D01*
X115831680Y-121749186D01*
X115882071Y-121799200D01*
X115897423Y-121868516D01*
X115872862Y-121935129D01*
X115831680Y-121970813D01*
X115798426Y-121988810D01*
X115798424Y-121988811D01*
X115620762Y-122127091D01*
X115468279Y-122292729D01*
X115379483Y-122428643D01*
X115325479Y-122474731D01*
X115255131Y-122484306D01*
X115190774Y-122454329D01*
X115168517Y-122428643D01*
X115079720Y-122292729D01*
X114963570Y-122166559D01*
X114927240Y-122127094D01*
X114927239Y-122127093D01*
X114927237Y-122127091D01*
X114818497Y-122042455D01*
X114749576Y-121988811D01*
X114716319Y-121970813D01*
X114665929Y-121920802D01*
X114650576Y-121851485D01*
X114675136Y-121784872D01*
X114716320Y-121749186D01*
X114716847Y-121748901D01*
X114749576Y-121731189D01*
X114927240Y-121592906D01*
X115079722Y-121427268D01*
X115079927Y-121426955D01*
X115085115Y-121419012D01*
X115168518Y-121291354D01*
X115222520Y-121245268D01*
X115292868Y-121235692D01*
X115357225Y-121265669D01*
G37*
%TD.AperFunction*%
%TA.AperFunction,Conductor*%
G36*
X117897225Y-121265669D02*
G01*
X117919480Y-121291353D01*
X117951149Y-121339825D01*
X118008275Y-121427265D01*
X118008279Y-121427270D01*
X118160762Y-121592908D01*
X118215331Y-121635381D01*
X118338424Y-121731189D01*
X118371153Y-121748901D01*
X118371680Y-121749186D01*
X118422071Y-121799200D01*
X118437423Y-121868516D01*
X118412862Y-121935129D01*
X118371680Y-121970813D01*
X118338426Y-121988810D01*
X118338424Y-121988811D01*
X118160762Y-122127091D01*
X118008279Y-122292729D01*
X117919483Y-122428643D01*
X117865479Y-122474731D01*
X117795131Y-122484306D01*
X117730774Y-122454329D01*
X117708517Y-122428643D01*
X117619720Y-122292729D01*
X117503570Y-122166559D01*
X117467240Y-122127094D01*
X117467239Y-122127093D01*
X117467237Y-122127091D01*
X117358497Y-122042455D01*
X117289576Y-121988811D01*
X117256319Y-121970813D01*
X117205929Y-121920802D01*
X117190576Y-121851485D01*
X117215136Y-121784872D01*
X117256320Y-121749186D01*
X117256847Y-121748901D01*
X117289576Y-121731189D01*
X117467240Y-121592906D01*
X117619722Y-121427268D01*
X117619927Y-121426955D01*
X117625115Y-121419012D01*
X117708518Y-121291354D01*
X117762520Y-121245268D01*
X117832868Y-121235692D01*
X117897225Y-121265669D01*
G37*
%TD.AperFunction*%
%TA.AperFunction,Conductor*%
G36*
X120437225Y-121265669D02*
G01*
X120459480Y-121291353D01*
X120491149Y-121339825D01*
X120548275Y-121427265D01*
X120548279Y-121427270D01*
X120700762Y-121592908D01*
X120755331Y-121635381D01*
X120878424Y-121731189D01*
X120911153Y-121748901D01*
X120911680Y-121749186D01*
X120962071Y-121799200D01*
X120977423Y-121868516D01*
X120952862Y-121935129D01*
X120911680Y-121970813D01*
X120878426Y-121988810D01*
X120878424Y-121988811D01*
X120700762Y-122127091D01*
X120548279Y-122292729D01*
X120459483Y-122428643D01*
X120405479Y-122474731D01*
X120335131Y-122484306D01*
X120270774Y-122454329D01*
X120248517Y-122428643D01*
X120159720Y-122292729D01*
X120043570Y-122166559D01*
X120007240Y-122127094D01*
X120007239Y-122127093D01*
X120007237Y-122127091D01*
X119898497Y-122042455D01*
X119829576Y-121988811D01*
X119796319Y-121970813D01*
X119745929Y-121920802D01*
X119730576Y-121851485D01*
X119755136Y-121784872D01*
X119796320Y-121749186D01*
X119796847Y-121748901D01*
X119829576Y-121731189D01*
X120007240Y-121592906D01*
X120159722Y-121427268D01*
X120159927Y-121426955D01*
X120165115Y-121419012D01*
X120248518Y-121291354D01*
X120302520Y-121245268D01*
X120372868Y-121235692D01*
X120437225Y-121265669D01*
G37*
%TD.AperFunction*%
%TA.AperFunction,Conductor*%
G36*
X122977225Y-121265669D02*
G01*
X122999480Y-121291353D01*
X123031149Y-121339825D01*
X123088275Y-121427265D01*
X123088279Y-121427270D01*
X123240762Y-121592908D01*
X123295331Y-121635381D01*
X123418424Y-121731189D01*
X123451153Y-121748901D01*
X123451680Y-121749186D01*
X123502071Y-121799200D01*
X123517423Y-121868516D01*
X123492862Y-121935129D01*
X123451680Y-121970813D01*
X123418426Y-121988810D01*
X123418424Y-121988811D01*
X123240762Y-122127091D01*
X123088279Y-122292729D01*
X122999483Y-122428643D01*
X122945479Y-122474731D01*
X122875131Y-122484306D01*
X122810774Y-122454329D01*
X122788517Y-122428643D01*
X122699720Y-122292729D01*
X122583570Y-122166559D01*
X122547240Y-122127094D01*
X122547239Y-122127093D01*
X122547237Y-122127091D01*
X122438497Y-122042455D01*
X122369576Y-121988811D01*
X122336319Y-121970813D01*
X122285929Y-121920802D01*
X122270576Y-121851485D01*
X122295136Y-121784872D01*
X122336320Y-121749186D01*
X122336847Y-121748901D01*
X122369576Y-121731189D01*
X122547240Y-121592906D01*
X122699722Y-121427268D01*
X122699927Y-121426955D01*
X122705115Y-121419012D01*
X122788518Y-121291354D01*
X122842520Y-121245268D01*
X122912868Y-121235692D01*
X122977225Y-121265669D01*
G37*
%TD.AperFunction*%
%TA.AperFunction,Conductor*%
G36*
X125517225Y-121265669D02*
G01*
X125539480Y-121291353D01*
X125571149Y-121339825D01*
X125628275Y-121427265D01*
X125628279Y-121427270D01*
X125780762Y-121592908D01*
X125835331Y-121635381D01*
X125958424Y-121731189D01*
X125991153Y-121748901D01*
X125991680Y-121749186D01*
X126042071Y-121799200D01*
X126057423Y-121868516D01*
X126032862Y-121935129D01*
X125991680Y-121970813D01*
X125958426Y-121988810D01*
X125958424Y-121988811D01*
X125780762Y-122127091D01*
X125628279Y-122292729D01*
X125539483Y-122428643D01*
X125485479Y-122474731D01*
X125415131Y-122484306D01*
X125350774Y-122454329D01*
X125328517Y-122428643D01*
X125239720Y-122292729D01*
X125123570Y-122166559D01*
X125087240Y-122127094D01*
X125087239Y-122127093D01*
X125087237Y-122127091D01*
X124978497Y-122042455D01*
X124909576Y-121988811D01*
X124876319Y-121970813D01*
X124825929Y-121920802D01*
X124810576Y-121851485D01*
X124835136Y-121784872D01*
X124876320Y-121749186D01*
X124876847Y-121748901D01*
X124909576Y-121731189D01*
X125087240Y-121592906D01*
X125239722Y-121427268D01*
X125239927Y-121426955D01*
X125245115Y-121419012D01*
X125328518Y-121291354D01*
X125382520Y-121245268D01*
X125452868Y-121235692D01*
X125517225Y-121265669D01*
G37*
%TD.AperFunction*%
%TA.AperFunction,Conductor*%
G36*
X128057225Y-121265669D02*
G01*
X128079480Y-121291353D01*
X128111149Y-121339825D01*
X128168275Y-121427265D01*
X128168279Y-121427270D01*
X128320762Y-121592908D01*
X128375331Y-121635381D01*
X128498424Y-121731189D01*
X128531153Y-121748901D01*
X128531680Y-121749186D01*
X128582071Y-121799200D01*
X128597423Y-121868516D01*
X128572862Y-121935129D01*
X128531680Y-121970813D01*
X128498426Y-121988810D01*
X128498424Y-121988811D01*
X128320762Y-122127091D01*
X128168279Y-122292729D01*
X128079483Y-122428643D01*
X128025479Y-122474731D01*
X127955131Y-122484306D01*
X127890774Y-122454329D01*
X127868517Y-122428643D01*
X127779720Y-122292729D01*
X127663570Y-122166559D01*
X127627240Y-122127094D01*
X127627239Y-122127093D01*
X127627237Y-122127091D01*
X127518497Y-122042455D01*
X127449576Y-121988811D01*
X127416319Y-121970813D01*
X127365929Y-121920802D01*
X127350576Y-121851485D01*
X127375136Y-121784872D01*
X127416320Y-121749186D01*
X127416847Y-121748901D01*
X127449576Y-121731189D01*
X127627240Y-121592906D01*
X127779722Y-121427268D01*
X127779927Y-121426955D01*
X127785115Y-121419012D01*
X127868518Y-121291354D01*
X127922520Y-121245268D01*
X127992868Y-121235692D01*
X128057225Y-121265669D01*
G37*
%TD.AperFunction*%
%TA.AperFunction,Conductor*%
G36*
X130597225Y-121265669D02*
G01*
X130619480Y-121291353D01*
X130651149Y-121339825D01*
X130708275Y-121427265D01*
X130708279Y-121427270D01*
X130860762Y-121592908D01*
X130915331Y-121635381D01*
X131038424Y-121731189D01*
X131071153Y-121748901D01*
X131071680Y-121749186D01*
X131122071Y-121799200D01*
X131137423Y-121868516D01*
X131112862Y-121935129D01*
X131071680Y-121970813D01*
X131038426Y-121988810D01*
X131038424Y-121988811D01*
X130860762Y-122127091D01*
X130708279Y-122292729D01*
X130619483Y-122428643D01*
X130565479Y-122474731D01*
X130495131Y-122484306D01*
X130430774Y-122454329D01*
X130408517Y-122428643D01*
X130319720Y-122292729D01*
X130203570Y-122166559D01*
X130167240Y-122127094D01*
X130167239Y-122127093D01*
X130167237Y-122127091D01*
X130058497Y-122042455D01*
X129989576Y-121988811D01*
X129956319Y-121970813D01*
X129905929Y-121920802D01*
X129890576Y-121851485D01*
X129915136Y-121784872D01*
X129956320Y-121749186D01*
X129956847Y-121748901D01*
X129989576Y-121731189D01*
X130167240Y-121592906D01*
X130319722Y-121427268D01*
X130319927Y-121426955D01*
X130325115Y-121419012D01*
X130408518Y-121291354D01*
X130462520Y-121245268D01*
X130532868Y-121235692D01*
X130597225Y-121265669D01*
G37*
%TD.AperFunction*%
%TA.AperFunction,Conductor*%
G36*
X133137225Y-121265669D02*
G01*
X133159480Y-121291353D01*
X133191149Y-121339825D01*
X133248275Y-121427265D01*
X133248279Y-121427270D01*
X133400762Y-121592908D01*
X133455331Y-121635381D01*
X133578424Y-121731189D01*
X133611153Y-121748901D01*
X133611680Y-121749186D01*
X133662071Y-121799200D01*
X133677423Y-121868516D01*
X133652862Y-121935129D01*
X133611680Y-121970813D01*
X133578426Y-121988810D01*
X133578424Y-121988811D01*
X133400762Y-122127091D01*
X133248279Y-122292729D01*
X133159483Y-122428643D01*
X133105479Y-122474731D01*
X133035131Y-122484306D01*
X132970774Y-122454329D01*
X132948517Y-122428643D01*
X132859720Y-122292729D01*
X132743570Y-122166559D01*
X132707240Y-122127094D01*
X132707239Y-122127093D01*
X132707237Y-122127091D01*
X132598497Y-122042455D01*
X132529576Y-121988811D01*
X132496319Y-121970813D01*
X132445929Y-121920802D01*
X132430576Y-121851485D01*
X132455136Y-121784872D01*
X132496320Y-121749186D01*
X132496847Y-121748901D01*
X132529576Y-121731189D01*
X132707240Y-121592906D01*
X132859722Y-121427268D01*
X132859927Y-121426955D01*
X132865115Y-121419012D01*
X132948518Y-121291354D01*
X133002520Y-121245268D01*
X133072868Y-121235692D01*
X133137225Y-121265669D01*
G37*
%TD.AperFunction*%
%TA.AperFunction,Conductor*%
G36*
X135677524Y-121265212D02*
G01*
X135699782Y-121290898D01*
X135788674Y-121426958D01*
X135941097Y-121592534D01*
X136118698Y-121730767D01*
X136118704Y-121730771D01*
X136152207Y-121748902D01*
X136202597Y-121798915D01*
X136217949Y-121868232D01*
X136193388Y-121934845D01*
X136152207Y-121970528D01*
X136118430Y-121988807D01*
X136118424Y-121988811D01*
X135940762Y-122127091D01*
X135788279Y-122292729D01*
X135699483Y-122428643D01*
X135645479Y-122474731D01*
X135575131Y-122484306D01*
X135510774Y-122454329D01*
X135488517Y-122428643D01*
X135399720Y-122292729D01*
X135283570Y-122166559D01*
X135247240Y-122127094D01*
X135247239Y-122127093D01*
X135247237Y-122127091D01*
X135138497Y-122042455D01*
X135069576Y-121988811D01*
X135036319Y-121970813D01*
X134985929Y-121920802D01*
X134970576Y-121851485D01*
X134995136Y-121784872D01*
X135036320Y-121749186D01*
X135036847Y-121748901D01*
X135069576Y-121731189D01*
X135247240Y-121592906D01*
X135399722Y-121427268D01*
X135399927Y-121426955D01*
X135456851Y-121339825D01*
X135488816Y-121290898D01*
X135542819Y-121244810D01*
X135613167Y-121235235D01*
X135677524Y-121265212D01*
G37*
%TD.AperFunction*%
%TA.AperFunction,Conductor*%
G36*
X138216925Y-121265212D02*
G01*
X138239183Y-121290898D01*
X138328279Y-121427270D01*
X138480762Y-121592908D01*
X138535331Y-121635381D01*
X138658424Y-121731189D01*
X138691153Y-121748901D01*
X138691680Y-121749186D01*
X138742071Y-121799200D01*
X138757423Y-121868516D01*
X138732862Y-121935129D01*
X138691680Y-121970813D01*
X138658426Y-121988810D01*
X138658424Y-121988811D01*
X138480762Y-122127091D01*
X138328279Y-122292729D01*
X138239483Y-122428643D01*
X138185479Y-122474731D01*
X138115131Y-122484306D01*
X138050774Y-122454329D01*
X138028517Y-122428643D01*
X137939720Y-122292729D01*
X137823570Y-122166559D01*
X137787240Y-122127094D01*
X137787239Y-122127093D01*
X137787237Y-122127091D01*
X137678497Y-122042455D01*
X137609576Y-121988811D01*
X137575792Y-121970528D01*
X137525402Y-121920516D01*
X137510050Y-121851199D01*
X137534610Y-121784586D01*
X137575793Y-121748901D01*
X137609300Y-121730767D01*
X137609301Y-121730767D01*
X137786902Y-121592534D01*
X137939327Y-121426955D01*
X138028217Y-121290899D01*
X138082220Y-121244810D01*
X138152568Y-121235235D01*
X138216925Y-121265212D01*
G37*
%TD.AperFunction*%
%TA.AperFunction,Conductor*%
G36*
X140757225Y-121265669D02*
G01*
X140779480Y-121291353D01*
X140811149Y-121339825D01*
X140868275Y-121427265D01*
X140868279Y-121427270D01*
X141020762Y-121592908D01*
X141075331Y-121635381D01*
X141198424Y-121731189D01*
X141231153Y-121748901D01*
X141231680Y-121749186D01*
X141282071Y-121799200D01*
X141297423Y-121868516D01*
X141272862Y-121935129D01*
X141231680Y-121970813D01*
X141198426Y-121988810D01*
X141198424Y-121988811D01*
X141020762Y-122127091D01*
X140868279Y-122292729D01*
X140779483Y-122428643D01*
X140725479Y-122474731D01*
X140655131Y-122484306D01*
X140590774Y-122454329D01*
X140568517Y-122428643D01*
X140479720Y-122292729D01*
X140363570Y-122166559D01*
X140327240Y-122127094D01*
X140327239Y-122127093D01*
X140327237Y-122127091D01*
X140218497Y-122042455D01*
X140149576Y-121988811D01*
X140116319Y-121970813D01*
X140065929Y-121920802D01*
X140050576Y-121851485D01*
X140075136Y-121784872D01*
X140116320Y-121749186D01*
X140116847Y-121748901D01*
X140149576Y-121731189D01*
X140327240Y-121592906D01*
X140479722Y-121427268D01*
X140479927Y-121426955D01*
X140485115Y-121419012D01*
X140568518Y-121291354D01*
X140622520Y-121245268D01*
X140692868Y-121235692D01*
X140757225Y-121265669D01*
G37*
%TD.AperFunction*%
%TA.AperFunction,Conductor*%
G36*
X143297225Y-121265669D02*
G01*
X143319480Y-121291353D01*
X143351149Y-121339825D01*
X143408275Y-121427265D01*
X143408279Y-121427270D01*
X143560762Y-121592908D01*
X143615331Y-121635381D01*
X143738424Y-121731189D01*
X143771153Y-121748901D01*
X143771680Y-121749186D01*
X143822071Y-121799200D01*
X143837423Y-121868516D01*
X143812862Y-121935129D01*
X143771680Y-121970813D01*
X143738426Y-121988810D01*
X143738424Y-121988811D01*
X143560762Y-122127091D01*
X143408279Y-122292729D01*
X143319483Y-122428643D01*
X143265479Y-122474731D01*
X143195131Y-122484306D01*
X143130774Y-122454329D01*
X143108517Y-122428643D01*
X143019720Y-122292729D01*
X142903570Y-122166559D01*
X142867240Y-122127094D01*
X142867239Y-122127093D01*
X142867237Y-122127091D01*
X142758497Y-122042455D01*
X142689576Y-121988811D01*
X142656319Y-121970813D01*
X142605929Y-121920802D01*
X142590576Y-121851485D01*
X142615136Y-121784872D01*
X142656320Y-121749186D01*
X142656847Y-121748901D01*
X142689576Y-121731189D01*
X142867240Y-121592906D01*
X143019722Y-121427268D01*
X143019927Y-121426955D01*
X143025115Y-121419012D01*
X143108518Y-121291354D01*
X143162520Y-121245268D01*
X143232868Y-121235692D01*
X143297225Y-121265669D01*
G37*
%TD.AperFunction*%
%TA.AperFunction,Conductor*%
G36*
X145837225Y-121265669D02*
G01*
X145859480Y-121291353D01*
X145891149Y-121339825D01*
X145948275Y-121427265D01*
X145948279Y-121427270D01*
X146100762Y-121592908D01*
X146155331Y-121635381D01*
X146278424Y-121731189D01*
X146311153Y-121748901D01*
X146311680Y-121749186D01*
X146362071Y-121799200D01*
X146377423Y-121868516D01*
X146352862Y-121935129D01*
X146311680Y-121970813D01*
X146278426Y-121988810D01*
X146278424Y-121988811D01*
X146100762Y-122127091D01*
X145948279Y-122292729D01*
X145859483Y-122428643D01*
X145805479Y-122474731D01*
X145735131Y-122484306D01*
X145670774Y-122454329D01*
X145648517Y-122428643D01*
X145559720Y-122292729D01*
X145443570Y-122166559D01*
X145407240Y-122127094D01*
X145407239Y-122127093D01*
X145407237Y-122127091D01*
X145298497Y-122042455D01*
X145229576Y-121988811D01*
X145196319Y-121970813D01*
X145145929Y-121920802D01*
X145130576Y-121851485D01*
X145155136Y-121784872D01*
X145196320Y-121749186D01*
X145196847Y-121748901D01*
X145229576Y-121731189D01*
X145407240Y-121592906D01*
X145559722Y-121427268D01*
X145559927Y-121426955D01*
X145565115Y-121419012D01*
X145648518Y-121291354D01*
X145702520Y-121245268D01*
X145772868Y-121235692D01*
X145837225Y-121265669D01*
G37*
%TD.AperFunction*%
%TA.AperFunction,Conductor*%
G36*
X148377225Y-121265669D02*
G01*
X148399480Y-121291353D01*
X148431149Y-121339825D01*
X148488275Y-121427265D01*
X148488279Y-121427270D01*
X148640762Y-121592908D01*
X148695331Y-121635381D01*
X148818424Y-121731189D01*
X148851153Y-121748901D01*
X148851680Y-121749186D01*
X148902071Y-121799200D01*
X148917423Y-121868516D01*
X148892862Y-121935129D01*
X148851680Y-121970813D01*
X148818426Y-121988810D01*
X148818424Y-121988811D01*
X148640762Y-122127091D01*
X148488279Y-122292729D01*
X148399483Y-122428643D01*
X148345479Y-122474731D01*
X148275131Y-122484306D01*
X148210774Y-122454329D01*
X148188517Y-122428643D01*
X148099720Y-122292729D01*
X147983570Y-122166559D01*
X147947240Y-122127094D01*
X147947239Y-122127093D01*
X147947237Y-122127091D01*
X147838497Y-122042455D01*
X147769576Y-121988811D01*
X147736319Y-121970813D01*
X147685929Y-121920802D01*
X147670576Y-121851485D01*
X147695136Y-121784872D01*
X147736320Y-121749186D01*
X147736847Y-121748901D01*
X147769576Y-121731189D01*
X147947240Y-121592906D01*
X148099722Y-121427268D01*
X148099927Y-121426955D01*
X148105115Y-121419012D01*
X148188518Y-121291354D01*
X148242520Y-121245268D01*
X148312868Y-121235692D01*
X148377225Y-121265669D01*
G37*
%TD.AperFunction*%
%TA.AperFunction,Conductor*%
G36*
X150917225Y-121265669D02*
G01*
X150939480Y-121291353D01*
X150971149Y-121339825D01*
X151028275Y-121427265D01*
X151028279Y-121427270D01*
X151180762Y-121592908D01*
X151235331Y-121635381D01*
X151358424Y-121731189D01*
X151391153Y-121748901D01*
X151391680Y-121749186D01*
X151442071Y-121799200D01*
X151457423Y-121868516D01*
X151432862Y-121935129D01*
X151391680Y-121970813D01*
X151358426Y-121988810D01*
X151358424Y-121988811D01*
X151180762Y-122127091D01*
X151028279Y-122292729D01*
X150939483Y-122428643D01*
X150885479Y-122474731D01*
X150815131Y-122484306D01*
X150750774Y-122454329D01*
X150728517Y-122428643D01*
X150639720Y-122292729D01*
X150523570Y-122166559D01*
X150487240Y-122127094D01*
X150487239Y-122127093D01*
X150487237Y-122127091D01*
X150378497Y-122042455D01*
X150309576Y-121988811D01*
X150276319Y-121970813D01*
X150225929Y-121920802D01*
X150210576Y-121851485D01*
X150235136Y-121784872D01*
X150276320Y-121749186D01*
X150276847Y-121748901D01*
X150309576Y-121731189D01*
X150487240Y-121592906D01*
X150639722Y-121427268D01*
X150639927Y-121426955D01*
X150645115Y-121419012D01*
X150728518Y-121291354D01*
X150782520Y-121245268D01*
X150852868Y-121235692D01*
X150917225Y-121265669D01*
G37*
%TD.AperFunction*%
%TA.AperFunction,Conductor*%
G36*
X153457225Y-121265669D02*
G01*
X153479480Y-121291353D01*
X153511149Y-121339825D01*
X153568275Y-121427265D01*
X153568279Y-121427270D01*
X153720762Y-121592908D01*
X153775331Y-121635381D01*
X153898424Y-121731189D01*
X153931153Y-121748901D01*
X153931680Y-121749186D01*
X153982071Y-121799200D01*
X153997423Y-121868516D01*
X153972862Y-121935129D01*
X153931680Y-121970813D01*
X153898426Y-121988810D01*
X153898424Y-121988811D01*
X153720762Y-122127091D01*
X153568279Y-122292729D01*
X153479483Y-122428643D01*
X153425479Y-122474731D01*
X153355131Y-122484306D01*
X153290774Y-122454329D01*
X153268517Y-122428643D01*
X153179720Y-122292729D01*
X153063570Y-122166559D01*
X153027240Y-122127094D01*
X153027239Y-122127093D01*
X153027237Y-122127091D01*
X152918497Y-122042455D01*
X152849576Y-121988811D01*
X152816319Y-121970813D01*
X152765929Y-121920802D01*
X152750576Y-121851485D01*
X152775136Y-121784872D01*
X152816320Y-121749186D01*
X152816847Y-121748901D01*
X152849576Y-121731189D01*
X153027240Y-121592906D01*
X153179722Y-121427268D01*
X153179927Y-121426955D01*
X153185115Y-121419012D01*
X153268518Y-121291354D01*
X153322520Y-121245268D01*
X153392868Y-121235692D01*
X153457225Y-121265669D01*
G37*
%TD.AperFunction*%
%TA.AperFunction,Conductor*%
G36*
X155760441Y-121491787D02*
G01*
X155818986Y-121531949D01*
X155839380Y-121567529D01*
X155883553Y-121685961D01*
X155883555Y-121685965D01*
X155971095Y-121802904D01*
X156088034Y-121890444D01*
X156203172Y-121933388D01*
X156260008Y-121975935D01*
X156284819Y-122042455D01*
X156269728Y-122111829D01*
X156251841Y-122136782D01*
X156108280Y-122292729D01*
X156108279Y-122292729D01*
X156019483Y-122428643D01*
X155965479Y-122474731D01*
X155895131Y-122484306D01*
X155830774Y-122454329D01*
X155808517Y-122428643D01*
X155719720Y-122292729D01*
X155603570Y-122166559D01*
X155567240Y-122127094D01*
X155567239Y-122127093D01*
X155567237Y-122127091D01*
X155458497Y-122042455D01*
X155389576Y-121988811D01*
X155356319Y-121970813D01*
X155305929Y-121920802D01*
X155290576Y-121851485D01*
X155315136Y-121784872D01*
X155356320Y-121749186D01*
X155356847Y-121748901D01*
X155389576Y-121731189D01*
X155567240Y-121592906D01*
X155628626Y-121526222D01*
X155689476Y-121489654D01*
X155760441Y-121491787D01*
G37*
%TD.AperFunction*%
%TA.AperFunction,Conductor*%
G36*
X141693690Y-117506202D02*
G01*
X141740183Y-117559858D01*
X141750776Y-117598088D01*
X141751582Y-117605239D01*
X141751584Y-117605252D01*
X141811757Y-117777215D01*
X141811758Y-117777218D01*
X141908687Y-117931479D01*
X141908688Y-117931481D01*
X142037518Y-118060311D01*
X142037520Y-118060312D01*
X142191781Y-118157241D01*
X142191782Y-118157241D01*
X142191785Y-118157243D01*
X142363753Y-118217417D01*
X142408250Y-118222430D01*
X142473702Y-118249932D01*
X142483239Y-118258543D01*
X143297329Y-119072633D01*
X143385567Y-119160871D01*
X143489325Y-119230200D01*
X143581922Y-119268555D01*
X143604612Y-119277954D01*
X143604613Y-119277954D01*
X143604615Y-119277955D01*
X143615759Y-119280171D01*
X143678668Y-119313078D01*
X143713800Y-119374773D01*
X143710000Y-119445668D01*
X143668569Y-119503181D01*
X143560763Y-119587090D01*
X143408279Y-119752729D01*
X143319483Y-119888643D01*
X143265479Y-119934731D01*
X143195131Y-119944306D01*
X143130774Y-119914329D01*
X143108517Y-119888643D01*
X143019720Y-119752729D01*
X142890600Y-119612470D01*
X142867240Y-119587094D01*
X142867239Y-119587093D01*
X142867237Y-119587091D01*
X142747684Y-119494039D01*
X142689576Y-119448811D01*
X142491574Y-119341658D01*
X142491572Y-119341657D01*
X142491571Y-119341656D01*
X142278639Y-119268557D01*
X142278630Y-119268555D01*
X142201029Y-119255606D01*
X142056569Y-119231500D01*
X141831431Y-119231500D01*
X141686971Y-119255606D01*
X141609369Y-119268555D01*
X141609360Y-119268557D01*
X141396428Y-119341656D01*
X141396426Y-119341658D01*
X141255996Y-119417655D01*
X141198426Y-119448810D01*
X141198424Y-119448811D01*
X141020762Y-119587091D01*
X140868279Y-119752729D01*
X140779483Y-119888643D01*
X140725479Y-119934731D01*
X140655131Y-119944306D01*
X140590774Y-119914329D01*
X140568517Y-119888643D01*
X140479720Y-119752729D01*
X140350600Y-119612470D01*
X140327240Y-119587094D01*
X140327239Y-119587093D01*
X140327237Y-119587091D01*
X140207684Y-119494039D01*
X140149576Y-119448811D01*
X139951574Y-119341658D01*
X139951572Y-119341657D01*
X139951571Y-119341656D01*
X139738639Y-119268557D01*
X139738630Y-119268555D01*
X139661029Y-119255606D01*
X139516569Y-119231500D01*
X139291431Y-119231500D01*
X139146971Y-119255606D01*
X139069369Y-119268555D01*
X139069360Y-119268557D01*
X138856428Y-119341656D01*
X138856426Y-119341658D01*
X138715996Y-119417655D01*
X138658426Y-119448810D01*
X138658424Y-119448811D01*
X138480762Y-119587091D01*
X138328279Y-119752729D01*
X138239183Y-119889101D01*
X138185179Y-119935189D01*
X138114831Y-119944764D01*
X138050474Y-119914786D01*
X138028217Y-119889100D01*
X137939327Y-119753044D01*
X137786902Y-119587465D01*
X137609301Y-119449232D01*
X137609300Y-119449231D01*
X137411371Y-119342117D01*
X137411369Y-119342116D01*
X137198512Y-119269043D01*
X137198501Y-119269040D01*
X137118000Y-119255606D01*
X137118000Y-120159297D01*
X137056993Y-120124075D01*
X136929826Y-120090000D01*
X136798174Y-120090000D01*
X136671007Y-120124075D01*
X136610000Y-120159297D01*
X136610000Y-119255607D01*
X136609999Y-119255606D01*
X136529498Y-119269040D01*
X136529487Y-119269043D01*
X136316630Y-119342116D01*
X136316628Y-119342117D01*
X136118699Y-119449231D01*
X136118698Y-119449232D01*
X135941097Y-119587465D01*
X135788670Y-119753045D01*
X135699780Y-119889101D01*
X135645776Y-119935189D01*
X135575428Y-119944764D01*
X135511071Y-119914786D01*
X135488816Y-119889101D01*
X135417853Y-119780483D01*
X135399724Y-119752734D01*
X135399720Y-119752729D01*
X135270600Y-119612470D01*
X135247240Y-119587094D01*
X135247239Y-119587093D01*
X135247237Y-119587091D01*
X135127684Y-119494039D01*
X135069576Y-119448811D01*
X134871574Y-119341658D01*
X134871572Y-119341657D01*
X134871571Y-119341656D01*
X134658639Y-119268557D01*
X134658630Y-119268555D01*
X134581029Y-119255606D01*
X134436569Y-119231500D01*
X134211431Y-119231500D01*
X134066971Y-119255606D01*
X133989369Y-119268555D01*
X133989360Y-119268557D01*
X133776428Y-119341656D01*
X133776426Y-119341658D01*
X133635996Y-119417655D01*
X133578426Y-119448810D01*
X133578424Y-119448811D01*
X133400762Y-119587091D01*
X133248279Y-119752729D01*
X133159483Y-119888643D01*
X133105479Y-119934731D01*
X133035131Y-119944306D01*
X132970774Y-119914329D01*
X132948517Y-119888643D01*
X132859720Y-119752729D01*
X132730600Y-119612470D01*
X132707240Y-119587094D01*
X132707239Y-119587093D01*
X132707237Y-119587091D01*
X132587684Y-119494039D01*
X132529576Y-119448811D01*
X132331574Y-119341658D01*
X132331572Y-119341657D01*
X132331571Y-119341656D01*
X132118639Y-119268557D01*
X132118630Y-119268555D01*
X132041029Y-119255606D01*
X131896569Y-119231500D01*
X131671431Y-119231500D01*
X131526971Y-119255606D01*
X131449369Y-119268555D01*
X131449360Y-119268557D01*
X131236428Y-119341656D01*
X131236426Y-119341658D01*
X131095996Y-119417655D01*
X131038426Y-119448810D01*
X131038424Y-119448811D01*
X130860762Y-119587091D01*
X130708279Y-119752729D01*
X130619483Y-119888643D01*
X130565479Y-119934731D01*
X130495131Y-119944306D01*
X130430774Y-119914329D01*
X130408517Y-119888643D01*
X130319720Y-119752729D01*
X130190600Y-119612470D01*
X130167240Y-119587094D01*
X130167239Y-119587093D01*
X130167237Y-119587091D01*
X130047684Y-119494039D01*
X129989576Y-119448811D01*
X129791574Y-119341658D01*
X129791572Y-119341657D01*
X129791571Y-119341656D01*
X129578639Y-119268557D01*
X129578630Y-119268555D01*
X129501029Y-119255606D01*
X129356569Y-119231500D01*
X129262594Y-119231500D01*
X129194473Y-119211498D01*
X129147980Y-119157842D01*
X129137876Y-119087568D01*
X129167370Y-119022988D01*
X129173499Y-119016404D01*
X129198912Y-118990991D01*
X129485973Y-118703931D01*
X129555302Y-118600173D01*
X129557127Y-118595767D01*
X129603057Y-118484883D01*
X129610341Y-118448258D01*
X129627233Y-118405804D01*
X129630010Y-118401383D01*
X129630013Y-118401381D01*
X129726945Y-118247115D01*
X129787119Y-118075147D01*
X129788590Y-118062093D01*
X129816093Y-117996640D01*
X129874616Y-117956446D01*
X129913798Y-117950199D01*
X138618080Y-117950199D01*
X138686201Y-117970201D01*
X138732694Y-118023857D01*
X138737009Y-118034584D01*
X138789157Y-118183615D01*
X138789158Y-118183618D01*
X138886087Y-118337879D01*
X138886088Y-118337881D01*
X139014918Y-118466711D01*
X139014920Y-118466712D01*
X139169181Y-118563641D01*
X139169182Y-118563641D01*
X139169185Y-118563643D01*
X139341153Y-118623817D01*
X139522200Y-118644216D01*
X139703247Y-118623817D01*
X139875215Y-118563643D01*
X140029481Y-118466711D01*
X140158311Y-118337881D01*
X140255243Y-118183615D01*
X140315417Y-118011647D01*
X140335816Y-117830600D01*
X140315417Y-117649553D01*
X140315413Y-117649544D01*
X140313842Y-117642654D01*
X140316311Y-117642090D01*
X140313286Y-117582922D01*
X140348569Y-117521314D01*
X140411559Y-117488561D01*
X140435837Y-117486200D01*
X141625569Y-117486200D01*
X141693690Y-117506202D01*
G37*
%TD.AperFunction*%
%TA.AperFunction,Conductor*%
G36*
X105177133Y-107262697D02*
G01*
X105233968Y-107305244D01*
X105258779Y-107371764D01*
X105259100Y-107380753D01*
X105259100Y-111821862D01*
X105239787Y-111888898D01*
X105159558Y-112016581D01*
X105159557Y-112016584D01*
X105106687Y-112167680D01*
X105099383Y-112188553D01*
X105078984Y-112369600D01*
X105093584Y-112499181D01*
X105097355Y-112532644D01*
X105085106Y-112602576D01*
X105036993Y-112654784D01*
X104968292Y-112672693D01*
X104900815Y-112650616D01*
X104883052Y-112635847D01*
X103232244Y-110985039D01*
X103198218Y-110922727D01*
X103195339Y-110895944D01*
X103195339Y-108298490D01*
X103215341Y-108230369D01*
X103268997Y-108183876D01*
X103339271Y-108173772D01*
X103388375Y-108191803D01*
X103499441Y-108261590D01*
X103535525Y-108284263D01*
X103707493Y-108344437D01*
X103888540Y-108364836D01*
X104069587Y-108344437D01*
X104241555Y-108284263D01*
X104395821Y-108187331D01*
X104524651Y-108058501D01*
X104621583Y-107904235D01*
X104681757Y-107732267D01*
X104686770Y-107687768D01*
X104714272Y-107622316D01*
X104722864Y-107612798D01*
X105044007Y-107291655D01*
X105106317Y-107257632D01*
X105177133Y-107262697D01*
G37*
%TD.AperFunction*%
%TA.AperFunction,Conductor*%
G36*
X162557525Y-95410697D02*
G01*
X162877176Y-95428649D01*
X162891212Y-95430230D01*
X163203357Y-95483266D01*
X163217115Y-95486406D01*
X163521362Y-95574058D01*
X163534696Y-95578724D01*
X163827202Y-95699884D01*
X163839933Y-95706015D01*
X164117032Y-95859162D01*
X164128996Y-95866679D01*
X164387213Y-96049894D01*
X164398260Y-96058704D01*
X164634334Y-96269674D01*
X164644325Y-96279665D01*
X164855295Y-96515739D01*
X164864105Y-96526786D01*
X165047320Y-96785003D01*
X165054837Y-96796967D01*
X165207984Y-97074066D01*
X165214115Y-97086797D01*
X165335275Y-97379303D01*
X165339942Y-97392640D01*
X165427591Y-97696876D01*
X165430735Y-97710651D01*
X165483768Y-98022785D01*
X165485350Y-98036826D01*
X165503302Y-98356474D01*
X165503500Y-98363539D01*
X165503500Y-122356460D01*
X165503302Y-122363525D01*
X165485350Y-122683173D01*
X165483768Y-122697214D01*
X165430735Y-123009348D01*
X165427591Y-123023123D01*
X165339942Y-123327359D01*
X165335275Y-123340696D01*
X165214115Y-123633202D01*
X165207984Y-123645933D01*
X165054837Y-123923032D01*
X165047320Y-123934996D01*
X164864105Y-124193213D01*
X164855295Y-124204260D01*
X164644325Y-124440334D01*
X164634334Y-124450325D01*
X164398260Y-124661295D01*
X164387213Y-124670105D01*
X164128996Y-124853320D01*
X164117032Y-124860837D01*
X163839933Y-125013984D01*
X163827202Y-125020115D01*
X163534696Y-125141275D01*
X163521359Y-125145942D01*
X163217123Y-125233591D01*
X163203348Y-125236735D01*
X162891214Y-125289768D01*
X162877173Y-125291350D01*
X162557526Y-125309302D01*
X162550461Y-125309500D01*
X103557539Y-125309500D01*
X103550474Y-125309302D01*
X103230826Y-125291350D01*
X103216785Y-125289768D01*
X102904651Y-125236735D01*
X102890876Y-125233591D01*
X102586640Y-125145942D01*
X102573303Y-125141275D01*
X102280797Y-125020115D01*
X102268066Y-125013984D01*
X101990967Y-124860837D01*
X101979003Y-124853320D01*
X101720786Y-124670105D01*
X101709739Y-124661295D01*
X101473665Y-124450325D01*
X101463674Y-124440334D01*
X101252704Y-124204260D01*
X101243894Y-124193213D01*
X101060679Y-123934996D01*
X101053162Y-123923032D01*
X100900015Y-123645933D01*
X100893884Y-123633202D01*
X100781605Y-123362137D01*
X100772723Y-123340694D01*
X100768057Y-123327359D01*
X100687687Y-123048388D01*
X100680406Y-123023115D01*
X100677266Y-123009357D01*
X100624230Y-122697212D01*
X100622649Y-122683173D01*
X100604698Y-122363525D01*
X100604500Y-122356460D01*
X100604500Y-121685878D01*
X100953500Y-121685878D01*
X100953500Y-122034121D01*
X100992491Y-122380174D01*
X101015552Y-122481209D01*
X101069982Y-122719681D01*
X101069984Y-122719687D01*
X101069983Y-122719687D01*
X101184991Y-123048361D01*
X101185002Y-123048388D01*
X101336091Y-123362128D01*
X101336096Y-123362137D01*
X101521372Y-123657000D01*
X101521375Y-123657004D01*
X101738489Y-123929259D01*
X101984740Y-124175510D01*
X102256995Y-124392624D01*
X102257003Y-124392630D01*
X102551867Y-124577906D01*
X102865621Y-124729002D01*
X102865637Y-124729007D01*
X102865638Y-124729008D01*
X103194312Y-124844016D01*
X103194315Y-124844016D01*
X103194319Y-124844018D01*
X103533829Y-124921509D01*
X103779210Y-124949157D01*
X103879878Y-124960500D01*
X103879880Y-124960500D01*
X104228122Y-124960500D01*
X104316006Y-124950597D01*
X104574171Y-124921509D01*
X104913681Y-124844018D01*
X105242379Y-124729002D01*
X105556133Y-124577906D01*
X105850997Y-124392630D01*
X106003281Y-124271188D01*
X106123259Y-124175510D01*
X106369510Y-123929259D01*
X106586624Y-123657004D01*
X106586630Y-123656997D01*
X106771906Y-123362133D01*
X106923002Y-123048379D01*
X107038018Y-122719681D01*
X107115509Y-122380171D01*
X107154500Y-122034120D01*
X107154500Y-121685880D01*
X107115509Y-121339829D01*
X107038018Y-121000319D01*
X106923419Y-120672814D01*
X106923008Y-120671638D01*
X106923007Y-120671637D01*
X106923002Y-120671621D01*
X106771906Y-120357867D01*
X106586630Y-120063003D01*
X106586624Y-120062995D01*
X106369510Y-119790740D01*
X106123262Y-119544492D01*
X106114620Y-119537601D01*
X106073831Y-119479491D01*
X106073812Y-119479049D01*
X106033132Y-119470200D01*
X106014958Y-119458123D01*
X105851004Y-119327375D01*
X105851000Y-119327372D01*
X105837994Y-119319200D01*
X105790815Y-119289555D01*
X105556137Y-119142096D01*
X105556128Y-119142091D01*
X105242388Y-118991002D01*
X105242383Y-118991000D01*
X105242379Y-118990998D01*
X105242373Y-118990995D01*
X105242361Y-118990991D01*
X104913687Y-118875983D01*
X104574174Y-118798491D01*
X104228122Y-118759500D01*
X104228120Y-118759500D01*
X103879880Y-118759500D01*
X103879878Y-118759500D01*
X103533825Y-118798491D01*
X103194312Y-118875983D01*
X102865638Y-118990991D01*
X102865611Y-118991002D01*
X102551871Y-119142091D01*
X102551862Y-119142096D01*
X102256999Y-119327372D01*
X102256995Y-119327375D01*
X101984740Y-119544489D01*
X101738489Y-119790740D01*
X101521375Y-120062995D01*
X101521372Y-120062999D01*
X101336096Y-120357862D01*
X101336091Y-120357871D01*
X101185002Y-120671611D01*
X101184991Y-120671638D01*
X101069983Y-121000312D01*
X100992491Y-121339825D01*
X100953500Y-121685878D01*
X100604500Y-121685878D01*
X100604500Y-98685878D01*
X100953500Y-98685878D01*
X100953500Y-99034121D01*
X100992491Y-99380174D01*
X101006628Y-99442109D01*
X101069982Y-99719681D01*
X101069984Y-99719687D01*
X101069983Y-99719687D01*
X101184991Y-100048361D01*
X101185002Y-100048388D01*
X101336091Y-100362128D01*
X101336096Y-100362137D01*
X101521372Y-100657000D01*
X101521375Y-100657004D01*
X101738489Y-100929259D01*
X101984740Y-101175510D01*
X102256995Y-101392624D01*
X102257003Y-101392630D01*
X102551867Y-101577906D01*
X102865621Y-101729002D01*
X102865637Y-101729007D01*
X102865638Y-101729008D01*
X103148216Y-101827886D01*
X103205908Y-101869264D01*
X103232070Y-101935264D01*
X103218397Y-102004932D01*
X103195697Y-102035910D01*
X103122886Y-102108721D01*
X103025958Y-102262981D01*
X103025957Y-102262984D01*
X103016838Y-102289047D01*
X102965783Y-102434953D01*
X102945384Y-102616000D01*
X102965783Y-102797047D01*
X102965783Y-102797049D01*
X102965784Y-102797050D01*
X103025957Y-102969015D01*
X103025958Y-102969018D01*
X103122887Y-103123279D01*
X103122888Y-103123281D01*
X103251718Y-103252111D01*
X103251720Y-103252112D01*
X103405981Y-103349041D01*
X103405982Y-103349041D01*
X103405985Y-103349043D01*
X103577953Y-103409217D01*
X103759000Y-103429616D01*
X103940047Y-103409217D01*
X104112015Y-103349043D01*
X104215271Y-103284163D01*
X104239701Y-103268813D01*
X104306737Y-103249500D01*
X104465406Y-103249500D01*
X104533527Y-103269502D01*
X104580020Y-103323158D01*
X104590124Y-103393432D01*
X104560630Y-103458012D01*
X104554501Y-103464595D01*
X101307931Y-106711164D01*
X101307926Y-106711171D01*
X101239372Y-106813770D01*
X101238600Y-106814925D01*
X101237886Y-106816649D01*
X101190846Y-106930212D01*
X101166500Y-107052603D01*
X101166500Y-114852262D01*
X101147187Y-114919298D01*
X101066958Y-115046981D01*
X101066957Y-115046984D01*
X101011691Y-115204928D01*
X101006783Y-115218953D01*
X100986384Y-115400000D01*
X101006783Y-115581047D01*
X101006783Y-115581049D01*
X101006784Y-115581050D01*
X101066957Y-115753015D01*
X101066958Y-115753018D01*
X101163887Y-115907279D01*
X101163888Y-115907281D01*
X101292718Y-116036111D01*
X101292720Y-116036112D01*
X101446981Y-116133041D01*
X101446982Y-116133041D01*
X101446985Y-116133043D01*
X101618953Y-116193217D01*
X101800000Y-116213616D01*
X101981047Y-116193217D01*
X102153015Y-116133043D01*
X102307281Y-116036111D01*
X102436111Y-115907281D01*
X102533043Y-115753015D01*
X102593217Y-115581047D01*
X102613616Y-115400000D01*
X102593217Y-115218953D01*
X102533043Y-115046985D01*
X102533041Y-115046982D01*
X102533041Y-115046981D01*
X102452813Y-114919298D01*
X102433500Y-114852262D01*
X102433500Y-112282294D01*
X102453502Y-112214173D01*
X102507158Y-112167680D01*
X102577432Y-112157576D01*
X102642012Y-112187070D01*
X102648593Y-112193197D01*
X103426820Y-112971425D01*
X104194655Y-113739260D01*
X104228681Y-113801572D01*
X104230767Y-113814243D01*
X104235782Y-113858739D01*
X104235784Y-113858752D01*
X104295957Y-114030715D01*
X104295958Y-114030718D01*
X104392887Y-114184979D01*
X104392888Y-114184981D01*
X104521718Y-114313811D01*
X104521720Y-114313812D01*
X104675981Y-114410741D01*
X104675982Y-114410741D01*
X104675985Y-114410743D01*
X104847953Y-114470917D01*
X105029000Y-114491316D01*
X105210047Y-114470917D01*
X105382015Y-114410743D01*
X105536281Y-114313811D01*
X105665111Y-114184981D01*
X105762043Y-114030715D01*
X105822217Y-113858747D01*
X105842616Y-113677700D01*
X105822217Y-113496653D01*
X105771192Y-113350831D01*
X105767573Y-113279927D01*
X105802862Y-113218321D01*
X105865855Y-113185575D01*
X105890121Y-113183216D01*
X105892597Y-113183216D01*
X105892598Y-113183215D01*
X105892600Y-113183216D01*
X106073647Y-113162817D01*
X106245615Y-113102643D01*
X106330058Y-113049584D01*
X106373301Y-113022413D01*
X106440337Y-113003100D01*
X109468499Y-113003100D01*
X109536620Y-113023102D01*
X109583113Y-113076758D01*
X109593706Y-113114990D01*
X109606783Y-113231047D01*
X109623887Y-113279927D01*
X109666957Y-113403015D01*
X109666958Y-113403017D01*
X109747187Y-113530701D01*
X109766500Y-113597737D01*
X109766500Y-115335735D01*
X109746498Y-115403856D01*
X109692842Y-115450349D01*
X109682116Y-115454664D01*
X109646982Y-115466958D01*
X109646981Y-115466958D01*
X109492720Y-115563887D01*
X109492718Y-115563888D01*
X109363888Y-115692718D01*
X109363887Y-115692720D01*
X109266958Y-115846981D01*
X109266957Y-115846984D01*
X109234616Y-115939412D01*
X109206783Y-116018953D01*
X109186384Y-116200000D01*
X109206783Y-116381047D01*
X109206783Y-116381049D01*
X109206784Y-116381050D01*
X109266957Y-116553015D01*
X109266958Y-116553018D01*
X109363887Y-116707279D01*
X109363888Y-116707281D01*
X109492718Y-116836111D01*
X109492720Y-116836112D01*
X109646981Y-116933041D01*
X109646982Y-116933041D01*
X109646985Y-116933043D01*
X109818953Y-116993217D01*
X110000000Y-117013616D01*
X110181047Y-116993217D01*
X110353015Y-116933043D01*
X110473406Y-116857395D01*
X110541723Y-116838091D01*
X110609636Y-116858786D01*
X110647126Y-116897048D01*
X110666687Y-116928179D01*
X110666688Y-116928181D01*
X110799595Y-117061088D01*
X110833621Y-117123400D01*
X110836500Y-117150183D01*
X110836500Y-119309831D01*
X110816498Y-119377952D01*
X110770471Y-119420644D01*
X110718426Y-119448810D01*
X110718424Y-119448811D01*
X110540762Y-119587091D01*
X110388279Y-119752729D01*
X110299483Y-119888643D01*
X110245479Y-119934731D01*
X110175131Y-119944306D01*
X110110774Y-119914329D01*
X110088517Y-119888643D01*
X109999720Y-119752729D01*
X109870600Y-119612470D01*
X109847240Y-119587094D01*
X109847239Y-119587093D01*
X109847237Y-119587091D01*
X109727684Y-119494039D01*
X109669576Y-119448811D01*
X109641620Y-119433681D01*
X109623529Y-119423891D01*
X109573139Y-119373877D01*
X109557500Y-119313078D01*
X109557500Y-119237507D01*
X109557499Y-119237503D01*
X109557260Y-119236300D01*
X109533155Y-119115115D01*
X109532794Y-119114243D01*
X109512470Y-119065176D01*
X109512469Y-119065175D01*
X109485401Y-118999825D01*
X109416072Y-118896067D01*
X108836433Y-118316429D01*
X108732675Y-118247100D01*
X108617385Y-118199345D01*
X108538305Y-118183615D01*
X108494996Y-118175000D01*
X108494994Y-118175000D01*
X106931095Y-118175000D01*
X106862974Y-118154998D01*
X106842000Y-118138095D01*
X106168143Y-117464238D01*
X106134117Y-117401926D01*
X106132032Y-117389264D01*
X106127017Y-117344753D01*
X106066843Y-117172785D01*
X106066841Y-117172782D01*
X106066841Y-117172781D01*
X105969912Y-117018520D01*
X105969911Y-117018518D01*
X105841081Y-116889688D01*
X105841079Y-116889687D01*
X105686818Y-116792758D01*
X105686815Y-116792757D01*
X105514850Y-116732584D01*
X105514849Y-116732583D01*
X105514847Y-116732583D01*
X105333800Y-116712184D01*
X105152753Y-116732583D01*
X105152750Y-116732583D01*
X105152749Y-116732584D01*
X104980784Y-116792757D01*
X104980781Y-116792758D01*
X104826520Y-116889687D01*
X104826518Y-116889688D01*
X104697688Y-117018518D01*
X104697687Y-117018520D01*
X104600758Y-117172781D01*
X104600757Y-117172784D01*
X104553915Y-117306653D01*
X104540583Y-117344753D01*
X104520184Y-117525800D01*
X104540583Y-117706847D01*
X104540583Y-117706849D01*
X104540584Y-117706850D01*
X104600757Y-117878815D01*
X104600758Y-117878818D01*
X104697687Y-118033079D01*
X104697688Y-118033081D01*
X104826518Y-118161911D01*
X104826520Y-118161912D01*
X104980781Y-118258841D01*
X104980782Y-118258841D01*
X104980785Y-118258843D01*
X105152753Y-118319017D01*
X105197253Y-118324030D01*
X105262704Y-118351534D01*
X105272238Y-118360143D01*
X106182612Y-119270517D01*
X106209196Y-119319200D01*
X106240799Y-119322435D01*
X106263179Y-119334324D01*
X106316421Y-119369899D01*
X106316423Y-119369900D01*
X106316425Y-119369901D01*
X106385712Y-119398600D01*
X106431715Y-119417655D01*
X106554106Y-119442000D01*
X106678894Y-119442000D01*
X107847076Y-119442000D01*
X107915197Y-119462002D01*
X107961690Y-119515658D01*
X107971794Y-119585932D01*
X107942300Y-119650512D01*
X107939777Y-119653338D01*
X107848280Y-119752729D01*
X107848275Y-119752734D01*
X107725141Y-119941206D01*
X107634703Y-120147386D01*
X107634702Y-120147387D01*
X107579437Y-120365624D01*
X107579436Y-120365630D01*
X107579436Y-120365632D01*
X107560844Y-120590000D01*
X107577095Y-120786121D01*
X107579437Y-120814375D01*
X107634702Y-121032612D01*
X107634703Y-121032613D01*
X107725141Y-121238793D01*
X107848275Y-121427265D01*
X107848279Y-121427270D01*
X108000762Y-121592908D01*
X108055331Y-121635381D01*
X108178424Y-121731189D01*
X108211153Y-121748901D01*
X108211680Y-121749186D01*
X108262071Y-121799200D01*
X108277423Y-121868516D01*
X108252862Y-121935129D01*
X108211680Y-121970813D01*
X108178426Y-121988810D01*
X108178424Y-121988811D01*
X108000762Y-122127091D01*
X107848279Y-122292729D01*
X107848275Y-122292734D01*
X107725141Y-122481206D01*
X107634703Y-122687386D01*
X107634702Y-122687387D01*
X107579437Y-122905624D01*
X107579437Y-122905627D01*
X107579436Y-122905632D01*
X107560844Y-123130000D01*
X107577761Y-123334158D01*
X107579437Y-123354375D01*
X107634702Y-123572612D01*
X107634703Y-123572613D01*
X107634704Y-123572616D01*
X107664147Y-123639740D01*
X107725141Y-123778793D01*
X107848275Y-123967265D01*
X107848279Y-123967270D01*
X108000762Y-124132908D01*
X108055331Y-124175381D01*
X108178424Y-124271189D01*
X108376426Y-124378342D01*
X108376427Y-124378342D01*
X108376428Y-124378343D01*
X108488227Y-124416723D01*
X108589365Y-124451444D01*
X108811431Y-124488500D01*
X108811435Y-124488500D01*
X109036565Y-124488500D01*
X109036569Y-124488500D01*
X109258635Y-124451444D01*
X109471574Y-124378342D01*
X109669576Y-124271189D01*
X109847240Y-124132906D01*
X109999722Y-123967268D01*
X110088518Y-123831354D01*
X110142520Y-123785268D01*
X110212868Y-123775692D01*
X110277225Y-123805669D01*
X110299480Y-123831353D01*
X110332607Y-123882058D01*
X110388275Y-123967265D01*
X110388279Y-123967270D01*
X110540762Y-124132908D01*
X110595331Y-124175381D01*
X110718424Y-124271189D01*
X110916426Y-124378342D01*
X110916427Y-124378342D01*
X110916428Y-124378343D01*
X111028227Y-124416723D01*
X111129365Y-124451444D01*
X111351431Y-124488500D01*
X111351435Y-124488500D01*
X111576565Y-124488500D01*
X111576569Y-124488500D01*
X111798635Y-124451444D01*
X112011574Y-124378342D01*
X112209576Y-124271189D01*
X112387240Y-124132906D01*
X112539722Y-123967268D01*
X112628518Y-123831354D01*
X112682520Y-123785268D01*
X112752868Y-123775692D01*
X112817225Y-123805669D01*
X112839480Y-123831353D01*
X112872607Y-123882058D01*
X112928275Y-123967265D01*
X112928279Y-123967270D01*
X113080762Y-124132908D01*
X113135331Y-124175381D01*
X113258424Y-124271189D01*
X113456426Y-124378342D01*
X113456427Y-124378342D01*
X113456428Y-124378343D01*
X113568227Y-124416723D01*
X113669365Y-124451444D01*
X113891431Y-124488500D01*
X113891435Y-124488500D01*
X114116565Y-124488500D01*
X114116569Y-124488500D01*
X114338635Y-124451444D01*
X114551574Y-124378342D01*
X114749576Y-124271189D01*
X114927240Y-124132906D01*
X115079722Y-123967268D01*
X115168518Y-123831354D01*
X115222520Y-123785268D01*
X115292868Y-123775692D01*
X115357225Y-123805669D01*
X115379480Y-123831353D01*
X115412607Y-123882058D01*
X115468275Y-123967265D01*
X115468279Y-123967270D01*
X115620762Y-124132908D01*
X115675331Y-124175381D01*
X115798424Y-124271189D01*
X115996426Y-124378342D01*
X115996427Y-124378342D01*
X115996428Y-124378343D01*
X116108227Y-124416723D01*
X116209365Y-124451444D01*
X116431431Y-124488500D01*
X116431435Y-124488500D01*
X116656565Y-124488500D01*
X116656569Y-124488500D01*
X116878635Y-124451444D01*
X117091574Y-124378342D01*
X117289576Y-124271189D01*
X117467240Y-124132906D01*
X117619722Y-123967268D01*
X117708518Y-123831354D01*
X117762520Y-123785268D01*
X117832868Y-123775692D01*
X117897225Y-123805669D01*
X117919480Y-123831353D01*
X117952607Y-123882058D01*
X118008275Y-123967265D01*
X118008279Y-123967270D01*
X118160762Y-124132908D01*
X118215331Y-124175381D01*
X118338424Y-124271189D01*
X118536426Y-124378342D01*
X118536427Y-124378342D01*
X118536428Y-124378343D01*
X118648227Y-124416723D01*
X118749365Y-124451444D01*
X118971431Y-124488500D01*
X118971435Y-124488500D01*
X119196565Y-124488500D01*
X119196569Y-124488500D01*
X119418635Y-124451444D01*
X119631574Y-124378342D01*
X119829576Y-124271189D01*
X120007240Y-124132906D01*
X120159722Y-123967268D01*
X120248518Y-123831354D01*
X120302520Y-123785268D01*
X120372868Y-123775692D01*
X120437225Y-123805669D01*
X120459480Y-123831353D01*
X120492607Y-123882058D01*
X120548275Y-123967265D01*
X120548279Y-123967270D01*
X120700762Y-124132908D01*
X120755331Y-124175381D01*
X120878424Y-124271189D01*
X121076426Y-124378342D01*
X121076427Y-124378342D01*
X121076428Y-124378343D01*
X121188227Y-124416723D01*
X121289365Y-124451444D01*
X121511431Y-124488500D01*
X121511435Y-124488500D01*
X121736565Y-124488500D01*
X121736569Y-124488500D01*
X121958635Y-124451444D01*
X122171574Y-124378342D01*
X122369576Y-124271189D01*
X122547240Y-124132906D01*
X122699722Y-123967268D01*
X122788518Y-123831354D01*
X122842520Y-123785268D01*
X122912868Y-123775692D01*
X122977225Y-123805669D01*
X122999480Y-123831353D01*
X123032607Y-123882058D01*
X123088275Y-123967265D01*
X123088279Y-123967270D01*
X123240762Y-124132908D01*
X123295331Y-124175381D01*
X123418424Y-124271189D01*
X123616426Y-124378342D01*
X123616427Y-124378342D01*
X123616428Y-124378343D01*
X123728227Y-124416723D01*
X123829365Y-124451444D01*
X124051431Y-124488500D01*
X124051435Y-124488500D01*
X124276565Y-124488500D01*
X124276569Y-124488500D01*
X124498635Y-124451444D01*
X124711574Y-124378342D01*
X124909576Y-124271189D01*
X125087240Y-124132906D01*
X125239722Y-123967268D01*
X125328518Y-123831354D01*
X125382520Y-123785268D01*
X125452868Y-123775692D01*
X125517225Y-123805669D01*
X125539480Y-123831353D01*
X125572607Y-123882058D01*
X125628275Y-123967265D01*
X125628279Y-123967270D01*
X125780762Y-124132908D01*
X125835331Y-124175381D01*
X125958424Y-124271189D01*
X126156426Y-124378342D01*
X126156427Y-124378342D01*
X126156428Y-124378343D01*
X126268227Y-124416723D01*
X126369365Y-124451444D01*
X126591431Y-124488500D01*
X126591435Y-124488500D01*
X126816565Y-124488500D01*
X126816569Y-124488500D01*
X127038635Y-124451444D01*
X127251574Y-124378342D01*
X127449576Y-124271189D01*
X127627240Y-124132906D01*
X127779722Y-123967268D01*
X127868518Y-123831354D01*
X127922520Y-123785268D01*
X127992868Y-123775692D01*
X128057225Y-123805669D01*
X128079480Y-123831353D01*
X128112607Y-123882058D01*
X128168275Y-123967265D01*
X128168279Y-123967270D01*
X128320762Y-124132908D01*
X128375331Y-124175381D01*
X128498424Y-124271189D01*
X128696426Y-124378342D01*
X128696427Y-124378342D01*
X128696428Y-124378343D01*
X128808227Y-124416723D01*
X128909365Y-124451444D01*
X129131431Y-124488500D01*
X129131435Y-124488500D01*
X129356565Y-124488500D01*
X129356569Y-124488500D01*
X129578635Y-124451444D01*
X129791574Y-124378342D01*
X129989576Y-124271189D01*
X130167240Y-124132906D01*
X130319722Y-123967268D01*
X130408518Y-123831354D01*
X130462520Y-123785268D01*
X130532868Y-123775692D01*
X130597225Y-123805669D01*
X130619480Y-123831353D01*
X130652607Y-123882058D01*
X130708275Y-123967265D01*
X130708279Y-123967270D01*
X130860762Y-124132908D01*
X130915331Y-124175381D01*
X131038424Y-124271189D01*
X131236426Y-124378342D01*
X131236427Y-124378342D01*
X131236428Y-124378343D01*
X131348227Y-124416723D01*
X131449365Y-124451444D01*
X131671431Y-124488500D01*
X131671435Y-124488500D01*
X131896565Y-124488500D01*
X131896569Y-124488500D01*
X132118635Y-124451444D01*
X132331574Y-124378342D01*
X132529576Y-124271189D01*
X132707240Y-124132906D01*
X132859722Y-123967268D01*
X132948518Y-123831354D01*
X133002520Y-123785268D01*
X133072868Y-123775692D01*
X133137225Y-123805669D01*
X133159480Y-123831353D01*
X133192607Y-123882058D01*
X133248275Y-123967265D01*
X133248279Y-123967270D01*
X133400762Y-124132908D01*
X133455331Y-124175381D01*
X133578424Y-124271189D01*
X133776426Y-124378342D01*
X133776427Y-124378342D01*
X133776428Y-124378343D01*
X133888227Y-124416723D01*
X133989365Y-124451444D01*
X134211431Y-124488500D01*
X134211435Y-124488500D01*
X134436565Y-124488500D01*
X134436569Y-124488500D01*
X134658635Y-124451444D01*
X134871574Y-124378342D01*
X135069576Y-124271189D01*
X135247240Y-124132906D01*
X135399722Y-123967268D01*
X135488518Y-123831354D01*
X135542520Y-123785268D01*
X135612868Y-123775692D01*
X135677225Y-123805669D01*
X135699480Y-123831353D01*
X135732607Y-123882058D01*
X135788275Y-123967265D01*
X135788279Y-123967270D01*
X135940762Y-124132908D01*
X135995331Y-124175381D01*
X136118424Y-124271189D01*
X136316426Y-124378342D01*
X136316427Y-124378342D01*
X136316428Y-124378343D01*
X136428227Y-124416723D01*
X136529365Y-124451444D01*
X136751431Y-124488500D01*
X136751435Y-124488500D01*
X136976565Y-124488500D01*
X136976569Y-124488500D01*
X137198635Y-124451444D01*
X137411574Y-124378342D01*
X137609576Y-124271189D01*
X137787240Y-124132906D01*
X137939722Y-123967268D01*
X138028518Y-123831354D01*
X138082520Y-123785268D01*
X138152868Y-123775692D01*
X138217225Y-123805669D01*
X138239480Y-123831353D01*
X138272607Y-123882058D01*
X138328275Y-123967265D01*
X138328279Y-123967270D01*
X138480762Y-124132908D01*
X138535331Y-124175381D01*
X138658424Y-124271189D01*
X138856426Y-124378342D01*
X138856427Y-124378342D01*
X138856428Y-124378343D01*
X138968227Y-124416723D01*
X139069365Y-124451444D01*
X139291431Y-124488500D01*
X139291435Y-124488500D01*
X139516565Y-124488500D01*
X139516569Y-124488500D01*
X139738635Y-124451444D01*
X139951574Y-124378342D01*
X140149576Y-124271189D01*
X140327240Y-124132906D01*
X140479722Y-123967268D01*
X140568518Y-123831354D01*
X140622520Y-123785268D01*
X140692868Y-123775692D01*
X140757225Y-123805669D01*
X140779480Y-123831353D01*
X140812607Y-123882058D01*
X140868275Y-123967265D01*
X140868279Y-123967270D01*
X141020762Y-124132908D01*
X141075331Y-124175381D01*
X141198424Y-124271189D01*
X141396426Y-124378342D01*
X141396427Y-124378342D01*
X141396428Y-124378343D01*
X141508227Y-124416723D01*
X141609365Y-124451444D01*
X141831431Y-124488500D01*
X141831435Y-124488500D01*
X142056565Y-124488500D01*
X142056569Y-124488500D01*
X142278635Y-124451444D01*
X142491574Y-124378342D01*
X142689576Y-124271189D01*
X142867240Y-124132906D01*
X143019722Y-123967268D01*
X143108518Y-123831354D01*
X143162520Y-123785268D01*
X143232868Y-123775692D01*
X143297225Y-123805669D01*
X143319480Y-123831353D01*
X143352607Y-123882058D01*
X143408275Y-123967265D01*
X143408279Y-123967270D01*
X143560762Y-124132908D01*
X143615331Y-124175381D01*
X143738424Y-124271189D01*
X143936426Y-124378342D01*
X143936427Y-124378342D01*
X143936428Y-124378343D01*
X144048227Y-124416723D01*
X144149365Y-124451444D01*
X144371431Y-124488500D01*
X144371435Y-124488500D01*
X144596565Y-124488500D01*
X144596569Y-124488500D01*
X144818635Y-124451444D01*
X145031574Y-124378342D01*
X145229576Y-124271189D01*
X145407240Y-124132906D01*
X145559722Y-123967268D01*
X145648518Y-123831354D01*
X145702520Y-123785268D01*
X145772868Y-123775692D01*
X145837225Y-123805669D01*
X145859480Y-123831353D01*
X145892607Y-123882058D01*
X145948275Y-123967265D01*
X145948279Y-123967270D01*
X146100762Y-124132908D01*
X146155331Y-124175381D01*
X146278424Y-124271189D01*
X146476426Y-124378342D01*
X146476427Y-124378342D01*
X146476428Y-124378343D01*
X146588227Y-124416723D01*
X146689365Y-124451444D01*
X146911431Y-124488500D01*
X146911435Y-124488500D01*
X147136565Y-124488500D01*
X147136569Y-124488500D01*
X147358635Y-124451444D01*
X147571574Y-124378342D01*
X147769576Y-124271189D01*
X147947240Y-124132906D01*
X148099722Y-123967268D01*
X148188518Y-123831354D01*
X148242520Y-123785268D01*
X148312868Y-123775692D01*
X148377225Y-123805669D01*
X148399480Y-123831353D01*
X148432607Y-123882058D01*
X148488275Y-123967265D01*
X148488279Y-123967270D01*
X148640762Y-124132908D01*
X148695331Y-124175381D01*
X148818424Y-124271189D01*
X149016426Y-124378342D01*
X149016427Y-124378342D01*
X149016428Y-124378343D01*
X149128227Y-124416723D01*
X149229365Y-124451444D01*
X149451431Y-124488500D01*
X149451435Y-124488500D01*
X149676565Y-124488500D01*
X149676569Y-124488500D01*
X149898635Y-124451444D01*
X150111574Y-124378342D01*
X150309576Y-124271189D01*
X150487240Y-124132906D01*
X150639722Y-123967268D01*
X150728518Y-123831354D01*
X150782520Y-123785268D01*
X150852868Y-123775692D01*
X150917225Y-123805669D01*
X150939480Y-123831353D01*
X150972607Y-123882058D01*
X151028275Y-123967265D01*
X151028279Y-123967270D01*
X151180762Y-124132908D01*
X151235331Y-124175381D01*
X151358424Y-124271189D01*
X151556426Y-124378342D01*
X151556427Y-124378342D01*
X151556428Y-124378343D01*
X151668227Y-124416723D01*
X151769365Y-124451444D01*
X151991431Y-124488500D01*
X151991435Y-124488500D01*
X152216565Y-124488500D01*
X152216569Y-124488500D01*
X152438635Y-124451444D01*
X152651574Y-124378342D01*
X152849576Y-124271189D01*
X153027240Y-124132906D01*
X153179722Y-123967268D01*
X153268518Y-123831354D01*
X153322520Y-123785268D01*
X153392868Y-123775692D01*
X153457225Y-123805669D01*
X153479480Y-123831353D01*
X153512607Y-123882058D01*
X153568275Y-123967265D01*
X153568279Y-123967270D01*
X153720762Y-124132908D01*
X153775331Y-124175381D01*
X153898424Y-124271189D01*
X154096426Y-124378342D01*
X154096427Y-124378342D01*
X154096428Y-124378343D01*
X154208227Y-124416723D01*
X154309365Y-124451444D01*
X154531431Y-124488500D01*
X154531435Y-124488500D01*
X154756565Y-124488500D01*
X154756569Y-124488500D01*
X154978635Y-124451444D01*
X155191574Y-124378342D01*
X155389576Y-124271189D01*
X155567240Y-124132906D01*
X155719722Y-123967268D01*
X155808518Y-123831354D01*
X155862520Y-123785268D01*
X155932868Y-123775692D01*
X155997225Y-123805669D01*
X156019480Y-123831353D01*
X156052607Y-123882058D01*
X156108275Y-123967265D01*
X156108279Y-123967270D01*
X156260762Y-124132908D01*
X156315331Y-124175381D01*
X156438424Y-124271189D01*
X156636426Y-124378342D01*
X156636427Y-124378342D01*
X156636428Y-124378343D01*
X156748227Y-124416723D01*
X156849365Y-124451444D01*
X157071431Y-124488500D01*
X157071435Y-124488500D01*
X157296565Y-124488500D01*
X157296569Y-124488500D01*
X157518635Y-124451444D01*
X157731574Y-124378342D01*
X157929576Y-124271189D01*
X158107240Y-124132906D01*
X158259722Y-123967268D01*
X158382860Y-123778791D01*
X158473296Y-123572616D01*
X158528564Y-123354368D01*
X158547156Y-123130000D01*
X158528564Y-122905632D01*
X158500817Y-122796063D01*
X158503483Y-122725119D01*
X158533864Y-122676040D01*
X158801042Y-122408862D01*
X158863352Y-122374839D01*
X158934168Y-122379904D01*
X158991003Y-122422451D01*
X159012976Y-122469922D01*
X159069982Y-122719681D01*
X159069984Y-122719687D01*
X159069983Y-122719687D01*
X159184991Y-123048361D01*
X159185002Y-123048388D01*
X159336091Y-123362128D01*
X159336096Y-123362137D01*
X159521372Y-123657000D01*
X159521375Y-123657004D01*
X159738489Y-123929259D01*
X159984740Y-124175510D01*
X160256995Y-124392624D01*
X160257003Y-124392630D01*
X160551867Y-124577906D01*
X160865621Y-124729002D01*
X160865637Y-124729007D01*
X160865638Y-124729008D01*
X161194312Y-124844016D01*
X161194315Y-124844016D01*
X161194319Y-124844018D01*
X161533829Y-124921509D01*
X161779210Y-124949157D01*
X161879878Y-124960500D01*
X161879880Y-124960500D01*
X162228122Y-124960500D01*
X162316006Y-124950597D01*
X162574171Y-124921509D01*
X162913681Y-124844018D01*
X163242379Y-124729002D01*
X163556133Y-124577906D01*
X163850997Y-124392630D01*
X164003281Y-124271188D01*
X164123259Y-124175510D01*
X164369510Y-123929259D01*
X164586624Y-123657004D01*
X164586630Y-123656997D01*
X164771906Y-123362133D01*
X164923002Y-123048379D01*
X165038018Y-122719681D01*
X165115509Y-122380171D01*
X165154500Y-122034120D01*
X165154500Y-121685880D01*
X165115509Y-121339829D01*
X165038018Y-121000319D01*
X164923419Y-120672814D01*
X164923008Y-120671638D01*
X164923007Y-120671637D01*
X164923002Y-120671621D01*
X164771906Y-120357867D01*
X164586630Y-120063003D01*
X164586624Y-120062995D01*
X164369510Y-119790740D01*
X164123259Y-119544489D01*
X163851004Y-119327375D01*
X163851000Y-119327372D01*
X163837994Y-119319200D01*
X163790815Y-119289555D01*
X163556137Y-119142096D01*
X163556128Y-119142091D01*
X163242388Y-118991002D01*
X163242383Y-118991000D01*
X163242379Y-118990998D01*
X163242373Y-118990995D01*
X163242361Y-118990991D01*
X162913687Y-118875983D01*
X162574174Y-118798491D01*
X162228122Y-118759500D01*
X162228120Y-118759500D01*
X161879880Y-118759500D01*
X161879878Y-118759500D01*
X161533825Y-118798491D01*
X161194312Y-118875983D01*
X160865638Y-118990991D01*
X160865611Y-118991002D01*
X160551871Y-119142091D01*
X160551862Y-119142096D01*
X160256999Y-119327372D01*
X160256995Y-119327375D01*
X159984740Y-119544489D01*
X159738489Y-119790740D01*
X159521375Y-120062995D01*
X159521372Y-120062999D01*
X159336096Y-120357862D01*
X159336091Y-120357871D01*
X159184423Y-120672814D01*
X159136845Y-120725510D01*
X159068331Y-120744119D01*
X159000632Y-120722731D01*
X158955243Y-120668138D01*
X158944901Y-120618145D01*
X158944901Y-119455686D01*
X158944900Y-119455682D01*
X158943617Y-119449231D01*
X158920556Y-119333294D01*
X158872801Y-119218004D01*
X158803472Y-119114246D01*
X158715234Y-119026008D01*
X156938727Y-117249501D01*
X156904701Y-117187189D01*
X156901822Y-117160406D01*
X156901822Y-115829953D01*
X156921824Y-115761832D01*
X156975480Y-115715339D01*
X157045754Y-115705235D01*
X157103328Y-115729083D01*
X157188693Y-115792987D01*
X157188696Y-115792989D01*
X157325695Y-115844088D01*
X157325703Y-115844090D01*
X157386250Y-115850599D01*
X157386255Y-115850599D01*
X157386262Y-115850600D01*
X157386268Y-115850600D01*
X158483532Y-115850600D01*
X158483538Y-115850600D01*
X158483545Y-115850599D01*
X158483549Y-115850599D01*
X158544101Y-115844089D01*
X158551771Y-115842277D01*
X158552291Y-115844479D01*
X158611680Y-115840230D01*
X158621217Y-115843030D01*
X158625698Y-115844089D01*
X158686250Y-115850599D01*
X158686255Y-115850599D01*
X158686262Y-115850600D01*
X158686268Y-115850600D01*
X159783532Y-115850600D01*
X159783538Y-115850600D01*
X159783545Y-115850599D01*
X159783549Y-115850599D01*
X159844096Y-115844090D01*
X159844099Y-115844089D01*
X159844101Y-115844089D01*
X159846941Y-115843030D01*
X159862945Y-115837060D01*
X159981104Y-115792989D01*
X160038018Y-115750384D01*
X160098161Y-115705361D01*
X160185787Y-115588307D01*
X160185787Y-115588306D01*
X160185789Y-115588304D01*
X160236889Y-115451301D01*
X160236992Y-115450349D01*
X160243399Y-115390749D01*
X160243400Y-115390732D01*
X160243400Y-115366153D01*
X160263402Y-115298032D01*
X160317058Y-115251539D01*
X160387332Y-115241435D01*
X160436436Y-115259466D01*
X160525266Y-115315281D01*
X160581385Y-115350543D01*
X160753353Y-115410717D01*
X160934400Y-115431116D01*
X161115447Y-115410717D01*
X161287415Y-115350543D01*
X161441681Y-115253611D01*
X161570511Y-115124781D01*
X161667443Y-114970515D01*
X161727617Y-114798547D01*
X161748016Y-114617500D01*
X161727617Y-114436453D01*
X161667443Y-114264485D01*
X161667441Y-114264482D01*
X161667441Y-114264481D01*
X161570512Y-114110220D01*
X161570511Y-114110218D01*
X161441681Y-113981388D01*
X161441679Y-113981387D01*
X161287418Y-113884458D01*
X161287415Y-113884457D01*
X161115450Y-113824284D01*
X161115449Y-113824283D01*
X161115447Y-113824283D01*
X160934400Y-113803884D01*
X160753353Y-113824283D01*
X160753350Y-113824283D01*
X160753349Y-113824284D01*
X160581384Y-113884457D01*
X160581382Y-113884458D01*
X160494123Y-113939287D01*
X160427087Y-113958600D01*
X160369400Y-113958600D01*
X160301279Y-113938598D01*
X160254786Y-113884942D01*
X160243400Y-113832600D01*
X160243400Y-113793467D01*
X160243399Y-113793450D01*
X160236890Y-113732903D01*
X160236889Y-113732898D01*
X160222627Y-113694662D01*
X160217561Y-113623846D01*
X160251586Y-113561533D01*
X160273642Y-113543943D01*
X160362181Y-113488311D01*
X160491011Y-113359481D01*
X160587943Y-113205215D01*
X160648117Y-113033247D01*
X160668516Y-112852200D01*
X160648117Y-112671153D01*
X160587943Y-112499185D01*
X160587941Y-112499182D01*
X160587941Y-112499181D01*
X160491012Y-112344920D01*
X160491011Y-112344918D01*
X160362181Y-112216088D01*
X160362179Y-112216087D01*
X160207918Y-112119158D01*
X160207915Y-112119157D01*
X160035950Y-112058984D01*
X160035949Y-112058983D01*
X160035947Y-112058983D01*
X159854900Y-112038584D01*
X159673853Y-112058983D01*
X159673850Y-112058983D01*
X159673849Y-112058984D01*
X159501884Y-112119157D01*
X159501882Y-112119158D01*
X159374199Y-112199387D01*
X159307163Y-112218700D01*
X159217458Y-112218700D01*
X159149337Y-112198698D01*
X159102844Y-112145042D01*
X159091458Y-112092700D01*
X159091458Y-111494465D01*
X159091457Y-111494461D01*
X159088921Y-111481711D01*
X159067113Y-111372073D01*
X159019358Y-111256783D01*
X158950029Y-111153025D01*
X158861791Y-111064787D01*
X157121833Y-109324829D01*
X157018075Y-109255500D01*
X156902785Y-109207745D01*
X156823705Y-109192015D01*
X156780396Y-109183400D01*
X156780394Y-109183400D01*
X155309937Y-109183400D01*
X155242901Y-109164087D01*
X155115217Y-109083858D01*
X155115215Y-109083857D01*
X154943250Y-109023684D01*
X154943249Y-109023683D01*
X154943247Y-109023683D01*
X154762200Y-109003284D01*
X154581153Y-109023683D01*
X154581150Y-109023683D01*
X154581149Y-109023684D01*
X154409184Y-109083857D01*
X154409181Y-109083858D01*
X154254920Y-109180787D01*
X154254918Y-109180788D01*
X154126088Y-109309618D01*
X154126087Y-109309620D01*
X154029158Y-109463881D01*
X154029158Y-109463882D01*
X154001456Y-109543049D01*
X153960077Y-109600740D01*
X153894077Y-109626903D01*
X153824409Y-109613229D01*
X153793435Y-109590531D01*
X153012803Y-108809898D01*
X152978780Y-108747589D01*
X152975901Y-108720806D01*
X152975901Y-107008999D01*
X152995903Y-106940878D01*
X153049559Y-106894385D01*
X153087790Y-106883791D01*
X153266847Y-106863617D01*
X153438815Y-106803443D01*
X153546288Y-106735912D01*
X153613324Y-106716600D01*
X156847906Y-106716600D01*
X156916027Y-106736602D01*
X156937001Y-106753505D01*
X159401555Y-109218059D01*
X159435581Y-109280371D01*
X159437667Y-109293043D01*
X159442681Y-109337538D01*
X159442684Y-109337552D01*
X159502857Y-109509515D01*
X159502858Y-109509518D01*
X159599787Y-109663779D01*
X159599788Y-109663781D01*
X159728618Y-109792611D01*
X159728620Y-109792612D01*
X159882881Y-109889541D01*
X159882882Y-109889541D01*
X159882885Y-109889543D01*
X160054853Y-109949717D01*
X160235900Y-109970116D01*
X160416947Y-109949717D01*
X160588915Y-109889543D01*
X160743181Y-109792611D01*
X160872011Y-109663781D01*
X160968943Y-109509515D01*
X161029117Y-109337547D01*
X161049516Y-109156500D01*
X161029117Y-108975453D01*
X160968943Y-108803485D01*
X160968941Y-108803482D01*
X160968941Y-108803481D01*
X160872012Y-108649220D01*
X160872011Y-108649218D01*
X160743181Y-108520388D01*
X160743179Y-108520387D01*
X160588918Y-108423458D01*
X160588915Y-108423457D01*
X160416952Y-108363284D01*
X160416938Y-108363281D01*
X160372443Y-108358267D01*
X160306991Y-108330762D01*
X160297459Y-108322155D01*
X157566335Y-105591031D01*
X157566333Y-105591029D01*
X157462575Y-105521700D01*
X157347285Y-105473945D01*
X157273586Y-105459285D01*
X157224896Y-105449600D01*
X157224894Y-105449600D01*
X155107349Y-105449600D01*
X155039228Y-105429598D01*
X154992735Y-105375942D01*
X154982141Y-105309493D01*
X154984030Y-105292725D01*
X154991616Y-105225400D01*
X154971217Y-105044353D01*
X154911043Y-104872385D01*
X154911041Y-104872382D01*
X154911041Y-104872381D01*
X154814112Y-104718120D01*
X154814111Y-104718118D01*
X154685281Y-104589288D01*
X154685279Y-104589287D01*
X154531018Y-104492358D01*
X154531015Y-104492357D01*
X154401355Y-104446987D01*
X154343663Y-104405609D01*
X154317501Y-104339609D01*
X154324040Y-104286445D01*
X154336217Y-104251647D01*
X154356616Y-104070600D01*
X154336217Y-103889553D01*
X154276043Y-103717585D01*
X154276041Y-103717582D01*
X154276041Y-103717581D01*
X154179112Y-103563320D01*
X154179111Y-103563318D01*
X154050281Y-103434488D01*
X154050279Y-103434487D01*
X153896018Y-103337558D01*
X153896015Y-103337557D01*
X153724050Y-103277384D01*
X153724049Y-103277383D01*
X153724047Y-103277383D01*
X153543000Y-103256984D01*
X153361953Y-103277383D01*
X153361950Y-103277383D01*
X153361949Y-103277384D01*
X153189984Y-103337557D01*
X153189981Y-103337558D01*
X153035720Y-103434487D01*
X153035718Y-103434488D01*
X152906888Y-103563318D01*
X152906887Y-103563320D01*
X152809958Y-103717581D01*
X152809957Y-103717584D01*
X152760975Y-103857567D01*
X152719597Y-103915259D01*
X152653596Y-103941421D01*
X152583929Y-103927748D01*
X152552951Y-103905047D01*
X152041835Y-103393931D01*
X152041833Y-103393929D01*
X151938075Y-103324600D01*
X151822785Y-103276845D01*
X151749086Y-103262185D01*
X151700396Y-103252500D01*
X151700394Y-103252500D01*
X122580537Y-103252500D01*
X122512416Y-103232498D01*
X122475772Y-103196502D01*
X122462407Y-103176500D01*
X122412071Y-103101167D01*
X122323833Y-103012929D01*
X121418904Y-102108000D01*
X156158384Y-102108000D01*
X156178783Y-102289047D01*
X156178783Y-102289049D01*
X156178784Y-102289050D01*
X156238957Y-102461015D01*
X156238958Y-102461018D01*
X156335887Y-102615279D01*
X156335888Y-102615281D01*
X156464718Y-102744111D01*
X156464720Y-102744112D01*
X156618981Y-102841041D01*
X156618982Y-102841041D01*
X156618985Y-102841043D01*
X156790953Y-102901217D01*
X156972000Y-102921616D01*
X157153047Y-102901217D01*
X157325015Y-102841043D01*
X157410381Y-102787404D01*
X157452701Y-102760813D01*
X157519737Y-102741500D01*
X159472263Y-102741500D01*
X159539299Y-102760813D01*
X159647444Y-102828764D01*
X159666985Y-102841043D01*
X159838953Y-102901217D01*
X160020000Y-102921616D01*
X160201047Y-102901217D01*
X160373015Y-102841043D01*
X160527281Y-102744111D01*
X160656111Y-102615281D01*
X160753043Y-102461015D01*
X160813217Y-102289047D01*
X160833616Y-102108000D01*
X160813217Y-101926953D01*
X160813213Y-101926944D01*
X160811642Y-101920054D01*
X160812997Y-101919744D01*
X160809768Y-101856549D01*
X160845053Y-101794942D01*
X160908044Y-101762191D01*
X160973933Y-101766902D01*
X161194312Y-101844016D01*
X161194315Y-101844016D01*
X161194319Y-101844018D01*
X161533829Y-101921509D01*
X161779210Y-101949157D01*
X161879878Y-101960500D01*
X161879880Y-101960500D01*
X162228122Y-101960500D01*
X162316006Y-101950597D01*
X162574171Y-101921509D01*
X162913681Y-101844018D01*
X163242379Y-101729002D01*
X163556133Y-101577906D01*
X163850997Y-101392630D01*
X163978598Y-101290872D01*
X164123259Y-101175510D01*
X164369510Y-100929259D01*
X164586624Y-100657004D01*
X164586630Y-100656997D01*
X164771906Y-100362133D01*
X164923002Y-100048379D01*
X165038018Y-99719681D01*
X165115509Y-99380171D01*
X165154500Y-99034120D01*
X165154500Y-98685880D01*
X165147634Y-98624947D01*
X165139246Y-98550500D01*
X165115509Y-98339829D01*
X165038018Y-98000319D01*
X165035241Y-97992384D01*
X164923008Y-97671638D01*
X164923007Y-97671637D01*
X164923002Y-97671621D01*
X164771906Y-97357867D01*
X164756956Y-97334075D01*
X164666281Y-97189767D01*
X164586630Y-97063003D01*
X164586624Y-97062995D01*
X164369510Y-96790740D01*
X164123259Y-96544489D01*
X163851004Y-96327375D01*
X163851000Y-96327372D01*
X163556137Y-96142096D01*
X163556128Y-96142091D01*
X163242388Y-95991002D01*
X163242383Y-95991000D01*
X163242379Y-95990998D01*
X163242373Y-95990995D01*
X163242361Y-95990991D01*
X162913687Y-95875983D01*
X162574174Y-95798491D01*
X162228122Y-95759500D01*
X162228120Y-95759500D01*
X161879880Y-95759500D01*
X161879878Y-95759500D01*
X161533825Y-95798491D01*
X161194312Y-95875983D01*
X160865638Y-95990991D01*
X160865611Y-95991002D01*
X160551871Y-96142091D01*
X160551862Y-96142096D01*
X160256999Y-96327372D01*
X160256995Y-96327375D01*
X159984740Y-96544489D01*
X159738489Y-96790740D01*
X159521375Y-97062995D01*
X159521372Y-97062999D01*
X159336096Y-97357862D01*
X159336091Y-97357871D01*
X159185002Y-97671611D01*
X159184991Y-97671638D01*
X159069983Y-98000312D01*
X158992491Y-98339825D01*
X158953500Y-98685878D01*
X158953500Y-99034121D01*
X158992491Y-99380174D01*
X159006628Y-99442109D01*
X159069982Y-99719681D01*
X159069984Y-99719687D01*
X159069983Y-99719687D01*
X159184991Y-100048361D01*
X159185002Y-100048388D01*
X159336091Y-100362128D01*
X159336096Y-100362137D01*
X159521372Y-100657000D01*
X159521375Y-100657004D01*
X159738489Y-100929259D01*
X159910139Y-101100909D01*
X159944165Y-101163221D01*
X159939100Y-101234036D01*
X159896553Y-101290872D01*
X159845382Y-101311156D01*
X159845851Y-101313209D01*
X159838950Y-101314783D01*
X159666984Y-101374957D01*
X159666982Y-101374958D01*
X159539299Y-101455187D01*
X159472263Y-101474500D01*
X157519737Y-101474500D01*
X157452701Y-101455187D01*
X157325017Y-101374958D01*
X157325015Y-101374957D01*
X157153050Y-101314784D01*
X157153049Y-101314783D01*
X157153047Y-101314783D01*
X156972000Y-101294384D01*
X156790953Y-101314783D01*
X156790950Y-101314783D01*
X156790949Y-101314784D01*
X156618984Y-101374957D01*
X156618981Y-101374958D01*
X156464720Y-101471887D01*
X156464718Y-101471888D01*
X156335888Y-101600718D01*
X156335887Y-101600720D01*
X156238958Y-101754981D01*
X156238957Y-101754984D01*
X156181306Y-101919744D01*
X156178783Y-101926953D01*
X156158384Y-102108000D01*
X121418904Y-102108000D01*
X119579343Y-100268439D01*
X119545317Y-100206127D01*
X119543230Y-100193449D01*
X119538217Y-100148954D01*
X119538216Y-100148950D01*
X119478043Y-99976985D01*
X119478041Y-99976982D01*
X119478041Y-99976981D01*
X119381112Y-99822720D01*
X119381111Y-99822718D01*
X119252281Y-99693888D01*
X119252279Y-99693887D01*
X119098018Y-99596958D01*
X119098015Y-99596957D01*
X118926050Y-99536784D01*
X118926049Y-99536783D01*
X118926047Y-99536783D01*
X118745000Y-99516384D01*
X118563953Y-99536783D01*
X118563950Y-99536783D01*
X118563949Y-99536784D01*
X118391984Y-99596957D01*
X118391981Y-99596958D01*
X118237720Y-99693887D01*
X118237718Y-99693888D01*
X118108888Y-99822718D01*
X118108887Y-99822720D01*
X118011958Y-99976981D01*
X118011957Y-99976984D01*
X117965570Y-100109553D01*
X117951783Y-100148953D01*
X117931384Y-100330000D01*
X117951783Y-100511047D01*
X117951783Y-100511049D01*
X117951784Y-100511050D01*
X118011957Y-100683015D01*
X118011958Y-100683018D01*
X118108887Y-100837279D01*
X118108888Y-100837281D01*
X118237718Y-100966111D01*
X118237720Y-100966112D01*
X118391981Y-101063041D01*
X118391982Y-101063041D01*
X118391985Y-101063043D01*
X118563953Y-101123217D01*
X118608450Y-101128230D01*
X118673902Y-101155732D01*
X118683439Y-101164343D01*
X121249595Y-103730499D01*
X121283621Y-103792811D01*
X121286500Y-103819594D01*
X121286500Y-103948396D01*
X121290464Y-103968323D01*
X121310845Y-104070785D01*
X121358600Y-104186075D01*
X121427929Y-104289833D01*
X121516167Y-104378071D01*
X121619925Y-104447400D01*
X121735215Y-104495155D01*
X121857606Y-104519500D01*
X121982394Y-104519500D01*
X127927691Y-104519500D01*
X127995812Y-104539502D01*
X128042305Y-104593158D01*
X128052409Y-104663432D01*
X128028559Y-104721009D01*
X127953112Y-104821792D01*
X127953110Y-104821797D01*
X127902011Y-104958795D01*
X127902009Y-104958803D01*
X127895500Y-105019350D01*
X127895500Y-106816649D01*
X127902009Y-106877196D01*
X127902011Y-106877204D01*
X127953110Y-107014202D01*
X127953112Y-107014207D01*
X128040738Y-107131261D01*
X128157792Y-107218887D01*
X128157794Y-107218888D01*
X128157796Y-107218889D01*
X128211600Y-107238957D01*
X128294795Y-107269988D01*
X128294803Y-107269990D01*
X128355350Y-107276499D01*
X128355355Y-107276499D01*
X128355362Y-107276500D01*
X128355368Y-107276500D01*
X130152632Y-107276500D01*
X130152638Y-107276500D01*
X130152645Y-107276499D01*
X130152649Y-107276499D01*
X130213196Y-107269990D01*
X130213199Y-107269989D01*
X130213201Y-107269989D01*
X130350204Y-107218889D01*
X130420399Y-107166342D01*
X130467261Y-107131261D01*
X130554886Y-107014208D01*
X130554885Y-107014208D01*
X130554889Y-107014204D01*
X130599196Y-106895413D01*
X130641741Y-106838581D01*
X130708262Y-106813770D01*
X130777636Y-106828862D01*
X130809952Y-106854112D01*
X130871097Y-106920534D01*
X131048698Y-107058767D01*
X131048699Y-107058768D01*
X131246628Y-107165882D01*
X131246630Y-107165883D01*
X131459483Y-107238955D01*
X131459492Y-107238957D01*
X131540000Y-107252391D01*
X131540000Y-106348702D01*
X131601007Y-106383925D01*
X131728174Y-106418000D01*
X131859826Y-106418000D01*
X131986993Y-106383925D01*
X132048000Y-106348702D01*
X132048000Y-107252390D01*
X132128507Y-107238957D01*
X132128516Y-107238955D01*
X132341369Y-107165883D01*
X132341371Y-107165882D01*
X132539300Y-107058768D01*
X132539301Y-107058767D01*
X132716902Y-106920534D01*
X132869327Y-106754955D01*
X132958217Y-106618899D01*
X133012220Y-106572810D01*
X133082568Y-106563235D01*
X133146925Y-106593212D01*
X133169183Y-106618898D01*
X133258279Y-106755270D01*
X133410762Y-106920908D01*
X133447497Y-106949500D01*
X133588424Y-107059189D01*
X133786426Y-107166342D01*
X133786427Y-107166342D01*
X133786428Y-107166343D01*
X133819554Y-107177715D01*
X133999365Y-107239444D01*
X134221431Y-107276500D01*
X134221435Y-107276500D01*
X134446565Y-107276500D01*
X134446569Y-107276500D01*
X134668635Y-107239444D01*
X134881574Y-107166342D01*
X135079576Y-107059189D01*
X135257240Y-106920906D01*
X135409722Y-106755268D01*
X135409927Y-106754955D01*
X135438532Y-106711171D01*
X135498518Y-106619354D01*
X135552520Y-106573268D01*
X135622868Y-106563692D01*
X135687225Y-106593669D01*
X135709480Y-106619353D01*
X135742607Y-106670058D01*
X135798275Y-106755265D01*
X135798279Y-106755270D01*
X135950762Y-106920908D01*
X135987497Y-106949500D01*
X136128424Y-107059189D01*
X136326426Y-107166342D01*
X136326427Y-107166342D01*
X136326428Y-107166343D01*
X136359554Y-107177715D01*
X136539365Y-107239444D01*
X136761431Y-107276500D01*
X136761435Y-107276500D01*
X136986565Y-107276500D01*
X136986569Y-107276500D01*
X137208635Y-107239444D01*
X137421574Y-107166342D01*
X137619576Y-107059189D01*
X137797240Y-106920906D01*
X137949722Y-106755268D01*
X137949927Y-106754955D01*
X137978532Y-106711171D01*
X138072860Y-106566791D01*
X138163296Y-106360616D01*
X138218564Y-106142368D01*
X138237156Y-105918000D01*
X138218564Y-105693632D01*
X138216125Y-105684002D01*
X138163297Y-105475387D01*
X138163296Y-105475386D01*
X138163296Y-105475384D01*
X138072860Y-105269209D01*
X138055597Y-105242786D01*
X137949724Y-105080734D01*
X137949720Y-105080729D01*
X137833570Y-104954559D01*
X137797240Y-104915094D01*
X137797239Y-104915093D01*
X137797237Y-104915091D01*
X137669797Y-104815900D01*
X137619576Y-104776811D01*
X137581699Y-104756313D01*
X137531309Y-104706301D01*
X137515957Y-104636984D01*
X137540517Y-104570371D01*
X137597193Y-104527611D01*
X137641669Y-104519500D01*
X151323406Y-104519500D01*
X151391527Y-104539502D01*
X151412501Y-104556405D01*
X151671996Y-104815900D01*
X151706022Y-104878212D01*
X151708901Y-104904995D01*
X151708901Y-109097797D01*
X151712492Y-109115847D01*
X151733246Y-109220186D01*
X151781001Y-109335476D01*
X151850330Y-109439234D01*
X151850332Y-109439236D01*
X155597917Y-113186821D01*
X155631943Y-113249133D01*
X155634822Y-113275916D01*
X155634822Y-117412606D01*
X155634822Y-117537394D01*
X155659167Y-117659785D01*
X155706922Y-117775075D01*
X155776251Y-117878833D01*
X155776253Y-117878835D01*
X156914323Y-119016905D01*
X156948349Y-119079217D01*
X156943284Y-119150032D01*
X156900737Y-119206868D01*
X156834217Y-119231679D01*
X156825228Y-119232000D01*
X156285402Y-119232000D01*
X156224906Y-119238505D01*
X156088035Y-119289555D01*
X156088034Y-119289555D01*
X155971095Y-119377095D01*
X155883555Y-119494034D01*
X155883553Y-119494039D01*
X155839380Y-119612470D01*
X155796833Y-119669306D01*
X155730313Y-119694116D01*
X155660939Y-119679024D01*
X155628626Y-119653777D01*
X155567240Y-119587094D01*
X155567239Y-119587093D01*
X155567237Y-119587091D01*
X155447684Y-119494039D01*
X155389576Y-119448811D01*
X155191574Y-119341658D01*
X155191572Y-119341657D01*
X155191571Y-119341656D01*
X154978639Y-119268557D01*
X154978630Y-119268555D01*
X154901029Y-119255606D01*
X154756569Y-119231500D01*
X154531431Y-119231500D01*
X154386971Y-119255606D01*
X154309369Y-119268555D01*
X154309360Y-119268557D01*
X154096428Y-119341656D01*
X154096426Y-119341658D01*
X153955996Y-119417655D01*
X153898426Y-119448810D01*
X153898424Y-119448811D01*
X153720762Y-119587091D01*
X153568279Y-119752729D01*
X153479483Y-119888643D01*
X153425479Y-119934731D01*
X153355131Y-119944306D01*
X153290774Y-119914329D01*
X153268517Y-119888643D01*
X153179720Y-119752729D01*
X153050600Y-119612470D01*
X153027240Y-119587094D01*
X153027239Y-119587093D01*
X153027237Y-119587091D01*
X152907684Y-119494039D01*
X152849576Y-119448811D01*
X152651574Y-119341658D01*
X152651572Y-119341657D01*
X152651571Y-119341656D01*
X152438639Y-119268557D01*
X152438630Y-119268555D01*
X152361029Y-119255606D01*
X152216569Y-119231500D01*
X151991431Y-119231500D01*
X151846971Y-119255606D01*
X151769369Y-119268555D01*
X151769360Y-119268557D01*
X151556428Y-119341656D01*
X151556426Y-119341658D01*
X151415996Y-119417655D01*
X151358426Y-119448810D01*
X151358424Y-119448811D01*
X151180762Y-119587091D01*
X151028279Y-119752729D01*
X150939483Y-119888643D01*
X150885479Y-119934731D01*
X150815131Y-119944306D01*
X150750774Y-119914329D01*
X150728517Y-119888643D01*
X150639720Y-119752729D01*
X150510600Y-119612470D01*
X150487240Y-119587094D01*
X150487239Y-119587093D01*
X150487237Y-119587091D01*
X150367684Y-119494039D01*
X150309576Y-119448811D01*
X150111574Y-119341658D01*
X150111572Y-119341657D01*
X150111571Y-119341656D01*
X149898639Y-119268557D01*
X149898630Y-119268555D01*
X149821029Y-119255606D01*
X149676569Y-119231500D01*
X149451431Y-119231500D01*
X149306971Y-119255606D01*
X149229369Y-119268555D01*
X149229360Y-119268557D01*
X149016428Y-119341656D01*
X149016426Y-119341658D01*
X148875996Y-119417655D01*
X148818426Y-119448810D01*
X148818424Y-119448811D01*
X148640762Y-119587091D01*
X148488279Y-119752729D01*
X148399483Y-119888643D01*
X148345479Y-119934731D01*
X148275131Y-119944306D01*
X148210774Y-119914329D01*
X148188517Y-119888643D01*
X148099720Y-119752729D01*
X147970600Y-119612470D01*
X147947240Y-119587094D01*
X147947239Y-119587093D01*
X147947237Y-119587091D01*
X147827684Y-119494039D01*
X147769576Y-119448811D01*
X147571574Y-119341658D01*
X147471304Y-119307235D01*
X147413369Y-119266198D01*
X147386818Y-119200353D01*
X147400080Y-119130606D01*
X147423119Y-119098970D01*
X149824205Y-116697885D01*
X149886517Y-116663859D01*
X149957333Y-116668924D01*
X150014168Y-116711471D01*
X150038979Y-116777991D01*
X150039300Y-116786980D01*
X150039300Y-116800262D01*
X150019987Y-116867298D01*
X149939758Y-116994981D01*
X149939757Y-116994984D01*
X149881874Y-117160406D01*
X149879583Y-117166953D01*
X149859184Y-117348000D01*
X149879583Y-117529047D01*
X149879583Y-117529049D01*
X149879584Y-117529050D01*
X149939757Y-117701015D01*
X149939758Y-117701018D01*
X150036687Y-117855279D01*
X150036688Y-117855281D01*
X150165518Y-117984111D01*
X150165520Y-117984112D01*
X150319781Y-118081041D01*
X150319782Y-118081041D01*
X150319785Y-118081043D01*
X150491753Y-118141217D01*
X150672800Y-118161616D01*
X150853847Y-118141217D01*
X151025815Y-118081043D01*
X151180081Y-117984111D01*
X151308911Y-117855281D01*
X151405843Y-117701015D01*
X151466017Y-117529047D01*
X151486416Y-117348000D01*
X151466017Y-117166953D01*
X151405843Y-116994985D01*
X151405841Y-116994982D01*
X151405841Y-116994981D01*
X151325613Y-116867298D01*
X151306300Y-116800262D01*
X151306300Y-116621195D01*
X151326302Y-116553074D01*
X151343205Y-116532099D01*
X151482501Y-116392804D01*
X151544813Y-116358779D01*
X151571596Y-116355900D01*
X152487793Y-116355900D01*
X152487794Y-116355900D01*
X152610185Y-116331555D01*
X152725475Y-116283800D01*
X152829233Y-116214471D01*
X152906060Y-116137642D01*
X152968370Y-116103618D01*
X152981040Y-116101531D01*
X153025547Y-116096517D01*
X153197515Y-116036343D01*
X153351781Y-115939411D01*
X153480611Y-115810581D01*
X153577543Y-115656315D01*
X153637717Y-115484347D01*
X153658116Y-115303300D01*
X153637717Y-115122253D01*
X153577543Y-114950285D01*
X153577541Y-114950282D01*
X153577541Y-114950281D01*
X153480612Y-114796020D01*
X153480611Y-114796018D01*
X153351781Y-114667188D01*
X153351779Y-114667187D01*
X153197518Y-114570258D01*
X153197515Y-114570257D01*
X153025550Y-114510084D01*
X153025549Y-114510083D01*
X153025547Y-114510083D01*
X152844500Y-114489684D01*
X152663453Y-114510083D01*
X152663450Y-114510083D01*
X152663449Y-114510084D01*
X152491484Y-114570257D01*
X152491481Y-114570258D01*
X152337220Y-114667187D01*
X152337218Y-114667188D01*
X152208388Y-114796018D01*
X152208387Y-114796020D01*
X152111458Y-114950281D01*
X152111457Y-114950284D01*
X152092481Y-115004515D01*
X152051103Y-115062207D01*
X151985102Y-115088369D01*
X151973552Y-115088900D01*
X151194603Y-115088900D01*
X151072215Y-115113245D01*
X151044362Y-115124782D01*
X150956923Y-115161000D01*
X150853171Y-115230325D01*
X150853164Y-115230330D01*
X150581595Y-115501900D01*
X150519283Y-115535926D01*
X150448468Y-115530861D01*
X150391632Y-115488314D01*
X150366821Y-115421794D01*
X150366500Y-115412805D01*
X150366500Y-110402737D01*
X150385813Y-110335701D01*
X150454997Y-110225594D01*
X150466043Y-110208015D01*
X150526217Y-110036047D01*
X150546616Y-109855000D01*
X150526217Y-109673953D01*
X150466043Y-109501985D01*
X150466041Y-109501982D01*
X150466041Y-109501981D01*
X150369112Y-109347720D01*
X150369111Y-109347718D01*
X150240281Y-109218888D01*
X150240279Y-109218887D01*
X150086018Y-109121958D01*
X150086015Y-109121957D01*
X149914050Y-109061784D01*
X149914049Y-109061783D01*
X149914047Y-109061783D01*
X149845847Y-109054098D01*
X149780396Y-109026595D01*
X149740203Y-108968070D01*
X149734749Y-108914790D01*
X149753306Y-108750100D01*
X149732907Y-108569053D01*
X149672733Y-108397085D01*
X149672731Y-108397082D01*
X149672731Y-108397081D01*
X149575802Y-108242820D01*
X149575801Y-108242818D01*
X149446971Y-108113988D01*
X149446969Y-108113987D01*
X149292708Y-108017058D01*
X149292705Y-108017057D01*
X149120740Y-107956884D01*
X149120739Y-107956883D01*
X149120737Y-107956883D01*
X148939690Y-107936484D01*
X148758643Y-107956883D01*
X148758640Y-107956883D01*
X148758639Y-107956884D01*
X148586674Y-108017057D01*
X148586671Y-108017058D01*
X148432410Y-108113987D01*
X148432408Y-108113988D01*
X148303578Y-108242818D01*
X148303577Y-108242820D01*
X148206648Y-108397081D01*
X148206647Y-108397084D01*
X148152189Y-108552718D01*
X148146473Y-108569053D01*
X148126074Y-108750100D01*
X148146473Y-108931147D01*
X148146473Y-108931149D01*
X148146474Y-108931150D01*
X148206647Y-109103115D01*
X148206648Y-109103118D01*
X148303576Y-109257378D01*
X148303578Y-109257380D01*
X148303579Y-109257381D01*
X148383586Y-109337388D01*
X148417610Y-109399698D01*
X148420490Y-109426482D01*
X148420490Y-115388007D01*
X148400488Y-115456128D01*
X148346832Y-115502621D01*
X148276558Y-115512725D01*
X148211978Y-115483231D01*
X148205395Y-115477102D01*
X148170181Y-115441888D01*
X148170179Y-115441887D01*
X148015918Y-115344958D01*
X148015915Y-115344957D01*
X147989560Y-115335735D01*
X147843947Y-115284783D01*
X147662900Y-115264384D01*
X147662899Y-115264384D01*
X147655829Y-115264384D01*
X147655829Y-115263520D01*
X147627879Y-115262342D01*
X147583986Y-115253611D01*
X147522096Y-115241300D01*
X147522094Y-115241300D01*
X143171894Y-115241300D01*
X143103773Y-115221298D01*
X143057280Y-115167642D01*
X143047176Y-115097368D01*
X143076670Y-115032788D01*
X143082799Y-115026205D01*
X143289004Y-114820000D01*
X143506771Y-114602233D01*
X143576100Y-114498475D01*
X143585275Y-114476325D01*
X143623855Y-114383185D01*
X143648200Y-114260794D01*
X143648200Y-109539137D01*
X143667513Y-109472101D01*
X143731705Y-109369939D01*
X143747743Y-109344415D01*
X143807917Y-109172447D01*
X143828316Y-108991400D01*
X143807917Y-108810353D01*
X143747743Y-108638385D01*
X143747741Y-108638382D01*
X143747741Y-108638381D01*
X143650812Y-108484120D01*
X143650811Y-108484118D01*
X143521981Y-108355288D01*
X143521979Y-108355287D01*
X143367718Y-108258358D01*
X143367715Y-108258357D01*
X143195750Y-108198184D01*
X143195749Y-108198183D01*
X143195747Y-108198183D01*
X143014700Y-108177784D01*
X142833653Y-108198183D01*
X142833650Y-108198183D01*
X142833649Y-108198184D01*
X142661684Y-108258357D01*
X142661681Y-108258358D01*
X142507420Y-108355287D01*
X142507418Y-108355288D01*
X142378588Y-108484118D01*
X142378587Y-108484120D01*
X142281658Y-108638381D01*
X142281657Y-108638384D01*
X142223887Y-108803484D01*
X142221483Y-108810353D01*
X142201084Y-108991400D01*
X142221483Y-109172447D01*
X142221483Y-109172449D01*
X142221484Y-109172450D01*
X142281657Y-109344415D01*
X142281658Y-109344417D01*
X142361887Y-109472101D01*
X142381200Y-109539137D01*
X142381200Y-113883805D01*
X142361198Y-113951926D01*
X142344295Y-113972900D01*
X141125500Y-115191695D01*
X141063188Y-115225721D01*
X141036405Y-115228600D01*
X134161173Y-115228600D01*
X134093052Y-115208598D01*
X134046559Y-115154942D01*
X134036455Y-115084668D01*
X134042244Y-115060985D01*
X134052110Y-115032788D01*
X134063217Y-115001047D01*
X134083616Y-114820000D01*
X134063217Y-114638953D01*
X134003043Y-114466985D01*
X134003041Y-114466982D01*
X134003041Y-114466981D01*
X133906112Y-114312720D01*
X133906111Y-114312718D01*
X133777281Y-114183888D01*
X133777279Y-114183887D01*
X133623018Y-114086958D01*
X133623015Y-114086957D01*
X133451050Y-114026784D01*
X133451049Y-114026783D01*
X133451047Y-114026783D01*
X133270000Y-114006384D01*
X133088953Y-114026783D01*
X133088950Y-114026783D01*
X133088949Y-114026784D01*
X132916984Y-114086957D01*
X132916982Y-114086958D01*
X132808397Y-114155187D01*
X132741361Y-114174500D01*
X128335137Y-114174500D01*
X128268101Y-114155187D01*
X128140417Y-114074958D01*
X128140415Y-114074957D01*
X127968450Y-114014784D01*
X127968449Y-114014783D01*
X127968447Y-114014783D01*
X127787400Y-113994384D01*
X127606353Y-114014783D01*
X127606350Y-114014783D01*
X127606349Y-114014784D01*
X127434384Y-114074957D01*
X127434382Y-114074958D01*
X127306699Y-114155187D01*
X127239663Y-114174500D01*
X122950337Y-114174500D01*
X122883301Y-114155187D01*
X122755617Y-114074958D01*
X122755615Y-114074957D01*
X122583650Y-114014784D01*
X122583649Y-114014783D01*
X122583647Y-114014783D01*
X122402600Y-113994384D01*
X122221553Y-114014783D01*
X122221550Y-114014783D01*
X122221549Y-114014784D01*
X122049584Y-114074957D01*
X122049582Y-114074958D01*
X121921899Y-114155187D01*
X121854863Y-114174500D01*
X117883037Y-114174500D01*
X117816001Y-114155187D01*
X117688317Y-114074958D01*
X117688315Y-114074957D01*
X117516350Y-114014784D01*
X117516349Y-114014783D01*
X117516347Y-114014783D01*
X117335300Y-113994384D01*
X117154253Y-114014783D01*
X117154250Y-114014783D01*
X117154249Y-114014784D01*
X116982284Y-114074957D01*
X116982281Y-114074958D01*
X116828020Y-114171887D01*
X116828018Y-114171888D01*
X116699188Y-114300718D01*
X116699187Y-114300720D01*
X116602258Y-114454981D01*
X116602257Y-114454984D01*
X116545391Y-114617500D01*
X116542083Y-114626953D01*
X116521684Y-114808000D01*
X116542083Y-114989047D01*
X116542083Y-114989049D01*
X116542084Y-114989050D01*
X116602257Y-115161015D01*
X116602258Y-115161018D01*
X116699187Y-115315279D01*
X116699188Y-115315281D01*
X116828018Y-115444111D01*
X116828020Y-115444112D01*
X116862556Y-115465813D01*
X116909594Y-115518991D01*
X116920414Y-115589159D01*
X116891581Y-115654037D01*
X116832250Y-115693028D01*
X116795520Y-115698500D01*
X116215200Y-115698500D01*
X116147079Y-115678498D01*
X116100586Y-115624842D01*
X116089200Y-115572500D01*
X116089200Y-110436294D01*
X116109202Y-110368173D01*
X116126105Y-110347199D01*
X117634304Y-108839000D01*
X121614384Y-108839000D01*
X121634783Y-109020047D01*
X121634783Y-109020049D01*
X121634784Y-109020050D01*
X121694957Y-109192015D01*
X121694958Y-109192017D01*
X121775187Y-109319701D01*
X121794500Y-109386737D01*
X121794500Y-110297862D01*
X121775187Y-110364898D01*
X121694958Y-110492581D01*
X121694957Y-110492584D01*
X121638987Y-110652540D01*
X121634783Y-110664553D01*
X121614384Y-110845600D01*
X121634783Y-111026647D01*
X121634783Y-111026649D01*
X121634784Y-111026650D01*
X121694957Y-111198615D01*
X121694958Y-111198618D01*
X121791887Y-111352879D01*
X121791888Y-111352881D01*
X121920718Y-111481711D01*
X121920720Y-111481712D01*
X122074981Y-111578641D01*
X122074982Y-111578641D01*
X122074985Y-111578643D01*
X122246953Y-111638817D01*
X122428000Y-111659216D01*
X122609047Y-111638817D01*
X122781015Y-111578643D01*
X122935281Y-111481711D01*
X123064111Y-111352881D01*
X123153204Y-111211090D01*
X126846784Y-111211090D01*
X126867183Y-111392137D01*
X126867183Y-111392139D01*
X126867184Y-111392140D01*
X126927357Y-111564105D01*
X126927358Y-111564108D01*
X127024287Y-111718369D01*
X127024288Y-111718371D01*
X127153118Y-111847201D01*
X127153120Y-111847202D01*
X127307381Y-111944131D01*
X127307382Y-111944131D01*
X127307385Y-111944133D01*
X127479353Y-112004307D01*
X127660400Y-112024706D01*
X127841447Y-112004307D01*
X128013415Y-111944133D01*
X128167681Y-111847201D01*
X128296511Y-111718371D01*
X128393443Y-111564105D01*
X128453617Y-111392137D01*
X128474016Y-111211090D01*
X128453617Y-111030043D01*
X128393443Y-110858075D01*
X128393441Y-110858072D01*
X128393441Y-110858071D01*
X128313213Y-110730388D01*
X128293900Y-110663352D01*
X128293900Y-110176604D01*
X128313902Y-110108483D01*
X128330799Y-110087514D01*
X128406563Y-110011750D01*
X128468871Y-109977728D01*
X128481539Y-109975641D01*
X128526047Y-109970627D01*
X128698015Y-109910453D01*
X128852281Y-109813521D01*
X128981111Y-109684691D01*
X129078043Y-109530425D01*
X129138217Y-109358457D01*
X129158616Y-109177410D01*
X129145387Y-109060000D01*
X140256384Y-109060000D01*
X140276783Y-109241047D01*
X140276783Y-109241049D01*
X140276784Y-109241050D01*
X140336957Y-109413015D01*
X140336958Y-109413018D01*
X140433885Y-109567276D01*
X140436004Y-109569933D01*
X140436838Y-109571976D01*
X140437653Y-109573273D01*
X140437426Y-109573415D01*
X140462844Y-109635661D01*
X140463500Y-109648501D01*
X140463500Y-109790396D01*
X140465334Y-109799616D01*
X140487845Y-109912785D01*
X140535600Y-110028075D01*
X140604929Y-110131833D01*
X140604931Y-110131835D01*
X140609595Y-110136499D01*
X140643621Y-110198811D01*
X140646500Y-110225594D01*
X140646500Y-111922262D01*
X140627187Y-111989298D01*
X140546958Y-112116981D01*
X140546957Y-112116984D01*
X140511366Y-112218700D01*
X140486783Y-112288953D01*
X140466384Y-112470000D01*
X140486783Y-112651047D01*
X140486783Y-112651049D01*
X140486784Y-112651050D01*
X140546957Y-112823015D01*
X140546958Y-112823018D01*
X140643887Y-112977279D01*
X140643888Y-112977281D01*
X140772718Y-113106111D01*
X140772720Y-113106112D01*
X140926981Y-113203041D01*
X140926982Y-113203041D01*
X140926985Y-113203043D01*
X141098953Y-113263217D01*
X141280000Y-113283616D01*
X141461047Y-113263217D01*
X141633015Y-113203043D01*
X141787281Y-113106111D01*
X141916111Y-112977281D01*
X142013043Y-112823015D01*
X142073217Y-112651047D01*
X142093616Y-112470000D01*
X142073217Y-112288953D01*
X142013043Y-112116985D01*
X142013041Y-112116982D01*
X142013041Y-112116981D01*
X141932813Y-111989298D01*
X141913500Y-111922262D01*
X141913500Y-109848607D01*
X141913499Y-109848603D01*
X141906521Y-109813522D01*
X141889155Y-109726215D01*
X141841400Y-109610925D01*
X141802911Y-109553322D01*
X141781696Y-109485569D01*
X141800479Y-109417102D01*
X141800992Y-109416279D01*
X141803043Y-109413015D01*
X141818116Y-109369939D01*
X141863217Y-109241047D01*
X141883616Y-109060000D01*
X141863217Y-108878953D01*
X141803043Y-108706985D01*
X141803041Y-108706982D01*
X141803041Y-108706981D01*
X141706112Y-108552720D01*
X141706111Y-108552718D01*
X141577281Y-108423888D01*
X141577279Y-108423887D01*
X141423018Y-108326958D01*
X141423015Y-108326957D01*
X141251050Y-108266784D01*
X141251049Y-108266783D01*
X141251047Y-108266783D01*
X141070000Y-108246384D01*
X140888953Y-108266783D01*
X140888950Y-108266783D01*
X140888949Y-108266784D01*
X140716984Y-108326957D01*
X140716981Y-108326958D01*
X140562720Y-108423887D01*
X140562718Y-108423888D01*
X140433888Y-108552718D01*
X140433887Y-108552720D01*
X140336958Y-108706981D01*
X140336957Y-108706984D01*
X140295874Y-108824395D01*
X140276783Y-108878953D01*
X140256384Y-109060000D01*
X129145387Y-109060000D01*
X129138217Y-108996363D01*
X129078043Y-108824395D01*
X129078041Y-108824392D01*
X129078041Y-108824391D01*
X128981112Y-108670130D01*
X128981111Y-108670128D01*
X128852281Y-108541298D01*
X128852279Y-108541297D01*
X128698018Y-108444368D01*
X128698015Y-108444367D01*
X128526050Y-108384194D01*
X128526049Y-108384193D01*
X128526047Y-108384193D01*
X128345000Y-108363794D01*
X128163953Y-108384193D01*
X128163950Y-108384193D01*
X128163949Y-108384194D01*
X127991984Y-108444367D01*
X127991981Y-108444368D01*
X127837720Y-108541297D01*
X127837718Y-108541298D01*
X127708888Y-108670128D01*
X127708887Y-108670130D01*
X127611958Y-108824391D01*
X127611957Y-108824394D01*
X127551784Y-108996357D01*
X127551781Y-108996371D01*
X127546768Y-109040862D01*
X127519264Y-109106314D01*
X127510657Y-109115847D01*
X127256567Y-109369939D01*
X127168327Y-109458179D01*
X127168326Y-109458181D01*
X127099001Y-109561933D01*
X127056815Y-109663779D01*
X127051245Y-109677225D01*
X127049760Y-109684691D01*
X127026900Y-109799613D01*
X127026900Y-110663352D01*
X127007587Y-110730388D01*
X126927358Y-110858071D01*
X126927357Y-110858074D01*
X126878007Y-110999111D01*
X126867183Y-111030043D01*
X126846784Y-111211090D01*
X123153204Y-111211090D01*
X123161043Y-111198615D01*
X123221217Y-111026647D01*
X123241616Y-110845600D01*
X123221217Y-110664553D01*
X123161043Y-110492585D01*
X123161041Y-110492582D01*
X123161041Y-110492581D01*
X123080813Y-110364898D01*
X123061500Y-110297862D01*
X123061500Y-109386737D01*
X123080813Y-109319701D01*
X123121153Y-109255500D01*
X123161043Y-109192015D01*
X123221217Y-109020047D01*
X123241616Y-108839000D01*
X123221217Y-108657953D01*
X123161043Y-108485985D01*
X123161041Y-108485982D01*
X123161041Y-108485981D01*
X123064112Y-108331719D01*
X122935281Y-108202888D01*
X122935279Y-108202887D01*
X122781018Y-108105958D01*
X122781015Y-108105957D01*
X122609050Y-108045784D01*
X122609049Y-108045783D01*
X122609047Y-108045783D01*
X122428000Y-108025384D01*
X122246953Y-108045783D01*
X122246950Y-108045783D01*
X122246949Y-108045784D01*
X122074984Y-108105957D01*
X122074981Y-108105958D01*
X121920720Y-108202887D01*
X121920718Y-108202888D01*
X121791890Y-108331717D01*
X121791888Y-108331719D01*
X121694958Y-108485981D01*
X121694957Y-108485984D01*
X121637839Y-108649220D01*
X121634783Y-108657953D01*
X121614384Y-108839000D01*
X117634304Y-108839000D01*
X119884896Y-106588408D01*
X119947208Y-106554382D01*
X119973991Y-106551503D01*
X121934264Y-106551503D01*
X122001300Y-106570816D01*
X122084187Y-106622897D01*
X122128986Y-106651046D01*
X122300954Y-106711220D01*
X122482001Y-106731619D01*
X122663048Y-106711220D01*
X122835016Y-106651046D01*
X122989282Y-106554114D01*
X123118112Y-106425284D01*
X123215044Y-106271018D01*
X123275218Y-106099050D01*
X123295617Y-105918003D01*
X123275218Y-105736956D01*
X123215044Y-105564988D01*
X123215042Y-105564985D01*
X123215042Y-105564984D01*
X123118113Y-105410723D01*
X123118112Y-105410721D01*
X122989282Y-105281891D01*
X122989280Y-105281890D01*
X122835019Y-105184961D01*
X122835016Y-105184960D01*
X122663051Y-105124787D01*
X122663050Y-105124786D01*
X122663048Y-105124786D01*
X122482001Y-105104387D01*
X122300954Y-105124786D01*
X122300951Y-105124786D01*
X122300950Y-105124787D01*
X122128985Y-105184960D01*
X122128983Y-105184961D01*
X122001300Y-105265190D01*
X121934264Y-105284503D01*
X119597000Y-105284503D01*
X119523965Y-105299031D01*
X119474612Y-105308848D01*
X119474610Y-105308848D01*
X119474609Y-105308849D01*
X119359320Y-105356604D01*
X119255568Y-105425929D01*
X119255561Y-105425934D01*
X116865595Y-107815901D01*
X116803283Y-107849927D01*
X116732468Y-107844862D01*
X116675632Y-107802315D01*
X116650821Y-107735795D01*
X116650500Y-107726806D01*
X116650500Y-101979082D01*
X116650499Y-101979080D01*
X116620919Y-101949500D01*
X116620918Y-101949500D01*
X114620918Y-101949500D01*
X114579082Y-101949500D01*
X114579080Y-101949500D01*
X114549500Y-101979080D01*
X114549500Y-103020919D01*
X114579080Y-103050499D01*
X114579082Y-103050500D01*
X114620918Y-103050500D01*
X115423500Y-103050500D01*
X115491621Y-103070502D01*
X115538114Y-103124158D01*
X115549500Y-103176500D01*
X115549500Y-106823500D01*
X115529498Y-106891621D01*
X115475842Y-106938114D01*
X115423500Y-106949500D01*
X114559500Y-106949500D01*
X114491379Y-106929498D01*
X114444886Y-106875842D01*
X114433500Y-106823500D01*
X114433500Y-106147737D01*
X114452813Y-106080701D01*
X114500781Y-106004360D01*
X114533043Y-105953015D01*
X114593217Y-105781047D01*
X114613616Y-105600000D01*
X114593217Y-105418953D01*
X114533043Y-105246985D01*
X114533041Y-105246982D01*
X114533041Y-105246981D01*
X114436112Y-105092720D01*
X114436111Y-105092718D01*
X114307281Y-104963888D01*
X114307279Y-104963887D01*
X114147024Y-104863192D01*
X114147755Y-104862028D01*
X114100747Y-104819584D01*
X114082139Y-104751069D01*
X114103527Y-104683371D01*
X114119018Y-104664545D01*
X114119522Y-104664040D01*
X114119525Y-104664039D01*
X114248355Y-104535209D01*
X114345287Y-104380943D01*
X114405461Y-104208975D01*
X114425860Y-104027928D01*
X114405461Y-103846881D01*
X114345287Y-103674913D01*
X114345285Y-103674910D01*
X114345285Y-103674909D01*
X114248356Y-103520648D01*
X114248355Y-103520646D01*
X114119525Y-103391816D01*
X114119523Y-103391815D01*
X113965262Y-103294886D01*
X113965259Y-103294885D01*
X113890749Y-103268813D01*
X113793291Y-103234711D01*
X113695534Y-103223696D01*
X113624985Y-103215747D01*
X113559532Y-103188243D01*
X113519339Y-103129719D01*
X113517168Y-103058755D01*
X113532406Y-103023502D01*
X113534030Y-103020918D01*
X113566643Y-102969015D01*
X113626817Y-102797047D01*
X113647216Y-102616000D01*
X113626817Y-102434953D01*
X113566643Y-102262985D01*
X113566641Y-102262982D01*
X113566641Y-102262981D01*
X113486413Y-102135298D01*
X113467100Y-102068262D01*
X113467100Y-98805998D01*
X128472386Y-98805998D01*
X128492785Y-98987045D01*
X128492785Y-98987047D01*
X128492786Y-98987048D01*
X128552959Y-99159013D01*
X128552960Y-99159016D01*
X128649889Y-99313277D01*
X128649890Y-99313279D01*
X128778720Y-99442109D01*
X128778722Y-99442110D01*
X128932983Y-99539039D01*
X128932984Y-99539039D01*
X128932987Y-99539041D01*
X128984396Y-99557029D01*
X129002982Y-99563533D01*
X129050463Y-99593367D01*
X129924857Y-100467762D01*
X129958882Y-100530074D01*
X129960968Y-100542747D01*
X129965981Y-100587238D01*
X129965984Y-100587252D01*
X130026157Y-100759215D01*
X130026158Y-100759218D01*
X130123087Y-100913479D01*
X130123088Y-100913481D01*
X130251918Y-101042311D01*
X130251920Y-101042312D01*
X130406181Y-101139241D01*
X130406182Y-101139241D01*
X130406185Y-101139243D01*
X130578153Y-101199417D01*
X130759200Y-101219816D01*
X130940247Y-101199417D01*
X131112215Y-101139243D01*
X131266481Y-101042311D01*
X131395311Y-100913481D01*
X131492243Y-100759215D01*
X131552417Y-100587247D01*
X131572816Y-100406200D01*
X131552417Y-100225153D01*
X131492243Y-100053185D01*
X131492241Y-100053182D01*
X131492241Y-100053181D01*
X131395312Y-99898920D01*
X131395311Y-99898918D01*
X131266481Y-99770088D01*
X131266479Y-99770087D01*
X131112218Y-99673158D01*
X131112215Y-99673157D01*
X130940252Y-99612984D01*
X130940238Y-99612981D01*
X130895747Y-99607968D01*
X130830295Y-99580464D01*
X130820762Y-99571857D01*
X130136472Y-98887568D01*
X130102447Y-98825255D01*
X130100359Y-98812580D01*
X130099617Y-98806000D01*
X130099618Y-98805998D01*
X130079219Y-98624951D01*
X130019045Y-98452983D01*
X130019043Y-98452980D01*
X130019043Y-98452979D01*
X129922114Y-98298718D01*
X129922113Y-98298716D01*
X129793283Y-98169886D01*
X129793281Y-98169885D01*
X129639020Y-98072956D01*
X129639017Y-98072955D01*
X129467052Y-98012782D01*
X129467051Y-98012781D01*
X129467049Y-98012781D01*
X129286002Y-97992382D01*
X129104955Y-98012781D01*
X129104952Y-98012781D01*
X129104951Y-98012782D01*
X128932986Y-98072955D01*
X128932983Y-98072956D01*
X128778722Y-98169885D01*
X128778720Y-98169886D01*
X128649890Y-98298716D01*
X128649889Y-98298718D01*
X128552960Y-98452979D01*
X128552959Y-98452982D01*
X128512079Y-98569813D01*
X128492785Y-98624951D01*
X128472386Y-98805998D01*
X113467100Y-98805998D01*
X113467100Y-97916998D01*
X151205384Y-97916998D01*
X151225783Y-98098045D01*
X151225783Y-98098047D01*
X151225784Y-98098048D01*
X151285957Y-98270013D01*
X151285958Y-98270016D01*
X151382887Y-98424277D01*
X151382888Y-98424279D01*
X151511718Y-98553109D01*
X151511720Y-98553110D01*
X151665981Y-98650039D01*
X151665982Y-98650039D01*
X151665985Y-98650041D01*
X151837953Y-98710215D01*
X152019000Y-98730614D01*
X152200047Y-98710215D01*
X152372015Y-98650041D01*
X152435514Y-98610141D01*
X152499698Y-98569813D01*
X152566734Y-98550500D01*
X155916263Y-98550500D01*
X155983299Y-98569813D01*
X156091444Y-98637764D01*
X156110985Y-98650043D01*
X156282953Y-98710217D01*
X156464000Y-98730616D01*
X156645047Y-98710217D01*
X156817015Y-98650043D01*
X156971281Y-98553111D01*
X157100111Y-98424281D01*
X157197043Y-98270015D01*
X157257217Y-98098047D01*
X157277616Y-97917000D01*
X157257217Y-97735953D01*
X157197043Y-97563985D01*
X157197041Y-97563982D01*
X157197041Y-97563981D01*
X157100112Y-97409720D01*
X157100111Y-97409718D01*
X156971281Y-97280888D01*
X156971279Y-97280887D01*
X156817018Y-97183958D01*
X156817015Y-97183957D01*
X156645050Y-97123784D01*
X156645049Y-97123783D01*
X156645047Y-97123783D01*
X156464000Y-97103384D01*
X156282953Y-97123783D01*
X156282950Y-97123783D01*
X156282949Y-97123784D01*
X156110984Y-97183957D01*
X156110982Y-97183958D01*
X155983299Y-97264187D01*
X155916263Y-97283500D01*
X152566741Y-97283500D01*
X152499705Y-97264187D01*
X152372018Y-97183956D01*
X152372015Y-97183955D01*
X152200050Y-97123782D01*
X152200049Y-97123781D01*
X152200047Y-97123781D01*
X152019000Y-97103382D01*
X151837953Y-97123781D01*
X151837950Y-97123781D01*
X151837949Y-97123782D01*
X151665984Y-97183955D01*
X151665981Y-97183956D01*
X151511720Y-97280885D01*
X151511718Y-97280886D01*
X151382888Y-97409716D01*
X151382887Y-97409718D01*
X151285958Y-97563979D01*
X151285957Y-97563982D01*
X151234636Y-97710651D01*
X151225783Y-97735951D01*
X151205384Y-97916998D01*
X113467100Y-97916998D01*
X113467100Y-97531207D01*
X113467099Y-97531203D01*
X113442755Y-97408815D01*
X113395000Y-97293525D01*
X113325671Y-97189767D01*
X113237433Y-97101529D01*
X112721343Y-96585439D01*
X112687317Y-96523127D01*
X112685230Y-96510449D01*
X112680217Y-96465954D01*
X112670304Y-96437624D01*
X112620043Y-96293985D01*
X112620041Y-96293982D01*
X112620041Y-96293981D01*
X112523112Y-96139720D01*
X112523111Y-96139718D01*
X112394281Y-96010888D01*
X112394279Y-96010887D01*
X112240018Y-95913958D01*
X112240015Y-95913957D01*
X112068050Y-95853784D01*
X112068049Y-95853783D01*
X112068047Y-95853783D01*
X111887000Y-95833384D01*
X111705953Y-95853783D01*
X111705950Y-95853783D01*
X111705949Y-95853784D01*
X111533984Y-95913957D01*
X111533982Y-95913958D01*
X111406299Y-95994187D01*
X111339263Y-96013500D01*
X111189603Y-96013500D01*
X111067214Y-96037845D01*
X111067209Y-96037847D01*
X110951924Y-96085599D01*
X110848171Y-96154925D01*
X110848164Y-96154930D01*
X107274699Y-99728394D01*
X107212387Y-99762420D01*
X107141571Y-99757355D01*
X107084736Y-99714808D01*
X107059925Y-99648288D01*
X107062762Y-99611268D01*
X107115509Y-99380171D01*
X107154500Y-99034120D01*
X107154500Y-98685880D01*
X107147634Y-98624947D01*
X107139246Y-98550500D01*
X107115509Y-98339829D01*
X107038018Y-98000319D01*
X107035241Y-97992384D01*
X106923008Y-97671638D01*
X106923007Y-97671637D01*
X106923002Y-97671621D01*
X106771906Y-97357867D01*
X106756956Y-97334075D01*
X106666281Y-97189767D01*
X106586630Y-97063003D01*
X106586624Y-97062995D01*
X106369510Y-96790740D01*
X106123259Y-96544489D01*
X105851004Y-96327375D01*
X105851000Y-96327372D01*
X105556137Y-96142096D01*
X105556128Y-96142091D01*
X105242388Y-95991002D01*
X105242383Y-95991000D01*
X105242379Y-95990998D01*
X105242373Y-95990995D01*
X105242361Y-95990991D01*
X104913687Y-95875983D01*
X104574174Y-95798491D01*
X104228122Y-95759500D01*
X104228120Y-95759500D01*
X103879880Y-95759500D01*
X103879878Y-95759500D01*
X103533825Y-95798491D01*
X103194312Y-95875983D01*
X102865638Y-95990991D01*
X102865611Y-95991002D01*
X102551871Y-96142091D01*
X102551862Y-96142096D01*
X102256999Y-96327372D01*
X102256995Y-96327375D01*
X101984740Y-96544489D01*
X101738489Y-96790740D01*
X101521375Y-97062995D01*
X101521372Y-97062999D01*
X101336096Y-97357862D01*
X101336091Y-97357871D01*
X101185002Y-97671611D01*
X101184991Y-97671638D01*
X101069983Y-98000312D01*
X100992491Y-98339825D01*
X100953500Y-98685878D01*
X100604500Y-98685878D01*
X100604500Y-98363539D01*
X100604698Y-98356474D01*
X100607941Y-98298719D01*
X100622649Y-98036821D01*
X100624231Y-98022785D01*
X100677266Y-97710638D01*
X100680405Y-97696888D01*
X100768060Y-97392631D01*
X100772721Y-97379311D01*
X100893886Y-97086792D01*
X100900015Y-97074066D01*
X101053166Y-96796959D01*
X101060674Y-96785010D01*
X101243900Y-96526778D01*
X101252697Y-96515746D01*
X101463674Y-96279664D01*
X101473665Y-96269674D01*
X101709746Y-96058697D01*
X101720778Y-96049900D01*
X101979010Y-95866674D01*
X101990959Y-95859166D01*
X102268070Y-95706012D01*
X102280792Y-95699886D01*
X102573311Y-95578721D01*
X102586631Y-95574060D01*
X102890888Y-95486405D01*
X102904638Y-95483266D01*
X103216789Y-95430230D01*
X103230821Y-95428649D01*
X103550474Y-95410697D01*
X103557539Y-95410500D01*
X103570408Y-95410500D01*
X162537592Y-95410500D01*
X162550461Y-95410500D01*
X162557525Y-95410697D01*
G37*
%TD.AperFunction*%
%TD*%
M02*
