%TF.GenerationSoftware,KiCad,Pcbnew,8.0.6*%
%TF.CreationDate,2024-11-19T00:52:39-05:00*%
%TF.ProjectId,tr109-sensorboard,74723130-392d-4736-956e-736f72626f61,4*%
%TF.SameCoordinates,Original*%
%TF.FileFunction,Soldermask,Bot*%
%TF.FilePolarity,Negative*%
%FSLAX46Y46*%
G04 Gerber Fmt 4.6, Leading zero omitted, Abs format (unit mm)*
G04 Created by KiCad (PCBNEW 8.0.6) date 2024-11-19 00:52:39*
%MOMM*%
%LPD*%
G01*
G04 APERTURE LIST*
%ADD10C,6.200000*%
%ADD11R,1.700000X1.700000*%
%ADD12O,1.700000X1.700000*%
%ADD13R,1.000000X1.500000*%
G04 APERTURE END LIST*
D10*
%TO.C,*%
X104054000Y-121860000D03*
%TD*%
%TO.C,*%
X162054000Y-121860000D03*
%TD*%
%TO.C,*%
X104054000Y-98860000D03*
%TD*%
%TO.C,*%
X162054000Y-98860000D03*
%TD*%
D11*
%TO.C,J47*%
X157184000Y-120590000D03*
D12*
X157184000Y-123130000D03*
X154644000Y-120590000D03*
X154644000Y-123130000D03*
X152104000Y-120590000D03*
X152104000Y-123130000D03*
X149564000Y-120590000D03*
X149564000Y-123130000D03*
X147024000Y-120590000D03*
X147024000Y-123130000D03*
X144484000Y-120590000D03*
X144484000Y-123130000D03*
X141944000Y-120590000D03*
X141944000Y-123130000D03*
X139404000Y-120590000D03*
X139404000Y-123130000D03*
X136864000Y-120590000D03*
X136864000Y-123130000D03*
X134324000Y-120590000D03*
X134324000Y-123130000D03*
X131784000Y-120590000D03*
X131784000Y-123130000D03*
X129244000Y-120590000D03*
X129244000Y-123130000D03*
X126704000Y-120590000D03*
X126704000Y-123130000D03*
X124164000Y-120590000D03*
X124164000Y-123130000D03*
X121624000Y-120590000D03*
X121624000Y-123130000D03*
X119084000Y-120590000D03*
X119084000Y-123130000D03*
X116544000Y-120590000D03*
X116544000Y-123130000D03*
X114004000Y-120590000D03*
X114004000Y-123130000D03*
X111464000Y-120590000D03*
X111464000Y-123130000D03*
X108924000Y-120590000D03*
X108924000Y-123130000D03*
%TD*%
D11*
%TO.C,J3*%
X129244000Y-105918000D03*
D12*
X131784000Y-105918000D03*
X134324000Y-105918000D03*
X136864000Y-105918000D03*
%TD*%
D13*
%TO.C,JP1*%
X157934900Y-114592100D03*
X159234900Y-114592100D03*
%TD*%
M02*
