G04 #@! TF.GenerationSoftware,KiCad,Pcbnew,(5.1.10-1-10_14)*
G04 #@! TF.CreationDate,2021-06-08T22:44:31-04:00*
G04 #@! TF.ProjectId,tr109-sensorboard,74723130-392d-4736-956e-736f72626f61,3*
G04 #@! TF.SameCoordinates,Original*
G04 #@! TF.FileFunction,Soldermask,Top*
G04 #@! TF.FilePolarity,Negative*
%FSLAX46Y46*%
G04 Gerber Fmt 4.6, Leading zero omitted, Abs format (unit mm)*
G04 Created by KiCad (PCBNEW (5.1.10-1-10_14)) date 2021-06-08 22:44:31*
%MOMM*%
%LPD*%
G01*
G04 APERTURE LIST*
%ADD10O,1.700000X1.700000*%
%ADD11R,1.700000X1.700000*%
%ADD12R,1.000000X1.000000*%
%ADD13R,0.800000X2.600000*%
%ADD14R,0.700000X2.600000*%
%ADD15R,0.800000X3.600000*%
%ADD16C,6.200000*%
G04 APERTURE END LIST*
D10*
X108924000Y-123130000D03*
X108924000Y-120590000D03*
X111464000Y-123130000D03*
X111464000Y-120590000D03*
X114004000Y-123130000D03*
X114004000Y-120590000D03*
X116544000Y-123130000D03*
X116544000Y-120590000D03*
X119084000Y-123130000D03*
X119084000Y-120590000D03*
X121624000Y-123130000D03*
X121624000Y-120590000D03*
X124164000Y-123130000D03*
X124164000Y-120590000D03*
X126704000Y-123130000D03*
X126704000Y-120590000D03*
X129244000Y-123130000D03*
X129244000Y-120590000D03*
X131784000Y-123130000D03*
X131784000Y-120590000D03*
X134324000Y-123130000D03*
X134324000Y-120590000D03*
X136864000Y-123130000D03*
X136864000Y-120590000D03*
X139404000Y-123130000D03*
X139404000Y-120590000D03*
X141944000Y-123130000D03*
X141944000Y-120590000D03*
X144484000Y-123130000D03*
X144484000Y-120590000D03*
X147024000Y-123130000D03*
X147024000Y-120590000D03*
X149564000Y-123130000D03*
X149564000Y-120590000D03*
X152104000Y-123130000D03*
X152104000Y-120590000D03*
X154644000Y-123130000D03*
X154644000Y-120590000D03*
X157184000Y-123130000D03*
D11*
X157184000Y-120590000D03*
D10*
X136874000Y-105918000D03*
X134334000Y-105918000D03*
X131794000Y-105918000D03*
D11*
X129254000Y-105918000D03*
D12*
X118364000Y-97663000D03*
X109067600Y-97828100D03*
G36*
G01*
X112049100Y-103424500D02*
X112449100Y-103424500D01*
G75*
G02*
X112549100Y-103524500I0J-100000D01*
G01*
X112549100Y-103924500D01*
G75*
G02*
X112449100Y-104024500I-100000J0D01*
G01*
X112049100Y-104024500D01*
G75*
G02*
X111949100Y-103924500I0J100000D01*
G01*
X111949100Y-103524500D01*
G75*
G02*
X112049100Y-103424500I100000J0D01*
G01*
G37*
G36*
G01*
X112049100Y-104224500D02*
X112449100Y-104224500D01*
G75*
G02*
X112549100Y-104324500I0J-100000D01*
G01*
X112549100Y-104724500D01*
G75*
G02*
X112449100Y-104824500I-100000J0D01*
G01*
X112049100Y-104824500D01*
G75*
G02*
X111949100Y-104724500I0J100000D01*
G01*
X111949100Y-104324500D01*
G75*
G02*
X112049100Y-104224500I100000J0D01*
G01*
G37*
G36*
G01*
X112049100Y-105024500D02*
X112449100Y-105024500D01*
G75*
G02*
X112549100Y-105124500I0J-100000D01*
G01*
X112549100Y-105524500D01*
G75*
G02*
X112449100Y-105624500I-100000J0D01*
G01*
X112049100Y-105624500D01*
G75*
G02*
X111949100Y-105524500I0J100000D01*
G01*
X111949100Y-105124500D01*
G75*
G02*
X112049100Y-105024500I100000J0D01*
G01*
G37*
G36*
G01*
X112049100Y-105824500D02*
X112449100Y-105824500D01*
G75*
G02*
X112549100Y-105924500I0J-100000D01*
G01*
X112549100Y-106324500D01*
G75*
G02*
X112449100Y-106424500I-100000J0D01*
G01*
X112049100Y-106424500D01*
G75*
G02*
X111949100Y-106324500I0J100000D01*
G01*
X111949100Y-105924500D01*
G75*
G02*
X112049100Y-105824500I100000J0D01*
G01*
G37*
G36*
G01*
X114449100Y-105824500D02*
X114849100Y-105824500D01*
G75*
G02*
X114949100Y-105924500I0J-100000D01*
G01*
X114949100Y-106324500D01*
G75*
G02*
X114849100Y-106424500I-100000J0D01*
G01*
X114449100Y-106424500D01*
G75*
G02*
X114349100Y-106324500I0J100000D01*
G01*
X114349100Y-105924500D01*
G75*
G02*
X114449100Y-105824500I100000J0D01*
G01*
G37*
G36*
G01*
X114449100Y-105024500D02*
X114849100Y-105024500D01*
G75*
G02*
X114949100Y-105124500I0J-100000D01*
G01*
X114949100Y-105524500D01*
G75*
G02*
X114849100Y-105624500I-100000J0D01*
G01*
X114449100Y-105624500D01*
G75*
G02*
X114349100Y-105524500I0J100000D01*
G01*
X114349100Y-105124500D01*
G75*
G02*
X114449100Y-105024500I100000J0D01*
G01*
G37*
G36*
G01*
X114449100Y-104224500D02*
X114849100Y-104224500D01*
G75*
G02*
X114949100Y-104324500I0J-100000D01*
G01*
X114949100Y-104724500D01*
G75*
G02*
X114849100Y-104824500I-100000J0D01*
G01*
X114449100Y-104824500D01*
G75*
G02*
X114349100Y-104724500I0J100000D01*
G01*
X114349100Y-104324500D01*
G75*
G02*
X114449100Y-104224500I100000J0D01*
G01*
G37*
G36*
G01*
X114449100Y-103424500D02*
X114849100Y-103424500D01*
G75*
G02*
X114949100Y-103524500I0J-100000D01*
G01*
X114949100Y-103924500D01*
G75*
G02*
X114849100Y-104024500I-100000J0D01*
G01*
X114449100Y-104024500D01*
G75*
G02*
X114349100Y-103924500I0J100000D01*
G01*
X114349100Y-103524500D01*
G75*
G02*
X114449100Y-103424500I100000J0D01*
G01*
G37*
G36*
G01*
X103440000Y-103699999D02*
X103440000Y-104600001D01*
G75*
G02*
X103190001Y-104850000I-249999J0D01*
G01*
X102539999Y-104850000D01*
G75*
G02*
X102290000Y-104600001I0J249999D01*
G01*
X102290000Y-103699999D01*
G75*
G02*
X102539999Y-103450000I249999J0D01*
G01*
X103190001Y-103450000D01*
G75*
G02*
X103440000Y-103699999I0J-249999D01*
G01*
G37*
G36*
G01*
X105490000Y-103699999D02*
X105490000Y-104600001D01*
G75*
G02*
X105240001Y-104850000I-249999J0D01*
G01*
X104589999Y-104850000D01*
G75*
G02*
X104340000Y-104600001I0J249999D01*
G01*
X104340000Y-103699999D01*
G75*
G02*
X104589999Y-103450000I249999J0D01*
G01*
X105240001Y-103450000D01*
G75*
G02*
X105490000Y-103699999I0J-249999D01*
G01*
G37*
G36*
G01*
X121490000Y-117910001D02*
X121490000Y-117009999D01*
G75*
G02*
X121739999Y-116760000I249999J0D01*
G01*
X122390001Y-116760000D01*
G75*
G02*
X122640000Y-117009999I0J-249999D01*
G01*
X122640000Y-117910001D01*
G75*
G02*
X122390001Y-118160000I-249999J0D01*
G01*
X121739999Y-118160000D01*
G75*
G02*
X121490000Y-117910001I0J249999D01*
G01*
G37*
G36*
G01*
X119440000Y-117910001D02*
X119440000Y-117009999D01*
G75*
G02*
X119689999Y-116760000I249999J0D01*
G01*
X120340001Y-116760000D01*
G75*
G02*
X120590000Y-117009999I0J-249999D01*
G01*
X120590000Y-117910001D01*
G75*
G02*
X120340001Y-118160000I-249999J0D01*
G01*
X119689999Y-118160000D01*
G75*
G02*
X119440000Y-117910001I0J249999D01*
G01*
G37*
G36*
G01*
X157739500Y-115029401D02*
X157739500Y-114129399D01*
G75*
G02*
X157989499Y-113879400I249999J0D01*
G01*
X158639501Y-113879400D01*
G75*
G02*
X158889500Y-114129399I0J-249999D01*
G01*
X158889500Y-115029401D01*
G75*
G02*
X158639501Y-115279400I-249999J0D01*
G01*
X157989499Y-115279400D01*
G75*
G02*
X157739500Y-115029401I0J249999D01*
G01*
G37*
G36*
G01*
X155689500Y-115029401D02*
X155689500Y-114129399D01*
G75*
G02*
X155939499Y-113879400I249999J0D01*
G01*
X156589501Y-113879400D01*
G75*
G02*
X156839500Y-114129399I0J-249999D01*
G01*
X156839500Y-115029401D01*
G75*
G02*
X156589501Y-115279400I-249999J0D01*
G01*
X155939499Y-115279400D01*
G75*
G02*
X155689500Y-115029401I0J249999D01*
G01*
G37*
G36*
G01*
X140531001Y-98089300D02*
X139630999Y-98089300D01*
G75*
G02*
X139381000Y-97839301I0J249999D01*
G01*
X139381000Y-97189299D01*
G75*
G02*
X139630999Y-96939300I249999J0D01*
G01*
X140531001Y-96939300D01*
G75*
G02*
X140781000Y-97189299I0J-249999D01*
G01*
X140781000Y-97839301D01*
G75*
G02*
X140531001Y-98089300I-249999J0D01*
G01*
G37*
G36*
G01*
X140531001Y-100139300D02*
X139630999Y-100139300D01*
G75*
G02*
X139381000Y-99889301I0J249999D01*
G01*
X139381000Y-99239299D01*
G75*
G02*
X139630999Y-98989300I249999J0D01*
G01*
X140531001Y-98989300D01*
G75*
G02*
X140781000Y-99239299I0J-249999D01*
G01*
X140781000Y-99889301D01*
G75*
G02*
X140531001Y-100139300I-249999J0D01*
G01*
G37*
G36*
G01*
X150805300Y-115296101D02*
X150805300Y-114396099D01*
G75*
G02*
X151055299Y-114146100I249999J0D01*
G01*
X151705301Y-114146100D01*
G75*
G02*
X151955300Y-114396099I0J-249999D01*
G01*
X151955300Y-115296101D01*
G75*
G02*
X151705301Y-115546100I-249999J0D01*
G01*
X151055299Y-115546100D01*
G75*
G02*
X150805300Y-115296101I0J249999D01*
G01*
G37*
G36*
G01*
X148755300Y-115296101D02*
X148755300Y-114396099D01*
G75*
G02*
X149005299Y-114146100I249999J0D01*
G01*
X149655301Y-114146100D01*
G75*
G02*
X149905300Y-114396099I0J-249999D01*
G01*
X149905300Y-115296101D01*
G75*
G02*
X149655301Y-115546100I-249999J0D01*
G01*
X149005299Y-115546100D01*
G75*
G02*
X148755300Y-115296101I0J249999D01*
G01*
G37*
G36*
G01*
X137991001Y-100515000D02*
X137090999Y-100515000D01*
G75*
G02*
X136841000Y-100265001I0J249999D01*
G01*
X136841000Y-99614999D01*
G75*
G02*
X137090999Y-99365000I249999J0D01*
G01*
X137991001Y-99365000D01*
G75*
G02*
X138241000Y-99614999I0J-249999D01*
G01*
X138241000Y-100265001D01*
G75*
G02*
X137991001Y-100515000I-249999J0D01*
G01*
G37*
G36*
G01*
X137991001Y-102565000D02*
X137090999Y-102565000D01*
G75*
G02*
X136841000Y-102315001I0J249999D01*
G01*
X136841000Y-101664999D01*
G75*
G02*
X137090999Y-101415000I249999J0D01*
G01*
X137991001Y-101415000D01*
G75*
G02*
X138241000Y-101664999I0J-249999D01*
G01*
X138241000Y-102315001D01*
G75*
G02*
X137991001Y-102565000I-249999J0D01*
G01*
G37*
G36*
G01*
X134970000Y-114383399D02*
X134970000Y-115283401D01*
G75*
G02*
X134720001Y-115533400I-249999J0D01*
G01*
X134069999Y-115533400D01*
G75*
G02*
X133820000Y-115283401I0J249999D01*
G01*
X133820000Y-114383399D01*
G75*
G02*
X134069999Y-114133400I249999J0D01*
G01*
X134720001Y-114133400D01*
G75*
G02*
X134970000Y-114383399I0J-249999D01*
G01*
G37*
G36*
G01*
X137020000Y-114383399D02*
X137020000Y-115283401D01*
G75*
G02*
X136770001Y-115533400I-249999J0D01*
G01*
X136119999Y-115533400D01*
G75*
G02*
X135870000Y-115283401I0J249999D01*
G01*
X135870000Y-114383399D01*
G75*
G02*
X136119999Y-114133400I249999J0D01*
G01*
X136770001Y-114133400D01*
G75*
G02*
X137020000Y-114383399I0J-249999D01*
G01*
G37*
G36*
G01*
X130626700Y-114383399D02*
X130626700Y-115283401D01*
G75*
G02*
X130376701Y-115533400I-249999J0D01*
G01*
X129726699Y-115533400D01*
G75*
G02*
X129476700Y-115283401I0J249999D01*
G01*
X129476700Y-114383399D01*
G75*
G02*
X129726699Y-114133400I249999J0D01*
G01*
X130376701Y-114133400D01*
G75*
G02*
X130626700Y-114383399I0J-249999D01*
G01*
G37*
G36*
G01*
X132676700Y-114383399D02*
X132676700Y-115283401D01*
G75*
G02*
X132426701Y-115533400I-249999J0D01*
G01*
X131776699Y-115533400D01*
G75*
G02*
X131526700Y-115283401I0J249999D01*
G01*
X131526700Y-114383399D01*
G75*
G02*
X131776699Y-114133400I249999J0D01*
G01*
X132426701Y-114133400D01*
G75*
G02*
X132676700Y-114383399I0J-249999D01*
G01*
G37*
G36*
G01*
X124327500Y-114383399D02*
X124327500Y-115283401D01*
G75*
G02*
X124077501Y-115533400I-249999J0D01*
G01*
X123427499Y-115533400D01*
G75*
G02*
X123177500Y-115283401I0J249999D01*
G01*
X123177500Y-114383399D01*
G75*
G02*
X123427499Y-114133400I249999J0D01*
G01*
X124077501Y-114133400D01*
G75*
G02*
X124327500Y-114383399I0J-249999D01*
G01*
G37*
G36*
G01*
X126377500Y-114383399D02*
X126377500Y-115283401D01*
G75*
G02*
X126127501Y-115533400I-249999J0D01*
G01*
X125477499Y-115533400D01*
G75*
G02*
X125227500Y-115283401I0J249999D01*
G01*
X125227500Y-114383399D01*
G75*
G02*
X125477499Y-114133400I249999J0D01*
G01*
X126127501Y-114133400D01*
G75*
G02*
X126377500Y-114383399I0J-249999D01*
G01*
G37*
G36*
G01*
X119425300Y-114383399D02*
X119425300Y-115283401D01*
G75*
G02*
X119175301Y-115533400I-249999J0D01*
G01*
X118525299Y-115533400D01*
G75*
G02*
X118275300Y-115283401I0J249999D01*
G01*
X118275300Y-114383399D01*
G75*
G02*
X118525299Y-114133400I249999J0D01*
G01*
X119175301Y-114133400D01*
G75*
G02*
X119425300Y-114383399I0J-249999D01*
G01*
G37*
G36*
G01*
X121475300Y-114383399D02*
X121475300Y-115283401D01*
G75*
G02*
X121225301Y-115533400I-249999J0D01*
G01*
X120575299Y-115533400D01*
G75*
G02*
X120325300Y-115283401I0J249999D01*
G01*
X120325300Y-114383399D01*
G75*
G02*
X120575299Y-114133400I249999J0D01*
G01*
X121225301Y-114133400D01*
G75*
G02*
X121475300Y-114383399I0J-249999D01*
G01*
G37*
G36*
G01*
X115400000Y-115283401D02*
X115400000Y-114383399D01*
G75*
G02*
X115649999Y-114133400I249999J0D01*
G01*
X116300001Y-114133400D01*
G75*
G02*
X116550000Y-114383399I0J-249999D01*
G01*
X116550000Y-115283401D01*
G75*
G02*
X116300001Y-115533400I-249999J0D01*
G01*
X115649999Y-115533400D01*
G75*
G02*
X115400000Y-115283401I0J249999D01*
G01*
G37*
G36*
G01*
X113350000Y-115283401D02*
X113350000Y-114383399D01*
G75*
G02*
X113599999Y-114133400I249999J0D01*
G01*
X114250001Y-114133400D01*
G75*
G02*
X114500000Y-114383399I0J-249999D01*
G01*
X114500000Y-115283401D01*
G75*
G02*
X114250001Y-115533400I-249999J0D01*
G01*
X113599999Y-115533400D01*
G75*
G02*
X113350000Y-115283401I0J249999D01*
G01*
G37*
G36*
G01*
X103440000Y-105919999D02*
X103440000Y-106820001D01*
G75*
G02*
X103190001Y-107070000I-249999J0D01*
G01*
X102539999Y-107070000D01*
G75*
G02*
X102290000Y-106820001I0J249999D01*
G01*
X102290000Y-105919999D01*
G75*
G02*
X102539999Y-105670000I249999J0D01*
G01*
X103190001Y-105670000D01*
G75*
G02*
X103440000Y-105919999I0J-249999D01*
G01*
G37*
G36*
G01*
X105490000Y-105919999D02*
X105490000Y-106820001D01*
G75*
G02*
X105240001Y-107070000I-249999J0D01*
G01*
X104589999Y-107070000D01*
G75*
G02*
X104340000Y-106820001I0J249999D01*
G01*
X104340000Y-105919999D01*
G75*
G02*
X104589999Y-105670000I249999J0D01*
G01*
X105240001Y-105670000D01*
G75*
G02*
X105490000Y-105919999I0J-249999D01*
G01*
G37*
G36*
G01*
X162896940Y-104399501D02*
X162896940Y-103499499D01*
G75*
G02*
X163146939Y-103249500I249999J0D01*
G01*
X163796941Y-103249500D01*
G75*
G02*
X164046940Y-103499499I0J-249999D01*
G01*
X164046940Y-104399501D01*
G75*
G02*
X163796941Y-104649500I-249999J0D01*
G01*
X163146939Y-104649500D01*
G75*
G02*
X162896940Y-104399501I0J249999D01*
G01*
G37*
G36*
G01*
X160846940Y-104399501D02*
X160846940Y-103499499D01*
G75*
G02*
X161096939Y-103249500I249999J0D01*
G01*
X161746941Y-103249500D01*
G75*
G02*
X161996940Y-103499499I0J-249999D01*
G01*
X161996940Y-104399501D01*
G75*
G02*
X161746941Y-104649500I-249999J0D01*
G01*
X161096939Y-104649500D01*
G75*
G02*
X160846940Y-104399501I0J249999D01*
G01*
G37*
G36*
G01*
X162896940Y-106634701D02*
X162896940Y-105734699D01*
G75*
G02*
X163146939Y-105484700I249999J0D01*
G01*
X163796941Y-105484700D01*
G75*
G02*
X164046940Y-105734699I0J-249999D01*
G01*
X164046940Y-106634701D01*
G75*
G02*
X163796941Y-106884700I-249999J0D01*
G01*
X163146939Y-106884700D01*
G75*
G02*
X162896940Y-106634701I0J249999D01*
G01*
G37*
G36*
G01*
X160846940Y-106634701D02*
X160846940Y-105734699D01*
G75*
G02*
X161096939Y-105484700I249999J0D01*
G01*
X161746941Y-105484700D01*
G75*
G02*
X161996940Y-105734699I0J-249999D01*
G01*
X161996940Y-106634701D01*
G75*
G02*
X161746941Y-106884700I-249999J0D01*
G01*
X161096939Y-106884700D01*
G75*
G02*
X160846940Y-106634701I0J249999D01*
G01*
G37*
G36*
G01*
X162959200Y-116972501D02*
X162959200Y-116072499D01*
G75*
G02*
X163209199Y-115822500I249999J0D01*
G01*
X163859201Y-115822500D01*
G75*
G02*
X164109200Y-116072499I0J-249999D01*
G01*
X164109200Y-116972501D01*
G75*
G02*
X163859201Y-117222500I-249999J0D01*
G01*
X163209199Y-117222500D01*
G75*
G02*
X162959200Y-116972501I0J249999D01*
G01*
G37*
G36*
G01*
X160909200Y-116972501D02*
X160909200Y-116072499D01*
G75*
G02*
X161159199Y-115822500I249999J0D01*
G01*
X161809201Y-115822500D01*
G75*
G02*
X162059200Y-116072499I0J-249999D01*
G01*
X162059200Y-116972501D01*
G75*
G02*
X161809201Y-117222500I-249999J0D01*
G01*
X161159199Y-117222500D01*
G75*
G02*
X160909200Y-116972501I0J249999D01*
G01*
G37*
G36*
G01*
X141521601Y-115741060D02*
X140621599Y-115741060D01*
G75*
G02*
X140371600Y-115491061I0J249999D01*
G01*
X140371600Y-114841059D01*
G75*
G02*
X140621599Y-114591060I249999J0D01*
G01*
X141521601Y-114591060D01*
G75*
G02*
X141771600Y-114841059I0J-249999D01*
G01*
X141771600Y-115491061D01*
G75*
G02*
X141521601Y-115741060I-249999J0D01*
G01*
G37*
G36*
G01*
X141521601Y-117791060D02*
X140621599Y-117791060D01*
G75*
G02*
X140371600Y-117541061I0J249999D01*
G01*
X140371600Y-116891059D01*
G75*
G02*
X140621599Y-116641060I249999J0D01*
G01*
X141521601Y-116641060D01*
G75*
G02*
X141771600Y-116891059I0J-249999D01*
G01*
X141771600Y-117541061D01*
G75*
G02*
X141521601Y-117791060I-249999J0D01*
G01*
G37*
G36*
G01*
X141166000Y-105352001D02*
X141166000Y-104451999D01*
G75*
G02*
X141415999Y-104202000I249999J0D01*
G01*
X142066001Y-104202000D01*
G75*
G02*
X142316000Y-104451999I0J-249999D01*
G01*
X142316000Y-105352001D01*
G75*
G02*
X142066001Y-105602000I-249999J0D01*
G01*
X141415999Y-105602000D01*
G75*
G02*
X141166000Y-105352001I0J249999D01*
G01*
G37*
G36*
G01*
X139116000Y-105352001D02*
X139116000Y-104451999D01*
G75*
G02*
X139365999Y-104202000I249999J0D01*
G01*
X140016001Y-104202000D01*
G75*
G02*
X140266000Y-104451999I0J-249999D01*
G01*
X140266000Y-105352001D01*
G75*
G02*
X140016001Y-105602000I-249999J0D01*
G01*
X139365999Y-105602000D01*
G75*
G02*
X139116000Y-105352001I0J249999D01*
G01*
G37*
G36*
G01*
X132047400Y-98595601D02*
X132047400Y-97695599D01*
G75*
G02*
X132297399Y-97445600I249999J0D01*
G01*
X132947401Y-97445600D01*
G75*
G02*
X133197400Y-97695599I0J-249999D01*
G01*
X133197400Y-98595601D01*
G75*
G02*
X132947401Y-98845600I-249999J0D01*
G01*
X132297399Y-98845600D01*
G75*
G02*
X132047400Y-98595601I0J249999D01*
G01*
G37*
G36*
G01*
X129997400Y-98595601D02*
X129997400Y-97695599D01*
G75*
G02*
X130247399Y-97445600I249999J0D01*
G01*
X130897401Y-97445600D01*
G75*
G02*
X131147400Y-97695599I0J-249999D01*
G01*
X131147400Y-98595601D01*
G75*
G02*
X130897401Y-98845600I-249999J0D01*
G01*
X130247399Y-98845600D01*
G75*
G02*
X129997400Y-98595601I0J249999D01*
G01*
G37*
G36*
G01*
X157282300Y-112933901D02*
X157282300Y-112033899D01*
G75*
G02*
X157532299Y-111783900I249999J0D01*
G01*
X158182301Y-111783900D01*
G75*
G02*
X158432300Y-112033899I0J-249999D01*
G01*
X158432300Y-112933901D01*
G75*
G02*
X158182301Y-113183900I-249999J0D01*
G01*
X157532299Y-113183900D01*
G75*
G02*
X157282300Y-112933901I0J249999D01*
G01*
G37*
G36*
G01*
X155232300Y-112933901D02*
X155232300Y-112033899D01*
G75*
G02*
X155482299Y-111783900I249999J0D01*
G01*
X156132301Y-111783900D01*
G75*
G02*
X156382300Y-112033899I0J-249999D01*
G01*
X156382300Y-112933901D01*
G75*
G02*
X156132301Y-113183900I-249999J0D01*
G01*
X155482299Y-113183900D01*
G75*
G02*
X155232300Y-112933901I0J249999D01*
G01*
G37*
G36*
G01*
X146423800Y-98113001D02*
X146423800Y-97212999D01*
G75*
G02*
X146673799Y-96963000I249999J0D01*
G01*
X147323801Y-96963000D01*
G75*
G02*
X147573800Y-97212999I0J-249999D01*
G01*
X147573800Y-98113001D01*
G75*
G02*
X147323801Y-98363000I-249999J0D01*
G01*
X146673799Y-98363000D01*
G75*
G02*
X146423800Y-98113001I0J249999D01*
G01*
G37*
G36*
G01*
X144373800Y-98113001D02*
X144373800Y-97212999D01*
G75*
G02*
X144623799Y-96963000I249999J0D01*
G01*
X145273801Y-96963000D01*
G75*
G02*
X145523800Y-97212999I0J-249999D01*
G01*
X145523800Y-98113001D01*
G75*
G02*
X145273801Y-98363000I-249999J0D01*
G01*
X144623799Y-98363000D01*
G75*
G02*
X144373800Y-98113001I0J249999D01*
G01*
G37*
G36*
G01*
X162959200Y-113302201D02*
X162959200Y-112402199D01*
G75*
G02*
X163209199Y-112152200I249999J0D01*
G01*
X163859201Y-112152200D01*
G75*
G02*
X164109200Y-112402199I0J-249999D01*
G01*
X164109200Y-113302201D01*
G75*
G02*
X163859201Y-113552200I-249999J0D01*
G01*
X163209199Y-113552200D01*
G75*
G02*
X162959200Y-113302201I0J249999D01*
G01*
G37*
G36*
G01*
X160909200Y-113302201D02*
X160909200Y-112402199D01*
G75*
G02*
X161159199Y-112152200I249999J0D01*
G01*
X161809201Y-112152200D01*
G75*
G02*
X162059200Y-112402199I0J-249999D01*
G01*
X162059200Y-113302201D01*
G75*
G02*
X161809201Y-113552200I-249999J0D01*
G01*
X161159199Y-113552200D01*
G75*
G02*
X160909200Y-113302201I0J249999D01*
G01*
G37*
G36*
G01*
X162959200Y-109631901D02*
X162959200Y-108731899D01*
G75*
G02*
X163209199Y-108481900I249999J0D01*
G01*
X163859201Y-108481900D01*
G75*
G02*
X164109200Y-108731899I0J-249999D01*
G01*
X164109200Y-109631901D01*
G75*
G02*
X163859201Y-109881900I-249999J0D01*
G01*
X163209199Y-109881900D01*
G75*
G02*
X162959200Y-109631901I0J249999D01*
G01*
G37*
G36*
G01*
X160909200Y-109631901D02*
X160909200Y-108731899D01*
G75*
G02*
X161159199Y-108481900I249999J0D01*
G01*
X161809201Y-108481900D01*
G75*
G02*
X162059200Y-108731899I0J-249999D01*
G01*
X162059200Y-109631901D01*
G75*
G02*
X161809201Y-109881900I-249999J0D01*
G01*
X161159199Y-109881900D01*
G75*
G02*
X160909200Y-109631901I0J249999D01*
G01*
G37*
G36*
G01*
X118836600Y-104127000D02*
X117586600Y-104127000D01*
G75*
G02*
X117336600Y-103877000I0J250000D01*
G01*
X117336600Y-102952000D01*
G75*
G02*
X117586600Y-102702000I250000J0D01*
G01*
X118836600Y-102702000D01*
G75*
G02*
X119086600Y-102952000I0J-250000D01*
G01*
X119086600Y-103877000D01*
G75*
G02*
X118836600Y-104127000I-250000J0D01*
G01*
G37*
G36*
G01*
X118836600Y-107102000D02*
X117586600Y-107102000D01*
G75*
G02*
X117336600Y-106852000I0J250000D01*
G01*
X117336600Y-105927000D01*
G75*
G02*
X117586600Y-105677000I250000J0D01*
G01*
X118836600Y-105677000D01*
G75*
G02*
X119086600Y-105927000I0J-250000D01*
G01*
X119086600Y-106852000D01*
G75*
G02*
X118836600Y-107102000I-250000J0D01*
G01*
G37*
G36*
G01*
X109311600Y-104127000D02*
X108061600Y-104127000D01*
G75*
G02*
X107811600Y-103877000I0J250000D01*
G01*
X107811600Y-102952000D01*
G75*
G02*
X108061600Y-102702000I250000J0D01*
G01*
X109311600Y-102702000D01*
G75*
G02*
X109561600Y-102952000I0J-250000D01*
G01*
X109561600Y-103877000D01*
G75*
G02*
X109311600Y-104127000I-250000J0D01*
G01*
G37*
G36*
G01*
X109311600Y-107102000D02*
X108061600Y-107102000D01*
G75*
G02*
X107811600Y-106852000I0J250000D01*
G01*
X107811600Y-105927000D01*
G75*
G02*
X108061600Y-105677000I250000J0D01*
G01*
X109311600Y-105677000D01*
G75*
G02*
X109561600Y-105927000I0J-250000D01*
G01*
X109561600Y-106852000D01*
G75*
G02*
X109311600Y-107102000I-250000J0D01*
G01*
G37*
G36*
G01*
X107265600Y-108760400D02*
X107265600Y-108460400D01*
G75*
G02*
X107415600Y-108310400I150000J0D01*
G01*
X109065600Y-108310400D01*
G75*
G02*
X109215600Y-108460400I0J-150000D01*
G01*
X109215600Y-108760400D01*
G75*
G02*
X109065600Y-108910400I-150000J0D01*
G01*
X107415600Y-108910400D01*
G75*
G02*
X107265600Y-108760400I0J150000D01*
G01*
G37*
G36*
G01*
X107265600Y-110030400D02*
X107265600Y-109730400D01*
G75*
G02*
X107415600Y-109580400I150000J0D01*
G01*
X109065600Y-109580400D01*
G75*
G02*
X109215600Y-109730400I0J-150000D01*
G01*
X109215600Y-110030400D01*
G75*
G02*
X109065600Y-110180400I-150000J0D01*
G01*
X107415600Y-110180400D01*
G75*
G02*
X107265600Y-110030400I0J150000D01*
G01*
G37*
G36*
G01*
X107265600Y-111300400D02*
X107265600Y-111000400D01*
G75*
G02*
X107415600Y-110850400I150000J0D01*
G01*
X109065600Y-110850400D01*
G75*
G02*
X109215600Y-111000400I0J-150000D01*
G01*
X109215600Y-111300400D01*
G75*
G02*
X109065600Y-111450400I-150000J0D01*
G01*
X107415600Y-111450400D01*
G75*
G02*
X107265600Y-111300400I0J150000D01*
G01*
G37*
G36*
G01*
X107265600Y-112570400D02*
X107265600Y-112270400D01*
G75*
G02*
X107415600Y-112120400I150000J0D01*
G01*
X109065600Y-112120400D01*
G75*
G02*
X109215600Y-112270400I0J-150000D01*
G01*
X109215600Y-112570400D01*
G75*
G02*
X109065600Y-112720400I-150000J0D01*
G01*
X107415600Y-112720400D01*
G75*
G02*
X107265600Y-112570400I0J150000D01*
G01*
G37*
G36*
G01*
X107265600Y-113840400D02*
X107265600Y-113540400D01*
G75*
G02*
X107415600Y-113390400I150000J0D01*
G01*
X109065600Y-113390400D01*
G75*
G02*
X109215600Y-113540400I0J-150000D01*
G01*
X109215600Y-113840400D01*
G75*
G02*
X109065600Y-113990400I-150000J0D01*
G01*
X107415600Y-113990400D01*
G75*
G02*
X107265600Y-113840400I0J150000D01*
G01*
G37*
G36*
G01*
X107265600Y-115110400D02*
X107265600Y-114810400D01*
G75*
G02*
X107415600Y-114660400I150000J0D01*
G01*
X109065600Y-114660400D01*
G75*
G02*
X109215600Y-114810400I0J-150000D01*
G01*
X109215600Y-115110400D01*
G75*
G02*
X109065600Y-115260400I-150000J0D01*
G01*
X107415600Y-115260400D01*
G75*
G02*
X107265600Y-115110400I0J150000D01*
G01*
G37*
G36*
G01*
X107265600Y-116380400D02*
X107265600Y-116080400D01*
G75*
G02*
X107415600Y-115930400I150000J0D01*
G01*
X109065600Y-115930400D01*
G75*
G02*
X109215600Y-116080400I0J-150000D01*
G01*
X109215600Y-116380400D01*
G75*
G02*
X109065600Y-116530400I-150000J0D01*
G01*
X107415600Y-116530400D01*
G75*
G02*
X107265600Y-116380400I0J150000D01*
G01*
G37*
G36*
G01*
X107265600Y-117650400D02*
X107265600Y-117350400D01*
G75*
G02*
X107415600Y-117200400I150000J0D01*
G01*
X109065600Y-117200400D01*
G75*
G02*
X109215600Y-117350400I0J-150000D01*
G01*
X109215600Y-117650400D01*
G75*
G02*
X109065600Y-117800400I-150000J0D01*
G01*
X107415600Y-117800400D01*
G75*
G02*
X107265600Y-117650400I0J150000D01*
G01*
G37*
G36*
G01*
X102315600Y-117650400D02*
X102315600Y-117350400D01*
G75*
G02*
X102465600Y-117200400I150000J0D01*
G01*
X104115600Y-117200400D01*
G75*
G02*
X104265600Y-117350400I0J-150000D01*
G01*
X104265600Y-117650400D01*
G75*
G02*
X104115600Y-117800400I-150000J0D01*
G01*
X102465600Y-117800400D01*
G75*
G02*
X102315600Y-117650400I0J150000D01*
G01*
G37*
G36*
G01*
X102315600Y-116380400D02*
X102315600Y-116080400D01*
G75*
G02*
X102465600Y-115930400I150000J0D01*
G01*
X104115600Y-115930400D01*
G75*
G02*
X104265600Y-116080400I0J-150000D01*
G01*
X104265600Y-116380400D01*
G75*
G02*
X104115600Y-116530400I-150000J0D01*
G01*
X102465600Y-116530400D01*
G75*
G02*
X102315600Y-116380400I0J150000D01*
G01*
G37*
G36*
G01*
X102315600Y-115110400D02*
X102315600Y-114810400D01*
G75*
G02*
X102465600Y-114660400I150000J0D01*
G01*
X104115600Y-114660400D01*
G75*
G02*
X104265600Y-114810400I0J-150000D01*
G01*
X104265600Y-115110400D01*
G75*
G02*
X104115600Y-115260400I-150000J0D01*
G01*
X102465600Y-115260400D01*
G75*
G02*
X102315600Y-115110400I0J150000D01*
G01*
G37*
G36*
G01*
X102315600Y-113840400D02*
X102315600Y-113540400D01*
G75*
G02*
X102465600Y-113390400I150000J0D01*
G01*
X104115600Y-113390400D01*
G75*
G02*
X104265600Y-113540400I0J-150000D01*
G01*
X104265600Y-113840400D01*
G75*
G02*
X104115600Y-113990400I-150000J0D01*
G01*
X102465600Y-113990400D01*
G75*
G02*
X102315600Y-113840400I0J150000D01*
G01*
G37*
G36*
G01*
X102315600Y-112570400D02*
X102315600Y-112270400D01*
G75*
G02*
X102465600Y-112120400I150000J0D01*
G01*
X104115600Y-112120400D01*
G75*
G02*
X104265600Y-112270400I0J-150000D01*
G01*
X104265600Y-112570400D01*
G75*
G02*
X104115600Y-112720400I-150000J0D01*
G01*
X102465600Y-112720400D01*
G75*
G02*
X102315600Y-112570400I0J150000D01*
G01*
G37*
G36*
G01*
X102315600Y-111300400D02*
X102315600Y-111000400D01*
G75*
G02*
X102465600Y-110850400I150000J0D01*
G01*
X104115600Y-110850400D01*
G75*
G02*
X104265600Y-111000400I0J-150000D01*
G01*
X104265600Y-111300400D01*
G75*
G02*
X104115600Y-111450400I-150000J0D01*
G01*
X102465600Y-111450400D01*
G75*
G02*
X102315600Y-111300400I0J150000D01*
G01*
G37*
G36*
G01*
X102315600Y-110030400D02*
X102315600Y-109730400D01*
G75*
G02*
X102465600Y-109580400I150000J0D01*
G01*
X104115600Y-109580400D01*
G75*
G02*
X104265600Y-109730400I0J-150000D01*
G01*
X104265600Y-110030400D01*
G75*
G02*
X104115600Y-110180400I-150000J0D01*
G01*
X102465600Y-110180400D01*
G75*
G02*
X102315600Y-110030400I0J150000D01*
G01*
G37*
G36*
G01*
X102315600Y-108760400D02*
X102315600Y-108460400D01*
G75*
G02*
X102465600Y-108310400I150000J0D01*
G01*
X104115600Y-108310400D01*
G75*
G02*
X104265600Y-108460400I0J-150000D01*
G01*
X104265600Y-108760400D01*
G75*
G02*
X104115600Y-108910400I-150000J0D01*
G01*
X102465600Y-108910400D01*
G75*
G02*
X102315600Y-108760400I0J150000D01*
G01*
G37*
G36*
G01*
X151645200Y-96282190D02*
X151645200Y-97194690D01*
G75*
G02*
X151401450Y-97438440I-243750J0D01*
G01*
X150913950Y-97438440D01*
G75*
G02*
X150670200Y-97194690I0J243750D01*
G01*
X150670200Y-96282190D01*
G75*
G02*
X150913950Y-96038440I243750J0D01*
G01*
X151401450Y-96038440D01*
G75*
G02*
X151645200Y-96282190I0J-243750D01*
G01*
G37*
G36*
G01*
X153520200Y-96282190D02*
X153520200Y-97194690D01*
G75*
G02*
X153276450Y-97438440I-243750J0D01*
G01*
X152788950Y-97438440D01*
G75*
G02*
X152545200Y-97194690I0J243750D01*
G01*
X152545200Y-96282190D01*
G75*
G02*
X152788950Y-96038440I243750J0D01*
G01*
X153276450Y-96038440D01*
G75*
G02*
X153520200Y-96282190I0J-243750D01*
G01*
G37*
G36*
G01*
X155178460Y-116847460D02*
X155178460Y-118097460D01*
G75*
G02*
X154928460Y-118347460I-250000J0D01*
G01*
X154003460Y-118347460D01*
G75*
G02*
X153753460Y-118097460I0J250000D01*
G01*
X153753460Y-116847460D01*
G75*
G02*
X154003460Y-116597460I250000J0D01*
G01*
X154928460Y-116597460D01*
G75*
G02*
X155178460Y-116847460I0J-250000D01*
G01*
G37*
G36*
G01*
X158153460Y-116847460D02*
X158153460Y-118097460D01*
G75*
G02*
X157903460Y-118347460I-250000J0D01*
G01*
X156978460Y-118347460D01*
G75*
G02*
X156728460Y-118097460I0J250000D01*
G01*
X156728460Y-116847460D01*
G75*
G02*
X156978460Y-116597460I250000J0D01*
G01*
X157903460Y-116597460D01*
G75*
G02*
X158153460Y-116847460I0J-250000D01*
G01*
G37*
G36*
G01*
X151427480Y-118097460D02*
X151427480Y-116847460D01*
G75*
G02*
X151677480Y-116597460I250000J0D01*
G01*
X152602480Y-116597460D01*
G75*
G02*
X152852480Y-116847460I0J-250000D01*
G01*
X152852480Y-118097460D01*
G75*
G02*
X152602480Y-118347460I-250000J0D01*
G01*
X151677480Y-118347460D01*
G75*
G02*
X151427480Y-118097460I0J250000D01*
G01*
G37*
G36*
G01*
X148452480Y-118097460D02*
X148452480Y-116847460D01*
G75*
G02*
X148702480Y-116597460I250000J0D01*
G01*
X149627480Y-116597460D01*
G75*
G02*
X149877480Y-116847460I0J-250000D01*
G01*
X149877480Y-118097460D01*
G75*
G02*
X149627480Y-118347460I-250000J0D01*
G01*
X148702480Y-118347460D01*
G75*
G02*
X148452480Y-118097460I0J250000D01*
G01*
G37*
G36*
G01*
X151358300Y-111858900D02*
X151358300Y-113108900D01*
G75*
G02*
X151108300Y-113358900I-250000J0D01*
G01*
X150183300Y-113358900D01*
G75*
G02*
X149933300Y-113108900I0J250000D01*
G01*
X149933300Y-111858900D01*
G75*
G02*
X150183300Y-111608900I250000J0D01*
G01*
X151108300Y-111608900D01*
G75*
G02*
X151358300Y-111858900I0J-250000D01*
G01*
G37*
G36*
G01*
X154333300Y-111858900D02*
X154333300Y-113108900D01*
G75*
G02*
X154083300Y-113358900I-250000J0D01*
G01*
X153158300Y-113358900D01*
G75*
G02*
X152908300Y-113108900I0J250000D01*
G01*
X152908300Y-111858900D01*
G75*
G02*
X153158300Y-111608900I250000J0D01*
G01*
X154083300Y-111608900D01*
G75*
G02*
X154333300Y-111858900I0J-250000D01*
G01*
G37*
G36*
G01*
X145904552Y-111858900D02*
X145904552Y-113108900D01*
G75*
G02*
X145654552Y-113358900I-250000J0D01*
G01*
X144729552Y-113358900D01*
G75*
G02*
X144479552Y-113108900I0J250000D01*
G01*
X144479552Y-111858900D01*
G75*
G02*
X144729552Y-111608900I250000J0D01*
G01*
X145654552Y-111608900D01*
G75*
G02*
X145904552Y-111858900I0J-250000D01*
G01*
G37*
G36*
G01*
X148879552Y-111858900D02*
X148879552Y-113108900D01*
G75*
G02*
X148629552Y-113358900I-250000J0D01*
G01*
X147704552Y-113358900D01*
G75*
G02*
X147454552Y-113108900I0J250000D01*
G01*
X147454552Y-111858900D01*
G75*
G02*
X147704552Y-111608900I250000J0D01*
G01*
X148629552Y-111608900D01*
G75*
G02*
X148879552Y-111858900I0J-250000D01*
G01*
G37*
G36*
G01*
X140450810Y-111858900D02*
X140450810Y-113108900D01*
G75*
G02*
X140200810Y-113358900I-250000J0D01*
G01*
X139275810Y-113358900D01*
G75*
G02*
X139025810Y-113108900I0J250000D01*
G01*
X139025810Y-111858900D01*
G75*
G02*
X139275810Y-111608900I250000J0D01*
G01*
X140200810Y-111608900D01*
G75*
G02*
X140450810Y-111858900I0J-250000D01*
G01*
G37*
G36*
G01*
X143425810Y-111858900D02*
X143425810Y-113108900D01*
G75*
G02*
X143175810Y-113358900I-250000J0D01*
G01*
X142250810Y-113358900D01*
G75*
G02*
X142000810Y-113108900I0J250000D01*
G01*
X142000810Y-111858900D01*
G75*
G02*
X142250810Y-111608900I250000J0D01*
G01*
X143175810Y-111608900D01*
G75*
G02*
X143425810Y-111858900I0J-250000D01*
G01*
G37*
G36*
G01*
X134997068Y-111858900D02*
X134997068Y-113108900D01*
G75*
G02*
X134747068Y-113358900I-250000J0D01*
G01*
X133822068Y-113358900D01*
G75*
G02*
X133572068Y-113108900I0J250000D01*
G01*
X133572068Y-111858900D01*
G75*
G02*
X133822068Y-111608900I250000J0D01*
G01*
X134747068Y-111608900D01*
G75*
G02*
X134997068Y-111858900I0J-250000D01*
G01*
G37*
G36*
G01*
X137972068Y-111858900D02*
X137972068Y-113108900D01*
G75*
G02*
X137722068Y-113358900I-250000J0D01*
G01*
X136797068Y-113358900D01*
G75*
G02*
X136547068Y-113108900I0J250000D01*
G01*
X136547068Y-111858900D01*
G75*
G02*
X136797068Y-111608900I250000J0D01*
G01*
X137722068Y-111608900D01*
G75*
G02*
X137972068Y-111858900I0J-250000D01*
G01*
G37*
G36*
G01*
X129543326Y-111858900D02*
X129543326Y-113108900D01*
G75*
G02*
X129293326Y-113358900I-250000J0D01*
G01*
X128368326Y-113358900D01*
G75*
G02*
X128118326Y-113108900I0J250000D01*
G01*
X128118326Y-111858900D01*
G75*
G02*
X128368326Y-111608900I250000J0D01*
G01*
X129293326Y-111608900D01*
G75*
G02*
X129543326Y-111858900I0J-250000D01*
G01*
G37*
G36*
G01*
X132518326Y-111858900D02*
X132518326Y-113108900D01*
G75*
G02*
X132268326Y-113358900I-250000J0D01*
G01*
X131343326Y-113358900D01*
G75*
G02*
X131093326Y-113108900I0J250000D01*
G01*
X131093326Y-111858900D01*
G75*
G02*
X131343326Y-111608900I250000J0D01*
G01*
X132268326Y-111608900D01*
G75*
G02*
X132518326Y-111858900I0J-250000D01*
G01*
G37*
G36*
G01*
X124089584Y-111858900D02*
X124089584Y-113108900D01*
G75*
G02*
X123839584Y-113358900I-250000J0D01*
G01*
X122914584Y-113358900D01*
G75*
G02*
X122664584Y-113108900I0J250000D01*
G01*
X122664584Y-111858900D01*
G75*
G02*
X122914584Y-111608900I250000J0D01*
G01*
X123839584Y-111608900D01*
G75*
G02*
X124089584Y-111858900I0J-250000D01*
G01*
G37*
G36*
G01*
X127064584Y-111858900D02*
X127064584Y-113108900D01*
G75*
G02*
X126814584Y-113358900I-250000J0D01*
G01*
X125889584Y-113358900D01*
G75*
G02*
X125639584Y-113108900I0J250000D01*
G01*
X125639584Y-111858900D01*
G75*
G02*
X125889584Y-111608900I250000J0D01*
G01*
X126814584Y-111608900D01*
G75*
G02*
X127064584Y-111858900I0J-250000D01*
G01*
G37*
G36*
G01*
X118635842Y-111858900D02*
X118635842Y-113108900D01*
G75*
G02*
X118385842Y-113358900I-250000J0D01*
G01*
X117460842Y-113358900D01*
G75*
G02*
X117210842Y-113108900I0J250000D01*
G01*
X117210842Y-111858900D01*
G75*
G02*
X117460842Y-111608900I250000J0D01*
G01*
X118385842Y-111608900D01*
G75*
G02*
X118635842Y-111858900I0J-250000D01*
G01*
G37*
G36*
G01*
X121610842Y-111858900D02*
X121610842Y-113108900D01*
G75*
G02*
X121360842Y-113358900I-250000J0D01*
G01*
X120435842Y-113358900D01*
G75*
G02*
X120185842Y-113108900I0J250000D01*
G01*
X120185842Y-111858900D01*
G75*
G02*
X120435842Y-111608900I250000J0D01*
G01*
X121360842Y-111608900D01*
G75*
G02*
X121610842Y-111858900I0J-250000D01*
G01*
G37*
G36*
G01*
X113182100Y-111858900D02*
X113182100Y-113108900D01*
G75*
G02*
X112932100Y-113358900I-250000J0D01*
G01*
X112007100Y-113358900D01*
G75*
G02*
X111757100Y-113108900I0J250000D01*
G01*
X111757100Y-111858900D01*
G75*
G02*
X112007100Y-111608900I250000J0D01*
G01*
X112932100Y-111608900D01*
G75*
G02*
X113182100Y-111858900I0J-250000D01*
G01*
G37*
G36*
G01*
X116157100Y-111858900D02*
X116157100Y-113108900D01*
G75*
G02*
X115907100Y-113358900I-250000J0D01*
G01*
X114982100Y-113358900D01*
G75*
G02*
X114732100Y-113108900I0J250000D01*
G01*
X114732100Y-111858900D01*
G75*
G02*
X114982100Y-111608900I250000J0D01*
G01*
X115907100Y-111608900D01*
G75*
G02*
X116157100Y-111858900I0J-250000D01*
G01*
G37*
G36*
G01*
X128223980Y-116847460D02*
X128223980Y-118097460D01*
G75*
G02*
X127973980Y-118347460I-250000J0D01*
G01*
X127048980Y-118347460D01*
G75*
G02*
X126798980Y-118097460I0J250000D01*
G01*
X126798980Y-116847460D01*
G75*
G02*
X127048980Y-116597460I250000J0D01*
G01*
X127973980Y-116597460D01*
G75*
G02*
X128223980Y-116847460I0J-250000D01*
G01*
G37*
G36*
G01*
X131198980Y-116847460D02*
X131198980Y-118097460D01*
G75*
G02*
X130948980Y-118347460I-250000J0D01*
G01*
X130023980Y-118347460D01*
G75*
G02*
X129773980Y-118097460I0J250000D01*
G01*
X129773980Y-116847460D01*
G75*
G02*
X130023980Y-116597460I250000J0D01*
G01*
X130948980Y-116597460D01*
G75*
G02*
X131198980Y-116847460I0J-250000D01*
G01*
G37*
G36*
G01*
X114317480Y-116847460D02*
X114317480Y-118097460D01*
G75*
G02*
X114067480Y-118347460I-250000J0D01*
G01*
X113142480Y-118347460D01*
G75*
G02*
X112892480Y-118097460I0J250000D01*
G01*
X112892480Y-116847460D01*
G75*
G02*
X113142480Y-116597460I250000J0D01*
G01*
X114067480Y-116597460D01*
G75*
G02*
X114317480Y-116847460I0J-250000D01*
G01*
G37*
G36*
G01*
X117292480Y-116847460D02*
X117292480Y-118097460D01*
G75*
G02*
X117042480Y-118347460I-250000J0D01*
G01*
X116117480Y-118347460D01*
G75*
G02*
X115867480Y-118097460I0J250000D01*
G01*
X115867480Y-116847460D01*
G75*
G02*
X116117480Y-116597460I250000J0D01*
G01*
X117042480Y-116597460D01*
G75*
G02*
X117292480Y-116847460I0J-250000D01*
G01*
G37*
G36*
G01*
X142306340Y-107983180D02*
X142306340Y-106733180D01*
G75*
G02*
X142556340Y-106483180I250000J0D01*
G01*
X143481340Y-106483180D01*
G75*
G02*
X143731340Y-106733180I0J-250000D01*
G01*
X143731340Y-107983180D01*
G75*
G02*
X143481340Y-108233180I-250000J0D01*
G01*
X142556340Y-108233180D01*
G75*
G02*
X142306340Y-107983180I0J250000D01*
G01*
G37*
G36*
G01*
X139331340Y-107983180D02*
X139331340Y-106733180D01*
G75*
G02*
X139581340Y-106483180I250000J0D01*
G01*
X140506340Y-106483180D01*
G75*
G02*
X140756340Y-106733180I0J-250000D01*
G01*
X140756340Y-107983180D01*
G75*
G02*
X140506340Y-108233180I-250000J0D01*
G01*
X139581340Y-108233180D01*
G75*
G02*
X139331340Y-107983180I0J250000D01*
G01*
G37*
G36*
G01*
X142351120Y-102758400D02*
X142351120Y-101508400D01*
G75*
G02*
X142601120Y-101258400I250000J0D01*
G01*
X143526120Y-101258400D01*
G75*
G02*
X143776120Y-101508400I0J-250000D01*
G01*
X143776120Y-102758400D01*
G75*
G02*
X143526120Y-103008400I-250000J0D01*
G01*
X142601120Y-103008400D01*
G75*
G02*
X142351120Y-102758400I0J250000D01*
G01*
G37*
G36*
G01*
X139376120Y-102758400D02*
X139376120Y-101508400D01*
G75*
G02*
X139626120Y-101258400I250000J0D01*
G01*
X140551120Y-101258400D01*
G75*
G02*
X140801120Y-101508400I0J-250000D01*
G01*
X140801120Y-102758400D01*
G75*
G02*
X140551120Y-103008400I-250000J0D01*
G01*
X139626120Y-103008400D01*
G75*
G02*
X139376120Y-102758400I0J250000D01*
G01*
G37*
G36*
G01*
X132422600Y-101508400D02*
X132422600Y-102758400D01*
G75*
G02*
X132172600Y-103008400I-250000J0D01*
G01*
X131247600Y-103008400D01*
G75*
G02*
X130997600Y-102758400I0J250000D01*
G01*
X130997600Y-101508400D01*
G75*
G02*
X131247600Y-101258400I250000J0D01*
G01*
X132172600Y-101258400D01*
G75*
G02*
X132422600Y-101508400I0J-250000D01*
G01*
G37*
G36*
G01*
X135397600Y-101508400D02*
X135397600Y-102758400D01*
G75*
G02*
X135147600Y-103008400I-250000J0D01*
G01*
X134222600Y-103008400D01*
G75*
G02*
X133972600Y-102758400I0J250000D01*
G01*
X133972600Y-101508400D01*
G75*
G02*
X134222600Y-101258400I250000J0D01*
G01*
X135147600Y-101258400D01*
G75*
G02*
X135397600Y-101508400I0J-250000D01*
G01*
G37*
G36*
G01*
X126618700Y-101508400D02*
X126618700Y-102758400D01*
G75*
G02*
X126368700Y-103008400I-250000J0D01*
G01*
X125443700Y-103008400D01*
G75*
G02*
X125193700Y-102758400I0J250000D01*
G01*
X125193700Y-101508400D01*
G75*
G02*
X125443700Y-101258400I250000J0D01*
G01*
X126368700Y-101258400D01*
G75*
G02*
X126618700Y-101508400I0J-250000D01*
G01*
G37*
G36*
G01*
X129593700Y-101508400D02*
X129593700Y-102758400D01*
G75*
G02*
X129343700Y-103008400I-250000J0D01*
G01*
X128418700Y-103008400D01*
G75*
G02*
X128168700Y-102758400I0J250000D01*
G01*
X128168700Y-101508400D01*
G75*
G02*
X128418700Y-101258400I250000J0D01*
G01*
X129343700Y-101258400D01*
G75*
G02*
X129593700Y-101508400I0J-250000D01*
G01*
G37*
G36*
G01*
X151645200Y-98629150D02*
X151645200Y-99541650D01*
G75*
G02*
X151401450Y-99785400I-243750J0D01*
G01*
X150913950Y-99785400D01*
G75*
G02*
X150670200Y-99541650I0J243750D01*
G01*
X150670200Y-98629150D01*
G75*
G02*
X150913950Y-98385400I243750J0D01*
G01*
X151401450Y-98385400D01*
G75*
G02*
X151645200Y-98629150I0J-243750D01*
G01*
G37*
G36*
G01*
X153520200Y-98629150D02*
X153520200Y-99541650D01*
G75*
G02*
X153276450Y-99785400I-243750J0D01*
G01*
X152788950Y-99785400D01*
G75*
G02*
X152545200Y-99541650I0J243750D01*
G01*
X152545200Y-98629150D01*
G75*
G02*
X152788950Y-98385400I243750J0D01*
G01*
X153276450Y-98385400D01*
G75*
G02*
X153520200Y-98629150I0J-243750D01*
G01*
G37*
G36*
G01*
X156090200Y-98629150D02*
X156090200Y-99541650D01*
G75*
G02*
X155846450Y-99785400I-243750J0D01*
G01*
X155358950Y-99785400D01*
G75*
G02*
X155115200Y-99541650I0J243750D01*
G01*
X155115200Y-98629150D01*
G75*
G02*
X155358950Y-98385400I243750J0D01*
G01*
X155846450Y-98385400D01*
G75*
G02*
X156090200Y-98629150I0J-243750D01*
G01*
G37*
G36*
G01*
X157965200Y-98629150D02*
X157965200Y-99541650D01*
G75*
G02*
X157721450Y-99785400I-243750J0D01*
G01*
X157233950Y-99785400D01*
G75*
G02*
X156990200Y-99541650I0J243750D01*
G01*
X156990200Y-98629150D01*
G75*
G02*
X157233950Y-98385400I243750J0D01*
G01*
X157721450Y-98385400D01*
G75*
G02*
X157965200Y-98629150I0J-243750D01*
G01*
G37*
G36*
G01*
X156090200Y-96282190D02*
X156090200Y-97194690D01*
G75*
G02*
X155846450Y-97438440I-243750J0D01*
G01*
X155358950Y-97438440D01*
G75*
G02*
X155115200Y-97194690I0J243750D01*
G01*
X155115200Y-96282190D01*
G75*
G02*
X155358950Y-96038440I243750J0D01*
G01*
X155846450Y-96038440D01*
G75*
G02*
X156090200Y-96282190I0J-243750D01*
G01*
G37*
G36*
G01*
X157965200Y-96282190D02*
X157965200Y-97194690D01*
G75*
G02*
X157721450Y-97438440I-243750J0D01*
G01*
X157233950Y-97438440D01*
G75*
G02*
X156990200Y-97194690I0J243750D01*
G01*
X156990200Y-96282190D01*
G75*
G02*
X157233950Y-96038440I243750J0D01*
G01*
X157721450Y-96038440D01*
G75*
G02*
X157965200Y-96282190I0J-243750D01*
G01*
G37*
D13*
X147509600Y-101877400D03*
D14*
X150469600Y-101877400D03*
X151739600Y-101877400D03*
X153009600Y-101877400D03*
X154279600Y-101877400D03*
X155549600Y-101877400D03*
D13*
X158509600Y-101877400D03*
X158509600Y-107977400D03*
D14*
X155549600Y-107977400D03*
X154279600Y-107977400D03*
X153009600Y-107977400D03*
X151739600Y-107977400D03*
X150469600Y-107977400D03*
D15*
X147509600Y-107477400D03*
D16*
X162054000Y-98860000D03*
X104054000Y-121860000D03*
X104054000Y-98860000D03*
X162054000Y-121860000D03*
M02*
