G04 #@! TF.GenerationSoftware,KiCad,Pcbnew,(5.1.10-1-10_14)*
G04 #@! TF.CreationDate,2021-06-08T22:44:31-04:00*
G04 #@! TF.ProjectId,tr109-sensorboard,74723130-392d-4736-956e-736f72626f61,3*
G04 #@! TF.SameCoordinates,Original*
G04 #@! TF.FileFunction,Other,User*
%FSLAX46Y46*%
G04 Gerber Fmt 4.6, Leading zero omitted, Abs format (unit mm)*
G04 Created by KiCad (PCBNEW (5.1.10-1-10_14)) date 2021-06-08 22:44:31*
%MOMM*%
%LPD*%
G01*
G04 APERTURE LIST*
%ADD10C,0.050000*%
%ADD11C,0.150000*%
G04 APERTURE END LIST*
D10*
X158984000Y-124940000D02*
X158984000Y-118790000D01*
X107134000Y-124940000D02*
X158984000Y-124940000D01*
X107134000Y-118790000D02*
X107134000Y-124940000D01*
X158984000Y-118790000D02*
X107134000Y-118790000D01*
X127454000Y-107718000D02*
X138654000Y-107718000D01*
X138654000Y-107718000D02*
X138654000Y-104118000D01*
X138654000Y-104118000D02*
X127454000Y-104118000D01*
X127454000Y-104118000D02*
X127454000Y-107718000D01*
X117364000Y-96663000D02*
X119364000Y-96663000D01*
X117364000Y-96663000D02*
X117364000Y-98663000D01*
X119364000Y-98663000D02*
X119364000Y-96663000D01*
X119364000Y-98663000D02*
X117364000Y-98663000D01*
X108067600Y-96828100D02*
X110067600Y-96828100D01*
X108067600Y-96828100D02*
X108067600Y-98828100D01*
X110067600Y-98828100D02*
X110067600Y-96828100D01*
X110067600Y-98828100D02*
X108067600Y-98828100D01*
X115199100Y-106674500D02*
X115199100Y-103174500D01*
X111699100Y-103174500D02*
X115199100Y-103174500D01*
X111699100Y-106674500D02*
X111699100Y-103174500D01*
X111699100Y-106674500D02*
X115199100Y-106674500D01*
X102040000Y-103200000D02*
X105740000Y-103200000D01*
X102040000Y-105100000D02*
X102040000Y-103200000D01*
X105740000Y-105100000D02*
X102040000Y-105100000D01*
X105740000Y-103200000D02*
X105740000Y-105100000D01*
X122890000Y-118410000D02*
X119190000Y-118410000D01*
X122890000Y-116510000D02*
X122890000Y-118410000D01*
X119190000Y-116510000D02*
X122890000Y-116510000D01*
X119190000Y-118410000D02*
X119190000Y-116510000D01*
X155439500Y-115529400D02*
X155439500Y-113629400D01*
X155439500Y-113629400D02*
X159139500Y-113629400D01*
X159139500Y-113629400D02*
X159139500Y-115529400D01*
X159139500Y-115529400D02*
X155439500Y-115529400D01*
X141031000Y-100389300D02*
X139131000Y-100389300D01*
X139131000Y-100389300D02*
X139131000Y-96689300D01*
X139131000Y-96689300D02*
X141031000Y-96689300D01*
X141031000Y-96689300D02*
X141031000Y-100389300D01*
X148505300Y-115796100D02*
X148505300Y-113896100D01*
X148505300Y-113896100D02*
X152205300Y-113896100D01*
X152205300Y-113896100D02*
X152205300Y-115796100D01*
X152205300Y-115796100D02*
X148505300Y-115796100D01*
X138491000Y-102815000D02*
X136591000Y-102815000D01*
X136591000Y-102815000D02*
X136591000Y-99115000D01*
X136591000Y-99115000D02*
X138491000Y-99115000D01*
X138491000Y-99115000D02*
X138491000Y-102815000D01*
X137270000Y-113883400D02*
X137270000Y-115783400D01*
X137270000Y-115783400D02*
X133570000Y-115783400D01*
X133570000Y-115783400D02*
X133570000Y-113883400D01*
X133570000Y-113883400D02*
X137270000Y-113883400D01*
X132926700Y-113883400D02*
X132926700Y-115783400D01*
X132926700Y-115783400D02*
X129226700Y-115783400D01*
X129226700Y-115783400D02*
X129226700Y-113883400D01*
X129226700Y-113883400D02*
X132926700Y-113883400D01*
X126627500Y-113883400D02*
X126627500Y-115783400D01*
X126627500Y-115783400D02*
X122927500Y-115783400D01*
X122927500Y-115783400D02*
X122927500Y-113883400D01*
X122927500Y-113883400D02*
X126627500Y-113883400D01*
X121725300Y-113883400D02*
X121725300Y-115783400D01*
X121725300Y-115783400D02*
X118025300Y-115783400D01*
X118025300Y-115783400D02*
X118025300Y-113883400D01*
X118025300Y-113883400D02*
X121725300Y-113883400D01*
X113100000Y-115783400D02*
X113100000Y-113883400D01*
X113100000Y-113883400D02*
X116800000Y-113883400D01*
X116800000Y-113883400D02*
X116800000Y-115783400D01*
X116800000Y-115783400D02*
X113100000Y-115783400D01*
X105740000Y-105420000D02*
X105740000Y-107320000D01*
X105740000Y-107320000D02*
X102040000Y-107320000D01*
X102040000Y-107320000D02*
X102040000Y-105420000D01*
X102040000Y-105420000D02*
X105740000Y-105420000D01*
X160596940Y-104899500D02*
X160596940Y-102999500D01*
X160596940Y-102999500D02*
X164296940Y-102999500D01*
X164296940Y-102999500D02*
X164296940Y-104899500D01*
X164296940Y-104899500D02*
X160596940Y-104899500D01*
X160596940Y-107134700D02*
X160596940Y-105234700D01*
X160596940Y-105234700D02*
X164296940Y-105234700D01*
X164296940Y-105234700D02*
X164296940Y-107134700D01*
X164296940Y-107134700D02*
X160596940Y-107134700D01*
X160659200Y-117472500D02*
X160659200Y-115572500D01*
X160659200Y-115572500D02*
X164359200Y-115572500D01*
X164359200Y-115572500D02*
X164359200Y-117472500D01*
X164359200Y-117472500D02*
X160659200Y-117472500D01*
X142021600Y-118041060D02*
X140121600Y-118041060D01*
X140121600Y-118041060D02*
X140121600Y-114341060D01*
X140121600Y-114341060D02*
X142021600Y-114341060D01*
X142021600Y-114341060D02*
X142021600Y-118041060D01*
X138866000Y-105852000D02*
X138866000Y-103952000D01*
X138866000Y-103952000D02*
X142566000Y-103952000D01*
X142566000Y-103952000D02*
X142566000Y-105852000D01*
X142566000Y-105852000D02*
X138866000Y-105852000D01*
X129747400Y-99095600D02*
X129747400Y-97195600D01*
X129747400Y-97195600D02*
X133447400Y-97195600D01*
X133447400Y-97195600D02*
X133447400Y-99095600D01*
X133447400Y-99095600D02*
X129747400Y-99095600D01*
X154982300Y-113433900D02*
X154982300Y-111533900D01*
X154982300Y-111533900D02*
X158682300Y-111533900D01*
X158682300Y-111533900D02*
X158682300Y-113433900D01*
X158682300Y-113433900D02*
X154982300Y-113433900D01*
X144123800Y-98613000D02*
X144123800Y-96713000D01*
X144123800Y-96713000D02*
X147823800Y-96713000D01*
X147823800Y-96713000D02*
X147823800Y-98613000D01*
X147823800Y-98613000D02*
X144123800Y-98613000D01*
X160659200Y-113802200D02*
X160659200Y-111902200D01*
X160659200Y-111902200D02*
X164359200Y-111902200D01*
X164359200Y-111902200D02*
X164359200Y-113802200D01*
X164359200Y-113802200D02*
X160659200Y-113802200D01*
X160659200Y-110131900D02*
X160659200Y-108231900D01*
X160659200Y-108231900D02*
X164359200Y-108231900D01*
X164359200Y-108231900D02*
X164359200Y-110131900D01*
X164359200Y-110131900D02*
X160659200Y-110131900D01*
X119331600Y-107352000D02*
X117091600Y-107352000D01*
X117091600Y-107352000D02*
X117091600Y-102452000D01*
X117091600Y-102452000D02*
X119331600Y-102452000D01*
X119331600Y-102452000D02*
X119331600Y-107352000D01*
X109806600Y-107352000D02*
X107566600Y-107352000D01*
X107566600Y-107352000D02*
X107566600Y-102452000D01*
X107566600Y-102452000D02*
X109806600Y-102452000D01*
X109806600Y-102452000D02*
X109806600Y-107352000D01*
X109465600Y-107855400D02*
X102065600Y-107855400D01*
X109465600Y-118255400D02*
X109465600Y-107855400D01*
X102065600Y-118255400D02*
X109465600Y-118255400D01*
X102065600Y-107855400D02*
X102065600Y-118255400D01*
X153775200Y-95788440D02*
X153775200Y-97688440D01*
X153775200Y-97688440D02*
X150415200Y-97688440D01*
X150415200Y-97688440D02*
X150415200Y-95788440D01*
X150415200Y-95788440D02*
X153775200Y-95788440D01*
X158403460Y-116352460D02*
X158403460Y-118592460D01*
X158403460Y-118592460D02*
X153503460Y-118592460D01*
X153503460Y-118592460D02*
X153503460Y-116352460D01*
X153503460Y-116352460D02*
X158403460Y-116352460D01*
X148202480Y-118592460D02*
X148202480Y-116352460D01*
X148202480Y-116352460D02*
X153102480Y-116352460D01*
X153102480Y-116352460D02*
X153102480Y-118592460D01*
X153102480Y-118592460D02*
X148202480Y-118592460D01*
X149683300Y-111363900D02*
X154583300Y-111363900D01*
X149683300Y-113603900D02*
X149683300Y-111363900D01*
X154583300Y-113603900D02*
X149683300Y-113603900D01*
X154583300Y-111363900D02*
X154583300Y-113603900D01*
X144229552Y-111363900D02*
X149129552Y-111363900D01*
X144229552Y-113603900D02*
X144229552Y-111363900D01*
X149129552Y-113603900D02*
X144229552Y-113603900D01*
X149129552Y-111363900D02*
X149129552Y-113603900D01*
X138775810Y-111363900D02*
X143675810Y-111363900D01*
X138775810Y-113603900D02*
X138775810Y-111363900D01*
X143675810Y-113603900D02*
X138775810Y-113603900D01*
X143675810Y-111363900D02*
X143675810Y-113603900D01*
X133322068Y-111363900D02*
X138222068Y-111363900D01*
X133322068Y-113603900D02*
X133322068Y-111363900D01*
X138222068Y-113603900D02*
X133322068Y-113603900D01*
X138222068Y-111363900D02*
X138222068Y-113603900D01*
X127868326Y-111363900D02*
X132768326Y-111363900D01*
X127868326Y-113603900D02*
X127868326Y-111363900D01*
X132768326Y-113603900D02*
X127868326Y-113603900D01*
X132768326Y-111363900D02*
X132768326Y-113603900D01*
X122414584Y-111363900D02*
X127314584Y-111363900D01*
X122414584Y-113603900D02*
X122414584Y-111363900D01*
X127314584Y-113603900D02*
X122414584Y-113603900D01*
X127314584Y-111363900D02*
X127314584Y-113603900D01*
X116960842Y-111363900D02*
X121860842Y-111363900D01*
X116960842Y-113603900D02*
X116960842Y-111363900D01*
X121860842Y-113603900D02*
X116960842Y-113603900D01*
X121860842Y-111363900D02*
X121860842Y-113603900D01*
X111507100Y-111363900D02*
X116407100Y-111363900D01*
X111507100Y-113603900D02*
X111507100Y-111363900D01*
X116407100Y-113603900D02*
X111507100Y-113603900D01*
X116407100Y-111363900D02*
X116407100Y-113603900D01*
X131448980Y-116352460D02*
X131448980Y-118592460D01*
X131448980Y-118592460D02*
X126548980Y-118592460D01*
X126548980Y-118592460D02*
X126548980Y-116352460D01*
X126548980Y-116352460D02*
X131448980Y-116352460D01*
X117542480Y-116352460D02*
X117542480Y-118592460D01*
X117542480Y-118592460D02*
X112642480Y-118592460D01*
X112642480Y-118592460D02*
X112642480Y-116352460D01*
X112642480Y-116352460D02*
X117542480Y-116352460D01*
X143981340Y-108478180D02*
X139081340Y-108478180D01*
X143981340Y-106238180D02*
X143981340Y-108478180D01*
X139081340Y-106238180D02*
X143981340Y-106238180D01*
X139081340Y-108478180D02*
X139081340Y-106238180D01*
X144026120Y-103253400D02*
X139126120Y-103253400D01*
X144026120Y-101013400D02*
X144026120Y-103253400D01*
X139126120Y-101013400D02*
X144026120Y-101013400D01*
X139126120Y-103253400D02*
X139126120Y-101013400D01*
X130747600Y-101013400D02*
X135647600Y-101013400D01*
X130747600Y-103253400D02*
X130747600Y-101013400D01*
X135647600Y-103253400D02*
X130747600Y-103253400D01*
X135647600Y-101013400D02*
X135647600Y-103253400D01*
X124943700Y-101013400D02*
X129843700Y-101013400D01*
X124943700Y-103253400D02*
X124943700Y-101013400D01*
X129843700Y-103253400D02*
X124943700Y-103253400D01*
X129843700Y-101013400D02*
X129843700Y-103253400D01*
X153775200Y-98135400D02*
X153775200Y-100035400D01*
X153775200Y-100035400D02*
X150415200Y-100035400D01*
X150415200Y-100035400D02*
X150415200Y-98135400D01*
X150415200Y-98135400D02*
X153775200Y-98135400D01*
X158220200Y-98135400D02*
X158220200Y-100035400D01*
X158220200Y-100035400D02*
X154860200Y-100035400D01*
X154860200Y-100035400D02*
X154860200Y-98135400D01*
X154860200Y-98135400D02*
X158220200Y-98135400D01*
X158220200Y-95788440D02*
X158220200Y-97688440D01*
X158220200Y-97688440D02*
X154860200Y-97688440D01*
X154860200Y-97688440D02*
X154860200Y-95788440D01*
X154860200Y-95788440D02*
X158220200Y-95788440D01*
X146859600Y-109527400D02*
X159159600Y-109527400D01*
X146859600Y-100327400D02*
X146859600Y-109527400D01*
X159159600Y-100327400D02*
X159159600Y-109527400D01*
X146859600Y-100327400D02*
X159159600Y-100327400D01*
D11*
X165154000Y-98860000D02*
G75*
G03*
X165154000Y-98860000I-3100000J0D01*
G01*
X107154000Y-121860000D02*
G75*
G03*
X107154000Y-121860000I-3100000J0D01*
G01*
X107154000Y-98860000D02*
G75*
G03*
X107154000Y-98860000I-3100000J0D01*
G01*
X165154000Y-121860000D02*
G75*
G03*
X165154000Y-121860000I-3100000J0D01*
G01*
M02*
