G04 #@! TF.GenerationSoftware,KiCad,Pcbnew,(5.1.10-1-10_14)*
G04 #@! TF.CreationDate,2021-06-08T22:44:31-04:00*
G04 #@! TF.ProjectId,tr109-sensorboard,74723130-392d-4736-956e-736f72626f61,3*
G04 #@! TF.SameCoordinates,Original*
G04 #@! TF.FileFunction,Legend,Top*
G04 #@! TF.FilePolarity,Positive*
%FSLAX46Y46*%
G04 Gerber Fmt 4.6, Leading zero omitted, Abs format (unit mm)*
G04 Created by KiCad (PCBNEW (5.1.10-1-10_14)) date 2021-06-08 22:44:31*
%MOMM*%
%LPD*%
G01*
G04 APERTURE LIST*
%ADD10C,0.100000*%
%ADD11C,0.120000*%
%ADD12C,0.150000*%
%ADD13C,0.125000*%
G04 APERTURE END LIST*
D10*
X136231142Y-107898380D02*
X136302571Y-107922190D01*
X136421619Y-107922190D01*
X136469238Y-107898380D01*
X136493047Y-107874571D01*
X136516857Y-107826952D01*
X136516857Y-107779333D01*
X136493047Y-107731714D01*
X136469238Y-107707904D01*
X136421619Y-107684095D01*
X136326380Y-107660285D01*
X136278761Y-107636476D01*
X136254952Y-107612666D01*
X136231142Y-107565047D01*
X136231142Y-107517428D01*
X136254952Y-107469809D01*
X136278761Y-107446000D01*
X136326380Y-107422190D01*
X136445428Y-107422190D01*
X136516857Y-107446000D01*
X137016857Y-107874571D02*
X136993047Y-107898380D01*
X136921619Y-107922190D01*
X136874000Y-107922190D01*
X136802571Y-107898380D01*
X136754952Y-107850761D01*
X136731142Y-107803142D01*
X136707333Y-107707904D01*
X136707333Y-107636476D01*
X136731142Y-107541238D01*
X136754952Y-107493619D01*
X136802571Y-107446000D01*
X136874000Y-107422190D01*
X136921619Y-107422190D01*
X136993047Y-107446000D01*
X137016857Y-107469809D01*
X137231142Y-107922190D02*
X137231142Y-107422190D01*
X137516857Y-107922190D02*
X137302571Y-107636476D01*
X137516857Y-107422190D02*
X137231142Y-107707904D01*
X133953047Y-107446000D02*
X133905428Y-107422190D01*
X133834000Y-107422190D01*
X133762571Y-107446000D01*
X133714952Y-107493619D01*
X133691142Y-107541238D01*
X133667333Y-107636476D01*
X133667333Y-107707904D01*
X133691142Y-107803142D01*
X133714952Y-107850761D01*
X133762571Y-107898380D01*
X133834000Y-107922190D01*
X133881619Y-107922190D01*
X133953047Y-107898380D01*
X133976857Y-107874571D01*
X133976857Y-107707904D01*
X133881619Y-107707904D01*
X134191142Y-107922190D02*
X134191142Y-107422190D01*
X134476857Y-107922190D01*
X134476857Y-107422190D01*
X134714952Y-107922190D02*
X134714952Y-107422190D01*
X134834000Y-107422190D01*
X134905428Y-107446000D01*
X134953047Y-107493619D01*
X134976857Y-107541238D01*
X135000666Y-107636476D01*
X135000666Y-107707904D01*
X134976857Y-107803142D01*
X134953047Y-107850761D01*
X134905428Y-107898380D01*
X134834000Y-107922190D01*
X134714952Y-107922190D01*
X131198761Y-107422190D02*
X131508285Y-107422190D01*
X131341619Y-107612666D01*
X131413047Y-107612666D01*
X131460666Y-107636476D01*
X131484476Y-107660285D01*
X131508285Y-107707904D01*
X131508285Y-107826952D01*
X131484476Y-107874571D01*
X131460666Y-107898380D01*
X131413047Y-107922190D01*
X131270190Y-107922190D01*
X131222571Y-107898380D01*
X131198761Y-107874571D01*
X131674952Y-107588857D02*
X131794000Y-107922190D01*
X131913047Y-107588857D01*
X132055904Y-107422190D02*
X132365428Y-107422190D01*
X132198761Y-107612666D01*
X132270190Y-107612666D01*
X132317809Y-107636476D01*
X132341619Y-107660285D01*
X132365428Y-107707904D01*
X132365428Y-107826952D01*
X132341619Y-107874571D01*
X132317809Y-107898380D01*
X132270190Y-107922190D01*
X132127333Y-107922190D01*
X132079714Y-107898380D01*
X132055904Y-107874571D01*
X128646857Y-107898380D02*
X128718285Y-107922190D01*
X128837333Y-107922190D01*
X128884952Y-107898380D01*
X128908761Y-107874571D01*
X128932571Y-107826952D01*
X128932571Y-107779333D01*
X128908761Y-107731714D01*
X128884952Y-107707904D01*
X128837333Y-107684095D01*
X128742095Y-107660285D01*
X128694476Y-107636476D01*
X128670666Y-107612666D01*
X128646857Y-107565047D01*
X128646857Y-107517428D01*
X128670666Y-107469809D01*
X128694476Y-107446000D01*
X128742095Y-107422190D01*
X128861142Y-107422190D01*
X128932571Y-107446000D01*
X129146857Y-107922190D02*
X129146857Y-107422190D01*
X129265904Y-107422190D01*
X129337333Y-107446000D01*
X129384952Y-107493619D01*
X129408761Y-107541238D01*
X129432571Y-107636476D01*
X129432571Y-107707904D01*
X129408761Y-107803142D01*
X129384952Y-107850761D01*
X129337333Y-107898380D01*
X129265904Y-107922190D01*
X129146857Y-107922190D01*
X129623047Y-107779333D02*
X129861142Y-107779333D01*
X129575428Y-107922190D02*
X129742095Y-107422190D01*
X129908761Y-107922190D01*
X130851619Y-103977285D02*
X131018285Y-103977285D01*
X131089714Y-104239190D02*
X130851619Y-104239190D01*
X130851619Y-103739190D01*
X131089714Y-103739190D01*
X131256380Y-103739190D02*
X131589714Y-104239190D01*
X131589714Y-103739190D02*
X131256380Y-104239190D01*
X131708761Y-103739190D02*
X131994476Y-103739190D01*
X131851619Y-104239190D02*
X131851619Y-103739190D01*
X132518285Y-104215380D02*
X132589714Y-104239190D01*
X132708761Y-104239190D01*
X132756380Y-104215380D01*
X132780190Y-104191571D01*
X132804000Y-104143952D01*
X132804000Y-104096333D01*
X132780190Y-104048714D01*
X132756380Y-104024904D01*
X132708761Y-104001095D01*
X132613523Y-103977285D01*
X132565904Y-103953476D01*
X132542095Y-103929666D01*
X132518285Y-103882047D01*
X132518285Y-103834428D01*
X132542095Y-103786809D01*
X132565904Y-103763000D01*
X132613523Y-103739190D01*
X132732571Y-103739190D01*
X132804000Y-103763000D01*
X133018285Y-103977285D02*
X133184952Y-103977285D01*
X133256380Y-104239190D02*
X133018285Y-104239190D01*
X133018285Y-103739190D01*
X133256380Y-103739190D01*
X133470666Y-104239190D02*
X133470666Y-103739190D01*
X133756380Y-104239190D01*
X133756380Y-103739190D01*
X133970666Y-104215380D02*
X134042095Y-104239190D01*
X134161142Y-104239190D01*
X134208761Y-104215380D01*
X134232571Y-104191571D01*
X134256380Y-104143952D01*
X134256380Y-104096333D01*
X134232571Y-104048714D01*
X134208761Y-104024904D01*
X134161142Y-104001095D01*
X134065904Y-103977285D01*
X134018285Y-103953476D01*
X133994476Y-103929666D01*
X133970666Y-103882047D01*
X133970666Y-103834428D01*
X133994476Y-103786809D01*
X134018285Y-103763000D01*
X134065904Y-103739190D01*
X134184952Y-103739190D01*
X134256380Y-103763000D01*
X134565904Y-103739190D02*
X134661142Y-103739190D01*
X134708761Y-103763000D01*
X134756380Y-103810619D01*
X134780190Y-103905857D01*
X134780190Y-104072523D01*
X134756380Y-104167761D01*
X134708761Y-104215380D01*
X134661142Y-104239190D01*
X134565904Y-104239190D01*
X134518285Y-104215380D01*
X134470666Y-104167761D01*
X134446857Y-104072523D01*
X134446857Y-103905857D01*
X134470666Y-103810619D01*
X134518285Y-103763000D01*
X134565904Y-103739190D01*
X135280190Y-104239190D02*
X135113523Y-104001095D01*
X134994476Y-104239190D02*
X134994476Y-103739190D01*
X135184952Y-103739190D01*
X135232571Y-103763000D01*
X135256380Y-103786809D01*
X135280190Y-103834428D01*
X135280190Y-103905857D01*
X135256380Y-103953476D01*
X135232571Y-103977285D01*
X135184952Y-104001095D01*
X134994476Y-104001095D01*
X113776285Y-96883600D02*
X113681047Y-96835980D01*
X113538190Y-96835980D01*
X113395333Y-96883600D01*
X113300095Y-96978838D01*
X113252476Y-97074076D01*
X113204857Y-97264552D01*
X113204857Y-97407409D01*
X113252476Y-97597885D01*
X113300095Y-97693123D01*
X113395333Y-97788361D01*
X113538190Y-97835980D01*
X113633428Y-97835980D01*
X113776285Y-97788361D01*
X113823904Y-97740742D01*
X113823904Y-97407409D01*
X113633428Y-97407409D01*
X114252476Y-97835980D02*
X114252476Y-96835980D01*
X114823904Y-97835980D01*
X114823904Y-96835980D01*
X115300095Y-97835980D02*
X115300095Y-96835980D01*
X115538190Y-96835980D01*
X115681047Y-96883600D01*
X115776285Y-96978838D01*
X115823904Y-97074076D01*
X115871523Y-97264552D01*
X115871523Y-97407409D01*
X115823904Y-97597885D01*
X115776285Y-97693123D01*
X115681047Y-97788361D01*
X115538190Y-97835980D01*
X115300095Y-97835980D01*
X116300095Y-97835980D02*
X116300095Y-96835980D01*
X116871523Y-97835980D01*
X116871523Y-96835980D01*
D11*
X158514000Y-119260000D02*
X158514000Y-120590000D01*
X157184000Y-119260000D02*
X158514000Y-119260000D01*
X158514000Y-121860000D02*
X158514000Y-124460000D01*
X155914000Y-121860000D02*
X158514000Y-121860000D01*
X155914000Y-119260000D02*
X155914000Y-121860000D01*
X158514000Y-124460000D02*
X107594000Y-124460000D01*
X155914000Y-119260000D02*
X107594000Y-119260000D01*
X107594000Y-119260000D02*
X107594000Y-124460000D01*
X138204000Y-107248000D02*
X138204000Y-104588000D01*
X130524000Y-107248000D02*
X138204000Y-107248000D01*
X130524000Y-104588000D02*
X138204000Y-104588000D01*
X130524000Y-107248000D02*
X130524000Y-104588000D01*
X129254000Y-107248000D02*
X127924000Y-107248000D01*
X127924000Y-107248000D02*
X127924000Y-105918000D01*
X117664000Y-96963000D02*
X119064000Y-96963000D01*
X119064000Y-96963000D02*
X119064000Y-98363000D01*
X119064000Y-98363000D02*
X117664000Y-98363000D01*
X117664000Y-98363000D02*
X117664000Y-96963000D01*
X108367600Y-97128100D02*
X109767600Y-97128100D01*
X109767600Y-97128100D02*
X109767600Y-98528100D01*
X109767600Y-98528100D02*
X108367600Y-98528100D01*
X108367600Y-98528100D02*
X108367600Y-97128100D01*
D10*
X114599100Y-103324500D02*
X114699100Y-103424500D01*
X114699100Y-103424500D02*
X114999100Y-103424500D01*
X114299100Y-103324500D02*
X114599100Y-103324500D01*
X111849100Y-106524500D02*
X112349100Y-106524500D01*
X111849100Y-106524500D02*
X111849100Y-106024500D01*
X115049100Y-106524500D02*
X114549100Y-106524500D01*
X115049100Y-106524500D02*
X115049100Y-106024500D01*
X111849100Y-103324500D02*
X112349100Y-103324500D01*
X111849100Y-103324500D02*
X111849100Y-103824500D01*
D11*
X104151252Y-103440000D02*
X103628748Y-103440000D01*
X104151252Y-104860000D02*
X103628748Y-104860000D01*
X120778748Y-118170000D02*
X121301252Y-118170000D01*
X120778748Y-116750000D02*
X121301252Y-116750000D01*
X157028248Y-113869400D02*
X157550752Y-113869400D01*
X157028248Y-115289400D02*
X157550752Y-115289400D01*
X139371000Y-98800552D02*
X139371000Y-98278048D01*
X140791000Y-98800552D02*
X140791000Y-98278048D01*
X150094048Y-114136100D02*
X150616552Y-114136100D01*
X150094048Y-115556100D02*
X150616552Y-115556100D01*
X136831000Y-101226252D02*
X136831000Y-100703748D01*
X138251000Y-101226252D02*
X138251000Y-100703748D01*
X135681252Y-115543400D02*
X135158748Y-115543400D01*
X135681252Y-114123400D02*
X135158748Y-114123400D01*
X131337952Y-115543400D02*
X130815448Y-115543400D01*
X131337952Y-114123400D02*
X130815448Y-114123400D01*
X125038752Y-115543400D02*
X124516248Y-115543400D01*
X125038752Y-114123400D02*
X124516248Y-114123400D01*
X120136552Y-115543400D02*
X119614048Y-115543400D01*
X120136552Y-114123400D02*
X119614048Y-114123400D01*
X114688748Y-114123400D02*
X115211252Y-114123400D01*
X114688748Y-115543400D02*
X115211252Y-115543400D01*
X104151252Y-107080000D02*
X103628748Y-107080000D01*
X104151252Y-105660000D02*
X103628748Y-105660000D01*
X162185688Y-103239500D02*
X162708192Y-103239500D01*
X162185688Y-104659500D02*
X162708192Y-104659500D01*
X162185688Y-105474700D02*
X162708192Y-105474700D01*
X162185688Y-106894700D02*
X162708192Y-106894700D01*
X162247948Y-115812500D02*
X162770452Y-115812500D01*
X162247948Y-117232500D02*
X162770452Y-117232500D01*
X140361600Y-116452312D02*
X140361600Y-115929808D01*
X141781600Y-116452312D02*
X141781600Y-115929808D01*
X140454748Y-104192000D02*
X140977252Y-104192000D01*
X140454748Y-105612000D02*
X140977252Y-105612000D01*
X131336148Y-97435600D02*
X131858652Y-97435600D01*
X131336148Y-98855600D02*
X131858652Y-98855600D01*
X156571048Y-111773900D02*
X157093552Y-111773900D01*
X156571048Y-113193900D02*
X157093552Y-113193900D01*
X145712548Y-96953000D02*
X146235052Y-96953000D01*
X145712548Y-98373000D02*
X146235052Y-98373000D01*
X162247948Y-112142200D02*
X162770452Y-112142200D01*
X162247948Y-113562200D02*
X162770452Y-113562200D01*
X162247948Y-108471900D02*
X162770452Y-108471900D01*
X162247948Y-109891900D02*
X162770452Y-109891900D01*
X117076600Y-103302000D02*
X117076600Y-107362000D01*
X117076600Y-107362000D02*
X119346600Y-107362000D01*
X119346600Y-107362000D02*
X119346600Y-103302000D01*
X107551600Y-103302000D02*
X107551600Y-107362000D01*
X107551600Y-107362000D02*
X109821600Y-107362000D01*
X109821600Y-107362000D02*
X109821600Y-103302000D01*
X105765600Y-107995400D02*
X102315600Y-107995400D01*
X105765600Y-107995400D02*
X107715600Y-107995400D01*
X105765600Y-118115400D02*
X103815600Y-118115400D01*
X105765600Y-118115400D02*
X107715600Y-118115400D01*
X152353778Y-97448440D02*
X151836622Y-97448440D01*
X152353778Y-96028440D02*
X151836622Y-96028440D01*
X154353460Y-118607460D02*
X158413460Y-118607460D01*
X158413460Y-118607460D02*
X158413460Y-116337460D01*
X158413460Y-116337460D02*
X154353460Y-116337460D01*
X152252480Y-116337460D02*
X148192480Y-116337460D01*
X148192480Y-116337460D02*
X148192480Y-118607460D01*
X148192480Y-118607460D02*
X152252480Y-118607460D01*
X154593300Y-111348900D02*
X150533300Y-111348900D01*
X154593300Y-113618900D02*
X154593300Y-111348900D01*
X150533300Y-113618900D02*
X154593300Y-113618900D01*
X149139552Y-111348900D02*
X145079552Y-111348900D01*
X149139552Y-113618900D02*
X149139552Y-111348900D01*
X145079552Y-113618900D02*
X149139552Y-113618900D01*
X143685810Y-111348900D02*
X139625810Y-111348900D01*
X143685810Y-113618900D02*
X143685810Y-111348900D01*
X139625810Y-113618900D02*
X143685810Y-113618900D01*
X138232068Y-111348900D02*
X134172068Y-111348900D01*
X138232068Y-113618900D02*
X138232068Y-111348900D01*
X134172068Y-113618900D02*
X138232068Y-113618900D01*
X132778326Y-111348900D02*
X128718326Y-111348900D01*
X132778326Y-113618900D02*
X132778326Y-111348900D01*
X128718326Y-113618900D02*
X132778326Y-113618900D01*
X127324584Y-111348900D02*
X123264584Y-111348900D01*
X127324584Y-113618900D02*
X127324584Y-111348900D01*
X123264584Y-113618900D02*
X127324584Y-113618900D01*
X121870842Y-111348900D02*
X117810842Y-111348900D01*
X121870842Y-113618900D02*
X121870842Y-111348900D01*
X117810842Y-113618900D02*
X121870842Y-113618900D01*
X116417100Y-111348900D02*
X112357100Y-111348900D01*
X116417100Y-113618900D02*
X116417100Y-111348900D01*
X112357100Y-113618900D02*
X116417100Y-113618900D01*
X127398980Y-118607460D02*
X131458980Y-118607460D01*
X131458980Y-118607460D02*
X131458980Y-116337460D01*
X131458980Y-116337460D02*
X127398980Y-116337460D01*
X113492480Y-118607460D02*
X117552480Y-118607460D01*
X117552480Y-118607460D02*
X117552480Y-116337460D01*
X117552480Y-116337460D02*
X113492480Y-116337460D01*
X139071340Y-108493180D02*
X143131340Y-108493180D01*
X139071340Y-106223180D02*
X139071340Y-108493180D01*
X143131340Y-106223180D02*
X139071340Y-106223180D01*
X139116120Y-103268400D02*
X143176120Y-103268400D01*
X139116120Y-100998400D02*
X139116120Y-103268400D01*
X143176120Y-100998400D02*
X139116120Y-100998400D01*
X135657600Y-100998400D02*
X131597600Y-100998400D01*
X135657600Y-103268400D02*
X135657600Y-100998400D01*
X131597600Y-103268400D02*
X135657600Y-103268400D01*
X129853700Y-100998400D02*
X125793700Y-100998400D01*
X129853700Y-103268400D02*
X129853700Y-100998400D01*
X125793700Y-103268400D02*
X129853700Y-103268400D01*
X152353778Y-99795400D02*
X151836622Y-99795400D01*
X152353778Y-98375400D02*
X151836622Y-98375400D01*
X156798778Y-99795400D02*
X156281622Y-99795400D01*
X156798778Y-98375400D02*
X156281622Y-98375400D01*
X156798778Y-97448440D02*
X156281622Y-97448440D01*
X156798778Y-96028440D02*
X156281622Y-96028440D01*
D10*
X158909600Y-103327400D02*
X158909600Y-106527400D01*
X147109600Y-103327400D02*
X147109600Y-105527400D01*
X148009600Y-100827400D02*
X150009600Y-100827400D01*
X148009600Y-109027400D02*
X150009600Y-109027400D01*
X156009600Y-109027400D02*
X158009600Y-109027400D01*
X156009600Y-100827400D02*
X158009600Y-100827400D01*
D12*
X159515276Y-117638580D02*
X159515276Y-118352866D01*
X159467657Y-118495723D01*
X159372419Y-118590961D01*
X159229561Y-118638580D01*
X159134323Y-118638580D01*
X160420038Y-117971914D02*
X160420038Y-118638580D01*
X160181942Y-117590961D02*
X159943847Y-118305247D01*
X160562895Y-118305247D01*
X160848609Y-117638580D02*
X161515276Y-117638580D01*
X161086704Y-118638580D01*
X126376380Y-106251333D02*
X127090666Y-106251333D01*
X127233523Y-106298952D01*
X127328761Y-106394190D01*
X127376380Y-106537047D01*
X127376380Y-106632285D01*
X126376380Y-105870380D02*
X126376380Y-105251333D01*
X126757333Y-105584666D01*
X126757333Y-105441809D01*
X126804952Y-105346571D01*
X126852571Y-105298952D01*
X126947809Y-105251333D01*
X127185904Y-105251333D01*
X127281142Y-105298952D01*
X127328761Y-105346571D01*
X127376380Y-105441809D01*
X127376380Y-105727523D01*
X127328761Y-105822761D01*
X127281142Y-105870380D01*
X119719766Y-97128080D02*
X119719766Y-97842366D01*
X119672147Y-97985223D01*
X119576909Y-98080461D01*
X119434052Y-98128080D01*
X119338814Y-98128080D01*
X120148338Y-97223319D02*
X120195957Y-97175700D01*
X120291195Y-97128080D01*
X120529290Y-97128080D01*
X120624528Y-97175700D01*
X120672147Y-97223319D01*
X120719766Y-97318557D01*
X120719766Y-97413795D01*
X120672147Y-97556652D01*
X120100719Y-98128080D01*
X120719766Y-98128080D01*
X110436066Y-97229680D02*
X110436066Y-97943966D01*
X110388447Y-98086823D01*
X110293209Y-98182061D01*
X110150352Y-98229680D01*
X110055114Y-98229680D01*
X111436066Y-98229680D02*
X110864638Y-98229680D01*
X111150352Y-98229680D02*
X111150352Y-97229680D01*
X111055114Y-97372538D01*
X110959876Y-97467776D01*
X110864638Y-97515395D01*
X112674495Y-106852380D02*
X112674495Y-107661904D01*
X112722114Y-107757142D01*
X112769733Y-107804761D01*
X112864971Y-107852380D01*
X113055447Y-107852380D01*
X113150685Y-107804761D01*
X113198304Y-107757142D01*
X113245923Y-107661904D01*
X113245923Y-106852380D01*
X114245923Y-107852380D02*
X113674495Y-107852380D01*
X113960209Y-107852380D02*
X113960209Y-106852380D01*
X113864971Y-106995238D01*
X113769733Y-107090476D01*
X113674495Y-107138095D01*
D13*
X101178571Y-103076190D02*
X101011904Y-102838095D01*
X100892857Y-103076190D02*
X100892857Y-102576190D01*
X101083333Y-102576190D01*
X101130952Y-102600000D01*
X101154761Y-102623809D01*
X101178571Y-102671428D01*
X101178571Y-102742857D01*
X101154761Y-102790476D01*
X101130952Y-102814285D01*
X101083333Y-102838095D01*
X100892857Y-102838095D01*
X101369047Y-102623809D02*
X101392857Y-102600000D01*
X101440476Y-102576190D01*
X101559523Y-102576190D01*
X101607142Y-102600000D01*
X101630952Y-102623809D01*
X101654761Y-102671428D01*
X101654761Y-102719047D01*
X101630952Y-102790476D01*
X101345238Y-103076190D01*
X101654761Y-103076190D01*
X101845238Y-102623809D02*
X101869047Y-102600000D01*
X101916666Y-102576190D01*
X102035714Y-102576190D01*
X102083333Y-102600000D01*
X102107142Y-102623809D01*
X102130952Y-102671428D01*
X102130952Y-102719047D01*
X102107142Y-102790476D01*
X101821428Y-103076190D01*
X102130952Y-103076190D01*
D12*
X123737142Y-118412380D02*
X123403809Y-117936190D01*
X123165714Y-118412380D02*
X123165714Y-117412380D01*
X123546666Y-117412380D01*
X123641904Y-117460000D01*
X123689523Y-117507619D01*
X123737142Y-117602857D01*
X123737142Y-117745714D01*
X123689523Y-117840952D01*
X123641904Y-117888571D01*
X123546666Y-117936190D01*
X123165714Y-117936190D01*
X124118095Y-117507619D02*
X124165714Y-117460000D01*
X124260952Y-117412380D01*
X124499047Y-117412380D01*
X124594285Y-117460000D01*
X124641904Y-117507619D01*
X124689523Y-117602857D01*
X124689523Y-117698095D01*
X124641904Y-117840952D01*
X124070476Y-118412380D01*
X124689523Y-118412380D01*
X125641904Y-118412380D02*
X125070476Y-118412380D01*
X125356190Y-118412380D02*
X125356190Y-117412380D01*
X125260952Y-117555238D01*
X125165714Y-117650476D01*
X125070476Y-117698095D01*
X160147142Y-115132380D02*
X159813809Y-114656190D01*
X159575714Y-115132380D02*
X159575714Y-114132380D01*
X159956666Y-114132380D01*
X160051904Y-114180000D01*
X160099523Y-114227619D01*
X160147142Y-114322857D01*
X160147142Y-114465714D01*
X160099523Y-114560952D01*
X160051904Y-114608571D01*
X159956666Y-114656190D01*
X159575714Y-114656190D01*
X160528095Y-114227619D02*
X160575714Y-114180000D01*
X160670952Y-114132380D01*
X160909047Y-114132380D01*
X161004285Y-114180000D01*
X161051904Y-114227619D01*
X161099523Y-114322857D01*
X161099523Y-114418095D01*
X161051904Y-114560952D01*
X160480476Y-115132380D01*
X161099523Y-115132380D01*
X161718571Y-114132380D02*
X161813809Y-114132380D01*
X161909047Y-114180000D01*
X161956666Y-114227619D01*
X162004285Y-114322857D01*
X162051904Y-114513333D01*
X162051904Y-114751428D01*
X162004285Y-114941904D01*
X161956666Y-115037142D01*
X161909047Y-115084761D01*
X161813809Y-115132380D01*
X161718571Y-115132380D01*
X161623333Y-115084761D01*
X161575714Y-115037142D01*
X161528095Y-114941904D01*
X161480476Y-114751428D01*
X161480476Y-114513333D01*
X161528095Y-114322857D01*
X161575714Y-114227619D01*
X161623333Y-114180000D01*
X161718571Y-114132380D01*
D13*
X139696071Y-96466790D02*
X139529404Y-96228695D01*
X139410357Y-96466790D02*
X139410357Y-95966790D01*
X139600833Y-95966790D01*
X139648452Y-95990600D01*
X139672261Y-96014409D01*
X139696071Y-96062028D01*
X139696071Y-96133457D01*
X139672261Y-96181076D01*
X139648452Y-96204885D01*
X139600833Y-96228695D01*
X139410357Y-96228695D01*
X140172261Y-96466790D02*
X139886547Y-96466790D01*
X140029404Y-96466790D02*
X140029404Y-95966790D01*
X139981785Y-96038219D01*
X139934166Y-96085838D01*
X139886547Y-96109647D01*
X140410357Y-96466790D02*
X140505595Y-96466790D01*
X140553214Y-96442980D01*
X140577023Y-96419171D01*
X140624642Y-96347742D01*
X140648452Y-96252504D01*
X140648452Y-96062028D01*
X140624642Y-96014409D01*
X140600833Y-95990600D01*
X140553214Y-95966790D01*
X140457976Y-95966790D01*
X140410357Y-95990600D01*
X140386547Y-96014409D01*
X140362738Y-96062028D01*
X140362738Y-96181076D01*
X140386547Y-96228695D01*
X140410357Y-96252504D01*
X140457976Y-96276314D01*
X140553214Y-96276314D01*
X140600833Y-96252504D01*
X140624642Y-96228695D01*
X140648452Y-96181076D01*
D12*
X153027142Y-114832380D02*
X152693809Y-114356190D01*
X152455714Y-114832380D02*
X152455714Y-113832380D01*
X152836666Y-113832380D01*
X152931904Y-113880000D01*
X152979523Y-113927619D01*
X153027142Y-114022857D01*
X153027142Y-114165714D01*
X152979523Y-114260952D01*
X152931904Y-114308571D01*
X152836666Y-114356190D01*
X152455714Y-114356190D01*
X153979523Y-114832380D02*
X153408095Y-114832380D01*
X153693809Y-114832380D02*
X153693809Y-113832380D01*
X153598571Y-113975238D01*
X153503333Y-114070476D01*
X153408095Y-114118095D01*
X154550952Y-114260952D02*
X154455714Y-114213333D01*
X154408095Y-114165714D01*
X154360476Y-114070476D01*
X154360476Y-114022857D01*
X154408095Y-113927619D01*
X154455714Y-113880000D01*
X154550952Y-113832380D01*
X154741428Y-113832380D01*
X154836666Y-113880000D01*
X154884285Y-113927619D01*
X154931904Y-114022857D01*
X154931904Y-114070476D01*
X154884285Y-114165714D01*
X154836666Y-114213333D01*
X154741428Y-114260952D01*
X154550952Y-114260952D01*
X154455714Y-114308571D01*
X154408095Y-114356190D01*
X154360476Y-114451428D01*
X154360476Y-114641904D01*
X154408095Y-114737142D01*
X154455714Y-114784761D01*
X154550952Y-114832380D01*
X154741428Y-114832380D01*
X154836666Y-114784761D01*
X154884285Y-114737142D01*
X154931904Y-114641904D01*
X154931904Y-114451428D01*
X154884285Y-114356190D01*
X154836666Y-114308571D01*
X154741428Y-114260952D01*
D13*
X136152771Y-98917890D02*
X135986104Y-98679795D01*
X135867057Y-98917890D02*
X135867057Y-98417890D01*
X136057533Y-98417890D01*
X136105152Y-98441700D01*
X136128961Y-98465509D01*
X136152771Y-98513128D01*
X136152771Y-98584557D01*
X136128961Y-98632176D01*
X136105152Y-98655985D01*
X136057533Y-98679795D01*
X135867057Y-98679795D01*
X136628961Y-98917890D02*
X136343247Y-98917890D01*
X136486104Y-98917890D02*
X136486104Y-98417890D01*
X136438485Y-98489319D01*
X136390866Y-98536938D01*
X136343247Y-98560747D01*
X136795628Y-98417890D02*
X137128961Y-98417890D01*
X136914676Y-98917890D01*
D12*
X135267142Y-117035780D02*
X134933809Y-116559590D01*
X134695714Y-117035780D02*
X134695714Y-116035780D01*
X135076666Y-116035780D01*
X135171904Y-116083400D01*
X135219523Y-116131019D01*
X135267142Y-116226257D01*
X135267142Y-116369114D01*
X135219523Y-116464352D01*
X135171904Y-116511971D01*
X135076666Y-116559590D01*
X134695714Y-116559590D01*
X136219523Y-117035780D02*
X135648095Y-117035780D01*
X135933809Y-117035780D02*
X135933809Y-116035780D01*
X135838571Y-116178638D01*
X135743333Y-116273876D01*
X135648095Y-116321495D01*
X137076666Y-116035780D02*
X136886190Y-116035780D01*
X136790952Y-116083400D01*
X136743333Y-116131019D01*
X136648095Y-116273876D01*
X136600476Y-116464352D01*
X136600476Y-116845304D01*
X136648095Y-116940542D01*
X136695714Y-116988161D01*
X136790952Y-117035780D01*
X136981428Y-117035780D01*
X137076666Y-116988161D01*
X137124285Y-116940542D01*
X137171904Y-116845304D01*
X137171904Y-116607209D01*
X137124285Y-116511971D01*
X137076666Y-116464352D01*
X136981428Y-116416733D01*
X136790952Y-116416733D01*
X136695714Y-116464352D01*
X136648095Y-116511971D01*
X136600476Y-116607209D01*
X132347142Y-117028880D02*
X132013809Y-116552690D01*
X131775714Y-117028880D02*
X131775714Y-116028880D01*
X132156666Y-116028880D01*
X132251904Y-116076500D01*
X132299523Y-116124119D01*
X132347142Y-116219357D01*
X132347142Y-116362214D01*
X132299523Y-116457452D01*
X132251904Y-116505071D01*
X132156666Y-116552690D01*
X131775714Y-116552690D01*
X133299523Y-117028880D02*
X132728095Y-117028880D01*
X133013809Y-117028880D02*
X133013809Y-116028880D01*
X132918571Y-116171738D01*
X132823333Y-116266976D01*
X132728095Y-116314595D01*
X134204285Y-116028880D02*
X133728095Y-116028880D01*
X133680476Y-116505071D01*
X133728095Y-116457452D01*
X133823333Y-116409833D01*
X134061428Y-116409833D01*
X134156666Y-116457452D01*
X134204285Y-116505071D01*
X134251904Y-116600309D01*
X134251904Y-116838404D01*
X134204285Y-116933642D01*
X134156666Y-116981261D01*
X134061428Y-117028880D01*
X133823333Y-117028880D01*
X133728095Y-116981261D01*
X133680476Y-116933642D01*
X124134642Y-116935780D02*
X123801309Y-116459590D01*
X123563214Y-116935780D02*
X123563214Y-115935780D01*
X123944166Y-115935780D01*
X124039404Y-115983400D01*
X124087023Y-116031019D01*
X124134642Y-116126257D01*
X124134642Y-116269114D01*
X124087023Y-116364352D01*
X124039404Y-116411971D01*
X123944166Y-116459590D01*
X123563214Y-116459590D01*
X125087023Y-116935780D02*
X124515595Y-116935780D01*
X124801309Y-116935780D02*
X124801309Y-115935780D01*
X124706071Y-116078638D01*
X124610833Y-116173876D01*
X124515595Y-116221495D01*
X125944166Y-116269114D02*
X125944166Y-116935780D01*
X125706071Y-115888161D02*
X125467976Y-116602447D01*
X126087023Y-116602447D01*
D13*
X120768571Y-116386190D02*
X120601904Y-116148095D01*
X120482857Y-116386190D02*
X120482857Y-115886190D01*
X120673333Y-115886190D01*
X120720952Y-115910000D01*
X120744761Y-115933809D01*
X120768571Y-115981428D01*
X120768571Y-116052857D01*
X120744761Y-116100476D01*
X120720952Y-116124285D01*
X120673333Y-116148095D01*
X120482857Y-116148095D01*
X121244761Y-116386190D02*
X120959047Y-116386190D01*
X121101904Y-116386190D02*
X121101904Y-115886190D01*
X121054285Y-115957619D01*
X121006666Y-116005238D01*
X120959047Y-116029047D01*
X121411428Y-115886190D02*
X121720952Y-115886190D01*
X121554285Y-116076666D01*
X121625714Y-116076666D01*
X121673333Y-116100476D01*
X121697142Y-116124285D01*
X121720952Y-116171904D01*
X121720952Y-116290952D01*
X121697142Y-116338571D01*
X121673333Y-116362380D01*
X121625714Y-116386190D01*
X121482857Y-116386190D01*
X121435238Y-116362380D01*
X121411428Y-116338571D01*
D12*
X110907142Y-115395780D02*
X110573809Y-114919590D01*
X110335714Y-115395780D02*
X110335714Y-114395780D01*
X110716666Y-114395780D01*
X110811904Y-114443400D01*
X110859523Y-114491019D01*
X110907142Y-114586257D01*
X110907142Y-114729114D01*
X110859523Y-114824352D01*
X110811904Y-114871971D01*
X110716666Y-114919590D01*
X110335714Y-114919590D01*
X111859523Y-115395780D02*
X111288095Y-115395780D01*
X111573809Y-115395780D02*
X111573809Y-114395780D01*
X111478571Y-114538638D01*
X111383333Y-114633876D01*
X111288095Y-114681495D01*
X112240476Y-114491019D02*
X112288095Y-114443400D01*
X112383333Y-114395780D01*
X112621428Y-114395780D01*
X112716666Y-114443400D01*
X112764285Y-114491019D01*
X112811904Y-114586257D01*
X112811904Y-114681495D01*
X112764285Y-114824352D01*
X112192857Y-115395780D01*
X112811904Y-115395780D01*
D13*
X101178571Y-105426190D02*
X101011904Y-105188095D01*
X100892857Y-105426190D02*
X100892857Y-104926190D01*
X101083333Y-104926190D01*
X101130952Y-104950000D01*
X101154761Y-104973809D01*
X101178571Y-105021428D01*
X101178571Y-105092857D01*
X101154761Y-105140476D01*
X101130952Y-105164285D01*
X101083333Y-105188095D01*
X100892857Y-105188095D01*
X101654761Y-105426190D02*
X101369047Y-105426190D01*
X101511904Y-105426190D02*
X101511904Y-104926190D01*
X101464285Y-104997619D01*
X101416666Y-105045238D01*
X101369047Y-105069047D01*
X102130952Y-105426190D02*
X101845238Y-105426190D01*
X101988095Y-105426190D02*
X101988095Y-104926190D01*
X101940476Y-104997619D01*
X101892857Y-105045238D01*
X101845238Y-105069047D01*
X159333475Y-104129440D02*
X159166808Y-103891345D01*
X159047761Y-104129440D02*
X159047761Y-103629440D01*
X159238237Y-103629440D01*
X159285856Y-103653250D01*
X159309665Y-103677059D01*
X159333475Y-103724678D01*
X159333475Y-103796107D01*
X159309665Y-103843726D01*
X159285856Y-103867535D01*
X159238237Y-103891345D01*
X159047761Y-103891345D01*
X159809665Y-104129440D02*
X159523951Y-104129440D01*
X159666808Y-104129440D02*
X159666808Y-103629440D01*
X159619189Y-103700869D01*
X159571570Y-103748488D01*
X159523951Y-103772297D01*
X160119189Y-103629440D02*
X160166808Y-103629440D01*
X160214427Y-103653250D01*
X160238237Y-103677059D01*
X160262046Y-103724678D01*
X160285856Y-103819916D01*
X160285856Y-103938964D01*
X160262046Y-104034202D01*
X160238237Y-104081821D01*
X160214427Y-104105630D01*
X160166808Y-104129440D01*
X160119189Y-104129440D01*
X160071570Y-104105630D01*
X160047761Y-104081821D01*
X160023951Y-104034202D01*
X160000142Y-103938964D01*
X160000142Y-103819916D01*
X160023951Y-103724678D01*
X160047761Y-103677059D01*
X160071570Y-103653250D01*
X160119189Y-103629440D01*
X159809666Y-106364640D02*
X159643000Y-106126545D01*
X159523952Y-106364640D02*
X159523952Y-105864640D01*
X159714428Y-105864640D01*
X159762047Y-105888450D01*
X159785857Y-105912259D01*
X159809666Y-105959878D01*
X159809666Y-106031307D01*
X159785857Y-106078926D01*
X159762047Y-106102735D01*
X159714428Y-106126545D01*
X159523952Y-106126545D01*
X160047761Y-106364640D02*
X160143000Y-106364640D01*
X160190619Y-106340830D01*
X160214428Y-106317021D01*
X160262047Y-106245592D01*
X160285857Y-106150354D01*
X160285857Y-105959878D01*
X160262047Y-105912259D01*
X160238238Y-105888450D01*
X160190619Y-105864640D01*
X160095380Y-105864640D01*
X160047761Y-105888450D01*
X160023952Y-105912259D01*
X160000142Y-105959878D01*
X160000142Y-106078926D01*
X160023952Y-106126545D01*
X160047761Y-106150354D01*
X160095380Y-106174164D01*
X160190619Y-106174164D01*
X160238238Y-106150354D01*
X160262047Y-106126545D01*
X160285857Y-106078926D01*
D12*
X163653333Y-115212380D02*
X163320000Y-114736190D01*
X163081904Y-115212380D02*
X163081904Y-114212380D01*
X163462857Y-114212380D01*
X163558095Y-114260000D01*
X163605714Y-114307619D01*
X163653333Y-114402857D01*
X163653333Y-114545714D01*
X163605714Y-114640952D01*
X163558095Y-114688571D01*
X163462857Y-114736190D01*
X163081904Y-114736190D01*
X164224761Y-114640952D02*
X164129523Y-114593333D01*
X164081904Y-114545714D01*
X164034285Y-114450476D01*
X164034285Y-114402857D01*
X164081904Y-114307619D01*
X164129523Y-114260000D01*
X164224761Y-114212380D01*
X164415238Y-114212380D01*
X164510476Y-114260000D01*
X164558095Y-114307619D01*
X164605714Y-114402857D01*
X164605714Y-114450476D01*
X164558095Y-114545714D01*
X164510476Y-114593333D01*
X164415238Y-114640952D01*
X164224761Y-114640952D01*
X164129523Y-114688571D01*
X164081904Y-114736190D01*
X164034285Y-114831428D01*
X164034285Y-115021904D01*
X164081904Y-115117142D01*
X164129523Y-115164761D01*
X164224761Y-115212380D01*
X164415238Y-115212380D01*
X164510476Y-115164761D01*
X164558095Y-115117142D01*
X164605714Y-115021904D01*
X164605714Y-114831428D01*
X164558095Y-114736190D01*
X164510476Y-114688571D01*
X164415238Y-114640952D01*
X137983933Y-115170240D02*
X137650600Y-114694050D01*
X137412504Y-115170240D02*
X137412504Y-114170240D01*
X137793457Y-114170240D01*
X137888695Y-114217860D01*
X137936314Y-114265479D01*
X137983933Y-114360717D01*
X137983933Y-114503574D01*
X137936314Y-114598812D01*
X137888695Y-114646431D01*
X137793457Y-114694050D01*
X137412504Y-114694050D01*
X138317266Y-114170240D02*
X138983933Y-114170240D01*
X138555361Y-115170240D01*
X143495733Y-105367080D02*
X143162400Y-104890890D01*
X142924304Y-105367080D02*
X142924304Y-104367080D01*
X143305257Y-104367080D01*
X143400495Y-104414700D01*
X143448114Y-104462319D01*
X143495733Y-104557557D01*
X143495733Y-104700414D01*
X143448114Y-104795652D01*
X143400495Y-104843271D01*
X143305257Y-104890890D01*
X142924304Y-104890890D01*
X144352876Y-104367080D02*
X144162400Y-104367080D01*
X144067161Y-104414700D01*
X144019542Y-104462319D01*
X143924304Y-104605176D01*
X143876685Y-104795652D01*
X143876685Y-105176604D01*
X143924304Y-105271842D01*
X143971923Y-105319461D01*
X144067161Y-105367080D01*
X144257638Y-105367080D01*
X144352876Y-105319461D01*
X144400495Y-105271842D01*
X144448114Y-105176604D01*
X144448114Y-104938509D01*
X144400495Y-104843271D01*
X144352876Y-104795652D01*
X144257638Y-104748033D01*
X144067161Y-104748033D01*
X143971923Y-104795652D01*
X143924304Y-104843271D01*
X143876685Y-104938509D01*
X131430733Y-97099380D02*
X131097400Y-96623190D01*
X130859304Y-97099380D02*
X130859304Y-96099380D01*
X131240257Y-96099380D01*
X131335495Y-96147000D01*
X131383114Y-96194619D01*
X131430733Y-96289857D01*
X131430733Y-96432714D01*
X131383114Y-96527952D01*
X131335495Y-96575571D01*
X131240257Y-96623190D01*
X130859304Y-96623190D01*
X132335495Y-96099380D02*
X131859304Y-96099380D01*
X131811685Y-96575571D01*
X131859304Y-96527952D01*
X131954542Y-96480333D01*
X132192638Y-96480333D01*
X132287876Y-96527952D01*
X132335495Y-96575571D01*
X132383114Y-96670809D01*
X132383114Y-96908904D01*
X132335495Y-97004142D01*
X132287876Y-97051761D01*
X132192638Y-97099380D01*
X131954542Y-97099380D01*
X131859304Y-97051761D01*
X131811685Y-97004142D01*
X156665633Y-111286280D02*
X156332300Y-110810090D01*
X156094204Y-111286280D02*
X156094204Y-110286280D01*
X156475157Y-110286280D01*
X156570395Y-110333900D01*
X156618014Y-110381519D01*
X156665633Y-110476757D01*
X156665633Y-110619614D01*
X156618014Y-110714852D01*
X156570395Y-110762471D01*
X156475157Y-110810090D01*
X156094204Y-110810090D01*
X157522776Y-110619614D02*
X157522776Y-111286280D01*
X157284680Y-110238661D02*
X157046585Y-110952947D01*
X157665633Y-110952947D01*
X142860733Y-98047880D02*
X142527400Y-97571690D01*
X142289304Y-98047880D02*
X142289304Y-97047880D01*
X142670257Y-97047880D01*
X142765495Y-97095500D01*
X142813114Y-97143119D01*
X142860733Y-97238357D01*
X142860733Y-97381214D01*
X142813114Y-97476452D01*
X142765495Y-97524071D01*
X142670257Y-97571690D01*
X142289304Y-97571690D01*
X143194066Y-97047880D02*
X143813114Y-97047880D01*
X143479780Y-97428833D01*
X143622638Y-97428833D01*
X143717876Y-97476452D01*
X143765495Y-97524071D01*
X143813114Y-97619309D01*
X143813114Y-97857404D01*
X143765495Y-97952642D01*
X143717876Y-98000261D01*
X143622638Y-98047880D01*
X143336923Y-98047880D01*
X143241685Y-98000261D01*
X143194066Y-97952642D01*
D13*
X162425866Y-111808390D02*
X162259200Y-111570295D01*
X162140152Y-111808390D02*
X162140152Y-111308390D01*
X162330628Y-111308390D01*
X162378247Y-111332200D01*
X162402057Y-111356009D01*
X162425866Y-111403628D01*
X162425866Y-111475057D01*
X162402057Y-111522676D01*
X162378247Y-111546485D01*
X162330628Y-111570295D01*
X162140152Y-111570295D01*
X162616342Y-111356009D02*
X162640152Y-111332200D01*
X162687771Y-111308390D01*
X162806819Y-111308390D01*
X162854438Y-111332200D01*
X162878247Y-111356009D01*
X162902057Y-111403628D01*
X162902057Y-111451247D01*
X162878247Y-111522676D01*
X162592533Y-111808390D01*
X162902057Y-111808390D01*
X162425866Y-108188890D02*
X162259200Y-107950795D01*
X162140152Y-108188890D02*
X162140152Y-107688890D01*
X162330628Y-107688890D01*
X162378247Y-107712700D01*
X162402057Y-107736509D01*
X162425866Y-107784128D01*
X162425866Y-107855557D01*
X162402057Y-107903176D01*
X162378247Y-107926985D01*
X162330628Y-107950795D01*
X162140152Y-107950795D01*
X162902057Y-108188890D02*
X162616342Y-108188890D01*
X162759200Y-108188890D02*
X162759200Y-107688890D01*
X162711580Y-107760319D01*
X162663961Y-107807938D01*
X162616342Y-107831747D01*
D12*
X119625714Y-107242380D02*
X119625714Y-106242380D01*
X119863809Y-106242380D01*
X120006666Y-106290000D01*
X120101904Y-106385238D01*
X120149523Y-106480476D01*
X120197142Y-106670952D01*
X120197142Y-106813809D01*
X120149523Y-107004285D01*
X120101904Y-107099523D01*
X120006666Y-107194761D01*
X119863809Y-107242380D01*
X119625714Y-107242380D01*
X121149523Y-107242380D02*
X120578095Y-107242380D01*
X120863809Y-107242380D02*
X120863809Y-106242380D01*
X120768571Y-106385238D01*
X120673333Y-106480476D01*
X120578095Y-106528095D01*
X121720952Y-106670952D02*
X121625714Y-106623333D01*
X121578095Y-106575714D01*
X121530476Y-106480476D01*
X121530476Y-106432857D01*
X121578095Y-106337619D01*
X121625714Y-106290000D01*
X121720952Y-106242380D01*
X121911428Y-106242380D01*
X122006666Y-106290000D01*
X122054285Y-106337619D01*
X122101904Y-106432857D01*
X122101904Y-106480476D01*
X122054285Y-106575714D01*
X122006666Y-106623333D01*
X121911428Y-106670952D01*
X121720952Y-106670952D01*
X121625714Y-106718571D01*
X121578095Y-106766190D01*
X121530476Y-106861428D01*
X121530476Y-107051904D01*
X121578095Y-107147142D01*
X121625714Y-107194761D01*
X121720952Y-107242380D01*
X121911428Y-107242380D01*
X122006666Y-107194761D01*
X122054285Y-107147142D01*
X122101904Y-107051904D01*
X122101904Y-106861428D01*
X122054285Y-106766190D01*
X122006666Y-106718571D01*
X121911428Y-106670952D01*
X107459614Y-102077780D02*
X107459614Y-101077780D01*
X107697709Y-101077780D01*
X107840566Y-101125400D01*
X107935804Y-101220638D01*
X107983423Y-101315876D01*
X108031042Y-101506352D01*
X108031042Y-101649209D01*
X107983423Y-101839685D01*
X107935804Y-101934923D01*
X107840566Y-102030161D01*
X107697709Y-102077780D01*
X107459614Y-102077780D01*
X108983423Y-102077780D02*
X108411995Y-102077780D01*
X108697709Y-102077780D02*
X108697709Y-101077780D01*
X108602471Y-101220638D01*
X108507233Y-101315876D01*
X108411995Y-101363495D01*
X109316757Y-101077780D02*
X109983423Y-101077780D01*
X109554852Y-102077780D01*
X105003695Y-106607780D02*
X105003695Y-107417304D01*
X105051314Y-107512542D01*
X105098933Y-107560161D01*
X105194171Y-107607780D01*
X105384647Y-107607780D01*
X105479885Y-107560161D01*
X105527504Y-107512542D01*
X105575123Y-107417304D01*
X105575123Y-106607780D01*
X106003695Y-106703019D02*
X106051314Y-106655400D01*
X106146552Y-106607780D01*
X106384647Y-106607780D01*
X106479885Y-106655400D01*
X106527504Y-106703019D01*
X106575123Y-106798257D01*
X106575123Y-106893495D01*
X106527504Y-107036352D01*
X105956076Y-107607780D01*
X106575123Y-107607780D01*
X149007533Y-97028082D02*
X148959914Y-97075701D01*
X148817057Y-97123320D01*
X148721819Y-97123320D01*
X148578961Y-97075701D01*
X148483723Y-96980463D01*
X148436104Y-96885225D01*
X148388485Y-96694749D01*
X148388485Y-96551892D01*
X148436104Y-96361416D01*
X148483723Y-96266178D01*
X148578961Y-96170940D01*
X148721819Y-96123320D01*
X148817057Y-96123320D01*
X148959914Y-96170940D01*
X149007533Y-96218559D01*
X149340866Y-96123320D02*
X149959914Y-96123320D01*
X149626580Y-96504273D01*
X149769438Y-96504273D01*
X149864676Y-96551892D01*
X149912295Y-96599511D01*
X149959914Y-96694749D01*
X149959914Y-96932844D01*
X149912295Y-97028082D01*
X149864676Y-97075701D01*
X149769438Y-97123320D01*
X149483723Y-97123320D01*
X149388485Y-97075701D01*
X149340866Y-97028082D01*
D13*
X158802857Y-116786190D02*
X158802857Y-116286190D01*
X158921904Y-116286190D01*
X158993333Y-116310000D01*
X159040952Y-116357619D01*
X159064761Y-116405238D01*
X159088571Y-116500476D01*
X159088571Y-116571904D01*
X159064761Y-116667142D01*
X159040952Y-116714761D01*
X158993333Y-116762380D01*
X158921904Y-116786190D01*
X158802857Y-116786190D01*
X159564761Y-116786190D02*
X159279047Y-116786190D01*
X159421904Y-116786190D02*
X159421904Y-116286190D01*
X159374285Y-116357619D01*
X159326666Y-116405238D01*
X159279047Y-116429047D01*
X159993333Y-116286190D02*
X159898095Y-116286190D01*
X159850476Y-116310000D01*
X159826666Y-116333809D01*
X159779047Y-116405238D01*
X159755238Y-116500476D01*
X159755238Y-116690952D01*
X159779047Y-116738571D01*
X159802857Y-116762380D01*
X159850476Y-116786190D01*
X159945714Y-116786190D01*
X159993333Y-116762380D01*
X160017142Y-116738571D01*
X160040952Y-116690952D01*
X160040952Y-116571904D01*
X160017142Y-116524285D01*
X159993333Y-116500476D01*
X159945714Y-116476666D01*
X159850476Y-116476666D01*
X159802857Y-116500476D01*
X159779047Y-116524285D01*
X159755238Y-116571904D01*
D12*
X152455714Y-116082380D02*
X152455714Y-115082380D01*
X152693809Y-115082380D01*
X152836666Y-115130000D01*
X152931904Y-115225238D01*
X152979523Y-115320476D01*
X153027142Y-115510952D01*
X153027142Y-115653809D01*
X152979523Y-115844285D01*
X152931904Y-115939523D01*
X152836666Y-116034761D01*
X152693809Y-116082380D01*
X152455714Y-116082380D01*
X153979523Y-116082380D02*
X153408095Y-116082380D01*
X153693809Y-116082380D02*
X153693809Y-115082380D01*
X153598571Y-115225238D01*
X153503333Y-115320476D01*
X153408095Y-115368095D01*
X154884285Y-115082380D02*
X154408095Y-115082380D01*
X154360476Y-115558571D01*
X154408095Y-115510952D01*
X154503333Y-115463333D01*
X154741428Y-115463333D01*
X154836666Y-115510952D01*
X154884285Y-115558571D01*
X154931904Y-115653809D01*
X154931904Y-115891904D01*
X154884285Y-115987142D01*
X154836666Y-116034761D01*
X154741428Y-116082380D01*
X154503333Y-116082380D01*
X154408095Y-116034761D01*
X154360476Y-115987142D01*
X151417704Y-111132880D02*
X151417704Y-110132880D01*
X151655800Y-110132880D01*
X151798657Y-110180500D01*
X151893895Y-110275738D01*
X151941514Y-110370976D01*
X151989133Y-110561452D01*
X151989133Y-110704309D01*
X151941514Y-110894785D01*
X151893895Y-110990023D01*
X151798657Y-111085261D01*
X151655800Y-111132880D01*
X151417704Y-111132880D01*
X152560561Y-110561452D02*
X152465323Y-110513833D01*
X152417704Y-110466214D01*
X152370085Y-110370976D01*
X152370085Y-110323357D01*
X152417704Y-110228119D01*
X152465323Y-110180500D01*
X152560561Y-110132880D01*
X152751038Y-110132880D01*
X152846276Y-110180500D01*
X152893895Y-110228119D01*
X152941514Y-110323357D01*
X152941514Y-110370976D01*
X152893895Y-110466214D01*
X152846276Y-110513833D01*
X152751038Y-110561452D01*
X152560561Y-110561452D01*
X152465323Y-110609071D01*
X152417704Y-110656690D01*
X152370085Y-110751928D01*
X152370085Y-110942404D01*
X152417704Y-111037642D01*
X152465323Y-111085261D01*
X152560561Y-111132880D01*
X152751038Y-111132880D01*
X152846276Y-111085261D01*
X152893895Y-111037642D01*
X152941514Y-110942404D01*
X152941514Y-110751928D01*
X152893895Y-110656690D01*
X152846276Y-110609071D01*
X152751038Y-110561452D01*
X145963956Y-111132880D02*
X145963956Y-110132880D01*
X146202052Y-110132880D01*
X146344909Y-110180500D01*
X146440147Y-110275738D01*
X146487766Y-110370976D01*
X146535385Y-110561452D01*
X146535385Y-110704309D01*
X146487766Y-110894785D01*
X146440147Y-110990023D01*
X146344909Y-111085261D01*
X146202052Y-111132880D01*
X145963956Y-111132880D01*
X146868718Y-110132880D02*
X147535385Y-110132880D01*
X147106813Y-111132880D01*
X140614714Y-111047880D02*
X140614714Y-110047880D01*
X140852810Y-110047880D01*
X140995667Y-110095500D01*
X141090905Y-110190738D01*
X141138524Y-110285976D01*
X141186143Y-110476452D01*
X141186143Y-110619309D01*
X141138524Y-110809785D01*
X141090905Y-110905023D01*
X140995667Y-111000261D01*
X140852810Y-111047880D01*
X140614714Y-111047880D01*
X142043286Y-110047880D02*
X141852810Y-110047880D01*
X141757571Y-110095500D01*
X141709952Y-110143119D01*
X141614714Y-110285976D01*
X141567095Y-110476452D01*
X141567095Y-110857404D01*
X141614714Y-110952642D01*
X141662333Y-111000261D01*
X141757571Y-111047880D01*
X141948048Y-111047880D01*
X142043286Y-111000261D01*
X142090905Y-110952642D01*
X142138524Y-110857404D01*
X142138524Y-110619309D01*
X142090905Y-110524071D01*
X142043286Y-110476452D01*
X141948048Y-110428833D01*
X141757571Y-110428833D01*
X141662333Y-110476452D01*
X141614714Y-110524071D01*
X141567095Y-110619309D01*
X135160972Y-111047880D02*
X135160972Y-110047880D01*
X135399068Y-110047880D01*
X135541925Y-110095500D01*
X135637163Y-110190738D01*
X135684782Y-110285976D01*
X135732401Y-110476452D01*
X135732401Y-110619309D01*
X135684782Y-110809785D01*
X135637163Y-110905023D01*
X135541925Y-111000261D01*
X135399068Y-111047880D01*
X135160972Y-111047880D01*
X136637163Y-110047880D02*
X136160972Y-110047880D01*
X136113353Y-110524071D01*
X136160972Y-110476452D01*
X136256210Y-110428833D01*
X136494306Y-110428833D01*
X136589544Y-110476452D01*
X136637163Y-110524071D01*
X136684782Y-110619309D01*
X136684782Y-110857404D01*
X136637163Y-110952642D01*
X136589544Y-111000261D01*
X136494306Y-111047880D01*
X136256210Y-111047880D01*
X136160972Y-111000261D01*
X136113353Y-110952642D01*
X129707230Y-111047880D02*
X129707230Y-110047880D01*
X129945326Y-110047880D01*
X130088183Y-110095500D01*
X130183421Y-110190738D01*
X130231040Y-110285976D01*
X130278659Y-110476452D01*
X130278659Y-110619309D01*
X130231040Y-110809785D01*
X130183421Y-110905023D01*
X130088183Y-111000261D01*
X129945326Y-111047880D01*
X129707230Y-111047880D01*
X131135802Y-110381214D02*
X131135802Y-111047880D01*
X130897706Y-110000261D02*
X130659611Y-110714547D01*
X131278659Y-110714547D01*
X124253488Y-111047880D02*
X124253488Y-110047880D01*
X124491584Y-110047880D01*
X124634441Y-110095500D01*
X124729679Y-110190738D01*
X124777298Y-110285976D01*
X124824917Y-110476452D01*
X124824917Y-110619309D01*
X124777298Y-110809785D01*
X124729679Y-110905023D01*
X124634441Y-111000261D01*
X124491584Y-111047880D01*
X124253488Y-111047880D01*
X125158250Y-110047880D02*
X125777298Y-110047880D01*
X125443964Y-110428833D01*
X125586822Y-110428833D01*
X125682060Y-110476452D01*
X125729679Y-110524071D01*
X125777298Y-110619309D01*
X125777298Y-110857404D01*
X125729679Y-110952642D01*
X125682060Y-111000261D01*
X125586822Y-111047880D01*
X125301107Y-111047880D01*
X125205869Y-111000261D01*
X125158250Y-110952642D01*
X118799746Y-111047880D02*
X118799746Y-110047880D01*
X119037842Y-110047880D01*
X119180699Y-110095500D01*
X119275937Y-110190738D01*
X119323556Y-110285976D01*
X119371175Y-110476452D01*
X119371175Y-110619309D01*
X119323556Y-110809785D01*
X119275937Y-110905023D01*
X119180699Y-111000261D01*
X119037842Y-111047880D01*
X118799746Y-111047880D01*
X119752127Y-110143119D02*
X119799746Y-110095500D01*
X119894984Y-110047880D01*
X120133080Y-110047880D01*
X120228318Y-110095500D01*
X120275937Y-110143119D01*
X120323556Y-110238357D01*
X120323556Y-110333595D01*
X120275937Y-110476452D01*
X119704508Y-111047880D01*
X120323556Y-111047880D01*
X113346004Y-111047880D02*
X113346004Y-110047880D01*
X113584100Y-110047880D01*
X113726957Y-110095500D01*
X113822195Y-110190738D01*
X113869814Y-110285976D01*
X113917433Y-110476452D01*
X113917433Y-110619309D01*
X113869814Y-110809785D01*
X113822195Y-110905023D01*
X113726957Y-111000261D01*
X113584100Y-111047880D01*
X113346004Y-111047880D01*
X114869814Y-111047880D02*
X114298385Y-111047880D01*
X114584100Y-111047880D02*
X114584100Y-110047880D01*
X114488861Y-110190738D01*
X114393623Y-110285976D01*
X114298385Y-110333595D01*
X131785714Y-118522380D02*
X131785714Y-117522380D01*
X132023809Y-117522380D01*
X132166666Y-117570000D01*
X132261904Y-117665238D01*
X132309523Y-117760476D01*
X132357142Y-117950952D01*
X132357142Y-118093809D01*
X132309523Y-118284285D01*
X132261904Y-118379523D01*
X132166666Y-118474761D01*
X132023809Y-118522380D01*
X131785714Y-118522380D01*
X133309523Y-118522380D02*
X132738095Y-118522380D01*
X133023809Y-118522380D02*
X133023809Y-117522380D01*
X132928571Y-117665238D01*
X132833333Y-117760476D01*
X132738095Y-117808095D01*
X134166666Y-117855714D02*
X134166666Y-118522380D01*
X133928571Y-117474761D02*
X133690476Y-118189047D01*
X134309523Y-118189047D01*
X109915714Y-118362380D02*
X109915714Y-117362380D01*
X110153809Y-117362380D01*
X110296666Y-117410000D01*
X110391904Y-117505238D01*
X110439523Y-117600476D01*
X110487142Y-117790952D01*
X110487142Y-117933809D01*
X110439523Y-118124285D01*
X110391904Y-118219523D01*
X110296666Y-118314761D01*
X110153809Y-118362380D01*
X109915714Y-118362380D01*
X111439523Y-118362380D02*
X110868095Y-118362380D01*
X111153809Y-118362380D02*
X111153809Y-117362380D01*
X111058571Y-117505238D01*
X110963333Y-117600476D01*
X110868095Y-117648095D01*
X111772857Y-117362380D02*
X112391904Y-117362380D01*
X112058571Y-117743333D01*
X112201428Y-117743333D01*
X112296666Y-117790952D01*
X112344285Y-117838571D01*
X112391904Y-117933809D01*
X112391904Y-118171904D01*
X112344285Y-118267142D01*
X112296666Y-118314761D01*
X112201428Y-118362380D01*
X111915714Y-118362380D01*
X111820476Y-118314761D01*
X111772857Y-118267142D01*
X144099114Y-107551480D02*
X144099114Y-106551480D01*
X144337209Y-106551480D01*
X144480066Y-106599100D01*
X144575304Y-106694338D01*
X144622923Y-106789576D01*
X144670542Y-106980052D01*
X144670542Y-107122909D01*
X144622923Y-107313385D01*
X144575304Y-107408623D01*
X144480066Y-107503861D01*
X144337209Y-107551480D01*
X144099114Y-107551480D01*
X145622923Y-107551480D02*
X145051495Y-107551480D01*
X145337209Y-107551480D02*
X145337209Y-106551480D01*
X145241971Y-106694338D01*
X145146733Y-106789576D01*
X145051495Y-106837195D01*
X146003876Y-106646719D02*
X146051495Y-106599100D01*
X146146733Y-106551480D01*
X146384828Y-106551480D01*
X146480066Y-106599100D01*
X146527685Y-106646719D01*
X146575304Y-106741957D01*
X146575304Y-106837195D01*
X146527685Y-106980052D01*
X145956257Y-107551480D01*
X146575304Y-107551480D01*
X141457514Y-100579180D02*
X141457514Y-99579180D01*
X141695609Y-99579180D01*
X141838466Y-99626800D01*
X141933704Y-99722038D01*
X141981323Y-99817276D01*
X142028942Y-100007752D01*
X142028942Y-100150609D01*
X141981323Y-100341085D01*
X141933704Y-100436323D01*
X141838466Y-100531561D01*
X141695609Y-100579180D01*
X141457514Y-100579180D01*
X142981323Y-100579180D02*
X142409895Y-100579180D01*
X142695609Y-100579180D02*
X142695609Y-99579180D01*
X142600371Y-99722038D01*
X142505133Y-99817276D01*
X142409895Y-99864895D01*
X143933704Y-100579180D02*
X143362276Y-100579180D01*
X143647990Y-100579180D02*
X143647990Y-99579180D01*
X143552752Y-99722038D01*
X143457514Y-99817276D01*
X143362276Y-99864895D01*
X132005814Y-100502980D02*
X132005814Y-99502980D01*
X132243909Y-99502980D01*
X132386766Y-99550600D01*
X132482004Y-99645838D01*
X132529623Y-99741076D01*
X132577242Y-99931552D01*
X132577242Y-100074409D01*
X132529623Y-100264885D01*
X132482004Y-100360123D01*
X132386766Y-100455361D01*
X132243909Y-100502980D01*
X132005814Y-100502980D01*
X133529623Y-100502980D02*
X132958195Y-100502980D01*
X133243909Y-100502980D02*
X133243909Y-99502980D01*
X133148671Y-99645838D01*
X133053433Y-99741076D01*
X132958195Y-99788695D01*
X134148671Y-99502980D02*
X134243909Y-99502980D01*
X134339147Y-99550600D01*
X134386766Y-99598219D01*
X134434385Y-99693457D01*
X134482004Y-99883933D01*
X134482004Y-100122028D01*
X134434385Y-100312504D01*
X134386766Y-100407742D01*
X134339147Y-100455361D01*
X134243909Y-100502980D01*
X134148671Y-100502980D01*
X134053433Y-100455361D01*
X134005814Y-100407742D01*
X133958195Y-100312504D01*
X133910576Y-100122028D01*
X133910576Y-99883933D01*
X133958195Y-99693457D01*
X134005814Y-99598219D01*
X134053433Y-99550600D01*
X134148671Y-99502980D01*
X126678104Y-100502980D02*
X126678104Y-99502980D01*
X126916200Y-99502980D01*
X127059057Y-99550600D01*
X127154295Y-99645838D01*
X127201914Y-99741076D01*
X127249533Y-99931552D01*
X127249533Y-100074409D01*
X127201914Y-100264885D01*
X127154295Y-100360123D01*
X127059057Y-100455361D01*
X126916200Y-100502980D01*
X126678104Y-100502980D01*
X127725723Y-100502980D02*
X127916200Y-100502980D01*
X128011438Y-100455361D01*
X128059057Y-100407742D01*
X128154295Y-100264885D01*
X128201914Y-100074409D01*
X128201914Y-99693457D01*
X128154295Y-99598219D01*
X128106676Y-99550600D01*
X128011438Y-99502980D01*
X127820961Y-99502980D01*
X127725723Y-99550600D01*
X127678104Y-99598219D01*
X127630485Y-99693457D01*
X127630485Y-99931552D01*
X127678104Y-100026790D01*
X127725723Y-100074409D01*
X127820961Y-100122028D01*
X128011438Y-100122028D01*
X128106676Y-100074409D01*
X128154295Y-100026790D01*
X128201914Y-99931552D01*
X149007533Y-99375042D02*
X148959914Y-99422661D01*
X148817057Y-99470280D01*
X148721819Y-99470280D01*
X148578961Y-99422661D01*
X148483723Y-99327423D01*
X148436104Y-99232185D01*
X148388485Y-99041709D01*
X148388485Y-98898852D01*
X148436104Y-98708376D01*
X148483723Y-98613138D01*
X148578961Y-98517900D01*
X148721819Y-98470280D01*
X148817057Y-98470280D01*
X148959914Y-98517900D01*
X149007533Y-98565519D01*
X149864676Y-98803614D02*
X149864676Y-99470280D01*
X149626580Y-98422661D02*
X149388485Y-99136947D01*
X150007533Y-99136947D01*
D13*
X158565066Y-96292171D02*
X158541257Y-96315980D01*
X158469828Y-96339790D01*
X158422209Y-96339790D01*
X158350780Y-96315980D01*
X158303161Y-96268361D01*
X158279352Y-96220742D01*
X158255542Y-96125504D01*
X158255542Y-96054076D01*
X158279352Y-95958838D01*
X158303161Y-95911219D01*
X158350780Y-95863600D01*
X158422209Y-95839790D01*
X158469828Y-95839790D01*
X158541257Y-95863600D01*
X158565066Y-95887409D01*
X158755542Y-95887409D02*
X158779352Y-95863600D01*
X158826971Y-95839790D01*
X158946019Y-95839790D01*
X158993638Y-95863600D01*
X159017447Y-95887409D01*
X159041257Y-95935028D01*
X159041257Y-95982647D01*
X159017447Y-96054076D01*
X158731733Y-96339790D01*
X159041257Y-96339790D01*
X158336466Y-98095571D02*
X158312657Y-98119380D01*
X158241228Y-98143190D01*
X158193609Y-98143190D01*
X158122180Y-98119380D01*
X158074561Y-98071761D01*
X158050752Y-98024142D01*
X158026942Y-97928904D01*
X158026942Y-97857476D01*
X158050752Y-97762238D01*
X158074561Y-97714619D01*
X158122180Y-97667000D01*
X158193609Y-97643190D01*
X158241228Y-97643190D01*
X158312657Y-97667000D01*
X158336466Y-97690809D01*
X158812657Y-98143190D02*
X158526942Y-98143190D01*
X158669800Y-98143190D02*
X158669800Y-97643190D01*
X158622180Y-97714619D01*
X158574561Y-97762238D01*
X158526942Y-97786047D01*
D12*
X145008095Y-108262380D02*
X145008095Y-109071904D01*
X145055714Y-109167142D01*
X145103333Y-109214761D01*
X145198571Y-109262380D01*
X145389047Y-109262380D01*
X145484285Y-109214761D01*
X145531904Y-109167142D01*
X145579523Y-109071904D01*
X145579523Y-108262380D01*
X145960476Y-108262380D02*
X146579523Y-108262380D01*
X146246190Y-108643333D01*
X146389047Y-108643333D01*
X146484285Y-108690952D01*
X146531904Y-108738571D01*
X146579523Y-108833809D01*
X146579523Y-109071904D01*
X146531904Y-109167142D01*
X146484285Y-109214761D01*
X146389047Y-109262380D01*
X146103333Y-109262380D01*
X146008095Y-109214761D01*
X145960476Y-109167142D01*
M02*
