G04 #@! TF.GenerationSoftware,KiCad,Pcbnew,(5.1.10-1-10_14)*
G04 #@! TF.CreationDate,2021-06-08T22:44:31-04:00*
G04 #@! TF.ProjectId,tr109-sensorboard,74723130-392d-4736-956e-736f72626f61,3*
G04 #@! TF.SameCoordinates,Original*
G04 #@! TF.FileFunction,Copper,L2,Bot*
G04 #@! TF.FilePolarity,Positive*
%FSLAX46Y46*%
G04 Gerber Fmt 4.6, Leading zero omitted, Abs format (unit mm)*
G04 Created by KiCad (PCBNEW (5.1.10-1-10_14)) date 2021-06-08 22:44:31*
%MOMM*%
%LPD*%
G01*
G04 APERTURE LIST*
G04 #@! TA.AperFunction,ComponentPad*
%ADD10O,1.700000X1.700000*%
G04 #@! TD*
G04 #@! TA.AperFunction,ComponentPad*
%ADD11R,1.700000X1.700000*%
G04 #@! TD*
G04 #@! TA.AperFunction,SMDPad,CuDef*
%ADD12R,1.000000X1.500000*%
G04 #@! TD*
G04 #@! TA.AperFunction,ViaPad*
%ADD13C,0.600000*%
G04 #@! TD*
G04 #@! TA.AperFunction,Conductor*
%ADD14C,0.250000*%
G04 #@! TD*
G04 #@! TA.AperFunction,Conductor*
%ADD15C,0.254000*%
G04 #@! TD*
G04 #@! TA.AperFunction,Conductor*
%ADD16C,0.100000*%
G04 #@! TD*
G04 APERTURE END LIST*
D10*
X108924000Y-123130000D03*
X108924000Y-120590000D03*
X111464000Y-123130000D03*
X111464000Y-120590000D03*
X114004000Y-123130000D03*
X114004000Y-120590000D03*
X116544000Y-123130000D03*
X116544000Y-120590000D03*
X119084000Y-123130000D03*
X119084000Y-120590000D03*
X121624000Y-123130000D03*
X121624000Y-120590000D03*
X124164000Y-123130000D03*
X124164000Y-120590000D03*
X126704000Y-123130000D03*
X126704000Y-120590000D03*
X129244000Y-123130000D03*
X129244000Y-120590000D03*
X131784000Y-123130000D03*
X131784000Y-120590000D03*
X134324000Y-123130000D03*
X134324000Y-120590000D03*
X136864000Y-123130000D03*
X136864000Y-120590000D03*
X139404000Y-123130000D03*
X139404000Y-120590000D03*
X141944000Y-123130000D03*
X141944000Y-120590000D03*
X144484000Y-123130000D03*
X144484000Y-120590000D03*
X147024000Y-123130000D03*
X147024000Y-120590000D03*
X149564000Y-123130000D03*
X149564000Y-120590000D03*
X152104000Y-123130000D03*
X152104000Y-120590000D03*
X154644000Y-123130000D03*
X154644000Y-120590000D03*
X157184000Y-123130000D03*
D11*
X157184000Y-120590000D03*
D10*
X136874000Y-105918000D03*
X134334000Y-105918000D03*
X131794000Y-105918000D03*
D11*
X129254000Y-105918000D03*
D12*
X157934900Y-114592100D03*
X159234900Y-114592100D03*
D13*
X160934400Y-114617500D03*
X105333800Y-117525800D03*
X128993902Y-117894100D03*
X127787400Y-114808000D03*
X122402600Y-114808000D03*
X133270000Y-114820000D03*
X117335300Y-114808000D03*
X103759000Y-102616000D03*
X112833600Y-102616000D03*
X160020000Y-102108000D03*
X156972000Y-102108000D03*
X156464000Y-97917000D03*
X152019000Y-97916998D03*
X113000000Y-105800006D03*
X111887000Y-96647000D03*
X113612244Y-104027928D03*
X142544800Y-117424200D03*
X149733000Y-109855000D03*
X113073276Y-108261590D03*
X148939690Y-108750100D03*
X147726400Y-116992400D03*
X153543000Y-104070600D03*
X154178000Y-105225400D03*
X113800000Y-105600000D03*
X122482001Y-105918003D03*
X160235900Y-109156500D03*
X153085800Y-106070400D03*
X122428000Y-110845600D03*
X122428000Y-108839000D03*
X127660400Y-111211090D03*
X128345000Y-109177410D03*
X154406600Y-96494600D03*
X149504400Y-101854000D03*
X155562300Y-103962200D03*
X163512500Y-111010700D03*
X149479000Y-105029000D03*
X158877000Y-118110000D03*
X113310215Y-103338797D03*
X111759998Y-110363000D03*
X114206223Y-110406281D03*
X118389400Y-117430100D03*
X111302800Y-116420900D03*
X112179100Y-116103400D03*
X110185200Y-108585000D03*
X110400000Y-111750000D03*
X110400000Y-113050000D03*
X110000000Y-116200000D03*
X118745000Y-100330000D03*
X110871000Y-100330000D03*
X152844500Y-115303300D03*
X150672800Y-117348000D03*
X105892600Y-112369600D03*
X127495300Y-115697000D03*
X143014700Y-108991400D03*
X115087400Y-117487700D03*
X125044200Y-118008400D03*
X112382300Y-113842800D03*
X147662900Y-116078000D03*
X107109260Y-106004360D03*
X159854900Y-112852200D03*
X154762200Y-109816900D03*
X105029000Y-113677700D03*
X110871006Y-99558403D03*
X130759200Y-100406200D03*
X129286002Y-98805998D03*
X110870994Y-98806000D03*
X101800000Y-115400000D03*
X141280000Y-112470000D03*
X141070000Y-109060000D03*
X139522200Y-117830600D03*
X103888540Y-107551220D03*
X106500563Y-104618423D03*
D14*
X160909000Y-114592100D02*
X160934400Y-114617500D01*
X159234900Y-114592100D02*
X160909000Y-114592100D01*
X108924000Y-120590000D02*
X108924000Y-119299900D01*
X108924000Y-119299900D02*
X108432600Y-118808500D01*
X106616500Y-118808500D02*
X105333800Y-117525800D01*
X108432600Y-118808500D02*
X106616500Y-118808500D01*
X126704000Y-120590000D02*
X128993902Y-118300098D01*
X128993902Y-118300098D02*
X128993902Y-117894100D01*
X127787400Y-114808000D02*
X122402600Y-114808000D01*
X122402600Y-114808000D02*
X117335300Y-114808000D01*
X133258000Y-114808000D02*
X133270000Y-114820000D01*
X127787400Y-114808000D02*
X133258000Y-114808000D01*
X160020000Y-102108000D02*
X156972000Y-102108000D01*
X156464000Y-97917000D02*
X152019002Y-97917000D01*
X152019002Y-97917000D02*
X152019000Y-97916998D01*
X103759000Y-102616000D02*
X105283000Y-102616000D01*
X105283000Y-102616000D02*
X111252000Y-96647000D01*
X111252000Y-96647000D02*
X111887000Y-96647000D01*
X113000000Y-105800006D02*
X113000000Y-104640172D01*
X113000000Y-104640172D02*
X113612244Y-104027928D01*
X112833600Y-97593600D02*
X112014000Y-96774000D01*
X112833600Y-102616000D02*
X112833600Y-97593600D01*
X149733000Y-110279264D02*
X149733000Y-109855000D01*
X142544800Y-117424200D02*
X143789400Y-118668800D01*
X143789400Y-118668800D02*
X146957386Y-118668800D01*
X149733000Y-115893186D02*
X149733000Y-110279264D01*
X146957386Y-118668800D02*
X149733000Y-115893186D01*
X114783624Y-109971938D02*
X113073276Y-108261590D01*
X114783624Y-116307624D02*
X114783624Y-109971938D01*
X141973300Y-116852700D02*
X115328700Y-116852700D01*
X115328700Y-116852700D02*
X114783624Y-116307624D01*
X142544800Y-117424200D02*
X141973300Y-116852700D01*
X149053990Y-108864400D02*
X148939690Y-108750100D01*
X149053990Y-115755614D02*
X149053990Y-108864400D01*
X147726400Y-116992400D02*
X149053990Y-115755614D01*
X115455700Y-116256698D02*
X115531002Y-116332000D01*
X147066000Y-116332000D02*
X147726400Y-116992400D01*
X115455700Y-110121700D02*
X115455700Y-116256698D01*
X115531002Y-116332000D02*
X147066000Y-116332000D01*
X153543000Y-104070600D02*
X153543000Y-104590400D01*
X153543000Y-104590400D02*
X154178000Y-105225400D01*
X115455700Y-110121700D02*
X115455700Y-109789468D01*
X115455700Y-109789468D02*
X113800000Y-108133768D01*
X113800000Y-108133768D02*
X113800000Y-105600000D01*
X115455700Y-110121700D02*
X119659397Y-105918003D01*
X119659397Y-105918003D02*
X122482001Y-105918003D01*
X160235900Y-109156500D02*
X157162500Y-106083100D01*
X153098500Y-106083100D02*
X153085800Y-106070400D01*
X157162500Y-106083100D02*
X153098500Y-106083100D01*
X122428000Y-108762800D02*
X122428000Y-110845600D01*
X122428000Y-108839000D02*
X122428000Y-108762800D01*
X127660400Y-111211090D02*
X127660400Y-109862010D01*
X127660400Y-109862010D02*
X128345000Y-109177410D01*
X136864000Y-120590000D02*
X138130500Y-121856500D01*
X138130500Y-121856500D02*
X155740100Y-121856500D01*
X157006600Y-120590000D02*
X157184000Y-120590000D01*
X155740100Y-121856500D02*
X157006600Y-120590000D01*
X154406600Y-96494600D02*
X112694600Y-96494600D01*
X112269599Y-96069599D02*
X110730401Y-96069599D01*
X112694600Y-96494600D02*
X112269599Y-96069599D01*
X105400000Y-118400000D02*
X103600000Y-118400000D01*
X107279001Y-120279001D02*
X105400000Y-118400000D01*
X107279001Y-120879001D02*
X107279001Y-120279001D01*
X108117401Y-121717401D02*
X107279001Y-120879001D01*
X135736599Y-121717401D02*
X108117401Y-121717401D01*
X136864000Y-120590000D02*
X135736599Y-121717401D01*
X103600000Y-118400000D02*
X103600000Y-117400000D01*
X101200000Y-116400000D02*
X101200000Y-106600000D01*
X102200000Y-117400000D02*
X101200000Y-116400000D01*
X103600000Y-117400000D02*
X102200000Y-117400000D01*
X101200000Y-106600000D02*
X101400000Y-106400000D01*
X104800000Y-116800000D02*
X104800000Y-115400000D01*
X103600000Y-117400000D02*
X104200000Y-117400000D01*
X104200000Y-117400000D02*
X104800000Y-116800000D01*
X104468446Y-111800000D02*
X104200000Y-111800000D01*
X104800000Y-115400000D02*
X106000000Y-114200000D01*
X106000000Y-114200000D02*
X106000000Y-113331554D01*
X106000000Y-113331554D02*
X104468446Y-111800000D01*
X113800000Y-102849012D02*
X113310215Y-103338797D01*
X113800000Y-101200000D02*
X113800000Y-102849012D01*
X114200000Y-100800000D02*
X113800000Y-101200000D01*
X114206223Y-110406281D02*
X111803279Y-110406281D01*
X111803279Y-110406281D02*
X111759998Y-110363000D01*
X111470000Y-120584000D02*
X111464000Y-120590000D01*
X111470000Y-116588100D02*
X111470000Y-120584000D01*
X111302800Y-116420900D02*
X111470000Y-116588100D01*
X112179100Y-118765100D02*
X114004000Y-120590000D01*
X112179100Y-116103400D02*
X112179100Y-118765100D01*
X110185200Y-111535200D02*
X110400000Y-111750000D01*
X110185200Y-108585000D02*
X110185200Y-111535200D01*
X110400000Y-115800000D02*
X110000000Y-116200000D01*
X110400000Y-113050000D02*
X110400000Y-115800000D01*
X110134400Y-108534200D02*
X110185200Y-108585000D01*
X110185200Y-108153200D02*
X110185200Y-108585000D01*
X109855000Y-107823000D02*
X110185200Y-108153200D01*
X108712000Y-107823000D02*
X109855000Y-107823000D01*
X108331000Y-102743000D02*
X108331000Y-107442000D01*
X110744000Y-100330000D02*
X108331000Y-102743000D01*
X151638000Y-103886000D02*
X121920000Y-103886000D01*
X158311401Y-119518079D02*
X156268322Y-117475000D01*
X152342401Y-109035401D02*
X152342401Y-104590401D01*
X108331000Y-107442000D02*
X108712000Y-107823000D01*
X156268322Y-112961322D02*
X152342401Y-109035401D01*
X157184000Y-123130000D02*
X158311401Y-122002599D01*
X156268322Y-117475000D02*
X156268322Y-112961322D01*
X158311401Y-122002599D02*
X158311401Y-119518079D01*
X152342401Y-104590401D02*
X151638000Y-103886000D01*
X121920000Y-103886000D02*
X121920000Y-103505000D01*
X121920000Y-103505000D02*
X118745000Y-100330000D01*
X118745000Y-100330000D02*
X118745000Y-100330000D01*
X152844500Y-115303300D02*
X152425400Y-115722400D01*
X152425400Y-115722400D02*
X151257000Y-115722400D01*
X150672800Y-116306600D02*
X150672800Y-117348000D01*
X151257000Y-115722400D02*
X150672800Y-116306600D01*
X143014700Y-114198400D02*
X143014700Y-108991400D01*
X141516100Y-115697000D02*
X143014700Y-114198400D01*
X115087400Y-117487700D02*
X115608100Y-118008400D01*
X115608100Y-118008400D02*
X125044200Y-118008400D01*
X105892600Y-112369600D02*
X110909100Y-112369600D01*
X110909100Y-112369600D02*
X112382300Y-113842800D01*
X141351000Y-115862100D02*
X141516100Y-115697000D01*
X127660400Y-115862100D02*
X141351000Y-115862100D01*
X127495300Y-115697000D02*
X127660400Y-115862100D01*
X147459700Y-115874800D02*
X147662900Y-116078000D01*
X141693900Y-115874800D02*
X147459700Y-115874800D01*
X141516100Y-115697000D02*
X141693900Y-115874800D01*
X105892600Y-107221020D02*
X107109260Y-106004360D01*
X105892600Y-112369600D02*
X105892600Y-107221020D01*
X157934900Y-113375258D02*
X158457958Y-112852200D01*
X157934900Y-114592100D02*
X157934900Y-113375258D01*
X158457958Y-112852200D02*
X159854900Y-112852200D01*
X158457958Y-112852200D02*
X158457958Y-111556858D01*
X156718000Y-109816900D02*
X154762200Y-109816900D01*
X158457958Y-111556858D02*
X156718000Y-109816900D01*
X105029000Y-113677700D02*
X102561839Y-111210539D01*
X102561839Y-107496161D02*
X110499597Y-99558403D01*
X110499597Y-99558403D02*
X110871006Y-99558403D01*
X102561839Y-111210539D02*
X102561839Y-107496161D01*
X130759200Y-100406200D02*
X129286002Y-98933002D01*
X129286002Y-98933002D02*
X129286002Y-98805998D01*
X110870994Y-98806000D02*
X110109000Y-98806000D01*
X101800000Y-107115000D02*
X101800000Y-115400000D01*
X110109000Y-98806000D02*
X101800000Y-107115000D01*
X141097000Y-109087000D02*
X141070000Y-109060000D01*
X141097000Y-109728000D02*
X141097000Y-109087000D01*
X141280000Y-112470000D02*
X141280000Y-109911000D01*
X141280000Y-109911000D02*
X141097000Y-109728000D01*
X139008299Y-117316699D02*
X139522200Y-117830600D01*
X128716749Y-117316699D02*
X139008299Y-117316699D01*
X128603348Y-117430100D02*
X128716749Y-117316699D01*
X103888540Y-107551220D02*
X106500563Y-104939197D01*
X106500563Y-104939197D02*
X106500563Y-104618423D01*
D15*
X106324253Y-119514046D02*
X106467514Y-119557503D01*
X106579167Y-119568500D01*
X106579175Y-119568500D01*
X106616500Y-119572176D01*
X106653825Y-119568500D01*
X107845393Y-119568500D01*
X107770525Y-119643368D01*
X107608010Y-119886589D01*
X107496068Y-120156842D01*
X107439000Y-120443740D01*
X107439000Y-120736260D01*
X107496068Y-121023158D01*
X107608010Y-121293411D01*
X107770525Y-121536632D01*
X107977368Y-121743475D01*
X108151760Y-121860000D01*
X107977368Y-121976525D01*
X107770525Y-122183368D01*
X107608010Y-122426589D01*
X107496068Y-122696842D01*
X107439000Y-122983740D01*
X107439000Y-123276260D01*
X107496068Y-123563158D01*
X107608010Y-123833411D01*
X107770525Y-124076632D01*
X107977368Y-124283475D01*
X108220589Y-124445990D01*
X108490842Y-124557932D01*
X108777740Y-124615000D01*
X109070260Y-124615000D01*
X109357158Y-124557932D01*
X109627411Y-124445990D01*
X109870632Y-124283475D01*
X110077475Y-124076632D01*
X110194000Y-123902240D01*
X110310525Y-124076632D01*
X110517368Y-124283475D01*
X110760589Y-124445990D01*
X111030842Y-124557932D01*
X111317740Y-124615000D01*
X111610260Y-124615000D01*
X111897158Y-124557932D01*
X112167411Y-124445990D01*
X112410632Y-124283475D01*
X112617475Y-124076632D01*
X112734000Y-123902240D01*
X112850525Y-124076632D01*
X113057368Y-124283475D01*
X113300589Y-124445990D01*
X113570842Y-124557932D01*
X113857740Y-124615000D01*
X114150260Y-124615000D01*
X114437158Y-124557932D01*
X114707411Y-124445990D01*
X114950632Y-124283475D01*
X115157475Y-124076632D01*
X115274000Y-123902240D01*
X115390525Y-124076632D01*
X115597368Y-124283475D01*
X115840589Y-124445990D01*
X116110842Y-124557932D01*
X116397740Y-124615000D01*
X116690260Y-124615000D01*
X116977158Y-124557932D01*
X117247411Y-124445990D01*
X117490632Y-124283475D01*
X117697475Y-124076632D01*
X117814000Y-123902240D01*
X117930525Y-124076632D01*
X118137368Y-124283475D01*
X118380589Y-124445990D01*
X118650842Y-124557932D01*
X118937740Y-124615000D01*
X119230260Y-124615000D01*
X119517158Y-124557932D01*
X119787411Y-124445990D01*
X120030632Y-124283475D01*
X120237475Y-124076632D01*
X120354000Y-123902240D01*
X120470525Y-124076632D01*
X120677368Y-124283475D01*
X120920589Y-124445990D01*
X121190842Y-124557932D01*
X121477740Y-124615000D01*
X121770260Y-124615000D01*
X122057158Y-124557932D01*
X122327411Y-124445990D01*
X122570632Y-124283475D01*
X122777475Y-124076632D01*
X122894000Y-123902240D01*
X123010525Y-124076632D01*
X123217368Y-124283475D01*
X123460589Y-124445990D01*
X123730842Y-124557932D01*
X124017740Y-124615000D01*
X124310260Y-124615000D01*
X124597158Y-124557932D01*
X124867411Y-124445990D01*
X125110632Y-124283475D01*
X125317475Y-124076632D01*
X125434000Y-123902240D01*
X125550525Y-124076632D01*
X125757368Y-124283475D01*
X126000589Y-124445990D01*
X126270842Y-124557932D01*
X126557740Y-124615000D01*
X126850260Y-124615000D01*
X127137158Y-124557932D01*
X127407411Y-124445990D01*
X127650632Y-124283475D01*
X127857475Y-124076632D01*
X127974000Y-123902240D01*
X128090525Y-124076632D01*
X128297368Y-124283475D01*
X128540589Y-124445990D01*
X128810842Y-124557932D01*
X129097740Y-124615000D01*
X129390260Y-124615000D01*
X129677158Y-124557932D01*
X129947411Y-124445990D01*
X130190632Y-124283475D01*
X130397475Y-124076632D01*
X130514000Y-123902240D01*
X130630525Y-124076632D01*
X130837368Y-124283475D01*
X131080589Y-124445990D01*
X131350842Y-124557932D01*
X131637740Y-124615000D01*
X131930260Y-124615000D01*
X132217158Y-124557932D01*
X132487411Y-124445990D01*
X132730632Y-124283475D01*
X132937475Y-124076632D01*
X133054000Y-123902240D01*
X133170525Y-124076632D01*
X133377368Y-124283475D01*
X133620589Y-124445990D01*
X133890842Y-124557932D01*
X134177740Y-124615000D01*
X134470260Y-124615000D01*
X134757158Y-124557932D01*
X135027411Y-124445990D01*
X135270632Y-124283475D01*
X135477475Y-124076632D01*
X135594000Y-123902240D01*
X135710525Y-124076632D01*
X135917368Y-124283475D01*
X136160589Y-124445990D01*
X136430842Y-124557932D01*
X136717740Y-124615000D01*
X137010260Y-124615000D01*
X137297158Y-124557932D01*
X137567411Y-124445990D01*
X137810632Y-124283475D01*
X138017475Y-124076632D01*
X138134000Y-123902240D01*
X138250525Y-124076632D01*
X138457368Y-124283475D01*
X138700589Y-124445990D01*
X138970842Y-124557932D01*
X139257740Y-124615000D01*
X139550260Y-124615000D01*
X139837158Y-124557932D01*
X140107411Y-124445990D01*
X140350632Y-124283475D01*
X140557475Y-124076632D01*
X140674000Y-123902240D01*
X140790525Y-124076632D01*
X140997368Y-124283475D01*
X141240589Y-124445990D01*
X141510842Y-124557932D01*
X141797740Y-124615000D01*
X142090260Y-124615000D01*
X142377158Y-124557932D01*
X142647411Y-124445990D01*
X142890632Y-124283475D01*
X143097475Y-124076632D01*
X143214000Y-123902240D01*
X143330525Y-124076632D01*
X143537368Y-124283475D01*
X143780589Y-124445990D01*
X144050842Y-124557932D01*
X144337740Y-124615000D01*
X144630260Y-124615000D01*
X144917158Y-124557932D01*
X145187411Y-124445990D01*
X145430632Y-124283475D01*
X145637475Y-124076632D01*
X145754000Y-123902240D01*
X145870525Y-124076632D01*
X146077368Y-124283475D01*
X146320589Y-124445990D01*
X146590842Y-124557932D01*
X146877740Y-124615000D01*
X147170260Y-124615000D01*
X147457158Y-124557932D01*
X147727411Y-124445990D01*
X147970632Y-124283475D01*
X148177475Y-124076632D01*
X148294000Y-123902240D01*
X148410525Y-124076632D01*
X148617368Y-124283475D01*
X148860589Y-124445990D01*
X149130842Y-124557932D01*
X149417740Y-124615000D01*
X149710260Y-124615000D01*
X149997158Y-124557932D01*
X150267411Y-124445990D01*
X150510632Y-124283475D01*
X150717475Y-124076632D01*
X150834000Y-123902240D01*
X150950525Y-124076632D01*
X151157368Y-124283475D01*
X151400589Y-124445990D01*
X151670842Y-124557932D01*
X151957740Y-124615000D01*
X152250260Y-124615000D01*
X152537158Y-124557932D01*
X152807411Y-124445990D01*
X153050632Y-124283475D01*
X153257475Y-124076632D01*
X153374000Y-123902240D01*
X153490525Y-124076632D01*
X153697368Y-124283475D01*
X153940589Y-124445990D01*
X154210842Y-124557932D01*
X154497740Y-124615000D01*
X154790260Y-124615000D01*
X155077158Y-124557932D01*
X155347411Y-124445990D01*
X155590632Y-124283475D01*
X155797475Y-124076632D01*
X155914000Y-123902240D01*
X156030525Y-124076632D01*
X156237368Y-124283475D01*
X156480589Y-124445990D01*
X156750842Y-124557932D01*
X157037740Y-124615000D01*
X157330260Y-124615000D01*
X157617158Y-124557932D01*
X157887411Y-124445990D01*
X158130632Y-124283475D01*
X158337475Y-124076632D01*
X158499990Y-123833411D01*
X158611932Y-123563158D01*
X158669000Y-123276260D01*
X158669000Y-122983740D01*
X158625210Y-122763592D01*
X158822405Y-122566397D01*
X158851402Y-122542600D01*
X158890162Y-122495370D01*
X158951012Y-122801281D01*
X159194270Y-123388558D01*
X159547425Y-123917093D01*
X159996907Y-124366575D01*
X160458499Y-124675000D01*
X105649501Y-124675000D01*
X106111093Y-124366575D01*
X106560575Y-123917093D01*
X106913730Y-123388558D01*
X107156988Y-122801281D01*
X107281000Y-122177832D01*
X107281000Y-121542168D01*
X107156988Y-120918719D01*
X106913730Y-120331442D01*
X106560575Y-119802907D01*
X106211383Y-119453715D01*
X106324253Y-119514046D01*
G04 #@! TA.AperFunction,Conductor*
D16*
G36*
X106324253Y-119514046D02*
G01*
X106467514Y-119557503D01*
X106579167Y-119568500D01*
X106579175Y-119568500D01*
X106616500Y-119572176D01*
X106653825Y-119568500D01*
X107845393Y-119568500D01*
X107770525Y-119643368D01*
X107608010Y-119886589D01*
X107496068Y-120156842D01*
X107439000Y-120443740D01*
X107439000Y-120736260D01*
X107496068Y-121023158D01*
X107608010Y-121293411D01*
X107770525Y-121536632D01*
X107977368Y-121743475D01*
X108151760Y-121860000D01*
X107977368Y-121976525D01*
X107770525Y-122183368D01*
X107608010Y-122426589D01*
X107496068Y-122696842D01*
X107439000Y-122983740D01*
X107439000Y-123276260D01*
X107496068Y-123563158D01*
X107608010Y-123833411D01*
X107770525Y-124076632D01*
X107977368Y-124283475D01*
X108220589Y-124445990D01*
X108490842Y-124557932D01*
X108777740Y-124615000D01*
X109070260Y-124615000D01*
X109357158Y-124557932D01*
X109627411Y-124445990D01*
X109870632Y-124283475D01*
X110077475Y-124076632D01*
X110194000Y-123902240D01*
X110310525Y-124076632D01*
X110517368Y-124283475D01*
X110760589Y-124445990D01*
X111030842Y-124557932D01*
X111317740Y-124615000D01*
X111610260Y-124615000D01*
X111897158Y-124557932D01*
X112167411Y-124445990D01*
X112410632Y-124283475D01*
X112617475Y-124076632D01*
X112734000Y-123902240D01*
X112850525Y-124076632D01*
X113057368Y-124283475D01*
X113300589Y-124445990D01*
X113570842Y-124557932D01*
X113857740Y-124615000D01*
X114150260Y-124615000D01*
X114437158Y-124557932D01*
X114707411Y-124445990D01*
X114950632Y-124283475D01*
X115157475Y-124076632D01*
X115274000Y-123902240D01*
X115390525Y-124076632D01*
X115597368Y-124283475D01*
X115840589Y-124445990D01*
X116110842Y-124557932D01*
X116397740Y-124615000D01*
X116690260Y-124615000D01*
X116977158Y-124557932D01*
X117247411Y-124445990D01*
X117490632Y-124283475D01*
X117697475Y-124076632D01*
X117814000Y-123902240D01*
X117930525Y-124076632D01*
X118137368Y-124283475D01*
X118380589Y-124445990D01*
X118650842Y-124557932D01*
X118937740Y-124615000D01*
X119230260Y-124615000D01*
X119517158Y-124557932D01*
X119787411Y-124445990D01*
X120030632Y-124283475D01*
X120237475Y-124076632D01*
X120354000Y-123902240D01*
X120470525Y-124076632D01*
X120677368Y-124283475D01*
X120920589Y-124445990D01*
X121190842Y-124557932D01*
X121477740Y-124615000D01*
X121770260Y-124615000D01*
X122057158Y-124557932D01*
X122327411Y-124445990D01*
X122570632Y-124283475D01*
X122777475Y-124076632D01*
X122894000Y-123902240D01*
X123010525Y-124076632D01*
X123217368Y-124283475D01*
X123460589Y-124445990D01*
X123730842Y-124557932D01*
X124017740Y-124615000D01*
X124310260Y-124615000D01*
X124597158Y-124557932D01*
X124867411Y-124445990D01*
X125110632Y-124283475D01*
X125317475Y-124076632D01*
X125434000Y-123902240D01*
X125550525Y-124076632D01*
X125757368Y-124283475D01*
X126000589Y-124445990D01*
X126270842Y-124557932D01*
X126557740Y-124615000D01*
X126850260Y-124615000D01*
X127137158Y-124557932D01*
X127407411Y-124445990D01*
X127650632Y-124283475D01*
X127857475Y-124076632D01*
X127974000Y-123902240D01*
X128090525Y-124076632D01*
X128297368Y-124283475D01*
X128540589Y-124445990D01*
X128810842Y-124557932D01*
X129097740Y-124615000D01*
X129390260Y-124615000D01*
X129677158Y-124557932D01*
X129947411Y-124445990D01*
X130190632Y-124283475D01*
X130397475Y-124076632D01*
X130514000Y-123902240D01*
X130630525Y-124076632D01*
X130837368Y-124283475D01*
X131080589Y-124445990D01*
X131350842Y-124557932D01*
X131637740Y-124615000D01*
X131930260Y-124615000D01*
X132217158Y-124557932D01*
X132487411Y-124445990D01*
X132730632Y-124283475D01*
X132937475Y-124076632D01*
X133054000Y-123902240D01*
X133170525Y-124076632D01*
X133377368Y-124283475D01*
X133620589Y-124445990D01*
X133890842Y-124557932D01*
X134177740Y-124615000D01*
X134470260Y-124615000D01*
X134757158Y-124557932D01*
X135027411Y-124445990D01*
X135270632Y-124283475D01*
X135477475Y-124076632D01*
X135594000Y-123902240D01*
X135710525Y-124076632D01*
X135917368Y-124283475D01*
X136160589Y-124445990D01*
X136430842Y-124557932D01*
X136717740Y-124615000D01*
X137010260Y-124615000D01*
X137297158Y-124557932D01*
X137567411Y-124445990D01*
X137810632Y-124283475D01*
X138017475Y-124076632D01*
X138134000Y-123902240D01*
X138250525Y-124076632D01*
X138457368Y-124283475D01*
X138700589Y-124445990D01*
X138970842Y-124557932D01*
X139257740Y-124615000D01*
X139550260Y-124615000D01*
X139837158Y-124557932D01*
X140107411Y-124445990D01*
X140350632Y-124283475D01*
X140557475Y-124076632D01*
X140674000Y-123902240D01*
X140790525Y-124076632D01*
X140997368Y-124283475D01*
X141240589Y-124445990D01*
X141510842Y-124557932D01*
X141797740Y-124615000D01*
X142090260Y-124615000D01*
X142377158Y-124557932D01*
X142647411Y-124445990D01*
X142890632Y-124283475D01*
X143097475Y-124076632D01*
X143214000Y-123902240D01*
X143330525Y-124076632D01*
X143537368Y-124283475D01*
X143780589Y-124445990D01*
X144050842Y-124557932D01*
X144337740Y-124615000D01*
X144630260Y-124615000D01*
X144917158Y-124557932D01*
X145187411Y-124445990D01*
X145430632Y-124283475D01*
X145637475Y-124076632D01*
X145754000Y-123902240D01*
X145870525Y-124076632D01*
X146077368Y-124283475D01*
X146320589Y-124445990D01*
X146590842Y-124557932D01*
X146877740Y-124615000D01*
X147170260Y-124615000D01*
X147457158Y-124557932D01*
X147727411Y-124445990D01*
X147970632Y-124283475D01*
X148177475Y-124076632D01*
X148294000Y-123902240D01*
X148410525Y-124076632D01*
X148617368Y-124283475D01*
X148860589Y-124445990D01*
X149130842Y-124557932D01*
X149417740Y-124615000D01*
X149710260Y-124615000D01*
X149997158Y-124557932D01*
X150267411Y-124445990D01*
X150510632Y-124283475D01*
X150717475Y-124076632D01*
X150834000Y-123902240D01*
X150950525Y-124076632D01*
X151157368Y-124283475D01*
X151400589Y-124445990D01*
X151670842Y-124557932D01*
X151957740Y-124615000D01*
X152250260Y-124615000D01*
X152537158Y-124557932D01*
X152807411Y-124445990D01*
X153050632Y-124283475D01*
X153257475Y-124076632D01*
X153374000Y-123902240D01*
X153490525Y-124076632D01*
X153697368Y-124283475D01*
X153940589Y-124445990D01*
X154210842Y-124557932D01*
X154497740Y-124615000D01*
X154790260Y-124615000D01*
X155077158Y-124557932D01*
X155347411Y-124445990D01*
X155590632Y-124283475D01*
X155797475Y-124076632D01*
X155914000Y-123902240D01*
X156030525Y-124076632D01*
X156237368Y-124283475D01*
X156480589Y-124445990D01*
X156750842Y-124557932D01*
X157037740Y-124615000D01*
X157330260Y-124615000D01*
X157617158Y-124557932D01*
X157887411Y-124445990D01*
X158130632Y-124283475D01*
X158337475Y-124076632D01*
X158499990Y-123833411D01*
X158611932Y-123563158D01*
X158669000Y-123276260D01*
X158669000Y-122983740D01*
X158625210Y-122763592D01*
X158822405Y-122566397D01*
X158851402Y-122542600D01*
X158890162Y-122495370D01*
X158951012Y-122801281D01*
X159194270Y-123388558D01*
X159547425Y-123917093D01*
X159996907Y-124366575D01*
X160458499Y-124675000D01*
X105649501Y-124675000D01*
X106111093Y-124366575D01*
X106560575Y-123917093D01*
X106913730Y-123388558D01*
X107156988Y-122801281D01*
X107281000Y-122177832D01*
X107281000Y-121542168D01*
X107156988Y-120918719D01*
X106913730Y-120331442D01*
X106560575Y-119802907D01*
X106211383Y-119453715D01*
X106324253Y-119514046D01*
G37*
G04 #@! TD.AperFunction*
D15*
X135668822Y-121471355D02*
X135863731Y-121687588D01*
X136093406Y-121858900D01*
X135917368Y-121976525D01*
X135710525Y-122183368D01*
X135594000Y-122357760D01*
X135477475Y-122183368D01*
X135270632Y-121976525D01*
X135096240Y-121860000D01*
X135270632Y-121743475D01*
X135477475Y-121536632D01*
X135599195Y-121354466D01*
X135668822Y-121471355D01*
G04 #@! TA.AperFunction,Conductor*
D16*
G36*
X135668822Y-121471355D02*
G01*
X135863731Y-121687588D01*
X136093406Y-121858900D01*
X135917368Y-121976525D01*
X135710525Y-122183368D01*
X135594000Y-122357760D01*
X135477475Y-122183368D01*
X135270632Y-121976525D01*
X135096240Y-121860000D01*
X135270632Y-121743475D01*
X135477475Y-121536632D01*
X135599195Y-121354466D01*
X135668822Y-121471355D01*
G37*
G04 #@! TD.AperFunction*
D15*
X138250525Y-121536632D02*
X138457368Y-121743475D01*
X138631760Y-121860000D01*
X138457368Y-121976525D01*
X138250525Y-122183368D01*
X138134000Y-122357760D01*
X138017475Y-122183368D01*
X137810632Y-121976525D01*
X137634594Y-121858900D01*
X137864269Y-121687588D01*
X138059178Y-121471355D01*
X138128805Y-121354466D01*
X138250525Y-121536632D01*
G04 #@! TA.AperFunction,Conductor*
D16*
G36*
X138250525Y-121536632D02*
G01*
X138457368Y-121743475D01*
X138631760Y-121860000D01*
X138457368Y-121976525D01*
X138250525Y-122183368D01*
X138134000Y-122357760D01*
X138017475Y-122183368D01*
X137810632Y-121976525D01*
X137634594Y-121858900D01*
X137864269Y-121687588D01*
X138059178Y-121471355D01*
X138128805Y-121354466D01*
X138250525Y-121536632D01*
G37*
G04 #@! TD.AperFunction*
D15*
X155744498Y-121684180D02*
X155803463Y-121794494D01*
X155882815Y-121891185D01*
X155979506Y-121970537D01*
X156089820Y-122029502D01*
X156162380Y-122051513D01*
X156030525Y-122183368D01*
X155914000Y-122357760D01*
X155797475Y-122183368D01*
X155590632Y-121976525D01*
X155416240Y-121860000D01*
X155590632Y-121743475D01*
X155722487Y-121611620D01*
X155744498Y-121684180D01*
G04 #@! TA.AperFunction,Conductor*
D16*
G36*
X155744498Y-121684180D02*
G01*
X155803463Y-121794494D01*
X155882815Y-121891185D01*
X155979506Y-121970537D01*
X156089820Y-122029502D01*
X156162380Y-122051513D01*
X156030525Y-122183368D01*
X155914000Y-122357760D01*
X155797475Y-122183368D01*
X155590632Y-121976525D01*
X155416240Y-121860000D01*
X155590632Y-121743475D01*
X155722487Y-121611620D01*
X155744498Y-121684180D01*
G37*
G04 #@! TD.AperFunction*
D15*
X157311000Y-120463000D02*
X157331000Y-120463000D01*
X157331000Y-120717000D01*
X157311000Y-120717000D01*
X157311000Y-120737000D01*
X157057000Y-120737000D01*
X157057000Y-120717000D01*
X157037000Y-120717000D01*
X157037000Y-120463000D01*
X157057000Y-120463000D01*
X157057000Y-120443000D01*
X157311000Y-120443000D01*
X157311000Y-120463000D01*
G04 #@! TA.AperFunction,Conductor*
D16*
G36*
X157311000Y-120463000D02*
G01*
X157331000Y-120463000D01*
X157331000Y-120717000D01*
X157311000Y-120717000D01*
X157311000Y-120737000D01*
X157057000Y-120737000D01*
X157057000Y-120717000D01*
X157037000Y-120717000D01*
X157037000Y-120463000D01*
X157057000Y-120463000D01*
X157057000Y-120443000D01*
X157311000Y-120443000D01*
X157311000Y-120463000D01*
G37*
G04 #@! TD.AperFunction*
D15*
X141645732Y-117696929D02*
X141716214Y-117867089D01*
X141818538Y-118020228D01*
X141948772Y-118150462D01*
X142101911Y-118252786D01*
X142272071Y-118323268D01*
X142393151Y-118347353D01*
X143225601Y-119179803D01*
X143249399Y-119208801D01*
X143365124Y-119303774D01*
X143497153Y-119374346D01*
X143588813Y-119402150D01*
X143537368Y-119436525D01*
X143330525Y-119643368D01*
X143214000Y-119817760D01*
X143097475Y-119643368D01*
X142890632Y-119436525D01*
X142647411Y-119274010D01*
X142377158Y-119162068D01*
X142090260Y-119105000D01*
X141797740Y-119105000D01*
X141510842Y-119162068D01*
X141240589Y-119274010D01*
X140997368Y-119436525D01*
X140790525Y-119643368D01*
X140674000Y-119817760D01*
X140557475Y-119643368D01*
X140350632Y-119436525D01*
X140107411Y-119274010D01*
X139837158Y-119162068D01*
X139550260Y-119105000D01*
X139257740Y-119105000D01*
X138970842Y-119162068D01*
X138700589Y-119274010D01*
X138457368Y-119436525D01*
X138250525Y-119643368D01*
X138128805Y-119825534D01*
X138059178Y-119708645D01*
X137864269Y-119492412D01*
X137630920Y-119318359D01*
X137368099Y-119193175D01*
X137220890Y-119148524D01*
X136991000Y-119269845D01*
X136991000Y-120463000D01*
X137011000Y-120463000D01*
X137011000Y-120717000D01*
X136991000Y-120717000D01*
X136991000Y-120737000D01*
X136737000Y-120737000D01*
X136737000Y-120717000D01*
X136717000Y-120717000D01*
X136717000Y-120463000D01*
X136737000Y-120463000D01*
X136737000Y-119269845D01*
X136507110Y-119148524D01*
X136359901Y-119193175D01*
X136097080Y-119318359D01*
X135863731Y-119492412D01*
X135668822Y-119708645D01*
X135599195Y-119825534D01*
X135477475Y-119643368D01*
X135270632Y-119436525D01*
X135027411Y-119274010D01*
X134757158Y-119162068D01*
X134470260Y-119105000D01*
X134177740Y-119105000D01*
X133890842Y-119162068D01*
X133620589Y-119274010D01*
X133377368Y-119436525D01*
X133170525Y-119643368D01*
X133054000Y-119817760D01*
X132937475Y-119643368D01*
X132730632Y-119436525D01*
X132487411Y-119274010D01*
X132217158Y-119162068D01*
X131930260Y-119105000D01*
X131637740Y-119105000D01*
X131350842Y-119162068D01*
X131080589Y-119274010D01*
X130837368Y-119436525D01*
X130630525Y-119643368D01*
X130514000Y-119817760D01*
X130397475Y-119643368D01*
X130190632Y-119436525D01*
X129947411Y-119274010D01*
X129677158Y-119162068D01*
X129390260Y-119105000D01*
X129263803Y-119105000D01*
X129504911Y-118863892D01*
X129533903Y-118840099D01*
X129557697Y-118811106D01*
X129557701Y-118811102D01*
X129628875Y-118724375D01*
X129628876Y-118724374D01*
X129699448Y-118592345D01*
X129739011Y-118461922D01*
X129822488Y-118336989D01*
X129892970Y-118166829D01*
X129910898Y-118076699D01*
X138617835Y-118076699D01*
X138623132Y-118103329D01*
X138693614Y-118273489D01*
X138795938Y-118426628D01*
X138926172Y-118556862D01*
X139079311Y-118659186D01*
X139249471Y-118729668D01*
X139430111Y-118765600D01*
X139614289Y-118765600D01*
X139794929Y-118729668D01*
X139965089Y-118659186D01*
X140118228Y-118556862D01*
X140248462Y-118426628D01*
X140350786Y-118273489D01*
X140421268Y-118103329D01*
X140457200Y-117922689D01*
X140457200Y-117738511D01*
X140432174Y-117612700D01*
X141628978Y-117612700D01*
X141645732Y-117696929D01*
G04 #@! TA.AperFunction,Conductor*
D16*
G36*
X141645732Y-117696929D02*
G01*
X141716214Y-117867089D01*
X141818538Y-118020228D01*
X141948772Y-118150462D01*
X142101911Y-118252786D01*
X142272071Y-118323268D01*
X142393151Y-118347353D01*
X143225601Y-119179803D01*
X143249399Y-119208801D01*
X143365124Y-119303774D01*
X143497153Y-119374346D01*
X143588813Y-119402150D01*
X143537368Y-119436525D01*
X143330525Y-119643368D01*
X143214000Y-119817760D01*
X143097475Y-119643368D01*
X142890632Y-119436525D01*
X142647411Y-119274010D01*
X142377158Y-119162068D01*
X142090260Y-119105000D01*
X141797740Y-119105000D01*
X141510842Y-119162068D01*
X141240589Y-119274010D01*
X140997368Y-119436525D01*
X140790525Y-119643368D01*
X140674000Y-119817760D01*
X140557475Y-119643368D01*
X140350632Y-119436525D01*
X140107411Y-119274010D01*
X139837158Y-119162068D01*
X139550260Y-119105000D01*
X139257740Y-119105000D01*
X138970842Y-119162068D01*
X138700589Y-119274010D01*
X138457368Y-119436525D01*
X138250525Y-119643368D01*
X138128805Y-119825534D01*
X138059178Y-119708645D01*
X137864269Y-119492412D01*
X137630920Y-119318359D01*
X137368099Y-119193175D01*
X137220890Y-119148524D01*
X136991000Y-119269845D01*
X136991000Y-120463000D01*
X137011000Y-120463000D01*
X137011000Y-120717000D01*
X136991000Y-120717000D01*
X136991000Y-120737000D01*
X136737000Y-120737000D01*
X136737000Y-120717000D01*
X136717000Y-120717000D01*
X136717000Y-120463000D01*
X136737000Y-120463000D01*
X136737000Y-119269845D01*
X136507110Y-119148524D01*
X136359901Y-119193175D01*
X136097080Y-119318359D01*
X135863731Y-119492412D01*
X135668822Y-119708645D01*
X135599195Y-119825534D01*
X135477475Y-119643368D01*
X135270632Y-119436525D01*
X135027411Y-119274010D01*
X134757158Y-119162068D01*
X134470260Y-119105000D01*
X134177740Y-119105000D01*
X133890842Y-119162068D01*
X133620589Y-119274010D01*
X133377368Y-119436525D01*
X133170525Y-119643368D01*
X133054000Y-119817760D01*
X132937475Y-119643368D01*
X132730632Y-119436525D01*
X132487411Y-119274010D01*
X132217158Y-119162068D01*
X131930260Y-119105000D01*
X131637740Y-119105000D01*
X131350842Y-119162068D01*
X131080589Y-119274010D01*
X130837368Y-119436525D01*
X130630525Y-119643368D01*
X130514000Y-119817760D01*
X130397475Y-119643368D01*
X130190632Y-119436525D01*
X129947411Y-119274010D01*
X129677158Y-119162068D01*
X129390260Y-119105000D01*
X129263803Y-119105000D01*
X129504911Y-118863892D01*
X129533903Y-118840099D01*
X129557697Y-118811106D01*
X129557701Y-118811102D01*
X129628875Y-118724375D01*
X129628876Y-118724374D01*
X129699448Y-118592345D01*
X129739011Y-118461922D01*
X129822488Y-118336989D01*
X129892970Y-118166829D01*
X129910898Y-118076699D01*
X138617835Y-118076699D01*
X138623132Y-118103329D01*
X138693614Y-118273489D01*
X138795938Y-118426628D01*
X138926172Y-118556862D01*
X139079311Y-118659186D01*
X139249471Y-118729668D01*
X139430111Y-118765600D01*
X139614289Y-118765600D01*
X139794929Y-118729668D01*
X139965089Y-118659186D01*
X140118228Y-118556862D01*
X140248462Y-118426628D01*
X140350786Y-118273489D01*
X140421268Y-118103329D01*
X140457200Y-117922689D01*
X140457200Y-117738511D01*
X140432174Y-117612700D01*
X141628978Y-117612700D01*
X141645732Y-117696929D01*
G37*
G04 #@! TD.AperFunction*
D15*
X159996907Y-96353425D02*
X159547425Y-96802907D01*
X159194270Y-97331442D01*
X158951012Y-97918719D01*
X158827000Y-98542168D01*
X158827000Y-99177832D01*
X158951012Y-99801281D01*
X159194270Y-100388558D01*
X159547425Y-100917093D01*
X159824001Y-101193669D01*
X159747271Y-101208932D01*
X159577111Y-101279414D01*
X159474465Y-101348000D01*
X157517535Y-101348000D01*
X157414889Y-101279414D01*
X157244729Y-101208932D01*
X157064089Y-101173000D01*
X156879911Y-101173000D01*
X156699271Y-101208932D01*
X156529111Y-101279414D01*
X156375972Y-101381738D01*
X156245738Y-101511972D01*
X156143414Y-101665111D01*
X156072932Y-101835271D01*
X156037000Y-102015911D01*
X156037000Y-102200089D01*
X156072932Y-102380729D01*
X156143414Y-102550889D01*
X156245738Y-102704028D01*
X156375972Y-102834262D01*
X156529111Y-102936586D01*
X156699271Y-103007068D01*
X156879911Y-103043000D01*
X157064089Y-103043000D01*
X157244729Y-103007068D01*
X157414889Y-102936586D01*
X157517535Y-102868000D01*
X159474465Y-102868000D01*
X159577111Y-102936586D01*
X159747271Y-103007068D01*
X159927911Y-103043000D01*
X160112089Y-103043000D01*
X160292729Y-103007068D01*
X160462889Y-102936586D01*
X160616028Y-102834262D01*
X160746262Y-102704028D01*
X160848586Y-102550889D01*
X160919068Y-102380729D01*
X160955000Y-102200089D01*
X160955000Y-102015911D01*
X160929366Y-101887041D01*
X161112719Y-101962988D01*
X161736168Y-102087000D01*
X162371832Y-102087000D01*
X162995281Y-101962988D01*
X163582558Y-101719730D01*
X164111093Y-101366575D01*
X164560575Y-100917093D01*
X164869001Y-100455500D01*
X164869000Y-120264499D01*
X164560575Y-119802907D01*
X164111093Y-119353425D01*
X163582558Y-119000270D01*
X162995281Y-118757012D01*
X162371832Y-118633000D01*
X161736168Y-118633000D01*
X161112719Y-118757012D01*
X160525442Y-119000270D01*
X159996907Y-119353425D01*
X159547425Y-119802907D01*
X159194270Y-120331442D01*
X159071401Y-120628074D01*
X159071401Y-119555401D01*
X159075077Y-119518078D01*
X159071401Y-119480755D01*
X159071401Y-119480746D01*
X159060404Y-119369093D01*
X159016947Y-119225832D01*
X158946375Y-119093802D01*
X158875200Y-119007076D01*
X158851402Y-118978078D01*
X158822404Y-118954280D01*
X157028322Y-117160199D01*
X157028322Y-115829893D01*
X157080406Y-115872637D01*
X157190720Y-115931602D01*
X157310418Y-115967912D01*
X157434900Y-115980172D01*
X158434900Y-115980172D01*
X158559382Y-115967912D01*
X158584900Y-115960171D01*
X158610418Y-115967912D01*
X158734900Y-115980172D01*
X159734900Y-115980172D01*
X159859382Y-115967912D01*
X159979080Y-115931602D01*
X160089394Y-115872637D01*
X160186085Y-115793285D01*
X160265437Y-115696594D01*
X160324402Y-115586280D01*
X160360712Y-115466582D01*
X160370682Y-115365351D01*
X160491511Y-115446086D01*
X160661671Y-115516568D01*
X160842311Y-115552500D01*
X161026489Y-115552500D01*
X161207129Y-115516568D01*
X161377289Y-115446086D01*
X161530428Y-115343762D01*
X161660662Y-115213528D01*
X161762986Y-115060389D01*
X161833468Y-114890229D01*
X161869400Y-114709589D01*
X161869400Y-114525411D01*
X161833468Y-114344771D01*
X161762986Y-114174611D01*
X161660662Y-114021472D01*
X161530428Y-113891238D01*
X161377289Y-113788914D01*
X161207129Y-113718432D01*
X161026489Y-113682500D01*
X160842311Y-113682500D01*
X160661671Y-113718432D01*
X160491511Y-113788914D01*
X160426878Y-113832100D01*
X160371987Y-113832100D01*
X160360712Y-113717618D01*
X160340818Y-113652035D01*
X160450928Y-113578462D01*
X160581162Y-113448228D01*
X160683486Y-113295089D01*
X160753968Y-113124929D01*
X160789900Y-112944289D01*
X160789900Y-112760111D01*
X160753968Y-112579471D01*
X160683486Y-112409311D01*
X160581162Y-112256172D01*
X160450928Y-112125938D01*
X160297789Y-112023614D01*
X160127629Y-111953132D01*
X159946989Y-111917200D01*
X159762811Y-111917200D01*
X159582171Y-111953132D01*
X159412011Y-112023614D01*
X159309365Y-112092200D01*
X159217958Y-112092200D01*
X159217958Y-111594180D01*
X159221634Y-111556857D01*
X159217958Y-111519534D01*
X159217958Y-111519525D01*
X159206961Y-111407872D01*
X159163504Y-111264611D01*
X159092932Y-111132582D01*
X158997959Y-111016857D01*
X158968961Y-110993059D01*
X157281804Y-109305903D01*
X157258001Y-109276899D01*
X157142276Y-109181926D01*
X157010247Y-109111354D01*
X156866986Y-109067897D01*
X156755333Y-109056900D01*
X156755322Y-109056900D01*
X156718000Y-109053224D01*
X156680678Y-109056900D01*
X155307735Y-109056900D01*
X155205089Y-108988314D01*
X155034929Y-108917832D01*
X154854289Y-108881900D01*
X154670111Y-108881900D01*
X154489471Y-108917832D01*
X154319311Y-108988314D01*
X154166172Y-109090638D01*
X154035938Y-109220872D01*
X153933614Y-109374011D01*
X153881537Y-109499736D01*
X153102401Y-108720600D01*
X153102401Y-107005400D01*
X153177889Y-107005400D01*
X153358529Y-106969468D01*
X153528689Y-106898986D01*
X153612328Y-106843100D01*
X156847699Y-106843100D01*
X159312747Y-109308149D01*
X159336832Y-109429229D01*
X159407314Y-109599389D01*
X159509638Y-109752528D01*
X159639872Y-109882762D01*
X159793011Y-109985086D01*
X159963171Y-110055568D01*
X160143811Y-110091500D01*
X160327989Y-110091500D01*
X160508629Y-110055568D01*
X160678789Y-109985086D01*
X160831928Y-109882762D01*
X160962162Y-109752528D01*
X161064486Y-109599389D01*
X161134968Y-109429229D01*
X161170900Y-109248589D01*
X161170900Y-109064411D01*
X161134968Y-108883771D01*
X161064486Y-108713611D01*
X160962162Y-108560472D01*
X160831928Y-108430238D01*
X160678789Y-108327914D01*
X160508629Y-108257432D01*
X160387549Y-108233347D01*
X157726304Y-105572103D01*
X157702501Y-105543099D01*
X157586776Y-105448126D01*
X157454747Y-105377554D01*
X157311486Y-105334097D01*
X157199833Y-105323100D01*
X157199822Y-105323100D01*
X157162500Y-105319424D01*
X157125178Y-105323100D01*
X155111884Y-105323100D01*
X155113000Y-105317489D01*
X155113000Y-105133311D01*
X155077068Y-104952671D01*
X155006586Y-104782511D01*
X154904262Y-104629372D01*
X154774028Y-104499138D01*
X154620889Y-104396814D01*
X154450729Y-104326332D01*
X154445650Y-104325322D01*
X154478000Y-104162689D01*
X154478000Y-103978511D01*
X154442068Y-103797871D01*
X154371586Y-103627711D01*
X154269262Y-103474572D01*
X154139028Y-103344338D01*
X153985889Y-103242014D01*
X153815729Y-103171532D01*
X153635089Y-103135600D01*
X153450911Y-103135600D01*
X153270271Y-103171532D01*
X153100111Y-103242014D01*
X152946972Y-103344338D01*
X152816738Y-103474572D01*
X152714414Y-103627711D01*
X152643932Y-103797871D01*
X152640737Y-103813934D01*
X152201803Y-103375002D01*
X152178001Y-103345999D01*
X152062276Y-103251026D01*
X151930247Y-103180454D01*
X151786986Y-103136997D01*
X151675333Y-103126000D01*
X151675322Y-103126000D01*
X151638000Y-103122324D01*
X151600678Y-103126000D01*
X122579175Y-103126000D01*
X122554974Y-103080723D01*
X122483799Y-102993997D01*
X122460001Y-102964999D01*
X122431003Y-102941201D01*
X119668153Y-100178352D01*
X119644068Y-100057271D01*
X119573586Y-99887111D01*
X119471262Y-99733972D01*
X119341028Y-99603738D01*
X119187889Y-99501414D01*
X119017729Y-99430932D01*
X118837089Y-99395000D01*
X118652911Y-99395000D01*
X118472271Y-99430932D01*
X118302111Y-99501414D01*
X118148972Y-99603738D01*
X118018738Y-99733972D01*
X117916414Y-99887111D01*
X117845932Y-100057271D01*
X117810000Y-100237911D01*
X117810000Y-100422089D01*
X117845932Y-100602729D01*
X117916414Y-100772889D01*
X118018738Y-100926028D01*
X118148972Y-101056262D01*
X118302111Y-101158586D01*
X118472271Y-101229068D01*
X118593352Y-101253153D01*
X121160000Y-103819802D01*
X121160000Y-103848667D01*
X121156323Y-103886000D01*
X121170997Y-104034986D01*
X121214454Y-104178247D01*
X121285026Y-104310276D01*
X121356046Y-104396814D01*
X121379999Y-104426001D01*
X121495724Y-104520974D01*
X121627753Y-104591546D01*
X121771014Y-104635003D01*
X121920000Y-104649677D01*
X121957333Y-104646000D01*
X127928864Y-104646000D01*
X127873463Y-104713506D01*
X127814498Y-104823820D01*
X127778188Y-104943518D01*
X127765928Y-105068000D01*
X127765928Y-106768000D01*
X127778188Y-106892482D01*
X127814498Y-107012180D01*
X127873463Y-107122494D01*
X127952815Y-107219185D01*
X128049506Y-107298537D01*
X128159820Y-107357502D01*
X128279518Y-107393812D01*
X128404000Y-107406072D01*
X130104000Y-107406072D01*
X130228482Y-107393812D01*
X130348180Y-107357502D01*
X130458494Y-107298537D01*
X130555185Y-107219185D01*
X130634537Y-107122494D01*
X130693502Y-107012180D01*
X130717966Y-106931534D01*
X130793731Y-107015588D01*
X131027080Y-107189641D01*
X131289901Y-107314825D01*
X131437110Y-107359476D01*
X131667000Y-107238155D01*
X131667000Y-106045000D01*
X131647000Y-106045000D01*
X131647000Y-105791000D01*
X131667000Y-105791000D01*
X131667000Y-105771000D01*
X131921000Y-105771000D01*
X131921000Y-105791000D01*
X131941000Y-105791000D01*
X131941000Y-106045000D01*
X131921000Y-106045000D01*
X131921000Y-107238155D01*
X132150890Y-107359476D01*
X132298099Y-107314825D01*
X132560920Y-107189641D01*
X132794269Y-107015588D01*
X132989178Y-106799355D01*
X133058805Y-106682466D01*
X133180525Y-106864632D01*
X133387368Y-107071475D01*
X133630589Y-107233990D01*
X133900842Y-107345932D01*
X134187740Y-107403000D01*
X134480260Y-107403000D01*
X134767158Y-107345932D01*
X135037411Y-107233990D01*
X135280632Y-107071475D01*
X135487475Y-106864632D01*
X135604000Y-106690240D01*
X135720525Y-106864632D01*
X135927368Y-107071475D01*
X136170589Y-107233990D01*
X136440842Y-107345932D01*
X136727740Y-107403000D01*
X137020260Y-107403000D01*
X137307158Y-107345932D01*
X137577411Y-107233990D01*
X137820632Y-107071475D01*
X138027475Y-106864632D01*
X138189990Y-106621411D01*
X138301932Y-106351158D01*
X138359000Y-106064260D01*
X138359000Y-105771740D01*
X138301932Y-105484842D01*
X138189990Y-105214589D01*
X138027475Y-104971368D01*
X137820632Y-104764525D01*
X137643247Y-104646000D01*
X151323198Y-104646000D01*
X151582402Y-104905204D01*
X151582401Y-108998078D01*
X151578725Y-109035401D01*
X151582401Y-109072723D01*
X151582401Y-109072733D01*
X151593398Y-109184386D01*
X151625601Y-109290546D01*
X151636855Y-109327647D01*
X151707427Y-109459677D01*
X151729626Y-109486726D01*
X151802400Y-109575402D01*
X151831404Y-109599205D01*
X155508323Y-113276125D01*
X155508322Y-117437677D01*
X155504646Y-117475000D01*
X155508322Y-117512322D01*
X155508322Y-117512332D01*
X155519319Y-117623985D01*
X155559243Y-117755598D01*
X155562776Y-117767246D01*
X155633348Y-117899276D01*
X155673193Y-117947826D01*
X155728321Y-118015001D01*
X155757325Y-118038804D01*
X156823111Y-119104591D01*
X156334000Y-119101928D01*
X156209518Y-119114188D01*
X156089820Y-119150498D01*
X155979506Y-119209463D01*
X155882815Y-119288815D01*
X155803463Y-119385506D01*
X155744498Y-119495820D01*
X155722487Y-119568380D01*
X155590632Y-119436525D01*
X155347411Y-119274010D01*
X155077158Y-119162068D01*
X154790260Y-119105000D01*
X154497740Y-119105000D01*
X154210842Y-119162068D01*
X153940589Y-119274010D01*
X153697368Y-119436525D01*
X153490525Y-119643368D01*
X153374000Y-119817760D01*
X153257475Y-119643368D01*
X153050632Y-119436525D01*
X152807411Y-119274010D01*
X152537158Y-119162068D01*
X152250260Y-119105000D01*
X151957740Y-119105000D01*
X151670842Y-119162068D01*
X151400589Y-119274010D01*
X151157368Y-119436525D01*
X150950525Y-119643368D01*
X150834000Y-119817760D01*
X150717475Y-119643368D01*
X150510632Y-119436525D01*
X150267411Y-119274010D01*
X149997158Y-119162068D01*
X149710260Y-119105000D01*
X149417740Y-119105000D01*
X149130842Y-119162068D01*
X148860589Y-119274010D01*
X148617368Y-119436525D01*
X148410525Y-119643368D01*
X148294000Y-119817760D01*
X148177475Y-119643368D01*
X147970632Y-119436525D01*
X147727411Y-119274010D01*
X147515804Y-119186360D01*
X147521190Y-119179797D01*
X149912800Y-116788187D01*
X149912800Y-116802464D01*
X149844214Y-116905111D01*
X149773732Y-117075271D01*
X149737800Y-117255911D01*
X149737800Y-117440089D01*
X149773732Y-117620729D01*
X149844214Y-117790889D01*
X149946538Y-117944028D01*
X150076772Y-118074262D01*
X150229911Y-118176586D01*
X150400071Y-118247068D01*
X150580711Y-118283000D01*
X150764889Y-118283000D01*
X150945529Y-118247068D01*
X151115689Y-118176586D01*
X151268828Y-118074262D01*
X151399062Y-117944028D01*
X151501386Y-117790889D01*
X151571868Y-117620729D01*
X151607800Y-117440089D01*
X151607800Y-117255911D01*
X151571868Y-117075271D01*
X151501386Y-116905111D01*
X151432800Y-116802465D01*
X151432800Y-116621401D01*
X151571802Y-116482400D01*
X152388078Y-116482400D01*
X152425400Y-116486076D01*
X152462722Y-116482400D01*
X152462733Y-116482400D01*
X152574386Y-116471403D01*
X152717647Y-116427946D01*
X152849676Y-116357374D01*
X152965401Y-116262401D01*
X152989204Y-116233397D01*
X152996148Y-116226453D01*
X153117229Y-116202368D01*
X153287389Y-116131886D01*
X153440528Y-116029562D01*
X153570762Y-115899328D01*
X153673086Y-115746189D01*
X153743568Y-115576029D01*
X153779500Y-115395389D01*
X153779500Y-115211211D01*
X153743568Y-115030571D01*
X153673086Y-114860411D01*
X153570762Y-114707272D01*
X153440528Y-114577038D01*
X153287389Y-114474714D01*
X153117229Y-114404232D01*
X152936589Y-114368300D01*
X152752411Y-114368300D01*
X152571771Y-114404232D01*
X152401611Y-114474714D01*
X152248472Y-114577038D01*
X152118238Y-114707272D01*
X152015914Y-114860411D01*
X151973669Y-114962400D01*
X151294333Y-114962400D01*
X151257000Y-114958723D01*
X151219667Y-114962400D01*
X151108014Y-114973397D01*
X150964753Y-115016854D01*
X150832724Y-115087426D01*
X150716999Y-115182399D01*
X150693200Y-115211398D01*
X150493000Y-115411598D01*
X150493000Y-110400535D01*
X150561586Y-110297889D01*
X150632068Y-110127729D01*
X150668000Y-109947089D01*
X150668000Y-109762911D01*
X150632068Y-109582271D01*
X150561586Y-109412111D01*
X150459262Y-109258972D01*
X150329028Y-109128738D01*
X150175889Y-109026414D01*
X150005729Y-108955932D01*
X149857913Y-108926529D01*
X149874690Y-108842189D01*
X149874690Y-108658011D01*
X149838758Y-108477371D01*
X149768276Y-108307211D01*
X149665952Y-108154072D01*
X149535718Y-108023838D01*
X149382579Y-107921514D01*
X149212419Y-107851032D01*
X149031779Y-107815100D01*
X148847601Y-107815100D01*
X148666961Y-107851032D01*
X148496801Y-107921514D01*
X148343662Y-108023838D01*
X148213428Y-108154072D01*
X148111104Y-108307211D01*
X148040622Y-108477371D01*
X148004690Y-108658011D01*
X148004690Y-108842189D01*
X148040622Y-109022829D01*
X148111104Y-109192989D01*
X148213428Y-109346128D01*
X148293991Y-109426691D01*
X148293990Y-115386800D01*
X148258928Y-115351738D01*
X148105789Y-115249414D01*
X147935629Y-115178932D01*
X147754989Y-115143000D01*
X147665398Y-115143000D01*
X147608686Y-115125797D01*
X147497033Y-115114800D01*
X147497022Y-115114800D01*
X147459700Y-115111124D01*
X147422378Y-115114800D01*
X143173102Y-115114800D01*
X143525709Y-114762194D01*
X143554701Y-114738401D01*
X143578495Y-114709408D01*
X143578499Y-114709404D01*
X143649673Y-114622677D01*
X143649674Y-114622676D01*
X143720246Y-114490647D01*
X143763703Y-114347386D01*
X143774700Y-114235733D01*
X143774700Y-114235724D01*
X143778376Y-114198401D01*
X143774700Y-114161078D01*
X143774700Y-109536935D01*
X143843286Y-109434289D01*
X143913768Y-109264129D01*
X143949700Y-109083489D01*
X143949700Y-108899311D01*
X143913768Y-108718671D01*
X143843286Y-108548511D01*
X143740962Y-108395372D01*
X143610728Y-108265138D01*
X143457589Y-108162814D01*
X143287429Y-108092332D01*
X143106789Y-108056400D01*
X142922611Y-108056400D01*
X142741971Y-108092332D01*
X142571811Y-108162814D01*
X142418672Y-108265138D01*
X142288438Y-108395372D01*
X142186114Y-108548511D01*
X142115632Y-108718671D01*
X142079700Y-108899311D01*
X142079700Y-109083489D01*
X142115632Y-109264129D01*
X142186114Y-109434289D01*
X142254701Y-109536937D01*
X142254700Y-113883597D01*
X141036199Y-115102100D01*
X134165186Y-115102100D01*
X134169068Y-115092729D01*
X134205000Y-114912089D01*
X134205000Y-114727911D01*
X134169068Y-114547271D01*
X134098586Y-114377111D01*
X133996262Y-114223972D01*
X133866028Y-114093738D01*
X133712889Y-113991414D01*
X133542729Y-113920932D01*
X133362089Y-113885000D01*
X133177911Y-113885000D01*
X132997271Y-113920932D01*
X132827111Y-113991414D01*
X132742424Y-114048000D01*
X128332935Y-114048000D01*
X128230289Y-113979414D01*
X128060129Y-113908932D01*
X127879489Y-113873000D01*
X127695311Y-113873000D01*
X127514671Y-113908932D01*
X127344511Y-113979414D01*
X127241865Y-114048000D01*
X122948135Y-114048000D01*
X122845489Y-113979414D01*
X122675329Y-113908932D01*
X122494689Y-113873000D01*
X122310511Y-113873000D01*
X122129871Y-113908932D01*
X121959711Y-113979414D01*
X121857065Y-114048000D01*
X117880835Y-114048000D01*
X117778189Y-113979414D01*
X117608029Y-113908932D01*
X117427389Y-113873000D01*
X117243211Y-113873000D01*
X117062571Y-113908932D01*
X116892411Y-113979414D01*
X116739272Y-114081738D01*
X116609038Y-114211972D01*
X116506714Y-114365111D01*
X116436232Y-114535271D01*
X116400300Y-114715911D01*
X116400300Y-114900089D01*
X116436232Y-115080729D01*
X116506714Y-115250889D01*
X116609038Y-115404028D01*
X116739272Y-115534262D01*
X116795751Y-115572000D01*
X116215700Y-115572000D01*
X116215700Y-110436501D01*
X117905290Y-108746911D01*
X121493000Y-108746911D01*
X121493000Y-108931089D01*
X121528932Y-109111729D01*
X121599414Y-109281889D01*
X121668000Y-109384536D01*
X121668001Y-110300063D01*
X121599414Y-110402711D01*
X121528932Y-110572871D01*
X121493000Y-110753511D01*
X121493000Y-110937689D01*
X121528932Y-111118329D01*
X121599414Y-111288489D01*
X121701738Y-111441628D01*
X121831972Y-111571862D01*
X121985111Y-111674186D01*
X122155271Y-111744668D01*
X122335911Y-111780600D01*
X122520089Y-111780600D01*
X122700729Y-111744668D01*
X122870889Y-111674186D01*
X123024028Y-111571862D01*
X123154262Y-111441628D01*
X123256586Y-111288489D01*
X123326789Y-111119001D01*
X126725400Y-111119001D01*
X126725400Y-111303179D01*
X126761332Y-111483819D01*
X126831814Y-111653979D01*
X126934138Y-111807118D01*
X127064372Y-111937352D01*
X127217511Y-112039676D01*
X127387671Y-112110158D01*
X127568311Y-112146090D01*
X127752489Y-112146090D01*
X127933129Y-112110158D01*
X128103289Y-112039676D01*
X128256428Y-111937352D01*
X128386662Y-111807118D01*
X128488986Y-111653979D01*
X128559468Y-111483819D01*
X128595400Y-111303179D01*
X128595400Y-111119001D01*
X128559468Y-110938361D01*
X128488986Y-110768201D01*
X128420400Y-110665555D01*
X128420400Y-110176811D01*
X128496649Y-110100563D01*
X128617729Y-110076478D01*
X128787889Y-110005996D01*
X128941028Y-109903672D01*
X129071262Y-109773438D01*
X129173586Y-109620299D01*
X129244068Y-109450139D01*
X129280000Y-109269499D01*
X129280000Y-109085321D01*
X129256646Y-108967911D01*
X140135000Y-108967911D01*
X140135000Y-109152089D01*
X140170932Y-109332729D01*
X140241414Y-109502889D01*
X140337000Y-109645944D01*
X140337000Y-109690678D01*
X140333324Y-109728000D01*
X140337000Y-109765322D01*
X140337000Y-109765332D01*
X140347997Y-109876985D01*
X140376800Y-109971937D01*
X140391454Y-110020246D01*
X140462026Y-110152276D01*
X140501871Y-110200826D01*
X140520001Y-110222918D01*
X140520000Y-111924464D01*
X140451414Y-112027111D01*
X140380932Y-112197271D01*
X140345000Y-112377911D01*
X140345000Y-112562089D01*
X140380932Y-112742729D01*
X140451414Y-112912889D01*
X140553738Y-113066028D01*
X140683972Y-113196262D01*
X140837111Y-113298586D01*
X141007271Y-113369068D01*
X141187911Y-113405000D01*
X141372089Y-113405000D01*
X141552729Y-113369068D01*
X141722889Y-113298586D01*
X141876028Y-113196262D01*
X142006262Y-113066028D01*
X142108586Y-112912889D01*
X142179068Y-112742729D01*
X142215000Y-112562089D01*
X142215000Y-112377911D01*
X142179068Y-112197271D01*
X142108586Y-112027111D01*
X142040000Y-111924465D01*
X142040000Y-109948322D01*
X142043676Y-109910999D01*
X142040000Y-109873676D01*
X142040000Y-109873667D01*
X142029003Y-109762014D01*
X141985546Y-109618753D01*
X141914974Y-109486724D01*
X141908533Y-109478875D01*
X141969068Y-109332729D01*
X142005000Y-109152089D01*
X142005000Y-108967911D01*
X141969068Y-108787271D01*
X141898586Y-108617111D01*
X141796262Y-108463972D01*
X141666028Y-108333738D01*
X141512889Y-108231414D01*
X141342729Y-108160932D01*
X141162089Y-108125000D01*
X140977911Y-108125000D01*
X140797271Y-108160932D01*
X140627111Y-108231414D01*
X140473972Y-108333738D01*
X140343738Y-108463972D01*
X140241414Y-108617111D01*
X140170932Y-108787271D01*
X140135000Y-108967911D01*
X129256646Y-108967911D01*
X129244068Y-108904681D01*
X129173586Y-108734521D01*
X129071262Y-108581382D01*
X128941028Y-108451148D01*
X128787889Y-108348824D01*
X128617729Y-108278342D01*
X128437089Y-108242410D01*
X128252911Y-108242410D01*
X128072271Y-108278342D01*
X127902111Y-108348824D01*
X127748972Y-108451148D01*
X127618738Y-108581382D01*
X127516414Y-108734521D01*
X127445932Y-108904681D01*
X127421847Y-109025761D01*
X127149398Y-109298211D01*
X127120400Y-109322009D01*
X127096602Y-109351007D01*
X127096601Y-109351008D01*
X127025426Y-109437734D01*
X126954854Y-109569764D01*
X126932248Y-109644290D01*
X126911398Y-109713024D01*
X126906246Y-109765332D01*
X126896724Y-109862010D01*
X126900401Y-109899342D01*
X126900400Y-110665554D01*
X126831814Y-110768201D01*
X126761332Y-110938361D01*
X126725400Y-111119001D01*
X123326789Y-111119001D01*
X123327068Y-111118329D01*
X123363000Y-110937689D01*
X123363000Y-110753511D01*
X123327068Y-110572871D01*
X123256586Y-110402711D01*
X123188000Y-110300065D01*
X123188000Y-109384535D01*
X123256586Y-109281889D01*
X123327068Y-109111729D01*
X123363000Y-108931089D01*
X123363000Y-108746911D01*
X123327068Y-108566271D01*
X123256586Y-108396111D01*
X123154262Y-108242972D01*
X123024028Y-108112738D01*
X122870889Y-108010414D01*
X122700729Y-107939932D01*
X122520089Y-107904000D01*
X122335911Y-107904000D01*
X122155271Y-107939932D01*
X121985111Y-108010414D01*
X121831972Y-108112738D01*
X121701738Y-108242972D01*
X121599414Y-108396111D01*
X121528932Y-108566271D01*
X121493000Y-108746911D01*
X117905290Y-108746911D01*
X119974199Y-106678003D01*
X121936466Y-106678003D01*
X122039112Y-106746589D01*
X122209272Y-106817071D01*
X122389912Y-106853003D01*
X122574090Y-106853003D01*
X122754730Y-106817071D01*
X122924890Y-106746589D01*
X123078029Y-106644265D01*
X123208263Y-106514031D01*
X123310587Y-106360892D01*
X123381069Y-106190732D01*
X123417001Y-106010092D01*
X123417001Y-105825914D01*
X123381069Y-105645274D01*
X123310587Y-105475114D01*
X123208263Y-105321975D01*
X123078029Y-105191741D01*
X122924890Y-105089417D01*
X122754730Y-105018935D01*
X122574090Y-104983003D01*
X122389912Y-104983003D01*
X122209272Y-105018935D01*
X122039112Y-105089417D01*
X121936466Y-105158003D01*
X119696719Y-105158003D01*
X119659396Y-105154327D01*
X119622073Y-105158003D01*
X119622064Y-105158003D01*
X119510411Y-105169000D01*
X119367150Y-105212457D01*
X119235121Y-105283029D01*
X119119396Y-105378002D01*
X119095598Y-105407000D01*
X117285000Y-107217598D01*
X117285000Y-102033647D01*
X117288314Y-102000000D01*
X117275088Y-101865717D01*
X117235919Y-101736594D01*
X117172312Y-101617593D01*
X117086711Y-101513289D01*
X116982407Y-101427688D01*
X116863406Y-101364081D01*
X116734283Y-101324912D01*
X116633647Y-101315000D01*
X116600000Y-101311686D01*
X116566353Y-101315000D01*
X114633647Y-101315000D01*
X114600000Y-101311686D01*
X114566353Y-101315000D01*
X114465717Y-101324912D01*
X114336594Y-101364081D01*
X114217593Y-101427688D01*
X114113289Y-101513289D01*
X114027688Y-101617593D01*
X113964081Y-101736594D01*
X113924912Y-101865717D01*
X113911686Y-102000000D01*
X113915001Y-102033656D01*
X113915000Y-102966352D01*
X113911686Y-103000000D01*
X113924912Y-103134283D01*
X113928770Y-103147001D01*
X113884973Y-103128860D01*
X113704333Y-103092928D01*
X113639442Y-103092928D01*
X113662186Y-103058889D01*
X113732668Y-102888729D01*
X113768600Y-102708089D01*
X113768600Y-102523911D01*
X113732668Y-102343271D01*
X113662186Y-102173111D01*
X113593600Y-102070465D01*
X113593600Y-98713909D01*
X128351002Y-98713909D01*
X128351002Y-98898087D01*
X128386934Y-99078727D01*
X128457416Y-99248887D01*
X128559740Y-99402026D01*
X128689974Y-99532260D01*
X128843113Y-99634584D01*
X128962046Y-99683847D01*
X129836047Y-100557849D01*
X129860132Y-100678929D01*
X129930614Y-100849089D01*
X130032938Y-101002228D01*
X130163172Y-101132462D01*
X130316311Y-101234786D01*
X130486471Y-101305268D01*
X130667111Y-101341200D01*
X130851289Y-101341200D01*
X131031929Y-101305268D01*
X131202089Y-101234786D01*
X131355228Y-101132462D01*
X131485462Y-101002228D01*
X131587786Y-100849089D01*
X131658268Y-100678929D01*
X131694200Y-100498289D01*
X131694200Y-100314111D01*
X131658268Y-100133471D01*
X131587786Y-99963311D01*
X131485462Y-99810172D01*
X131355228Y-99679938D01*
X131202089Y-99577614D01*
X131031929Y-99507132D01*
X130910849Y-99483047D01*
X130221002Y-98793201D01*
X130221002Y-98713909D01*
X130185070Y-98533269D01*
X130114588Y-98363109D01*
X130012264Y-98209970D01*
X129882030Y-98079736D01*
X129728891Y-97977412D01*
X129558731Y-97906930D01*
X129378091Y-97870998D01*
X129193913Y-97870998D01*
X129013273Y-97906930D01*
X128843113Y-97977412D01*
X128689974Y-98079736D01*
X128559740Y-98209970D01*
X128457416Y-98363109D01*
X128386934Y-98533269D01*
X128351002Y-98713909D01*
X113593600Y-98713909D01*
X113593600Y-97824909D01*
X151084000Y-97824909D01*
X151084000Y-98009087D01*
X151119932Y-98189727D01*
X151190414Y-98359887D01*
X151292738Y-98513026D01*
X151422972Y-98643260D01*
X151576111Y-98745584D01*
X151746271Y-98816066D01*
X151926911Y-98851998D01*
X152111089Y-98851998D01*
X152291729Y-98816066D01*
X152461889Y-98745584D01*
X152564532Y-98677000D01*
X155918465Y-98677000D01*
X156021111Y-98745586D01*
X156191271Y-98816068D01*
X156371911Y-98852000D01*
X156556089Y-98852000D01*
X156736729Y-98816068D01*
X156906889Y-98745586D01*
X157060028Y-98643262D01*
X157190262Y-98513028D01*
X157292586Y-98359889D01*
X157363068Y-98189729D01*
X157399000Y-98009089D01*
X157399000Y-97824911D01*
X157363068Y-97644271D01*
X157292586Y-97474111D01*
X157190262Y-97320972D01*
X157060028Y-97190738D01*
X156906889Y-97088414D01*
X156736729Y-97017932D01*
X156556089Y-96982000D01*
X156371911Y-96982000D01*
X156191271Y-97017932D01*
X156021111Y-97088414D01*
X155918465Y-97157000D01*
X152564538Y-97157000D01*
X152461889Y-97088412D01*
X152291729Y-97017930D01*
X152111089Y-96981998D01*
X151926911Y-96981998D01*
X151746271Y-97017930D01*
X151576111Y-97088412D01*
X151422972Y-97190736D01*
X151292738Y-97320970D01*
X151190414Y-97474109D01*
X151119932Y-97644269D01*
X151084000Y-97824909D01*
X113593600Y-97824909D01*
X113593600Y-97630922D01*
X113597276Y-97593599D01*
X113593600Y-97556276D01*
X113593600Y-97556267D01*
X113582603Y-97444614D01*
X113539146Y-97301353D01*
X113468574Y-97169324D01*
X113438571Y-97132765D01*
X113397399Y-97082596D01*
X113397395Y-97082592D01*
X113373601Y-97053599D01*
X113344608Y-97029805D01*
X112810153Y-96495351D01*
X112786068Y-96374271D01*
X112715586Y-96204111D01*
X112613262Y-96050972D01*
X112607290Y-96045000D01*
X160458499Y-96045000D01*
X159996907Y-96353425D01*
G04 #@! TA.AperFunction,Conductor*
D16*
G36*
X159996907Y-96353425D02*
G01*
X159547425Y-96802907D01*
X159194270Y-97331442D01*
X158951012Y-97918719D01*
X158827000Y-98542168D01*
X158827000Y-99177832D01*
X158951012Y-99801281D01*
X159194270Y-100388558D01*
X159547425Y-100917093D01*
X159824001Y-101193669D01*
X159747271Y-101208932D01*
X159577111Y-101279414D01*
X159474465Y-101348000D01*
X157517535Y-101348000D01*
X157414889Y-101279414D01*
X157244729Y-101208932D01*
X157064089Y-101173000D01*
X156879911Y-101173000D01*
X156699271Y-101208932D01*
X156529111Y-101279414D01*
X156375972Y-101381738D01*
X156245738Y-101511972D01*
X156143414Y-101665111D01*
X156072932Y-101835271D01*
X156037000Y-102015911D01*
X156037000Y-102200089D01*
X156072932Y-102380729D01*
X156143414Y-102550889D01*
X156245738Y-102704028D01*
X156375972Y-102834262D01*
X156529111Y-102936586D01*
X156699271Y-103007068D01*
X156879911Y-103043000D01*
X157064089Y-103043000D01*
X157244729Y-103007068D01*
X157414889Y-102936586D01*
X157517535Y-102868000D01*
X159474465Y-102868000D01*
X159577111Y-102936586D01*
X159747271Y-103007068D01*
X159927911Y-103043000D01*
X160112089Y-103043000D01*
X160292729Y-103007068D01*
X160462889Y-102936586D01*
X160616028Y-102834262D01*
X160746262Y-102704028D01*
X160848586Y-102550889D01*
X160919068Y-102380729D01*
X160955000Y-102200089D01*
X160955000Y-102015911D01*
X160929366Y-101887041D01*
X161112719Y-101962988D01*
X161736168Y-102087000D01*
X162371832Y-102087000D01*
X162995281Y-101962988D01*
X163582558Y-101719730D01*
X164111093Y-101366575D01*
X164560575Y-100917093D01*
X164869001Y-100455500D01*
X164869000Y-120264499D01*
X164560575Y-119802907D01*
X164111093Y-119353425D01*
X163582558Y-119000270D01*
X162995281Y-118757012D01*
X162371832Y-118633000D01*
X161736168Y-118633000D01*
X161112719Y-118757012D01*
X160525442Y-119000270D01*
X159996907Y-119353425D01*
X159547425Y-119802907D01*
X159194270Y-120331442D01*
X159071401Y-120628074D01*
X159071401Y-119555401D01*
X159075077Y-119518078D01*
X159071401Y-119480755D01*
X159071401Y-119480746D01*
X159060404Y-119369093D01*
X159016947Y-119225832D01*
X158946375Y-119093802D01*
X158875200Y-119007076D01*
X158851402Y-118978078D01*
X158822404Y-118954280D01*
X157028322Y-117160199D01*
X157028322Y-115829893D01*
X157080406Y-115872637D01*
X157190720Y-115931602D01*
X157310418Y-115967912D01*
X157434900Y-115980172D01*
X158434900Y-115980172D01*
X158559382Y-115967912D01*
X158584900Y-115960171D01*
X158610418Y-115967912D01*
X158734900Y-115980172D01*
X159734900Y-115980172D01*
X159859382Y-115967912D01*
X159979080Y-115931602D01*
X160089394Y-115872637D01*
X160186085Y-115793285D01*
X160265437Y-115696594D01*
X160324402Y-115586280D01*
X160360712Y-115466582D01*
X160370682Y-115365351D01*
X160491511Y-115446086D01*
X160661671Y-115516568D01*
X160842311Y-115552500D01*
X161026489Y-115552500D01*
X161207129Y-115516568D01*
X161377289Y-115446086D01*
X161530428Y-115343762D01*
X161660662Y-115213528D01*
X161762986Y-115060389D01*
X161833468Y-114890229D01*
X161869400Y-114709589D01*
X161869400Y-114525411D01*
X161833468Y-114344771D01*
X161762986Y-114174611D01*
X161660662Y-114021472D01*
X161530428Y-113891238D01*
X161377289Y-113788914D01*
X161207129Y-113718432D01*
X161026489Y-113682500D01*
X160842311Y-113682500D01*
X160661671Y-113718432D01*
X160491511Y-113788914D01*
X160426878Y-113832100D01*
X160371987Y-113832100D01*
X160360712Y-113717618D01*
X160340818Y-113652035D01*
X160450928Y-113578462D01*
X160581162Y-113448228D01*
X160683486Y-113295089D01*
X160753968Y-113124929D01*
X160789900Y-112944289D01*
X160789900Y-112760111D01*
X160753968Y-112579471D01*
X160683486Y-112409311D01*
X160581162Y-112256172D01*
X160450928Y-112125938D01*
X160297789Y-112023614D01*
X160127629Y-111953132D01*
X159946989Y-111917200D01*
X159762811Y-111917200D01*
X159582171Y-111953132D01*
X159412011Y-112023614D01*
X159309365Y-112092200D01*
X159217958Y-112092200D01*
X159217958Y-111594180D01*
X159221634Y-111556857D01*
X159217958Y-111519534D01*
X159217958Y-111519525D01*
X159206961Y-111407872D01*
X159163504Y-111264611D01*
X159092932Y-111132582D01*
X158997959Y-111016857D01*
X158968961Y-110993059D01*
X157281804Y-109305903D01*
X157258001Y-109276899D01*
X157142276Y-109181926D01*
X157010247Y-109111354D01*
X156866986Y-109067897D01*
X156755333Y-109056900D01*
X156755322Y-109056900D01*
X156718000Y-109053224D01*
X156680678Y-109056900D01*
X155307735Y-109056900D01*
X155205089Y-108988314D01*
X155034929Y-108917832D01*
X154854289Y-108881900D01*
X154670111Y-108881900D01*
X154489471Y-108917832D01*
X154319311Y-108988314D01*
X154166172Y-109090638D01*
X154035938Y-109220872D01*
X153933614Y-109374011D01*
X153881537Y-109499736D01*
X153102401Y-108720600D01*
X153102401Y-107005400D01*
X153177889Y-107005400D01*
X153358529Y-106969468D01*
X153528689Y-106898986D01*
X153612328Y-106843100D01*
X156847699Y-106843100D01*
X159312747Y-109308149D01*
X159336832Y-109429229D01*
X159407314Y-109599389D01*
X159509638Y-109752528D01*
X159639872Y-109882762D01*
X159793011Y-109985086D01*
X159963171Y-110055568D01*
X160143811Y-110091500D01*
X160327989Y-110091500D01*
X160508629Y-110055568D01*
X160678789Y-109985086D01*
X160831928Y-109882762D01*
X160962162Y-109752528D01*
X161064486Y-109599389D01*
X161134968Y-109429229D01*
X161170900Y-109248589D01*
X161170900Y-109064411D01*
X161134968Y-108883771D01*
X161064486Y-108713611D01*
X160962162Y-108560472D01*
X160831928Y-108430238D01*
X160678789Y-108327914D01*
X160508629Y-108257432D01*
X160387549Y-108233347D01*
X157726304Y-105572103D01*
X157702501Y-105543099D01*
X157586776Y-105448126D01*
X157454747Y-105377554D01*
X157311486Y-105334097D01*
X157199833Y-105323100D01*
X157199822Y-105323100D01*
X157162500Y-105319424D01*
X157125178Y-105323100D01*
X155111884Y-105323100D01*
X155113000Y-105317489D01*
X155113000Y-105133311D01*
X155077068Y-104952671D01*
X155006586Y-104782511D01*
X154904262Y-104629372D01*
X154774028Y-104499138D01*
X154620889Y-104396814D01*
X154450729Y-104326332D01*
X154445650Y-104325322D01*
X154478000Y-104162689D01*
X154478000Y-103978511D01*
X154442068Y-103797871D01*
X154371586Y-103627711D01*
X154269262Y-103474572D01*
X154139028Y-103344338D01*
X153985889Y-103242014D01*
X153815729Y-103171532D01*
X153635089Y-103135600D01*
X153450911Y-103135600D01*
X153270271Y-103171532D01*
X153100111Y-103242014D01*
X152946972Y-103344338D01*
X152816738Y-103474572D01*
X152714414Y-103627711D01*
X152643932Y-103797871D01*
X152640737Y-103813934D01*
X152201803Y-103375002D01*
X152178001Y-103345999D01*
X152062276Y-103251026D01*
X151930247Y-103180454D01*
X151786986Y-103136997D01*
X151675333Y-103126000D01*
X151675322Y-103126000D01*
X151638000Y-103122324D01*
X151600678Y-103126000D01*
X122579175Y-103126000D01*
X122554974Y-103080723D01*
X122483799Y-102993997D01*
X122460001Y-102964999D01*
X122431003Y-102941201D01*
X119668153Y-100178352D01*
X119644068Y-100057271D01*
X119573586Y-99887111D01*
X119471262Y-99733972D01*
X119341028Y-99603738D01*
X119187889Y-99501414D01*
X119017729Y-99430932D01*
X118837089Y-99395000D01*
X118652911Y-99395000D01*
X118472271Y-99430932D01*
X118302111Y-99501414D01*
X118148972Y-99603738D01*
X118018738Y-99733972D01*
X117916414Y-99887111D01*
X117845932Y-100057271D01*
X117810000Y-100237911D01*
X117810000Y-100422089D01*
X117845932Y-100602729D01*
X117916414Y-100772889D01*
X118018738Y-100926028D01*
X118148972Y-101056262D01*
X118302111Y-101158586D01*
X118472271Y-101229068D01*
X118593352Y-101253153D01*
X121160000Y-103819802D01*
X121160000Y-103848667D01*
X121156323Y-103886000D01*
X121170997Y-104034986D01*
X121214454Y-104178247D01*
X121285026Y-104310276D01*
X121356046Y-104396814D01*
X121379999Y-104426001D01*
X121495724Y-104520974D01*
X121627753Y-104591546D01*
X121771014Y-104635003D01*
X121920000Y-104649677D01*
X121957333Y-104646000D01*
X127928864Y-104646000D01*
X127873463Y-104713506D01*
X127814498Y-104823820D01*
X127778188Y-104943518D01*
X127765928Y-105068000D01*
X127765928Y-106768000D01*
X127778188Y-106892482D01*
X127814498Y-107012180D01*
X127873463Y-107122494D01*
X127952815Y-107219185D01*
X128049506Y-107298537D01*
X128159820Y-107357502D01*
X128279518Y-107393812D01*
X128404000Y-107406072D01*
X130104000Y-107406072D01*
X130228482Y-107393812D01*
X130348180Y-107357502D01*
X130458494Y-107298537D01*
X130555185Y-107219185D01*
X130634537Y-107122494D01*
X130693502Y-107012180D01*
X130717966Y-106931534D01*
X130793731Y-107015588D01*
X131027080Y-107189641D01*
X131289901Y-107314825D01*
X131437110Y-107359476D01*
X131667000Y-107238155D01*
X131667000Y-106045000D01*
X131647000Y-106045000D01*
X131647000Y-105791000D01*
X131667000Y-105791000D01*
X131667000Y-105771000D01*
X131921000Y-105771000D01*
X131921000Y-105791000D01*
X131941000Y-105791000D01*
X131941000Y-106045000D01*
X131921000Y-106045000D01*
X131921000Y-107238155D01*
X132150890Y-107359476D01*
X132298099Y-107314825D01*
X132560920Y-107189641D01*
X132794269Y-107015588D01*
X132989178Y-106799355D01*
X133058805Y-106682466D01*
X133180525Y-106864632D01*
X133387368Y-107071475D01*
X133630589Y-107233990D01*
X133900842Y-107345932D01*
X134187740Y-107403000D01*
X134480260Y-107403000D01*
X134767158Y-107345932D01*
X135037411Y-107233990D01*
X135280632Y-107071475D01*
X135487475Y-106864632D01*
X135604000Y-106690240D01*
X135720525Y-106864632D01*
X135927368Y-107071475D01*
X136170589Y-107233990D01*
X136440842Y-107345932D01*
X136727740Y-107403000D01*
X137020260Y-107403000D01*
X137307158Y-107345932D01*
X137577411Y-107233990D01*
X137820632Y-107071475D01*
X138027475Y-106864632D01*
X138189990Y-106621411D01*
X138301932Y-106351158D01*
X138359000Y-106064260D01*
X138359000Y-105771740D01*
X138301932Y-105484842D01*
X138189990Y-105214589D01*
X138027475Y-104971368D01*
X137820632Y-104764525D01*
X137643247Y-104646000D01*
X151323198Y-104646000D01*
X151582402Y-104905204D01*
X151582401Y-108998078D01*
X151578725Y-109035401D01*
X151582401Y-109072723D01*
X151582401Y-109072733D01*
X151593398Y-109184386D01*
X151625601Y-109290546D01*
X151636855Y-109327647D01*
X151707427Y-109459677D01*
X151729626Y-109486726D01*
X151802400Y-109575402D01*
X151831404Y-109599205D01*
X155508323Y-113276125D01*
X155508322Y-117437677D01*
X155504646Y-117475000D01*
X155508322Y-117512322D01*
X155508322Y-117512332D01*
X155519319Y-117623985D01*
X155559243Y-117755598D01*
X155562776Y-117767246D01*
X155633348Y-117899276D01*
X155673193Y-117947826D01*
X155728321Y-118015001D01*
X155757325Y-118038804D01*
X156823111Y-119104591D01*
X156334000Y-119101928D01*
X156209518Y-119114188D01*
X156089820Y-119150498D01*
X155979506Y-119209463D01*
X155882815Y-119288815D01*
X155803463Y-119385506D01*
X155744498Y-119495820D01*
X155722487Y-119568380D01*
X155590632Y-119436525D01*
X155347411Y-119274010D01*
X155077158Y-119162068D01*
X154790260Y-119105000D01*
X154497740Y-119105000D01*
X154210842Y-119162068D01*
X153940589Y-119274010D01*
X153697368Y-119436525D01*
X153490525Y-119643368D01*
X153374000Y-119817760D01*
X153257475Y-119643368D01*
X153050632Y-119436525D01*
X152807411Y-119274010D01*
X152537158Y-119162068D01*
X152250260Y-119105000D01*
X151957740Y-119105000D01*
X151670842Y-119162068D01*
X151400589Y-119274010D01*
X151157368Y-119436525D01*
X150950525Y-119643368D01*
X150834000Y-119817760D01*
X150717475Y-119643368D01*
X150510632Y-119436525D01*
X150267411Y-119274010D01*
X149997158Y-119162068D01*
X149710260Y-119105000D01*
X149417740Y-119105000D01*
X149130842Y-119162068D01*
X148860589Y-119274010D01*
X148617368Y-119436525D01*
X148410525Y-119643368D01*
X148294000Y-119817760D01*
X148177475Y-119643368D01*
X147970632Y-119436525D01*
X147727411Y-119274010D01*
X147515804Y-119186360D01*
X147521190Y-119179797D01*
X149912800Y-116788187D01*
X149912800Y-116802464D01*
X149844214Y-116905111D01*
X149773732Y-117075271D01*
X149737800Y-117255911D01*
X149737800Y-117440089D01*
X149773732Y-117620729D01*
X149844214Y-117790889D01*
X149946538Y-117944028D01*
X150076772Y-118074262D01*
X150229911Y-118176586D01*
X150400071Y-118247068D01*
X150580711Y-118283000D01*
X150764889Y-118283000D01*
X150945529Y-118247068D01*
X151115689Y-118176586D01*
X151268828Y-118074262D01*
X151399062Y-117944028D01*
X151501386Y-117790889D01*
X151571868Y-117620729D01*
X151607800Y-117440089D01*
X151607800Y-117255911D01*
X151571868Y-117075271D01*
X151501386Y-116905111D01*
X151432800Y-116802465D01*
X151432800Y-116621401D01*
X151571802Y-116482400D01*
X152388078Y-116482400D01*
X152425400Y-116486076D01*
X152462722Y-116482400D01*
X152462733Y-116482400D01*
X152574386Y-116471403D01*
X152717647Y-116427946D01*
X152849676Y-116357374D01*
X152965401Y-116262401D01*
X152989204Y-116233397D01*
X152996148Y-116226453D01*
X153117229Y-116202368D01*
X153287389Y-116131886D01*
X153440528Y-116029562D01*
X153570762Y-115899328D01*
X153673086Y-115746189D01*
X153743568Y-115576029D01*
X153779500Y-115395389D01*
X153779500Y-115211211D01*
X153743568Y-115030571D01*
X153673086Y-114860411D01*
X153570762Y-114707272D01*
X153440528Y-114577038D01*
X153287389Y-114474714D01*
X153117229Y-114404232D01*
X152936589Y-114368300D01*
X152752411Y-114368300D01*
X152571771Y-114404232D01*
X152401611Y-114474714D01*
X152248472Y-114577038D01*
X152118238Y-114707272D01*
X152015914Y-114860411D01*
X151973669Y-114962400D01*
X151294333Y-114962400D01*
X151257000Y-114958723D01*
X151219667Y-114962400D01*
X151108014Y-114973397D01*
X150964753Y-115016854D01*
X150832724Y-115087426D01*
X150716999Y-115182399D01*
X150693200Y-115211398D01*
X150493000Y-115411598D01*
X150493000Y-110400535D01*
X150561586Y-110297889D01*
X150632068Y-110127729D01*
X150668000Y-109947089D01*
X150668000Y-109762911D01*
X150632068Y-109582271D01*
X150561586Y-109412111D01*
X150459262Y-109258972D01*
X150329028Y-109128738D01*
X150175889Y-109026414D01*
X150005729Y-108955932D01*
X149857913Y-108926529D01*
X149874690Y-108842189D01*
X149874690Y-108658011D01*
X149838758Y-108477371D01*
X149768276Y-108307211D01*
X149665952Y-108154072D01*
X149535718Y-108023838D01*
X149382579Y-107921514D01*
X149212419Y-107851032D01*
X149031779Y-107815100D01*
X148847601Y-107815100D01*
X148666961Y-107851032D01*
X148496801Y-107921514D01*
X148343662Y-108023838D01*
X148213428Y-108154072D01*
X148111104Y-108307211D01*
X148040622Y-108477371D01*
X148004690Y-108658011D01*
X148004690Y-108842189D01*
X148040622Y-109022829D01*
X148111104Y-109192989D01*
X148213428Y-109346128D01*
X148293991Y-109426691D01*
X148293990Y-115386800D01*
X148258928Y-115351738D01*
X148105789Y-115249414D01*
X147935629Y-115178932D01*
X147754989Y-115143000D01*
X147665398Y-115143000D01*
X147608686Y-115125797D01*
X147497033Y-115114800D01*
X147497022Y-115114800D01*
X147459700Y-115111124D01*
X147422378Y-115114800D01*
X143173102Y-115114800D01*
X143525709Y-114762194D01*
X143554701Y-114738401D01*
X143578495Y-114709408D01*
X143578499Y-114709404D01*
X143649673Y-114622677D01*
X143649674Y-114622676D01*
X143720246Y-114490647D01*
X143763703Y-114347386D01*
X143774700Y-114235733D01*
X143774700Y-114235724D01*
X143778376Y-114198401D01*
X143774700Y-114161078D01*
X143774700Y-109536935D01*
X143843286Y-109434289D01*
X143913768Y-109264129D01*
X143949700Y-109083489D01*
X143949700Y-108899311D01*
X143913768Y-108718671D01*
X143843286Y-108548511D01*
X143740962Y-108395372D01*
X143610728Y-108265138D01*
X143457589Y-108162814D01*
X143287429Y-108092332D01*
X143106789Y-108056400D01*
X142922611Y-108056400D01*
X142741971Y-108092332D01*
X142571811Y-108162814D01*
X142418672Y-108265138D01*
X142288438Y-108395372D01*
X142186114Y-108548511D01*
X142115632Y-108718671D01*
X142079700Y-108899311D01*
X142079700Y-109083489D01*
X142115632Y-109264129D01*
X142186114Y-109434289D01*
X142254701Y-109536937D01*
X142254700Y-113883597D01*
X141036199Y-115102100D01*
X134165186Y-115102100D01*
X134169068Y-115092729D01*
X134205000Y-114912089D01*
X134205000Y-114727911D01*
X134169068Y-114547271D01*
X134098586Y-114377111D01*
X133996262Y-114223972D01*
X133866028Y-114093738D01*
X133712889Y-113991414D01*
X133542729Y-113920932D01*
X133362089Y-113885000D01*
X133177911Y-113885000D01*
X132997271Y-113920932D01*
X132827111Y-113991414D01*
X132742424Y-114048000D01*
X128332935Y-114048000D01*
X128230289Y-113979414D01*
X128060129Y-113908932D01*
X127879489Y-113873000D01*
X127695311Y-113873000D01*
X127514671Y-113908932D01*
X127344511Y-113979414D01*
X127241865Y-114048000D01*
X122948135Y-114048000D01*
X122845489Y-113979414D01*
X122675329Y-113908932D01*
X122494689Y-113873000D01*
X122310511Y-113873000D01*
X122129871Y-113908932D01*
X121959711Y-113979414D01*
X121857065Y-114048000D01*
X117880835Y-114048000D01*
X117778189Y-113979414D01*
X117608029Y-113908932D01*
X117427389Y-113873000D01*
X117243211Y-113873000D01*
X117062571Y-113908932D01*
X116892411Y-113979414D01*
X116739272Y-114081738D01*
X116609038Y-114211972D01*
X116506714Y-114365111D01*
X116436232Y-114535271D01*
X116400300Y-114715911D01*
X116400300Y-114900089D01*
X116436232Y-115080729D01*
X116506714Y-115250889D01*
X116609038Y-115404028D01*
X116739272Y-115534262D01*
X116795751Y-115572000D01*
X116215700Y-115572000D01*
X116215700Y-110436501D01*
X117905290Y-108746911D01*
X121493000Y-108746911D01*
X121493000Y-108931089D01*
X121528932Y-109111729D01*
X121599414Y-109281889D01*
X121668000Y-109384536D01*
X121668001Y-110300063D01*
X121599414Y-110402711D01*
X121528932Y-110572871D01*
X121493000Y-110753511D01*
X121493000Y-110937689D01*
X121528932Y-111118329D01*
X121599414Y-111288489D01*
X121701738Y-111441628D01*
X121831972Y-111571862D01*
X121985111Y-111674186D01*
X122155271Y-111744668D01*
X122335911Y-111780600D01*
X122520089Y-111780600D01*
X122700729Y-111744668D01*
X122870889Y-111674186D01*
X123024028Y-111571862D01*
X123154262Y-111441628D01*
X123256586Y-111288489D01*
X123326789Y-111119001D01*
X126725400Y-111119001D01*
X126725400Y-111303179D01*
X126761332Y-111483819D01*
X126831814Y-111653979D01*
X126934138Y-111807118D01*
X127064372Y-111937352D01*
X127217511Y-112039676D01*
X127387671Y-112110158D01*
X127568311Y-112146090D01*
X127752489Y-112146090D01*
X127933129Y-112110158D01*
X128103289Y-112039676D01*
X128256428Y-111937352D01*
X128386662Y-111807118D01*
X128488986Y-111653979D01*
X128559468Y-111483819D01*
X128595400Y-111303179D01*
X128595400Y-111119001D01*
X128559468Y-110938361D01*
X128488986Y-110768201D01*
X128420400Y-110665555D01*
X128420400Y-110176811D01*
X128496649Y-110100563D01*
X128617729Y-110076478D01*
X128787889Y-110005996D01*
X128941028Y-109903672D01*
X129071262Y-109773438D01*
X129173586Y-109620299D01*
X129244068Y-109450139D01*
X129280000Y-109269499D01*
X129280000Y-109085321D01*
X129256646Y-108967911D01*
X140135000Y-108967911D01*
X140135000Y-109152089D01*
X140170932Y-109332729D01*
X140241414Y-109502889D01*
X140337000Y-109645944D01*
X140337000Y-109690678D01*
X140333324Y-109728000D01*
X140337000Y-109765322D01*
X140337000Y-109765332D01*
X140347997Y-109876985D01*
X140376800Y-109971937D01*
X140391454Y-110020246D01*
X140462026Y-110152276D01*
X140501871Y-110200826D01*
X140520001Y-110222918D01*
X140520000Y-111924464D01*
X140451414Y-112027111D01*
X140380932Y-112197271D01*
X140345000Y-112377911D01*
X140345000Y-112562089D01*
X140380932Y-112742729D01*
X140451414Y-112912889D01*
X140553738Y-113066028D01*
X140683972Y-113196262D01*
X140837111Y-113298586D01*
X141007271Y-113369068D01*
X141187911Y-113405000D01*
X141372089Y-113405000D01*
X141552729Y-113369068D01*
X141722889Y-113298586D01*
X141876028Y-113196262D01*
X142006262Y-113066028D01*
X142108586Y-112912889D01*
X142179068Y-112742729D01*
X142215000Y-112562089D01*
X142215000Y-112377911D01*
X142179068Y-112197271D01*
X142108586Y-112027111D01*
X142040000Y-111924465D01*
X142040000Y-109948322D01*
X142043676Y-109910999D01*
X142040000Y-109873676D01*
X142040000Y-109873667D01*
X142029003Y-109762014D01*
X141985546Y-109618753D01*
X141914974Y-109486724D01*
X141908533Y-109478875D01*
X141969068Y-109332729D01*
X142005000Y-109152089D01*
X142005000Y-108967911D01*
X141969068Y-108787271D01*
X141898586Y-108617111D01*
X141796262Y-108463972D01*
X141666028Y-108333738D01*
X141512889Y-108231414D01*
X141342729Y-108160932D01*
X141162089Y-108125000D01*
X140977911Y-108125000D01*
X140797271Y-108160932D01*
X140627111Y-108231414D01*
X140473972Y-108333738D01*
X140343738Y-108463972D01*
X140241414Y-108617111D01*
X140170932Y-108787271D01*
X140135000Y-108967911D01*
X129256646Y-108967911D01*
X129244068Y-108904681D01*
X129173586Y-108734521D01*
X129071262Y-108581382D01*
X128941028Y-108451148D01*
X128787889Y-108348824D01*
X128617729Y-108278342D01*
X128437089Y-108242410D01*
X128252911Y-108242410D01*
X128072271Y-108278342D01*
X127902111Y-108348824D01*
X127748972Y-108451148D01*
X127618738Y-108581382D01*
X127516414Y-108734521D01*
X127445932Y-108904681D01*
X127421847Y-109025761D01*
X127149398Y-109298211D01*
X127120400Y-109322009D01*
X127096602Y-109351007D01*
X127096601Y-109351008D01*
X127025426Y-109437734D01*
X126954854Y-109569764D01*
X126932248Y-109644290D01*
X126911398Y-109713024D01*
X126906246Y-109765332D01*
X126896724Y-109862010D01*
X126900401Y-109899342D01*
X126900400Y-110665554D01*
X126831814Y-110768201D01*
X126761332Y-110938361D01*
X126725400Y-111119001D01*
X123326789Y-111119001D01*
X123327068Y-111118329D01*
X123363000Y-110937689D01*
X123363000Y-110753511D01*
X123327068Y-110572871D01*
X123256586Y-110402711D01*
X123188000Y-110300065D01*
X123188000Y-109384535D01*
X123256586Y-109281889D01*
X123327068Y-109111729D01*
X123363000Y-108931089D01*
X123363000Y-108746911D01*
X123327068Y-108566271D01*
X123256586Y-108396111D01*
X123154262Y-108242972D01*
X123024028Y-108112738D01*
X122870889Y-108010414D01*
X122700729Y-107939932D01*
X122520089Y-107904000D01*
X122335911Y-107904000D01*
X122155271Y-107939932D01*
X121985111Y-108010414D01*
X121831972Y-108112738D01*
X121701738Y-108242972D01*
X121599414Y-108396111D01*
X121528932Y-108566271D01*
X121493000Y-108746911D01*
X117905290Y-108746911D01*
X119974199Y-106678003D01*
X121936466Y-106678003D01*
X122039112Y-106746589D01*
X122209272Y-106817071D01*
X122389912Y-106853003D01*
X122574090Y-106853003D01*
X122754730Y-106817071D01*
X122924890Y-106746589D01*
X123078029Y-106644265D01*
X123208263Y-106514031D01*
X123310587Y-106360892D01*
X123381069Y-106190732D01*
X123417001Y-106010092D01*
X123417001Y-105825914D01*
X123381069Y-105645274D01*
X123310587Y-105475114D01*
X123208263Y-105321975D01*
X123078029Y-105191741D01*
X122924890Y-105089417D01*
X122754730Y-105018935D01*
X122574090Y-104983003D01*
X122389912Y-104983003D01*
X122209272Y-105018935D01*
X122039112Y-105089417D01*
X121936466Y-105158003D01*
X119696719Y-105158003D01*
X119659396Y-105154327D01*
X119622073Y-105158003D01*
X119622064Y-105158003D01*
X119510411Y-105169000D01*
X119367150Y-105212457D01*
X119235121Y-105283029D01*
X119119396Y-105378002D01*
X119095598Y-105407000D01*
X117285000Y-107217598D01*
X117285000Y-102033647D01*
X117288314Y-102000000D01*
X117275088Y-101865717D01*
X117235919Y-101736594D01*
X117172312Y-101617593D01*
X117086711Y-101513289D01*
X116982407Y-101427688D01*
X116863406Y-101364081D01*
X116734283Y-101324912D01*
X116633647Y-101315000D01*
X116600000Y-101311686D01*
X116566353Y-101315000D01*
X114633647Y-101315000D01*
X114600000Y-101311686D01*
X114566353Y-101315000D01*
X114465717Y-101324912D01*
X114336594Y-101364081D01*
X114217593Y-101427688D01*
X114113289Y-101513289D01*
X114027688Y-101617593D01*
X113964081Y-101736594D01*
X113924912Y-101865717D01*
X113911686Y-102000000D01*
X113915001Y-102033656D01*
X113915000Y-102966352D01*
X113911686Y-103000000D01*
X113924912Y-103134283D01*
X113928770Y-103147001D01*
X113884973Y-103128860D01*
X113704333Y-103092928D01*
X113639442Y-103092928D01*
X113662186Y-103058889D01*
X113732668Y-102888729D01*
X113768600Y-102708089D01*
X113768600Y-102523911D01*
X113732668Y-102343271D01*
X113662186Y-102173111D01*
X113593600Y-102070465D01*
X113593600Y-98713909D01*
X128351002Y-98713909D01*
X128351002Y-98898087D01*
X128386934Y-99078727D01*
X128457416Y-99248887D01*
X128559740Y-99402026D01*
X128689974Y-99532260D01*
X128843113Y-99634584D01*
X128962046Y-99683847D01*
X129836047Y-100557849D01*
X129860132Y-100678929D01*
X129930614Y-100849089D01*
X130032938Y-101002228D01*
X130163172Y-101132462D01*
X130316311Y-101234786D01*
X130486471Y-101305268D01*
X130667111Y-101341200D01*
X130851289Y-101341200D01*
X131031929Y-101305268D01*
X131202089Y-101234786D01*
X131355228Y-101132462D01*
X131485462Y-101002228D01*
X131587786Y-100849089D01*
X131658268Y-100678929D01*
X131694200Y-100498289D01*
X131694200Y-100314111D01*
X131658268Y-100133471D01*
X131587786Y-99963311D01*
X131485462Y-99810172D01*
X131355228Y-99679938D01*
X131202089Y-99577614D01*
X131031929Y-99507132D01*
X130910849Y-99483047D01*
X130221002Y-98793201D01*
X130221002Y-98713909D01*
X130185070Y-98533269D01*
X130114588Y-98363109D01*
X130012264Y-98209970D01*
X129882030Y-98079736D01*
X129728891Y-97977412D01*
X129558731Y-97906930D01*
X129378091Y-97870998D01*
X129193913Y-97870998D01*
X129013273Y-97906930D01*
X128843113Y-97977412D01*
X128689974Y-98079736D01*
X128559740Y-98209970D01*
X128457416Y-98363109D01*
X128386934Y-98533269D01*
X128351002Y-98713909D01*
X113593600Y-98713909D01*
X113593600Y-97824909D01*
X151084000Y-97824909D01*
X151084000Y-98009087D01*
X151119932Y-98189727D01*
X151190414Y-98359887D01*
X151292738Y-98513026D01*
X151422972Y-98643260D01*
X151576111Y-98745584D01*
X151746271Y-98816066D01*
X151926911Y-98851998D01*
X152111089Y-98851998D01*
X152291729Y-98816066D01*
X152461889Y-98745584D01*
X152564532Y-98677000D01*
X155918465Y-98677000D01*
X156021111Y-98745586D01*
X156191271Y-98816068D01*
X156371911Y-98852000D01*
X156556089Y-98852000D01*
X156736729Y-98816068D01*
X156906889Y-98745586D01*
X157060028Y-98643262D01*
X157190262Y-98513028D01*
X157292586Y-98359889D01*
X157363068Y-98189729D01*
X157399000Y-98009089D01*
X157399000Y-97824911D01*
X157363068Y-97644271D01*
X157292586Y-97474111D01*
X157190262Y-97320972D01*
X157060028Y-97190738D01*
X156906889Y-97088414D01*
X156736729Y-97017932D01*
X156556089Y-96982000D01*
X156371911Y-96982000D01*
X156191271Y-97017932D01*
X156021111Y-97088414D01*
X155918465Y-97157000D01*
X152564538Y-97157000D01*
X152461889Y-97088412D01*
X152291729Y-97017930D01*
X152111089Y-96981998D01*
X151926911Y-96981998D01*
X151746271Y-97017930D01*
X151576111Y-97088412D01*
X151422972Y-97190736D01*
X151292738Y-97320970D01*
X151190414Y-97474109D01*
X151119932Y-97644269D01*
X151084000Y-97824909D01*
X113593600Y-97824909D01*
X113593600Y-97630922D01*
X113597276Y-97593599D01*
X113593600Y-97556276D01*
X113593600Y-97556267D01*
X113582603Y-97444614D01*
X113539146Y-97301353D01*
X113468574Y-97169324D01*
X113438571Y-97132765D01*
X113397399Y-97082596D01*
X113397395Y-97082592D01*
X113373601Y-97053599D01*
X113344608Y-97029805D01*
X112810153Y-96495351D01*
X112786068Y-96374271D01*
X112715586Y-96204111D01*
X112613262Y-96050972D01*
X112607290Y-96045000D01*
X160458499Y-96045000D01*
X159996907Y-96353425D01*
G37*
G04 #@! TD.AperFunction*
D15*
X104105847Y-113829349D02*
X104129932Y-113950429D01*
X104200414Y-114120589D01*
X104302738Y-114273728D01*
X104432972Y-114403962D01*
X104586111Y-114506286D01*
X104756271Y-114576768D01*
X104936911Y-114612700D01*
X105121089Y-114612700D01*
X105301729Y-114576768D01*
X105471889Y-114506286D01*
X105625028Y-114403962D01*
X105755262Y-114273728D01*
X105857586Y-114120589D01*
X105928068Y-113950429D01*
X105964000Y-113769789D01*
X105964000Y-113585611D01*
X105928068Y-113404971D01*
X105886493Y-113304600D01*
X105984689Y-113304600D01*
X106165329Y-113268668D01*
X106335489Y-113198186D01*
X106438135Y-113129600D01*
X109465000Y-113129600D01*
X109465000Y-113142089D01*
X109500932Y-113322729D01*
X109571414Y-113492889D01*
X109640000Y-113595536D01*
X109640001Y-115337080D01*
X109557111Y-115371414D01*
X109403972Y-115473738D01*
X109273738Y-115603972D01*
X109171414Y-115757111D01*
X109100932Y-115927271D01*
X109065000Y-116107911D01*
X109065000Y-116292089D01*
X109100932Y-116472729D01*
X109171414Y-116642889D01*
X109273738Y-116796028D01*
X109403972Y-116926262D01*
X109557111Y-117028586D01*
X109727271Y-117099068D01*
X109907911Y-117135000D01*
X110092089Y-117135000D01*
X110272729Y-117099068D01*
X110442889Y-117028586D01*
X110540672Y-116963250D01*
X110576538Y-117016928D01*
X110706772Y-117147162D01*
X110710000Y-117149319D01*
X110710001Y-119307812D01*
X110517368Y-119436525D01*
X110310525Y-119643368D01*
X110194000Y-119817760D01*
X110077475Y-119643368D01*
X109870632Y-119436525D01*
X109686348Y-119313391D01*
X109687677Y-119299900D01*
X109673003Y-119150914D01*
X109629546Y-119007653D01*
X109558974Y-118875624D01*
X109529819Y-118840099D01*
X109464001Y-118759899D01*
X109434997Y-118736096D01*
X108996404Y-118297503D01*
X108972601Y-118268499D01*
X108856876Y-118173526D01*
X108724847Y-118102954D01*
X108581586Y-118059497D01*
X108469933Y-118048500D01*
X108469922Y-118048500D01*
X108432600Y-118044824D01*
X108395278Y-118048500D01*
X106931302Y-118048500D01*
X106256953Y-117374151D01*
X106232868Y-117253071D01*
X106162386Y-117082911D01*
X106060062Y-116929772D01*
X105929828Y-116799538D01*
X105776689Y-116697214D01*
X105606529Y-116626732D01*
X105425889Y-116590800D01*
X105241711Y-116590800D01*
X105061071Y-116626732D01*
X104890911Y-116697214D01*
X104737772Y-116799538D01*
X104607538Y-116929772D01*
X104505214Y-117082911D01*
X104434732Y-117253071D01*
X104398800Y-117433711D01*
X104398800Y-117617889D01*
X104434732Y-117798529D01*
X104505214Y-117968689D01*
X104607538Y-118121828D01*
X104737772Y-118252062D01*
X104890911Y-118354386D01*
X105061071Y-118424868D01*
X105182151Y-118448953D01*
X106037349Y-119304151D01*
X105582558Y-119000270D01*
X104995281Y-118757012D01*
X104371832Y-118633000D01*
X103736168Y-118633000D01*
X103112719Y-118757012D01*
X102525442Y-119000270D01*
X101996907Y-119353425D01*
X101547425Y-119802907D01*
X101239000Y-120264499D01*
X101239000Y-116149667D01*
X101357111Y-116228586D01*
X101527271Y-116299068D01*
X101707911Y-116335000D01*
X101892089Y-116335000D01*
X102072729Y-116299068D01*
X102242889Y-116228586D01*
X102396028Y-116126262D01*
X102526262Y-115996028D01*
X102628586Y-115842889D01*
X102699068Y-115672729D01*
X102735000Y-115492089D01*
X102735000Y-115307911D01*
X102699068Y-115127271D01*
X102628586Y-114957111D01*
X102560000Y-114854465D01*
X102560000Y-112283501D01*
X104105847Y-113829349D01*
G04 #@! TA.AperFunction,Conductor*
D16*
G36*
X104105847Y-113829349D02*
G01*
X104129932Y-113950429D01*
X104200414Y-114120589D01*
X104302738Y-114273728D01*
X104432972Y-114403962D01*
X104586111Y-114506286D01*
X104756271Y-114576768D01*
X104936911Y-114612700D01*
X105121089Y-114612700D01*
X105301729Y-114576768D01*
X105471889Y-114506286D01*
X105625028Y-114403962D01*
X105755262Y-114273728D01*
X105857586Y-114120589D01*
X105928068Y-113950429D01*
X105964000Y-113769789D01*
X105964000Y-113585611D01*
X105928068Y-113404971D01*
X105886493Y-113304600D01*
X105984689Y-113304600D01*
X106165329Y-113268668D01*
X106335489Y-113198186D01*
X106438135Y-113129600D01*
X109465000Y-113129600D01*
X109465000Y-113142089D01*
X109500932Y-113322729D01*
X109571414Y-113492889D01*
X109640000Y-113595536D01*
X109640001Y-115337080D01*
X109557111Y-115371414D01*
X109403972Y-115473738D01*
X109273738Y-115603972D01*
X109171414Y-115757111D01*
X109100932Y-115927271D01*
X109065000Y-116107911D01*
X109065000Y-116292089D01*
X109100932Y-116472729D01*
X109171414Y-116642889D01*
X109273738Y-116796028D01*
X109403972Y-116926262D01*
X109557111Y-117028586D01*
X109727271Y-117099068D01*
X109907911Y-117135000D01*
X110092089Y-117135000D01*
X110272729Y-117099068D01*
X110442889Y-117028586D01*
X110540672Y-116963250D01*
X110576538Y-117016928D01*
X110706772Y-117147162D01*
X110710000Y-117149319D01*
X110710001Y-119307812D01*
X110517368Y-119436525D01*
X110310525Y-119643368D01*
X110194000Y-119817760D01*
X110077475Y-119643368D01*
X109870632Y-119436525D01*
X109686348Y-119313391D01*
X109687677Y-119299900D01*
X109673003Y-119150914D01*
X109629546Y-119007653D01*
X109558974Y-118875624D01*
X109529819Y-118840099D01*
X109464001Y-118759899D01*
X109434997Y-118736096D01*
X108996404Y-118297503D01*
X108972601Y-118268499D01*
X108856876Y-118173526D01*
X108724847Y-118102954D01*
X108581586Y-118059497D01*
X108469933Y-118048500D01*
X108469922Y-118048500D01*
X108432600Y-118044824D01*
X108395278Y-118048500D01*
X106931302Y-118048500D01*
X106256953Y-117374151D01*
X106232868Y-117253071D01*
X106162386Y-117082911D01*
X106060062Y-116929772D01*
X105929828Y-116799538D01*
X105776689Y-116697214D01*
X105606529Y-116626732D01*
X105425889Y-116590800D01*
X105241711Y-116590800D01*
X105061071Y-116626732D01*
X104890911Y-116697214D01*
X104737772Y-116799538D01*
X104607538Y-116929772D01*
X104505214Y-117082911D01*
X104434732Y-117253071D01*
X104398800Y-117433711D01*
X104398800Y-117617889D01*
X104434732Y-117798529D01*
X104505214Y-117968689D01*
X104607538Y-118121828D01*
X104737772Y-118252062D01*
X104890911Y-118354386D01*
X105061071Y-118424868D01*
X105182151Y-118448953D01*
X106037349Y-119304151D01*
X105582558Y-119000270D01*
X104995281Y-118757012D01*
X104371832Y-118633000D01*
X103736168Y-118633000D01*
X103112719Y-118757012D01*
X102525442Y-119000270D01*
X101996907Y-119353425D01*
X101547425Y-119802907D01*
X101239000Y-120264499D01*
X101239000Y-116149667D01*
X101357111Y-116228586D01*
X101527271Y-116299068D01*
X101707911Y-116335000D01*
X101892089Y-116335000D01*
X102072729Y-116299068D01*
X102242889Y-116228586D01*
X102396028Y-116126262D01*
X102526262Y-115996028D01*
X102628586Y-115842889D01*
X102699068Y-115672729D01*
X102735000Y-115492089D01*
X102735000Y-115307911D01*
X102699068Y-115127271D01*
X102628586Y-114957111D01*
X102560000Y-114854465D01*
X102560000Y-112283501D01*
X104105847Y-113829349D01*
G37*
G04 #@! TD.AperFunction*
D15*
X105132600Y-111824064D02*
X105064014Y-111926711D01*
X104993532Y-112096871D01*
X104957600Y-112277511D01*
X104957600Y-112461689D01*
X104974934Y-112548832D01*
X103321839Y-110895738D01*
X103321839Y-108297078D01*
X103445651Y-108379806D01*
X103615811Y-108450288D01*
X103796451Y-108486220D01*
X103980629Y-108486220D01*
X104161269Y-108450288D01*
X104331429Y-108379806D01*
X104484568Y-108277482D01*
X104614802Y-108147248D01*
X104717126Y-107994109D01*
X104787608Y-107823949D01*
X104811693Y-107702868D01*
X105132601Y-107381960D01*
X105132600Y-111824064D01*
G04 #@! TA.AperFunction,Conductor*
D16*
G36*
X105132600Y-111824064D02*
G01*
X105064014Y-111926711D01*
X104993532Y-112096871D01*
X104957600Y-112277511D01*
X104957600Y-112461689D01*
X104974934Y-112548832D01*
X103321839Y-110895738D01*
X103321839Y-108297078D01*
X103445651Y-108379806D01*
X103615811Y-108450288D01*
X103796451Y-108486220D01*
X103980629Y-108486220D01*
X104161269Y-108450288D01*
X104331429Y-108379806D01*
X104484568Y-108277482D01*
X104614802Y-108147248D01*
X104717126Y-107994109D01*
X104787608Y-107823949D01*
X104811693Y-107702868D01*
X105132601Y-107381960D01*
X105132600Y-111824064D01*
G37*
G04 #@! TD.AperFunction*
D15*
X101547425Y-100917093D02*
X101996907Y-101366575D01*
X102525442Y-101719730D01*
X103096458Y-101956252D01*
X103032738Y-102019972D01*
X102930414Y-102173111D01*
X102859932Y-102343271D01*
X102824000Y-102523911D01*
X102824000Y-102708089D01*
X102859932Y-102888729D01*
X102930414Y-103058889D01*
X103032738Y-103212028D01*
X103162972Y-103342262D01*
X103316111Y-103444586D01*
X103486271Y-103515068D01*
X103666911Y-103551000D01*
X103851089Y-103551000D01*
X104031729Y-103515068D01*
X104201889Y-103444586D01*
X104304535Y-103376000D01*
X104464198Y-103376000D01*
X101289003Y-106551196D01*
X101259999Y-106574999D01*
X101239000Y-106600587D01*
X101239000Y-100455501D01*
X101547425Y-100917093D01*
G04 #@! TA.AperFunction,Conductor*
D16*
G36*
X101547425Y-100917093D02*
G01*
X101996907Y-101366575D01*
X102525442Y-101719730D01*
X103096458Y-101956252D01*
X103032738Y-102019972D01*
X102930414Y-102173111D01*
X102859932Y-102343271D01*
X102824000Y-102523911D01*
X102824000Y-102708089D01*
X102859932Y-102888729D01*
X102930414Y-103058889D01*
X103032738Y-103212028D01*
X103162972Y-103342262D01*
X103316111Y-103444586D01*
X103486271Y-103515068D01*
X103666911Y-103551000D01*
X103851089Y-103551000D01*
X104031729Y-103515068D01*
X104201889Y-103444586D01*
X104304535Y-103376000D01*
X104464198Y-103376000D01*
X101289003Y-106551196D01*
X101259999Y-106574999D01*
X101239000Y-106600587D01*
X101239000Y-100455501D01*
X101547425Y-100917093D01*
G37*
G04 #@! TD.AperFunction*
D15*
X110711999Y-96106999D02*
X110688201Y-96135997D01*
X107190278Y-99633920D01*
X107281000Y-99177832D01*
X107281000Y-98542168D01*
X107156988Y-97918719D01*
X106913730Y-97331442D01*
X106560575Y-96802907D01*
X106111093Y-96353425D01*
X105649501Y-96045000D01*
X110787545Y-96045000D01*
X110711999Y-96106999D01*
G04 #@! TA.AperFunction,Conductor*
D16*
G36*
X110711999Y-96106999D02*
G01*
X110688201Y-96135997D01*
X107190278Y-99633920D01*
X107281000Y-99177832D01*
X107281000Y-98542168D01*
X107156988Y-97918719D01*
X106913730Y-97331442D01*
X106560575Y-96802907D01*
X106111093Y-96353425D01*
X105649501Y-96045000D01*
X110787545Y-96045000D01*
X110711999Y-96106999D01*
G37*
G04 #@! TD.AperFunction*
M02*
