%TF.GenerationSoftware,KiCad,Pcbnew,(5.1.10-1-10_14)*%
%TF.CreationDate,2021-06-08T22:52:33-04:00*%
%TF.ProjectId,TR109-lightboard,54523130-392d-46c6-9967-6874626f6172,rev?*%
%TF.SameCoordinates,Original*%
%TF.FileFunction,Other,User*%
%FSLAX46Y46*%
G04 Gerber Fmt 4.6, Leading zero omitted, Abs format (unit mm)*
G04 Created by KiCad (PCBNEW (5.1.10-1-10_14)) date 2021-06-08 22:52:33*
%MOMM*%
%LPD*%
G01*
G04 APERTURE LIST*
%ADD10C,0.050000*%
G04 APERTURE END LIST*
D10*
%TO.C,REF\u002A\u002A*%
X171380000Y-108570000D02*
G75*
G03*
X171380000Y-108570000I-2350000J0D01*
G01*
X129390000Y-94780000D02*
G75*
G03*
X129390000Y-94780000I-2350000J0D01*
G01*
%TO.C,J1*%
X143896704Y-93813500D02*
X143896704Y-96813500D01*
X154896704Y-93813500D02*
X143896704Y-93813500D01*
X154896704Y-96813500D02*
X154896704Y-93813500D01*
X143896704Y-96813500D02*
X154896704Y-96813500D01*
%TO.C,R4*%
X166810000Y-104570000D02*
X166810000Y-106030000D01*
X166810000Y-106030000D02*
X163510000Y-106030000D01*
X163510000Y-106030000D02*
X163510000Y-104570000D01*
X163510000Y-104570000D02*
X166810000Y-104570000D01*
%TO.C,R3*%
X152348300Y-102977700D02*
X152348300Y-101517700D01*
X152348300Y-101517700D02*
X155648300Y-101517700D01*
X155648300Y-101517700D02*
X155648300Y-102977700D01*
X155648300Y-102977700D02*
X152348300Y-102977700D01*
%TO.C,R2*%
X139739100Y-102939600D02*
X139739100Y-101479600D01*
X139739100Y-101479600D02*
X143039100Y-101479600D01*
X143039100Y-101479600D02*
X143039100Y-102939600D01*
X143039100Y-102939600D02*
X139739100Y-102939600D01*
%TO.C,R1*%
X127002900Y-103003100D02*
X127002900Y-101543100D01*
X127002900Y-101543100D02*
X130302900Y-101543100D01*
X130302900Y-101543100D02*
X130302900Y-103003100D01*
X130302900Y-103003100D02*
X127002900Y-103003100D01*
%TO.C,D6*%
X171512500Y-101987600D02*
X171512500Y-103447600D01*
X171512500Y-103447600D02*
X168212500Y-103447600D01*
X168212500Y-103447600D02*
X168212500Y-101987600D01*
X168212500Y-101987600D02*
X171512500Y-101987600D01*
%TO.C,D5*%
X171512500Y-98291900D02*
X171512500Y-99751900D01*
X171512500Y-99751900D02*
X168212500Y-99751900D01*
X168212500Y-99751900D02*
X168212500Y-98291900D01*
X168212500Y-98291900D02*
X171512500Y-98291900D01*
%TO.C,D4*%
X171512500Y-94583500D02*
X171512500Y-96043500D01*
X171512500Y-96043500D02*
X168212500Y-96043500D01*
X168212500Y-96043500D02*
X168212500Y-94583500D01*
X168212500Y-94583500D02*
X171512500Y-94583500D01*
%TO.C,D3*%
X156388800Y-102977700D02*
X156388800Y-101517700D01*
X156388800Y-101517700D02*
X159688800Y-101517700D01*
X159688800Y-101517700D02*
X159688800Y-102977700D01*
X159688800Y-102977700D02*
X156388800Y-102977700D01*
%TO.C,D2*%
X143892000Y-102939600D02*
X143892000Y-101479600D01*
X143892000Y-101479600D02*
X147192000Y-101479600D01*
X147192000Y-101479600D02*
X147192000Y-102939600D01*
X147192000Y-102939600D02*
X143892000Y-102939600D01*
%TO.C,D1*%
X131395200Y-103003100D02*
X131395200Y-101543100D01*
X131395200Y-101543100D02*
X134695200Y-101543100D01*
X134695200Y-101543100D02*
X134695200Y-103003100D01*
X134695200Y-103003100D02*
X131395200Y-103003100D01*
%TD*%
M02*
