%TF.GenerationSoftware,KiCad,Pcbnew,(5.1.10-1-10_14)*%
%TF.CreationDate,2021-06-08T22:52:33-04:00*%
%TF.ProjectId,TR109-lightboard,54523130-392d-46c6-9967-6874626f6172,rev?*%
%TF.SameCoordinates,Original*%
%TF.FileFunction,Paste,Top*%
%TF.FilePolarity,Positive*%
%FSLAX46Y46*%
G04 Gerber Fmt 4.6, Leading zero omitted, Abs format (unit mm)*
G04 Created by KiCad (PCBNEW (5.1.10-1-10_14)) date 2021-06-08 22:52:33*
%MOMM*%
%LPD*%
G01*
G04 APERTURE LIST*
G04 APERTURE END LIST*
%TO.C,R4*%
G36*
G01*
X164735000Y-105062500D02*
X164735000Y-105537500D01*
G75*
G02*
X164497500Y-105775000I-237500J0D01*
G01*
X163997500Y-105775000D01*
G75*
G02*
X163760000Y-105537500I0J237500D01*
G01*
X163760000Y-105062500D01*
G75*
G02*
X163997500Y-104825000I237500J0D01*
G01*
X164497500Y-104825000D01*
G75*
G02*
X164735000Y-105062500I0J-237500D01*
G01*
G37*
G36*
G01*
X166560000Y-105062500D02*
X166560000Y-105537500D01*
G75*
G02*
X166322500Y-105775000I-237500J0D01*
G01*
X165822500Y-105775000D01*
G75*
G02*
X165585000Y-105537500I0J237500D01*
G01*
X165585000Y-105062500D01*
G75*
G02*
X165822500Y-104825000I237500J0D01*
G01*
X166322500Y-104825000D01*
G75*
G02*
X166560000Y-105062500I0J-237500D01*
G01*
G37*
%TD*%
%TO.C,R3*%
G36*
G01*
X154423300Y-102485200D02*
X154423300Y-102010200D01*
G75*
G02*
X154660800Y-101772700I237500J0D01*
G01*
X155160800Y-101772700D01*
G75*
G02*
X155398300Y-102010200I0J-237500D01*
G01*
X155398300Y-102485200D01*
G75*
G02*
X155160800Y-102722700I-237500J0D01*
G01*
X154660800Y-102722700D01*
G75*
G02*
X154423300Y-102485200I0J237500D01*
G01*
G37*
G36*
G01*
X152598300Y-102485200D02*
X152598300Y-102010200D01*
G75*
G02*
X152835800Y-101772700I237500J0D01*
G01*
X153335800Y-101772700D01*
G75*
G02*
X153573300Y-102010200I0J-237500D01*
G01*
X153573300Y-102485200D01*
G75*
G02*
X153335800Y-102722700I-237500J0D01*
G01*
X152835800Y-102722700D01*
G75*
G02*
X152598300Y-102485200I0J237500D01*
G01*
G37*
%TD*%
%TO.C,R2*%
G36*
G01*
X141814100Y-102447100D02*
X141814100Y-101972100D01*
G75*
G02*
X142051600Y-101734600I237500J0D01*
G01*
X142551600Y-101734600D01*
G75*
G02*
X142789100Y-101972100I0J-237500D01*
G01*
X142789100Y-102447100D01*
G75*
G02*
X142551600Y-102684600I-237500J0D01*
G01*
X142051600Y-102684600D01*
G75*
G02*
X141814100Y-102447100I0J237500D01*
G01*
G37*
G36*
G01*
X139989100Y-102447100D02*
X139989100Y-101972100D01*
G75*
G02*
X140226600Y-101734600I237500J0D01*
G01*
X140726600Y-101734600D01*
G75*
G02*
X140964100Y-101972100I0J-237500D01*
G01*
X140964100Y-102447100D01*
G75*
G02*
X140726600Y-102684600I-237500J0D01*
G01*
X140226600Y-102684600D01*
G75*
G02*
X139989100Y-102447100I0J237500D01*
G01*
G37*
%TD*%
%TO.C,R1*%
G36*
G01*
X129077900Y-102510600D02*
X129077900Y-102035600D01*
G75*
G02*
X129315400Y-101798100I237500J0D01*
G01*
X129815400Y-101798100D01*
G75*
G02*
X130052900Y-102035600I0J-237500D01*
G01*
X130052900Y-102510600D01*
G75*
G02*
X129815400Y-102748100I-237500J0D01*
G01*
X129315400Y-102748100D01*
G75*
G02*
X129077900Y-102510600I0J237500D01*
G01*
G37*
G36*
G01*
X127252900Y-102510600D02*
X127252900Y-102035600D01*
G75*
G02*
X127490400Y-101798100I237500J0D01*
G01*
X127990400Y-101798100D01*
G75*
G02*
X128227900Y-102035600I0J-237500D01*
G01*
X128227900Y-102510600D01*
G75*
G02*
X127990400Y-102748100I-237500J0D01*
G01*
X127490400Y-102748100D01*
G75*
G02*
X127252900Y-102510600I0J237500D01*
G01*
G37*
%TD*%
%TO.C,D6*%
G36*
G01*
X169512500Y-102480100D02*
X169512500Y-102955100D01*
G75*
G02*
X169275000Y-103192600I-237500J0D01*
G01*
X168700000Y-103192600D01*
G75*
G02*
X168462500Y-102955100I0J237500D01*
G01*
X168462500Y-102480100D01*
G75*
G02*
X168700000Y-102242600I237500J0D01*
G01*
X169275000Y-102242600D01*
G75*
G02*
X169512500Y-102480100I0J-237500D01*
G01*
G37*
G36*
G01*
X171262500Y-102480100D02*
X171262500Y-102955100D01*
G75*
G02*
X171025000Y-103192600I-237500J0D01*
G01*
X170450000Y-103192600D01*
G75*
G02*
X170212500Y-102955100I0J237500D01*
G01*
X170212500Y-102480100D01*
G75*
G02*
X170450000Y-102242600I237500J0D01*
G01*
X171025000Y-102242600D01*
G75*
G02*
X171262500Y-102480100I0J-237500D01*
G01*
G37*
%TD*%
%TO.C,D5*%
G36*
G01*
X169512500Y-98784400D02*
X169512500Y-99259400D01*
G75*
G02*
X169275000Y-99496900I-237500J0D01*
G01*
X168700000Y-99496900D01*
G75*
G02*
X168462500Y-99259400I0J237500D01*
G01*
X168462500Y-98784400D01*
G75*
G02*
X168700000Y-98546900I237500J0D01*
G01*
X169275000Y-98546900D01*
G75*
G02*
X169512500Y-98784400I0J-237500D01*
G01*
G37*
G36*
G01*
X171262500Y-98784400D02*
X171262500Y-99259400D01*
G75*
G02*
X171025000Y-99496900I-237500J0D01*
G01*
X170450000Y-99496900D01*
G75*
G02*
X170212500Y-99259400I0J237500D01*
G01*
X170212500Y-98784400D01*
G75*
G02*
X170450000Y-98546900I237500J0D01*
G01*
X171025000Y-98546900D01*
G75*
G02*
X171262500Y-98784400I0J-237500D01*
G01*
G37*
%TD*%
%TO.C,D4*%
G36*
G01*
X169512500Y-95076000D02*
X169512500Y-95551000D01*
G75*
G02*
X169275000Y-95788500I-237500J0D01*
G01*
X168700000Y-95788500D01*
G75*
G02*
X168462500Y-95551000I0J237500D01*
G01*
X168462500Y-95076000D01*
G75*
G02*
X168700000Y-94838500I237500J0D01*
G01*
X169275000Y-94838500D01*
G75*
G02*
X169512500Y-95076000I0J-237500D01*
G01*
G37*
G36*
G01*
X171262500Y-95076000D02*
X171262500Y-95551000D01*
G75*
G02*
X171025000Y-95788500I-237500J0D01*
G01*
X170450000Y-95788500D01*
G75*
G02*
X170212500Y-95551000I0J237500D01*
G01*
X170212500Y-95076000D01*
G75*
G02*
X170450000Y-94838500I237500J0D01*
G01*
X171025000Y-94838500D01*
G75*
G02*
X171262500Y-95076000I0J-237500D01*
G01*
G37*
%TD*%
%TO.C,D3*%
G36*
G01*
X158388800Y-102485200D02*
X158388800Y-102010200D01*
G75*
G02*
X158626300Y-101772700I237500J0D01*
G01*
X159201300Y-101772700D01*
G75*
G02*
X159438800Y-102010200I0J-237500D01*
G01*
X159438800Y-102485200D01*
G75*
G02*
X159201300Y-102722700I-237500J0D01*
G01*
X158626300Y-102722700D01*
G75*
G02*
X158388800Y-102485200I0J237500D01*
G01*
G37*
G36*
G01*
X156638800Y-102485200D02*
X156638800Y-102010200D01*
G75*
G02*
X156876300Y-101772700I237500J0D01*
G01*
X157451300Y-101772700D01*
G75*
G02*
X157688800Y-102010200I0J-237500D01*
G01*
X157688800Y-102485200D01*
G75*
G02*
X157451300Y-102722700I-237500J0D01*
G01*
X156876300Y-102722700D01*
G75*
G02*
X156638800Y-102485200I0J237500D01*
G01*
G37*
%TD*%
%TO.C,D2*%
G36*
G01*
X145892000Y-102447100D02*
X145892000Y-101972100D01*
G75*
G02*
X146129500Y-101734600I237500J0D01*
G01*
X146704500Y-101734600D01*
G75*
G02*
X146942000Y-101972100I0J-237500D01*
G01*
X146942000Y-102447100D01*
G75*
G02*
X146704500Y-102684600I-237500J0D01*
G01*
X146129500Y-102684600D01*
G75*
G02*
X145892000Y-102447100I0J237500D01*
G01*
G37*
G36*
G01*
X144142000Y-102447100D02*
X144142000Y-101972100D01*
G75*
G02*
X144379500Y-101734600I237500J0D01*
G01*
X144954500Y-101734600D01*
G75*
G02*
X145192000Y-101972100I0J-237500D01*
G01*
X145192000Y-102447100D01*
G75*
G02*
X144954500Y-102684600I-237500J0D01*
G01*
X144379500Y-102684600D01*
G75*
G02*
X144142000Y-102447100I0J237500D01*
G01*
G37*
%TD*%
%TO.C,D1*%
G36*
G01*
X133395200Y-102510600D02*
X133395200Y-102035600D01*
G75*
G02*
X133632700Y-101798100I237500J0D01*
G01*
X134207700Y-101798100D01*
G75*
G02*
X134445200Y-102035600I0J-237500D01*
G01*
X134445200Y-102510600D01*
G75*
G02*
X134207700Y-102748100I-237500J0D01*
G01*
X133632700Y-102748100D01*
G75*
G02*
X133395200Y-102510600I0J237500D01*
G01*
G37*
G36*
G01*
X131645200Y-102510600D02*
X131645200Y-102035600D01*
G75*
G02*
X131882700Y-101798100I237500J0D01*
G01*
X132457700Y-101798100D01*
G75*
G02*
X132695200Y-102035600I0J-237500D01*
G01*
X132695200Y-102510600D01*
G75*
G02*
X132457700Y-102748100I-237500J0D01*
G01*
X131882700Y-102748100D01*
G75*
G02*
X131645200Y-102510600I0J237500D01*
G01*
G37*
%TD*%
M02*
