%TF.GenerationSoftware,KiCad,Pcbnew,(5.1.10-1-10_14)*%
%TF.CreationDate,2021-06-08T22:52:33-04:00*%
%TF.ProjectId,TR109-lightboard,54523130-392d-46c6-9967-6874626f6172,rev?*%
%TF.SameCoordinates,Original*%
%TF.FileFunction,Legend,Top*%
%TF.FilePolarity,Positive*%
%FSLAX46Y46*%
G04 Gerber Fmt 4.6, Leading zero omitted, Abs format (unit mm)*
G04 Created by KiCad (PCBNEW (5.1.10-1-10_14)) date 2021-06-08 22:52:33*
%MOMM*%
%LPD*%
G01*
G04 APERTURE LIST*
%ADD10C,0.120000*%
%ADD11C,0.150000*%
G04 APERTURE END LIST*
D10*
%TO.C,J1*%
X144336704Y-96373500D02*
X144336704Y-95313500D01*
X145396704Y-96373500D02*
X144336704Y-96373500D01*
X146396704Y-96373500D02*
X146396704Y-94253500D01*
X146396704Y-94253500D02*
X154456704Y-94253500D01*
X146396704Y-96373500D02*
X154456704Y-96373500D01*
X154456704Y-96373500D02*
X154456704Y-94253500D01*
%TO.C,R4*%
X165414724Y-105822500D02*
X164905276Y-105822500D01*
X165414724Y-104777500D02*
X164905276Y-104777500D01*
%TO.C,R3*%
X153743576Y-101725200D02*
X154253024Y-101725200D01*
X153743576Y-102770200D02*
X154253024Y-102770200D01*
%TO.C,R2*%
X141134376Y-101687100D02*
X141643824Y-101687100D01*
X141134376Y-102732100D02*
X141643824Y-102732100D01*
%TO.C,R1*%
X128398176Y-101750600D02*
X128907624Y-101750600D01*
X128398176Y-102795600D02*
X128907624Y-102795600D01*
%TO.C,D6*%
X169062500Y-103452600D02*
X171522500Y-103452600D01*
X171522500Y-103452600D02*
X171522500Y-101982600D01*
X171522500Y-101982600D02*
X169062500Y-101982600D01*
%TO.C,D5*%
X169062500Y-99756900D02*
X171522500Y-99756900D01*
X171522500Y-99756900D02*
X171522500Y-98286900D01*
X171522500Y-98286900D02*
X169062500Y-98286900D01*
%TO.C,D4*%
X169062500Y-96048500D02*
X171522500Y-96048500D01*
X171522500Y-96048500D02*
X171522500Y-94578500D01*
X171522500Y-94578500D02*
X169062500Y-94578500D01*
%TO.C,D3*%
X158838800Y-101512700D02*
X156378800Y-101512700D01*
X156378800Y-101512700D02*
X156378800Y-102982700D01*
X156378800Y-102982700D02*
X158838800Y-102982700D01*
%TO.C,D2*%
X146342000Y-101474600D02*
X143882000Y-101474600D01*
X143882000Y-101474600D02*
X143882000Y-102944600D01*
X143882000Y-102944600D02*
X146342000Y-102944600D01*
%TO.C,D1*%
X133845200Y-101538100D02*
X131385200Y-101538100D01*
X131385200Y-101538100D02*
X131385200Y-103008100D01*
X131385200Y-103008100D02*
X133845200Y-103008100D01*
%TO.C,J1*%
D11*
X142789084Y-95646833D02*
X143503370Y-95646833D01*
X143646227Y-95694452D01*
X143741465Y-95789690D01*
X143789084Y-95932547D01*
X143789084Y-96027785D01*
X143789084Y-94646833D02*
X143789084Y-95218261D01*
X143789084Y-94932547D02*
X142789084Y-94932547D01*
X142931942Y-95027785D01*
X143027180Y-95123023D01*
X143074799Y-95218261D01*
%TO.C,R4*%
X164993333Y-107182380D02*
X164660000Y-106706190D01*
X164421904Y-107182380D02*
X164421904Y-106182380D01*
X164802857Y-106182380D01*
X164898095Y-106230000D01*
X164945714Y-106277619D01*
X164993333Y-106372857D01*
X164993333Y-106515714D01*
X164945714Y-106610952D01*
X164898095Y-106658571D01*
X164802857Y-106706190D01*
X164421904Y-106706190D01*
X165850476Y-106515714D02*
X165850476Y-107182380D01*
X165612380Y-106134761D02*
X165374285Y-106849047D01*
X165993333Y-106849047D01*
%TO.C,R3*%
X153831633Y-101270080D02*
X153498300Y-100793890D01*
X153260204Y-101270080D02*
X153260204Y-100270080D01*
X153641157Y-100270080D01*
X153736395Y-100317700D01*
X153784014Y-100365319D01*
X153831633Y-100460557D01*
X153831633Y-100603414D01*
X153784014Y-100698652D01*
X153736395Y-100746271D01*
X153641157Y-100793890D01*
X153260204Y-100793890D01*
X154164966Y-100270080D02*
X154784014Y-100270080D01*
X154450680Y-100651033D01*
X154593538Y-100651033D01*
X154688776Y-100698652D01*
X154736395Y-100746271D01*
X154784014Y-100841509D01*
X154784014Y-101079604D01*
X154736395Y-101174842D01*
X154688776Y-101222461D01*
X154593538Y-101270080D01*
X154307823Y-101270080D01*
X154212585Y-101222461D01*
X154164966Y-101174842D01*
%TO.C,R2*%
X141222433Y-101231980D02*
X140889100Y-100755790D01*
X140651004Y-101231980D02*
X140651004Y-100231980D01*
X141031957Y-100231980D01*
X141127195Y-100279600D01*
X141174814Y-100327219D01*
X141222433Y-100422457D01*
X141222433Y-100565314D01*
X141174814Y-100660552D01*
X141127195Y-100708171D01*
X141031957Y-100755790D01*
X140651004Y-100755790D01*
X141603385Y-100327219D02*
X141651004Y-100279600D01*
X141746242Y-100231980D01*
X141984338Y-100231980D01*
X142079576Y-100279600D01*
X142127195Y-100327219D01*
X142174814Y-100422457D01*
X142174814Y-100517695D01*
X142127195Y-100660552D01*
X141555766Y-101231980D01*
X142174814Y-101231980D01*
%TO.C,R1*%
X128486233Y-101295480D02*
X128152900Y-100819290D01*
X127914804Y-101295480D02*
X127914804Y-100295480D01*
X128295757Y-100295480D01*
X128390995Y-100343100D01*
X128438614Y-100390719D01*
X128486233Y-100485957D01*
X128486233Y-100628814D01*
X128438614Y-100724052D01*
X128390995Y-100771671D01*
X128295757Y-100819290D01*
X127914804Y-100819290D01*
X129438614Y-101295480D02*
X128867185Y-101295480D01*
X129152900Y-101295480D02*
X129152900Y-100295480D01*
X129057661Y-100438338D01*
X128962423Y-100533576D01*
X128867185Y-100581195D01*
%TO.C,D6*%
X166025604Y-103102480D02*
X166025604Y-102102480D01*
X166263700Y-102102480D01*
X166406557Y-102150100D01*
X166501795Y-102245338D01*
X166549414Y-102340576D01*
X166597033Y-102531052D01*
X166597033Y-102673909D01*
X166549414Y-102864385D01*
X166501795Y-102959623D01*
X166406557Y-103054861D01*
X166263700Y-103102480D01*
X166025604Y-103102480D01*
X167454176Y-102102480D02*
X167263700Y-102102480D01*
X167168461Y-102150100D01*
X167120842Y-102197719D01*
X167025604Y-102340576D01*
X166977985Y-102531052D01*
X166977985Y-102912004D01*
X167025604Y-103007242D01*
X167073223Y-103054861D01*
X167168461Y-103102480D01*
X167358938Y-103102480D01*
X167454176Y-103054861D01*
X167501795Y-103007242D01*
X167549414Y-102912004D01*
X167549414Y-102673909D01*
X167501795Y-102578671D01*
X167454176Y-102531052D01*
X167358938Y-102483433D01*
X167168461Y-102483433D01*
X167073223Y-102531052D01*
X167025604Y-102578671D01*
X166977985Y-102673909D01*
%TO.C,D5*%
X166025604Y-99406780D02*
X166025604Y-98406780D01*
X166263700Y-98406780D01*
X166406557Y-98454400D01*
X166501795Y-98549638D01*
X166549414Y-98644876D01*
X166597033Y-98835352D01*
X166597033Y-98978209D01*
X166549414Y-99168685D01*
X166501795Y-99263923D01*
X166406557Y-99359161D01*
X166263700Y-99406780D01*
X166025604Y-99406780D01*
X167501795Y-98406780D02*
X167025604Y-98406780D01*
X166977985Y-98882971D01*
X167025604Y-98835352D01*
X167120842Y-98787733D01*
X167358938Y-98787733D01*
X167454176Y-98835352D01*
X167501795Y-98882971D01*
X167549414Y-98978209D01*
X167549414Y-99216304D01*
X167501795Y-99311542D01*
X167454176Y-99359161D01*
X167358938Y-99406780D01*
X167120842Y-99406780D01*
X167025604Y-99359161D01*
X166977985Y-99311542D01*
%TO.C,D4*%
X165962104Y-95698380D02*
X165962104Y-94698380D01*
X166200200Y-94698380D01*
X166343057Y-94746000D01*
X166438295Y-94841238D01*
X166485914Y-94936476D01*
X166533533Y-95126952D01*
X166533533Y-95269809D01*
X166485914Y-95460285D01*
X166438295Y-95555523D01*
X166343057Y-95650761D01*
X166200200Y-95698380D01*
X165962104Y-95698380D01*
X167390676Y-95031714D02*
X167390676Y-95698380D01*
X167152580Y-94650761D02*
X166914485Y-95365047D01*
X167533533Y-95365047D01*
%TO.C,D3*%
X157300704Y-101270080D02*
X157300704Y-100270080D01*
X157538800Y-100270080D01*
X157681657Y-100317700D01*
X157776895Y-100412938D01*
X157824514Y-100508176D01*
X157872133Y-100698652D01*
X157872133Y-100841509D01*
X157824514Y-101031985D01*
X157776895Y-101127223D01*
X157681657Y-101222461D01*
X157538800Y-101270080D01*
X157300704Y-101270080D01*
X158205466Y-100270080D02*
X158824514Y-100270080D01*
X158491180Y-100651033D01*
X158634038Y-100651033D01*
X158729276Y-100698652D01*
X158776895Y-100746271D01*
X158824514Y-100841509D01*
X158824514Y-101079604D01*
X158776895Y-101174842D01*
X158729276Y-101222461D01*
X158634038Y-101270080D01*
X158348323Y-101270080D01*
X158253085Y-101222461D01*
X158205466Y-101174842D01*
%TO.C,D2*%
X144803904Y-101231980D02*
X144803904Y-100231980D01*
X145042000Y-100231980D01*
X145184857Y-100279600D01*
X145280095Y-100374838D01*
X145327714Y-100470076D01*
X145375333Y-100660552D01*
X145375333Y-100803409D01*
X145327714Y-100993885D01*
X145280095Y-101089123D01*
X145184857Y-101184361D01*
X145042000Y-101231980D01*
X144803904Y-101231980D01*
X145756285Y-100327219D02*
X145803904Y-100279600D01*
X145899142Y-100231980D01*
X146137238Y-100231980D01*
X146232476Y-100279600D01*
X146280095Y-100327219D01*
X146327714Y-100422457D01*
X146327714Y-100517695D01*
X146280095Y-100660552D01*
X145708666Y-101231980D01*
X146327714Y-101231980D01*
%TO.C,D1*%
X132307104Y-101295480D02*
X132307104Y-100295480D01*
X132545200Y-100295480D01*
X132688057Y-100343100D01*
X132783295Y-100438338D01*
X132830914Y-100533576D01*
X132878533Y-100724052D01*
X132878533Y-100866909D01*
X132830914Y-101057385D01*
X132783295Y-101152623D01*
X132688057Y-101247861D01*
X132545200Y-101295480D01*
X132307104Y-101295480D01*
X133830914Y-101295480D02*
X133259485Y-101295480D01*
X133545200Y-101295480D02*
X133545200Y-100295480D01*
X133449961Y-100438338D01*
X133354723Y-100533576D01*
X133259485Y-100581195D01*
%TD*%
M02*
