%TF.GenerationSoftware,KiCad,Pcbnew,(5.1.10-1-10_14)*%
%TF.CreationDate,2021-06-08T22:52:33-04:00*%
%TF.ProjectId,TR109-lightboard,54523130-392d-46c6-9967-6874626f6172,rev?*%
%TF.SameCoordinates,Original*%
%TF.FileFunction,Copper,L1,Top*%
%TF.FilePolarity,Positive*%
%FSLAX46Y46*%
G04 Gerber Fmt 4.6, Leading zero omitted, Abs format (unit mm)*
G04 Created by KiCad (PCBNEW (5.1.10-1-10_14)) date 2021-06-08 22:52:33*
%MOMM*%
%LPD*%
G01*
G04 APERTURE LIST*
%TA.AperFunction,ComponentPad*%
%ADD10O,1.350000X1.350000*%
%TD*%
%TA.AperFunction,ComponentPad*%
%ADD11R,1.350000X1.350000*%
%TD*%
%TA.AperFunction,Conductor*%
%ADD12C,0.127000*%
%TD*%
%TA.AperFunction,Conductor*%
%ADD13C,0.254000*%
%TD*%
%TA.AperFunction,Conductor*%
%ADD14C,0.100000*%
%TD*%
G04 APERTURE END LIST*
D10*
%TO.P,J1,5*%
%TO.N,L1*%
X153396704Y-95313500D03*
%TO.P,J1,4*%
%TO.N,L2*%
X151396704Y-95313500D03*
%TO.P,J1,3*%
%TO.N,L3*%
X149396704Y-95313500D03*
%TO.P,J1,2*%
%TO.N,LON*%
X147396704Y-95313500D03*
D11*
%TO.P,J1,1*%
%TO.N,GND*%
X145396704Y-95313500D03*
%TD*%
%TO.P,R4,2*%
%TO.N,GND*%
%TA.AperFunction,SMDPad,CuDef*%
G36*
G01*
X164735000Y-105062500D02*
X164735000Y-105537500D01*
G75*
G02*
X164497500Y-105775000I-237500J0D01*
G01*
X163997500Y-105775000D01*
G75*
G02*
X163760000Y-105537500I0J237500D01*
G01*
X163760000Y-105062500D01*
G75*
G02*
X163997500Y-104825000I237500J0D01*
G01*
X164497500Y-104825000D01*
G75*
G02*
X164735000Y-105062500I0J-237500D01*
G01*
G37*
%TD.AperFunction*%
%TO.P,R4,1*%
%TO.N,Net-(D4-Pad1)*%
%TA.AperFunction,SMDPad,CuDef*%
G36*
G01*
X166560000Y-105062500D02*
X166560000Y-105537500D01*
G75*
G02*
X166322500Y-105775000I-237500J0D01*
G01*
X165822500Y-105775000D01*
G75*
G02*
X165585000Y-105537500I0J237500D01*
G01*
X165585000Y-105062500D01*
G75*
G02*
X165822500Y-104825000I237500J0D01*
G01*
X166322500Y-104825000D01*
G75*
G02*
X166560000Y-105062500I0J-237500D01*
G01*
G37*
%TD.AperFunction*%
%TD*%
%TO.P,R3,2*%
%TO.N,Net-(D3-Pad1)*%
%TA.AperFunction,SMDPad,CuDef*%
G36*
G01*
X154423300Y-102485200D02*
X154423300Y-102010200D01*
G75*
G02*
X154660800Y-101772700I237500J0D01*
G01*
X155160800Y-101772700D01*
G75*
G02*
X155398300Y-102010200I0J-237500D01*
G01*
X155398300Y-102485200D01*
G75*
G02*
X155160800Y-102722700I-237500J0D01*
G01*
X154660800Y-102722700D01*
G75*
G02*
X154423300Y-102485200I0J237500D01*
G01*
G37*
%TD.AperFunction*%
%TO.P,R3,1*%
%TO.N,GND*%
%TA.AperFunction,SMDPad,CuDef*%
G36*
G01*
X152598300Y-102485200D02*
X152598300Y-102010200D01*
G75*
G02*
X152835800Y-101772700I237500J0D01*
G01*
X153335800Y-101772700D01*
G75*
G02*
X153573300Y-102010200I0J-237500D01*
G01*
X153573300Y-102485200D01*
G75*
G02*
X153335800Y-102722700I-237500J0D01*
G01*
X152835800Y-102722700D01*
G75*
G02*
X152598300Y-102485200I0J237500D01*
G01*
G37*
%TD.AperFunction*%
%TD*%
%TO.P,R2,2*%
%TO.N,Net-(D2-Pad1)*%
%TA.AperFunction,SMDPad,CuDef*%
G36*
G01*
X141814100Y-102447100D02*
X141814100Y-101972100D01*
G75*
G02*
X142051600Y-101734600I237500J0D01*
G01*
X142551600Y-101734600D01*
G75*
G02*
X142789100Y-101972100I0J-237500D01*
G01*
X142789100Y-102447100D01*
G75*
G02*
X142551600Y-102684600I-237500J0D01*
G01*
X142051600Y-102684600D01*
G75*
G02*
X141814100Y-102447100I0J237500D01*
G01*
G37*
%TD.AperFunction*%
%TO.P,R2,1*%
%TO.N,GND*%
%TA.AperFunction,SMDPad,CuDef*%
G36*
G01*
X139989100Y-102447100D02*
X139989100Y-101972100D01*
G75*
G02*
X140226600Y-101734600I237500J0D01*
G01*
X140726600Y-101734600D01*
G75*
G02*
X140964100Y-101972100I0J-237500D01*
G01*
X140964100Y-102447100D01*
G75*
G02*
X140726600Y-102684600I-237500J0D01*
G01*
X140226600Y-102684600D01*
G75*
G02*
X139989100Y-102447100I0J237500D01*
G01*
G37*
%TD.AperFunction*%
%TD*%
%TO.P,R1,2*%
%TO.N,Net-(D1-Pad1)*%
%TA.AperFunction,SMDPad,CuDef*%
G36*
G01*
X129077900Y-102510600D02*
X129077900Y-102035600D01*
G75*
G02*
X129315400Y-101798100I237500J0D01*
G01*
X129815400Y-101798100D01*
G75*
G02*
X130052900Y-102035600I0J-237500D01*
G01*
X130052900Y-102510600D01*
G75*
G02*
X129815400Y-102748100I-237500J0D01*
G01*
X129315400Y-102748100D01*
G75*
G02*
X129077900Y-102510600I0J237500D01*
G01*
G37*
%TD.AperFunction*%
%TO.P,R1,1*%
%TO.N,GND*%
%TA.AperFunction,SMDPad,CuDef*%
G36*
G01*
X127252900Y-102510600D02*
X127252900Y-102035600D01*
G75*
G02*
X127490400Y-101798100I237500J0D01*
G01*
X127990400Y-101798100D01*
G75*
G02*
X128227900Y-102035600I0J-237500D01*
G01*
X128227900Y-102510600D01*
G75*
G02*
X127990400Y-102748100I-237500J0D01*
G01*
X127490400Y-102748100D01*
G75*
G02*
X127252900Y-102510600I0J237500D01*
G01*
G37*
%TD.AperFunction*%
%TD*%
%TO.P,D6,2*%
%TO.N,L3*%
%TA.AperFunction,SMDPad,CuDef*%
G36*
G01*
X169512500Y-102480100D02*
X169512500Y-102955100D01*
G75*
G02*
X169275000Y-103192600I-237500J0D01*
G01*
X168700000Y-103192600D01*
G75*
G02*
X168462500Y-102955100I0J237500D01*
G01*
X168462500Y-102480100D01*
G75*
G02*
X168700000Y-102242600I237500J0D01*
G01*
X169275000Y-102242600D01*
G75*
G02*
X169512500Y-102480100I0J-237500D01*
G01*
G37*
%TD.AperFunction*%
%TO.P,D6,1*%
%TO.N,Net-(D4-Pad1)*%
%TA.AperFunction,SMDPad,CuDef*%
G36*
G01*
X171262500Y-102480100D02*
X171262500Y-102955100D01*
G75*
G02*
X171025000Y-103192600I-237500J0D01*
G01*
X170450000Y-103192600D01*
G75*
G02*
X170212500Y-102955100I0J237500D01*
G01*
X170212500Y-102480100D01*
G75*
G02*
X170450000Y-102242600I237500J0D01*
G01*
X171025000Y-102242600D01*
G75*
G02*
X171262500Y-102480100I0J-237500D01*
G01*
G37*
%TD.AperFunction*%
%TD*%
%TO.P,D5,2*%
%TO.N,L2*%
%TA.AperFunction,SMDPad,CuDef*%
G36*
G01*
X169512500Y-98784400D02*
X169512500Y-99259400D01*
G75*
G02*
X169275000Y-99496900I-237500J0D01*
G01*
X168700000Y-99496900D01*
G75*
G02*
X168462500Y-99259400I0J237500D01*
G01*
X168462500Y-98784400D01*
G75*
G02*
X168700000Y-98546900I237500J0D01*
G01*
X169275000Y-98546900D01*
G75*
G02*
X169512500Y-98784400I0J-237500D01*
G01*
G37*
%TD.AperFunction*%
%TO.P,D5,1*%
%TO.N,Net-(D4-Pad1)*%
%TA.AperFunction,SMDPad,CuDef*%
G36*
G01*
X171262500Y-98784400D02*
X171262500Y-99259400D01*
G75*
G02*
X171025000Y-99496900I-237500J0D01*
G01*
X170450000Y-99496900D01*
G75*
G02*
X170212500Y-99259400I0J237500D01*
G01*
X170212500Y-98784400D01*
G75*
G02*
X170450000Y-98546900I237500J0D01*
G01*
X171025000Y-98546900D01*
G75*
G02*
X171262500Y-98784400I0J-237500D01*
G01*
G37*
%TD.AperFunction*%
%TD*%
%TO.P,D4,2*%
%TO.N,L1*%
%TA.AperFunction,SMDPad,CuDef*%
G36*
G01*
X169512500Y-95076000D02*
X169512500Y-95551000D01*
G75*
G02*
X169275000Y-95788500I-237500J0D01*
G01*
X168700000Y-95788500D01*
G75*
G02*
X168462500Y-95551000I0J237500D01*
G01*
X168462500Y-95076000D01*
G75*
G02*
X168700000Y-94838500I237500J0D01*
G01*
X169275000Y-94838500D01*
G75*
G02*
X169512500Y-95076000I0J-237500D01*
G01*
G37*
%TD.AperFunction*%
%TO.P,D4,1*%
%TO.N,Net-(D4-Pad1)*%
%TA.AperFunction,SMDPad,CuDef*%
G36*
G01*
X171262500Y-95076000D02*
X171262500Y-95551000D01*
G75*
G02*
X171025000Y-95788500I-237500J0D01*
G01*
X170450000Y-95788500D01*
G75*
G02*
X170212500Y-95551000I0J237500D01*
G01*
X170212500Y-95076000D01*
G75*
G02*
X170450000Y-94838500I237500J0D01*
G01*
X171025000Y-94838500D01*
G75*
G02*
X171262500Y-95076000I0J-237500D01*
G01*
G37*
%TD.AperFunction*%
%TD*%
%TO.P,D3,2*%
%TO.N,LON*%
%TA.AperFunction,SMDPad,CuDef*%
G36*
G01*
X158388800Y-102485200D02*
X158388800Y-102010200D01*
G75*
G02*
X158626300Y-101772700I237500J0D01*
G01*
X159201300Y-101772700D01*
G75*
G02*
X159438800Y-102010200I0J-237500D01*
G01*
X159438800Y-102485200D01*
G75*
G02*
X159201300Y-102722700I-237500J0D01*
G01*
X158626300Y-102722700D01*
G75*
G02*
X158388800Y-102485200I0J237500D01*
G01*
G37*
%TD.AperFunction*%
%TO.P,D3,1*%
%TO.N,Net-(D3-Pad1)*%
%TA.AperFunction,SMDPad,CuDef*%
G36*
G01*
X156638800Y-102485200D02*
X156638800Y-102010200D01*
G75*
G02*
X156876300Y-101772700I237500J0D01*
G01*
X157451300Y-101772700D01*
G75*
G02*
X157688800Y-102010200I0J-237500D01*
G01*
X157688800Y-102485200D01*
G75*
G02*
X157451300Y-102722700I-237500J0D01*
G01*
X156876300Y-102722700D01*
G75*
G02*
X156638800Y-102485200I0J237500D01*
G01*
G37*
%TD.AperFunction*%
%TD*%
%TO.P,D2,2*%
%TO.N,LON*%
%TA.AperFunction,SMDPad,CuDef*%
G36*
G01*
X145892000Y-102447100D02*
X145892000Y-101972100D01*
G75*
G02*
X146129500Y-101734600I237500J0D01*
G01*
X146704500Y-101734600D01*
G75*
G02*
X146942000Y-101972100I0J-237500D01*
G01*
X146942000Y-102447100D01*
G75*
G02*
X146704500Y-102684600I-237500J0D01*
G01*
X146129500Y-102684600D01*
G75*
G02*
X145892000Y-102447100I0J237500D01*
G01*
G37*
%TD.AperFunction*%
%TO.P,D2,1*%
%TO.N,Net-(D2-Pad1)*%
%TA.AperFunction,SMDPad,CuDef*%
G36*
G01*
X144142000Y-102447100D02*
X144142000Y-101972100D01*
G75*
G02*
X144379500Y-101734600I237500J0D01*
G01*
X144954500Y-101734600D01*
G75*
G02*
X145192000Y-101972100I0J-237500D01*
G01*
X145192000Y-102447100D01*
G75*
G02*
X144954500Y-102684600I-237500J0D01*
G01*
X144379500Y-102684600D01*
G75*
G02*
X144142000Y-102447100I0J237500D01*
G01*
G37*
%TD.AperFunction*%
%TD*%
%TO.P,D1,2*%
%TO.N,LON*%
%TA.AperFunction,SMDPad,CuDef*%
G36*
G01*
X133395200Y-102510600D02*
X133395200Y-102035600D01*
G75*
G02*
X133632700Y-101798100I237500J0D01*
G01*
X134207700Y-101798100D01*
G75*
G02*
X134445200Y-102035600I0J-237500D01*
G01*
X134445200Y-102510600D01*
G75*
G02*
X134207700Y-102748100I-237500J0D01*
G01*
X133632700Y-102748100D01*
G75*
G02*
X133395200Y-102510600I0J237500D01*
G01*
G37*
%TD.AperFunction*%
%TO.P,D1,1*%
%TO.N,Net-(D1-Pad1)*%
%TA.AperFunction,SMDPad,CuDef*%
G36*
G01*
X131645200Y-102510600D02*
X131645200Y-102035600D01*
G75*
G02*
X131882700Y-101798100I237500J0D01*
G01*
X132457700Y-101798100D01*
G75*
G02*
X132695200Y-102035600I0J-237500D01*
G01*
X132695200Y-102510600D01*
G75*
G02*
X132457700Y-102748100I-237500J0D01*
G01*
X131882700Y-102748100D01*
G75*
G02*
X131645200Y-102510600I0J237500D01*
G01*
G37*
%TD.AperFunction*%
%TD*%
D12*
%TO.N,LON*%
X148412000Y-100000000D02*
X156666100Y-100000000D01*
X156666100Y-100000000D02*
X158913800Y-102247700D01*
X146417000Y-101995000D02*
X148412000Y-100000000D01*
X146417000Y-102209600D02*
X146417000Y-101995000D01*
X144207400Y-100000000D02*
X146417000Y-102209600D01*
X135623100Y-100000000D02*
X144207400Y-100000000D01*
X133920200Y-101702900D02*
X135623100Y-100000000D01*
X133920200Y-102273100D02*
X133920200Y-101702900D01*
X147396704Y-95313500D02*
X147396704Y-99396704D01*
X146417000Y-100376408D02*
X146417000Y-102209600D01*
X147396704Y-99396704D02*
X146417000Y-100376408D01*
%TO.N,Net-(D1-Pad1)*%
X132170200Y-102273100D02*
X129565400Y-102273100D01*
%TO.N,Net-(D2-Pad1)*%
X144667000Y-102209600D02*
X142301600Y-102209600D01*
%TO.N,Net-(D3-Pad1)*%
X157163800Y-102247700D02*
X154910800Y-102247700D01*
%TO.N,L1*%
X153396704Y-95313500D02*
X169051000Y-95313500D01*
%TO.N,Net-(D4-Pad1)*%
X170737500Y-95313500D02*
X170737500Y-99021900D01*
X170737500Y-99021900D02*
X170737500Y-102717600D01*
X166072500Y-105300000D02*
X169600000Y-105300000D01*
X170737500Y-104162500D02*
X170737500Y-102717600D01*
X169600000Y-105300000D02*
X170737500Y-104162500D01*
%TO.N,L2*%
X151396704Y-95313500D02*
X152603204Y-96520000D01*
X152603204Y-96520000D02*
X168046400Y-96520000D01*
X168987500Y-97461100D02*
X168987500Y-99021900D01*
X168046400Y-96520000D02*
X168987500Y-97461100D01*
%TO.N,L3*%
X167741600Y-98501200D02*
X167741600Y-101471700D01*
X166865300Y-97624900D02*
X167741600Y-98501200D01*
X151708104Y-97624900D02*
X166865300Y-97624900D01*
X167741600Y-101471700D02*
X168987500Y-102717600D01*
X149396704Y-95313500D02*
X151708104Y-97624900D01*
%TD*%
D13*
%TO.N,GND*%
X126548504Y-93159754D02*
X126241853Y-93286772D01*
X125965875Y-93471175D01*
X125731175Y-93705875D01*
X125546772Y-93981853D01*
X125419754Y-94288504D01*
X125355000Y-94614042D01*
X125355000Y-94945958D01*
X125419754Y-95271496D01*
X125546772Y-95578147D01*
X125731175Y-95854125D01*
X125965875Y-96088825D01*
X126241853Y-96273228D01*
X126548504Y-96400246D01*
X126874042Y-96465000D01*
X127205958Y-96465000D01*
X127531496Y-96400246D01*
X127838147Y-96273228D01*
X128114125Y-96088825D01*
X128214450Y-95988500D01*
X144083632Y-95988500D01*
X144095892Y-96112982D01*
X144132202Y-96232680D01*
X144191167Y-96342994D01*
X144270519Y-96439685D01*
X144367210Y-96519037D01*
X144477524Y-96578002D01*
X144597222Y-96614312D01*
X144721704Y-96626572D01*
X145110954Y-96623500D01*
X145269704Y-96464750D01*
X145269704Y-95440500D01*
X144245454Y-95440500D01*
X144086704Y-95599250D01*
X144083632Y-95988500D01*
X128214450Y-95988500D01*
X128348825Y-95854125D01*
X128533228Y-95578147D01*
X128660246Y-95271496D01*
X128725000Y-94945958D01*
X128725000Y-94638500D01*
X144083632Y-94638500D01*
X144086704Y-95027750D01*
X144245454Y-95186500D01*
X145269704Y-95186500D01*
X145269704Y-94162250D01*
X145110954Y-94003500D01*
X144721704Y-94000428D01*
X144597222Y-94012688D01*
X144477524Y-94048998D01*
X144367210Y-94107963D01*
X144270519Y-94187315D01*
X144191167Y-94284006D01*
X144132202Y-94394320D01*
X144095892Y-94514018D01*
X144083632Y-94638500D01*
X128725000Y-94638500D01*
X128725000Y-94614042D01*
X128660246Y-94288504D01*
X128533228Y-93981853D01*
X128348825Y-93705875D01*
X128114125Y-93471175D01*
X127838147Y-93286772D01*
X127531496Y-93159754D01*
X127310712Y-93115837D01*
X172523981Y-93115837D01*
X172703687Y-93144060D01*
X172860682Y-93201591D01*
X173003506Y-93288515D01*
X173126725Y-93401526D01*
X173225653Y-93536325D01*
X173296511Y-93687765D01*
X173341447Y-93869689D01*
X173346363Y-93918089D01*
X173346362Y-108897771D01*
X173335795Y-109116005D01*
X173296149Y-109275345D01*
X173226306Y-109423958D01*
X173128930Y-109556170D01*
X173007726Y-109666952D01*
X172867314Y-109752082D01*
X172713039Y-109808319D01*
X172531880Y-109836454D01*
X170146496Y-109836454D01*
X170338825Y-109644125D01*
X170523228Y-109368147D01*
X170650246Y-109061496D01*
X170715000Y-108735958D01*
X170715000Y-108404042D01*
X170650246Y-108078504D01*
X170523228Y-107771853D01*
X170338825Y-107495875D01*
X170104125Y-107261175D01*
X169828147Y-107076772D01*
X169521496Y-106949754D01*
X169195958Y-106885000D01*
X168864042Y-106885000D01*
X168538504Y-106949754D01*
X168231853Y-107076772D01*
X167955875Y-107261175D01*
X167721175Y-107495875D01*
X167536772Y-107771853D01*
X167409754Y-108078504D01*
X167345000Y-108404042D01*
X167345000Y-108735958D01*
X167409754Y-109061496D01*
X167536772Y-109368147D01*
X167721175Y-109644125D01*
X167913504Y-109836454D01*
X125947350Y-109836454D01*
X125768206Y-109805893D01*
X125607590Y-109744620D01*
X125461931Y-109653315D01*
X125336783Y-109535459D01*
X125236905Y-109395534D01*
X125166111Y-109238881D01*
X125121406Y-109047054D01*
X125120101Y-109034209D01*
X125120101Y-105775000D01*
X163121928Y-105775000D01*
X163134188Y-105899482D01*
X163170498Y-106019180D01*
X163229463Y-106129494D01*
X163308815Y-106226185D01*
X163405506Y-106305537D01*
X163515820Y-106364502D01*
X163635518Y-106400812D01*
X163760000Y-106413072D01*
X163961750Y-106410000D01*
X164120500Y-106251250D01*
X164120500Y-105427000D01*
X163283750Y-105427000D01*
X163125000Y-105585750D01*
X163121928Y-105775000D01*
X125120101Y-105775000D01*
X125120101Y-104825000D01*
X163121928Y-104825000D01*
X163125000Y-105014250D01*
X163283750Y-105173000D01*
X164120500Y-105173000D01*
X164120500Y-104348750D01*
X163961750Y-104190000D01*
X163760000Y-104186928D01*
X163635518Y-104199188D01*
X163515820Y-104235498D01*
X163405506Y-104294463D01*
X163308815Y-104373815D01*
X163229463Y-104470506D01*
X163170498Y-104580820D01*
X163134188Y-104700518D01*
X163121928Y-104825000D01*
X125120101Y-104825000D01*
X125120101Y-102748100D01*
X126614828Y-102748100D01*
X126627088Y-102872582D01*
X126663398Y-102992280D01*
X126722363Y-103102594D01*
X126801715Y-103199285D01*
X126898406Y-103278637D01*
X127008720Y-103337602D01*
X127128418Y-103373912D01*
X127252900Y-103386172D01*
X127454650Y-103383100D01*
X127613400Y-103224350D01*
X127613400Y-102400100D01*
X126776650Y-102400100D01*
X126617900Y-102558850D01*
X126614828Y-102748100D01*
X125120101Y-102748100D01*
X125120101Y-101798100D01*
X126614828Y-101798100D01*
X126617900Y-101987350D01*
X126776650Y-102146100D01*
X127613400Y-102146100D01*
X127613400Y-101321850D01*
X127867400Y-101321850D01*
X127867400Y-102146100D01*
X127887400Y-102146100D01*
X127887400Y-102400100D01*
X127867400Y-102400100D01*
X127867400Y-103224350D01*
X128026150Y-103383100D01*
X128227900Y-103386172D01*
X128352382Y-103373912D01*
X128472080Y-103337602D01*
X128582394Y-103278637D01*
X128679085Y-103199285D01*
X128720117Y-103149288D01*
X128828958Y-103238612D01*
X128980333Y-103319523D01*
X129144584Y-103369348D01*
X129315400Y-103386172D01*
X129815400Y-103386172D01*
X129986216Y-103369348D01*
X130150467Y-103319523D01*
X130301842Y-103238612D01*
X130434523Y-103129723D01*
X130543412Y-102997042D01*
X130557011Y-102971600D01*
X131141089Y-102971600D01*
X131154688Y-102997042D01*
X131263577Y-103129723D01*
X131396258Y-103238612D01*
X131547633Y-103319523D01*
X131711884Y-103369348D01*
X131882700Y-103386172D01*
X132457700Y-103386172D01*
X132628516Y-103369348D01*
X132792767Y-103319523D01*
X132944142Y-103238612D01*
X133045200Y-103155675D01*
X133146258Y-103238612D01*
X133297633Y-103319523D01*
X133461884Y-103369348D01*
X133632700Y-103386172D01*
X134207700Y-103386172D01*
X134378516Y-103369348D01*
X134542767Y-103319523D01*
X134694142Y-103238612D01*
X134826823Y-103129723D01*
X134935712Y-102997042D01*
X135016623Y-102845667D01*
X135065482Y-102684600D01*
X139351028Y-102684600D01*
X139363288Y-102809082D01*
X139399598Y-102928780D01*
X139458563Y-103039094D01*
X139537915Y-103135785D01*
X139634606Y-103215137D01*
X139744920Y-103274102D01*
X139864618Y-103310412D01*
X139989100Y-103322672D01*
X140190850Y-103319600D01*
X140349600Y-103160850D01*
X140349600Y-102336600D01*
X139512850Y-102336600D01*
X139354100Y-102495350D01*
X139351028Y-102684600D01*
X135065482Y-102684600D01*
X135066448Y-102681416D01*
X135083272Y-102510600D01*
X135083272Y-102035600D01*
X135066448Y-101864784D01*
X135026958Y-101734600D01*
X139351028Y-101734600D01*
X139354100Y-101923850D01*
X139512850Y-102082600D01*
X140349600Y-102082600D01*
X140349600Y-101258350D01*
X140190850Y-101099600D01*
X139989100Y-101096528D01*
X139864618Y-101108788D01*
X139744920Y-101145098D01*
X139634606Y-101204063D01*
X139537915Y-101283415D01*
X139458563Y-101380106D01*
X139399598Y-101490420D01*
X139363288Y-101610118D01*
X139351028Y-101734600D01*
X135026958Y-101734600D01*
X135016623Y-101700533D01*
X134979621Y-101631307D01*
X135912429Y-100698500D01*
X143918073Y-100698500D01*
X144321785Y-101102212D01*
X144208684Y-101113352D01*
X144044433Y-101163177D01*
X143893058Y-101244088D01*
X143760377Y-101352977D01*
X143651488Y-101485658D01*
X143637889Y-101511100D01*
X143293211Y-101511100D01*
X143279612Y-101485658D01*
X143170723Y-101352977D01*
X143038042Y-101244088D01*
X142886667Y-101163177D01*
X142722416Y-101113352D01*
X142551600Y-101096528D01*
X142051600Y-101096528D01*
X141880784Y-101113352D01*
X141716533Y-101163177D01*
X141565158Y-101244088D01*
X141456317Y-101333412D01*
X141415285Y-101283415D01*
X141318594Y-101204063D01*
X141208280Y-101145098D01*
X141088582Y-101108788D01*
X140964100Y-101096528D01*
X140762350Y-101099600D01*
X140603600Y-101258350D01*
X140603600Y-102082600D01*
X140623600Y-102082600D01*
X140623600Y-102336600D01*
X140603600Y-102336600D01*
X140603600Y-103160850D01*
X140762350Y-103319600D01*
X140964100Y-103322672D01*
X141088582Y-103310412D01*
X141208280Y-103274102D01*
X141318594Y-103215137D01*
X141415285Y-103135785D01*
X141456317Y-103085788D01*
X141565158Y-103175112D01*
X141716533Y-103256023D01*
X141880784Y-103305848D01*
X142051600Y-103322672D01*
X142551600Y-103322672D01*
X142722416Y-103305848D01*
X142886667Y-103256023D01*
X143038042Y-103175112D01*
X143170723Y-103066223D01*
X143279612Y-102933542D01*
X143293211Y-102908100D01*
X143637889Y-102908100D01*
X143651488Y-102933542D01*
X143760377Y-103066223D01*
X143893058Y-103175112D01*
X144044433Y-103256023D01*
X144208684Y-103305848D01*
X144379500Y-103322672D01*
X144954500Y-103322672D01*
X145125316Y-103305848D01*
X145289567Y-103256023D01*
X145440942Y-103175112D01*
X145542000Y-103092175D01*
X145643058Y-103175112D01*
X145794433Y-103256023D01*
X145958684Y-103305848D01*
X146129500Y-103322672D01*
X146704500Y-103322672D01*
X146875316Y-103305848D01*
X147039567Y-103256023D01*
X147190942Y-103175112D01*
X147323623Y-103066223D01*
X147432512Y-102933542D01*
X147513423Y-102782167D01*
X147531462Y-102722700D01*
X151960228Y-102722700D01*
X151972488Y-102847182D01*
X152008798Y-102966880D01*
X152067763Y-103077194D01*
X152147115Y-103173885D01*
X152243806Y-103253237D01*
X152354120Y-103312202D01*
X152473818Y-103348512D01*
X152598300Y-103360772D01*
X152800050Y-103357700D01*
X152958800Y-103198950D01*
X152958800Y-102374700D01*
X152122050Y-102374700D01*
X151963300Y-102533450D01*
X151960228Y-102722700D01*
X147531462Y-102722700D01*
X147563248Y-102617916D01*
X147580072Y-102447100D01*
X147580072Y-101972100D01*
X147566413Y-101833415D01*
X147627128Y-101772700D01*
X151960228Y-101772700D01*
X151963300Y-101961950D01*
X152122050Y-102120700D01*
X152958800Y-102120700D01*
X152958800Y-101296450D01*
X152800050Y-101137700D01*
X152598300Y-101134628D01*
X152473818Y-101146888D01*
X152354120Y-101183198D01*
X152243806Y-101242163D01*
X152147115Y-101321515D01*
X152067763Y-101418206D01*
X152008798Y-101528520D01*
X151972488Y-101648218D01*
X151960228Y-101772700D01*
X147627128Y-101772700D01*
X148701329Y-100698500D01*
X156376773Y-100698500D01*
X156818585Y-101140312D01*
X156705484Y-101151452D01*
X156541233Y-101201277D01*
X156389858Y-101282188D01*
X156257177Y-101391077D01*
X156148288Y-101523758D01*
X156134689Y-101549200D01*
X155902411Y-101549200D01*
X155888812Y-101523758D01*
X155779923Y-101391077D01*
X155647242Y-101282188D01*
X155495867Y-101201277D01*
X155331616Y-101151452D01*
X155160800Y-101134628D01*
X154660800Y-101134628D01*
X154489984Y-101151452D01*
X154325733Y-101201277D01*
X154174358Y-101282188D01*
X154065517Y-101371512D01*
X154024485Y-101321515D01*
X153927794Y-101242163D01*
X153817480Y-101183198D01*
X153697782Y-101146888D01*
X153573300Y-101134628D01*
X153371550Y-101137700D01*
X153212800Y-101296450D01*
X153212800Y-102120700D01*
X153232800Y-102120700D01*
X153232800Y-102374700D01*
X153212800Y-102374700D01*
X153212800Y-103198950D01*
X153371550Y-103357700D01*
X153573300Y-103360772D01*
X153697782Y-103348512D01*
X153817480Y-103312202D01*
X153927794Y-103253237D01*
X154024485Y-103173885D01*
X154065517Y-103123888D01*
X154174358Y-103213212D01*
X154325733Y-103294123D01*
X154489984Y-103343948D01*
X154660800Y-103360772D01*
X155160800Y-103360772D01*
X155331616Y-103343948D01*
X155495867Y-103294123D01*
X155647242Y-103213212D01*
X155779923Y-103104323D01*
X155888812Y-102971642D01*
X155902411Y-102946200D01*
X156134689Y-102946200D01*
X156148288Y-102971642D01*
X156257177Y-103104323D01*
X156389858Y-103213212D01*
X156541233Y-103294123D01*
X156705484Y-103343948D01*
X156876300Y-103360772D01*
X157451300Y-103360772D01*
X157622116Y-103343948D01*
X157786367Y-103294123D01*
X157937742Y-103213212D01*
X158038800Y-103130275D01*
X158139858Y-103213212D01*
X158291233Y-103294123D01*
X158455484Y-103343948D01*
X158626300Y-103360772D01*
X159201300Y-103360772D01*
X159372116Y-103343948D01*
X159536367Y-103294123D01*
X159687742Y-103213212D01*
X159820423Y-103104323D01*
X159929312Y-102971642D01*
X160010223Y-102820267D01*
X160060048Y-102656016D01*
X160076872Y-102485200D01*
X160076872Y-102010200D01*
X160060048Y-101839384D01*
X160010223Y-101675133D01*
X159929312Y-101523758D01*
X159820423Y-101391077D01*
X159687742Y-101282188D01*
X159536367Y-101201277D01*
X159372116Y-101151452D01*
X159201300Y-101134628D01*
X158788556Y-101134628D01*
X157184275Y-99530348D01*
X157162403Y-99503697D01*
X157056043Y-99416409D01*
X156934697Y-99351548D01*
X156803030Y-99311607D01*
X156700409Y-99301500D01*
X156700398Y-99301500D01*
X156666100Y-99298122D01*
X156631802Y-99301500D01*
X148446297Y-99301500D01*
X148411999Y-99298122D01*
X148377701Y-99301500D01*
X148377691Y-99301500D01*
X148275070Y-99311607D01*
X148143403Y-99351548D01*
X148143401Y-99351549D01*
X148096599Y-99376565D01*
X148095204Y-99362406D01*
X148095204Y-96422301D01*
X148231781Y-96331044D01*
X148396704Y-96166121D01*
X148561627Y-96331044D01*
X148776186Y-96474407D01*
X149014591Y-96573158D01*
X149267680Y-96623500D01*
X149525728Y-96623500D01*
X149686831Y-96591455D01*
X151189938Y-98094563D01*
X151211801Y-98121203D01*
X151238441Y-98143066D01*
X151238449Y-98143074D01*
X151318160Y-98208491D01*
X151439505Y-98273351D01*
X151439507Y-98273352D01*
X151571174Y-98313293D01*
X151673795Y-98323400D01*
X151673805Y-98323400D01*
X151708103Y-98326778D01*
X151742401Y-98323400D01*
X166575973Y-98323400D01*
X167043100Y-98790528D01*
X167043101Y-101437392D01*
X167039722Y-101471700D01*
X167043101Y-101506008D01*
X167043101Y-101506009D01*
X167053208Y-101608630D01*
X167071397Y-101668591D01*
X167093149Y-101740298D01*
X167158009Y-101861643D01*
X167223426Y-101941353D01*
X167223430Y-101941357D01*
X167245298Y-101968003D01*
X167271944Y-101989871D01*
X167824428Y-102542355D01*
X167824428Y-102955100D01*
X167841252Y-103125916D01*
X167891077Y-103290167D01*
X167971988Y-103441542D01*
X168080877Y-103574223D01*
X168213558Y-103683112D01*
X168364933Y-103764023D01*
X168529184Y-103813848D01*
X168700000Y-103830672D01*
X169275000Y-103830672D01*
X169445816Y-103813848D01*
X169610067Y-103764023D01*
X169761442Y-103683112D01*
X169862500Y-103600175D01*
X169963558Y-103683112D01*
X170039000Y-103723436D01*
X170039000Y-103873172D01*
X169310673Y-104601500D01*
X167064111Y-104601500D01*
X167050512Y-104576058D01*
X166941623Y-104443377D01*
X166808942Y-104334488D01*
X166657567Y-104253577D01*
X166493316Y-104203752D01*
X166322500Y-104186928D01*
X165822500Y-104186928D01*
X165651684Y-104203752D01*
X165487433Y-104253577D01*
X165336058Y-104334488D01*
X165227217Y-104423812D01*
X165186185Y-104373815D01*
X165089494Y-104294463D01*
X164979180Y-104235498D01*
X164859482Y-104199188D01*
X164735000Y-104186928D01*
X164533250Y-104190000D01*
X164374500Y-104348750D01*
X164374500Y-105173000D01*
X164394500Y-105173000D01*
X164394500Y-105427000D01*
X164374500Y-105427000D01*
X164374500Y-106251250D01*
X164533250Y-106410000D01*
X164735000Y-106413072D01*
X164859482Y-106400812D01*
X164979180Y-106364502D01*
X165089494Y-106305537D01*
X165186185Y-106226185D01*
X165227217Y-106176188D01*
X165336058Y-106265512D01*
X165487433Y-106346423D01*
X165651684Y-106396248D01*
X165822500Y-106413072D01*
X166322500Y-106413072D01*
X166493316Y-106396248D01*
X166657567Y-106346423D01*
X166808942Y-106265512D01*
X166941623Y-106156623D01*
X167050512Y-106023942D01*
X167064111Y-105998500D01*
X169565702Y-105998500D01*
X169600000Y-106001878D01*
X169634298Y-105998500D01*
X169634309Y-105998500D01*
X169736930Y-105988393D01*
X169868597Y-105948452D01*
X169989943Y-105883591D01*
X170096303Y-105796303D01*
X170118175Y-105769652D01*
X171207162Y-104680666D01*
X171233802Y-104658803D01*
X171255667Y-104632161D01*
X171255674Y-104632154D01*
X171321091Y-104552444D01*
X171385951Y-104431098D01*
X171385952Y-104431097D01*
X171425893Y-104299430D01*
X171436000Y-104196809D01*
X171436000Y-104196798D01*
X171439378Y-104162500D01*
X171436000Y-104128202D01*
X171436000Y-103723436D01*
X171511442Y-103683112D01*
X171644123Y-103574223D01*
X171753012Y-103441542D01*
X171833923Y-103290167D01*
X171883748Y-103125916D01*
X171900572Y-102955100D01*
X171900572Y-102480100D01*
X171883748Y-102309284D01*
X171833923Y-102145033D01*
X171753012Y-101993658D01*
X171644123Y-101860977D01*
X171511442Y-101752088D01*
X171436000Y-101711764D01*
X171436000Y-100027736D01*
X171511442Y-99987412D01*
X171644123Y-99878523D01*
X171753012Y-99745842D01*
X171833923Y-99594467D01*
X171883748Y-99430216D01*
X171900572Y-99259400D01*
X171900572Y-98784400D01*
X171883748Y-98613584D01*
X171833923Y-98449333D01*
X171753012Y-98297958D01*
X171644123Y-98165277D01*
X171511442Y-98056388D01*
X171436000Y-98016064D01*
X171436000Y-96319336D01*
X171511442Y-96279012D01*
X171644123Y-96170123D01*
X171753012Y-96037442D01*
X171833923Y-95886067D01*
X171883748Y-95721816D01*
X171900572Y-95551000D01*
X171900572Y-95076000D01*
X171883748Y-94905184D01*
X171833923Y-94740933D01*
X171753012Y-94589558D01*
X171644123Y-94456877D01*
X171511442Y-94347988D01*
X171360067Y-94267077D01*
X171195816Y-94217252D01*
X171025000Y-94200428D01*
X170450000Y-94200428D01*
X170279184Y-94217252D01*
X170114933Y-94267077D01*
X169963558Y-94347988D01*
X169862500Y-94430925D01*
X169761442Y-94347988D01*
X169610067Y-94267077D01*
X169445816Y-94217252D01*
X169275000Y-94200428D01*
X168700000Y-94200428D01*
X168529184Y-94217252D01*
X168364933Y-94267077D01*
X168213558Y-94347988D01*
X168080877Y-94456877D01*
X167971988Y-94589558D01*
X167958389Y-94615000D01*
X154505505Y-94615000D01*
X154414248Y-94478423D01*
X154231781Y-94295956D01*
X154017222Y-94152593D01*
X153778817Y-94053842D01*
X153525728Y-94003500D01*
X153267680Y-94003500D01*
X153014591Y-94053842D01*
X152776186Y-94152593D01*
X152561627Y-94295956D01*
X152396704Y-94460879D01*
X152231781Y-94295956D01*
X152017222Y-94152593D01*
X151778817Y-94053842D01*
X151525728Y-94003500D01*
X151267680Y-94003500D01*
X151014591Y-94053842D01*
X150776186Y-94152593D01*
X150561627Y-94295956D01*
X150396704Y-94460879D01*
X150231781Y-94295956D01*
X150017222Y-94152593D01*
X149778817Y-94053842D01*
X149525728Y-94003500D01*
X149267680Y-94003500D01*
X149014591Y-94053842D01*
X148776186Y-94152593D01*
X148561627Y-94295956D01*
X148396704Y-94460879D01*
X148231781Y-94295956D01*
X148017222Y-94152593D01*
X147778817Y-94053842D01*
X147525728Y-94003500D01*
X147267680Y-94003500D01*
X147014591Y-94053842D01*
X146776186Y-94152593D01*
X146594191Y-94274197D01*
X146522889Y-94187315D01*
X146426198Y-94107963D01*
X146315884Y-94048998D01*
X146196186Y-94012688D01*
X146071704Y-94000428D01*
X145682454Y-94003500D01*
X145523704Y-94162250D01*
X145523704Y-95186500D01*
X145543704Y-95186500D01*
X145543704Y-95440500D01*
X145523704Y-95440500D01*
X145523704Y-96464750D01*
X145682454Y-96623500D01*
X146071704Y-96626572D01*
X146196186Y-96614312D01*
X146315884Y-96578002D01*
X146426198Y-96519037D01*
X146522889Y-96439685D01*
X146594191Y-96352803D01*
X146698204Y-96422302D01*
X146698205Y-99107375D01*
X145947344Y-99858237D01*
X145920697Y-99880106D01*
X145898829Y-99906752D01*
X145898826Y-99906755D01*
X145833409Y-99986465D01*
X145826174Y-100000001D01*
X145768548Y-100107812D01*
X145728607Y-100239479D01*
X145718500Y-100342100D01*
X145718500Y-100342110D01*
X145715122Y-100376408D01*
X145718500Y-100410707D01*
X145718500Y-100523272D01*
X144725575Y-99530348D01*
X144703703Y-99503697D01*
X144597343Y-99416409D01*
X144475997Y-99351548D01*
X144344330Y-99311607D01*
X144241709Y-99301500D01*
X144241698Y-99301500D01*
X144207400Y-99298122D01*
X144173102Y-99301500D01*
X135657397Y-99301500D01*
X135623099Y-99298122D01*
X135588801Y-99301500D01*
X135588791Y-99301500D01*
X135486170Y-99311607D01*
X135354503Y-99351548D01*
X135354501Y-99351549D01*
X135233156Y-99416409D01*
X135153445Y-99481826D01*
X135153437Y-99481834D01*
X135126797Y-99503697D01*
X135104934Y-99530337D01*
X133456913Y-101178360D01*
X133297633Y-101226677D01*
X133146258Y-101307588D01*
X133045200Y-101390525D01*
X132944142Y-101307588D01*
X132792767Y-101226677D01*
X132628516Y-101176852D01*
X132457700Y-101160028D01*
X131882700Y-101160028D01*
X131711884Y-101176852D01*
X131547633Y-101226677D01*
X131396258Y-101307588D01*
X131263577Y-101416477D01*
X131154688Y-101549158D01*
X131141089Y-101574600D01*
X130557011Y-101574600D01*
X130543412Y-101549158D01*
X130434523Y-101416477D01*
X130301842Y-101307588D01*
X130150467Y-101226677D01*
X129986216Y-101176852D01*
X129815400Y-101160028D01*
X129315400Y-101160028D01*
X129144584Y-101176852D01*
X128980333Y-101226677D01*
X128828958Y-101307588D01*
X128720117Y-101396912D01*
X128679085Y-101346915D01*
X128582394Y-101267563D01*
X128472080Y-101208598D01*
X128352382Y-101172288D01*
X128227900Y-101160028D01*
X128026150Y-101163100D01*
X127867400Y-101321850D01*
X127613400Y-101321850D01*
X127454650Y-101163100D01*
X127252900Y-101160028D01*
X127128418Y-101172288D01*
X127008720Y-101208598D01*
X126898406Y-101267563D01*
X126801715Y-101346915D01*
X126722363Y-101443606D01*
X126663398Y-101553920D01*
X126627088Y-101673618D01*
X126614828Y-101798100D01*
X125120101Y-101798100D01*
X125120101Y-94019368D01*
X125132785Y-93809729D01*
X125173330Y-93654769D01*
X125243204Y-93510630D01*
X125339739Y-93382814D01*
X125459263Y-93276182D01*
X125597228Y-93194793D01*
X125748369Y-93141754D01*
X125929619Y-93115837D01*
X126769288Y-93115837D01*
X126548504Y-93159754D01*
%TA.AperFunction,Conductor*%
D14*
G36*
X126548504Y-93159754D02*
G01*
X126241853Y-93286772D01*
X125965875Y-93471175D01*
X125731175Y-93705875D01*
X125546772Y-93981853D01*
X125419754Y-94288504D01*
X125355000Y-94614042D01*
X125355000Y-94945958D01*
X125419754Y-95271496D01*
X125546772Y-95578147D01*
X125731175Y-95854125D01*
X125965875Y-96088825D01*
X126241853Y-96273228D01*
X126548504Y-96400246D01*
X126874042Y-96465000D01*
X127205958Y-96465000D01*
X127531496Y-96400246D01*
X127838147Y-96273228D01*
X128114125Y-96088825D01*
X128214450Y-95988500D01*
X144083632Y-95988500D01*
X144095892Y-96112982D01*
X144132202Y-96232680D01*
X144191167Y-96342994D01*
X144270519Y-96439685D01*
X144367210Y-96519037D01*
X144477524Y-96578002D01*
X144597222Y-96614312D01*
X144721704Y-96626572D01*
X145110954Y-96623500D01*
X145269704Y-96464750D01*
X145269704Y-95440500D01*
X144245454Y-95440500D01*
X144086704Y-95599250D01*
X144083632Y-95988500D01*
X128214450Y-95988500D01*
X128348825Y-95854125D01*
X128533228Y-95578147D01*
X128660246Y-95271496D01*
X128725000Y-94945958D01*
X128725000Y-94638500D01*
X144083632Y-94638500D01*
X144086704Y-95027750D01*
X144245454Y-95186500D01*
X145269704Y-95186500D01*
X145269704Y-94162250D01*
X145110954Y-94003500D01*
X144721704Y-94000428D01*
X144597222Y-94012688D01*
X144477524Y-94048998D01*
X144367210Y-94107963D01*
X144270519Y-94187315D01*
X144191167Y-94284006D01*
X144132202Y-94394320D01*
X144095892Y-94514018D01*
X144083632Y-94638500D01*
X128725000Y-94638500D01*
X128725000Y-94614042D01*
X128660246Y-94288504D01*
X128533228Y-93981853D01*
X128348825Y-93705875D01*
X128114125Y-93471175D01*
X127838147Y-93286772D01*
X127531496Y-93159754D01*
X127310712Y-93115837D01*
X172523981Y-93115837D01*
X172703687Y-93144060D01*
X172860682Y-93201591D01*
X173003506Y-93288515D01*
X173126725Y-93401526D01*
X173225653Y-93536325D01*
X173296511Y-93687765D01*
X173341447Y-93869689D01*
X173346363Y-93918089D01*
X173346362Y-108897771D01*
X173335795Y-109116005D01*
X173296149Y-109275345D01*
X173226306Y-109423958D01*
X173128930Y-109556170D01*
X173007726Y-109666952D01*
X172867314Y-109752082D01*
X172713039Y-109808319D01*
X172531880Y-109836454D01*
X170146496Y-109836454D01*
X170338825Y-109644125D01*
X170523228Y-109368147D01*
X170650246Y-109061496D01*
X170715000Y-108735958D01*
X170715000Y-108404042D01*
X170650246Y-108078504D01*
X170523228Y-107771853D01*
X170338825Y-107495875D01*
X170104125Y-107261175D01*
X169828147Y-107076772D01*
X169521496Y-106949754D01*
X169195958Y-106885000D01*
X168864042Y-106885000D01*
X168538504Y-106949754D01*
X168231853Y-107076772D01*
X167955875Y-107261175D01*
X167721175Y-107495875D01*
X167536772Y-107771853D01*
X167409754Y-108078504D01*
X167345000Y-108404042D01*
X167345000Y-108735958D01*
X167409754Y-109061496D01*
X167536772Y-109368147D01*
X167721175Y-109644125D01*
X167913504Y-109836454D01*
X125947350Y-109836454D01*
X125768206Y-109805893D01*
X125607590Y-109744620D01*
X125461931Y-109653315D01*
X125336783Y-109535459D01*
X125236905Y-109395534D01*
X125166111Y-109238881D01*
X125121406Y-109047054D01*
X125120101Y-109034209D01*
X125120101Y-105775000D01*
X163121928Y-105775000D01*
X163134188Y-105899482D01*
X163170498Y-106019180D01*
X163229463Y-106129494D01*
X163308815Y-106226185D01*
X163405506Y-106305537D01*
X163515820Y-106364502D01*
X163635518Y-106400812D01*
X163760000Y-106413072D01*
X163961750Y-106410000D01*
X164120500Y-106251250D01*
X164120500Y-105427000D01*
X163283750Y-105427000D01*
X163125000Y-105585750D01*
X163121928Y-105775000D01*
X125120101Y-105775000D01*
X125120101Y-104825000D01*
X163121928Y-104825000D01*
X163125000Y-105014250D01*
X163283750Y-105173000D01*
X164120500Y-105173000D01*
X164120500Y-104348750D01*
X163961750Y-104190000D01*
X163760000Y-104186928D01*
X163635518Y-104199188D01*
X163515820Y-104235498D01*
X163405506Y-104294463D01*
X163308815Y-104373815D01*
X163229463Y-104470506D01*
X163170498Y-104580820D01*
X163134188Y-104700518D01*
X163121928Y-104825000D01*
X125120101Y-104825000D01*
X125120101Y-102748100D01*
X126614828Y-102748100D01*
X126627088Y-102872582D01*
X126663398Y-102992280D01*
X126722363Y-103102594D01*
X126801715Y-103199285D01*
X126898406Y-103278637D01*
X127008720Y-103337602D01*
X127128418Y-103373912D01*
X127252900Y-103386172D01*
X127454650Y-103383100D01*
X127613400Y-103224350D01*
X127613400Y-102400100D01*
X126776650Y-102400100D01*
X126617900Y-102558850D01*
X126614828Y-102748100D01*
X125120101Y-102748100D01*
X125120101Y-101798100D01*
X126614828Y-101798100D01*
X126617900Y-101987350D01*
X126776650Y-102146100D01*
X127613400Y-102146100D01*
X127613400Y-101321850D01*
X127867400Y-101321850D01*
X127867400Y-102146100D01*
X127887400Y-102146100D01*
X127887400Y-102400100D01*
X127867400Y-102400100D01*
X127867400Y-103224350D01*
X128026150Y-103383100D01*
X128227900Y-103386172D01*
X128352382Y-103373912D01*
X128472080Y-103337602D01*
X128582394Y-103278637D01*
X128679085Y-103199285D01*
X128720117Y-103149288D01*
X128828958Y-103238612D01*
X128980333Y-103319523D01*
X129144584Y-103369348D01*
X129315400Y-103386172D01*
X129815400Y-103386172D01*
X129986216Y-103369348D01*
X130150467Y-103319523D01*
X130301842Y-103238612D01*
X130434523Y-103129723D01*
X130543412Y-102997042D01*
X130557011Y-102971600D01*
X131141089Y-102971600D01*
X131154688Y-102997042D01*
X131263577Y-103129723D01*
X131396258Y-103238612D01*
X131547633Y-103319523D01*
X131711884Y-103369348D01*
X131882700Y-103386172D01*
X132457700Y-103386172D01*
X132628516Y-103369348D01*
X132792767Y-103319523D01*
X132944142Y-103238612D01*
X133045200Y-103155675D01*
X133146258Y-103238612D01*
X133297633Y-103319523D01*
X133461884Y-103369348D01*
X133632700Y-103386172D01*
X134207700Y-103386172D01*
X134378516Y-103369348D01*
X134542767Y-103319523D01*
X134694142Y-103238612D01*
X134826823Y-103129723D01*
X134935712Y-102997042D01*
X135016623Y-102845667D01*
X135065482Y-102684600D01*
X139351028Y-102684600D01*
X139363288Y-102809082D01*
X139399598Y-102928780D01*
X139458563Y-103039094D01*
X139537915Y-103135785D01*
X139634606Y-103215137D01*
X139744920Y-103274102D01*
X139864618Y-103310412D01*
X139989100Y-103322672D01*
X140190850Y-103319600D01*
X140349600Y-103160850D01*
X140349600Y-102336600D01*
X139512850Y-102336600D01*
X139354100Y-102495350D01*
X139351028Y-102684600D01*
X135065482Y-102684600D01*
X135066448Y-102681416D01*
X135083272Y-102510600D01*
X135083272Y-102035600D01*
X135066448Y-101864784D01*
X135026958Y-101734600D01*
X139351028Y-101734600D01*
X139354100Y-101923850D01*
X139512850Y-102082600D01*
X140349600Y-102082600D01*
X140349600Y-101258350D01*
X140190850Y-101099600D01*
X139989100Y-101096528D01*
X139864618Y-101108788D01*
X139744920Y-101145098D01*
X139634606Y-101204063D01*
X139537915Y-101283415D01*
X139458563Y-101380106D01*
X139399598Y-101490420D01*
X139363288Y-101610118D01*
X139351028Y-101734600D01*
X135026958Y-101734600D01*
X135016623Y-101700533D01*
X134979621Y-101631307D01*
X135912429Y-100698500D01*
X143918073Y-100698500D01*
X144321785Y-101102212D01*
X144208684Y-101113352D01*
X144044433Y-101163177D01*
X143893058Y-101244088D01*
X143760377Y-101352977D01*
X143651488Y-101485658D01*
X143637889Y-101511100D01*
X143293211Y-101511100D01*
X143279612Y-101485658D01*
X143170723Y-101352977D01*
X143038042Y-101244088D01*
X142886667Y-101163177D01*
X142722416Y-101113352D01*
X142551600Y-101096528D01*
X142051600Y-101096528D01*
X141880784Y-101113352D01*
X141716533Y-101163177D01*
X141565158Y-101244088D01*
X141456317Y-101333412D01*
X141415285Y-101283415D01*
X141318594Y-101204063D01*
X141208280Y-101145098D01*
X141088582Y-101108788D01*
X140964100Y-101096528D01*
X140762350Y-101099600D01*
X140603600Y-101258350D01*
X140603600Y-102082600D01*
X140623600Y-102082600D01*
X140623600Y-102336600D01*
X140603600Y-102336600D01*
X140603600Y-103160850D01*
X140762350Y-103319600D01*
X140964100Y-103322672D01*
X141088582Y-103310412D01*
X141208280Y-103274102D01*
X141318594Y-103215137D01*
X141415285Y-103135785D01*
X141456317Y-103085788D01*
X141565158Y-103175112D01*
X141716533Y-103256023D01*
X141880784Y-103305848D01*
X142051600Y-103322672D01*
X142551600Y-103322672D01*
X142722416Y-103305848D01*
X142886667Y-103256023D01*
X143038042Y-103175112D01*
X143170723Y-103066223D01*
X143279612Y-102933542D01*
X143293211Y-102908100D01*
X143637889Y-102908100D01*
X143651488Y-102933542D01*
X143760377Y-103066223D01*
X143893058Y-103175112D01*
X144044433Y-103256023D01*
X144208684Y-103305848D01*
X144379500Y-103322672D01*
X144954500Y-103322672D01*
X145125316Y-103305848D01*
X145289567Y-103256023D01*
X145440942Y-103175112D01*
X145542000Y-103092175D01*
X145643058Y-103175112D01*
X145794433Y-103256023D01*
X145958684Y-103305848D01*
X146129500Y-103322672D01*
X146704500Y-103322672D01*
X146875316Y-103305848D01*
X147039567Y-103256023D01*
X147190942Y-103175112D01*
X147323623Y-103066223D01*
X147432512Y-102933542D01*
X147513423Y-102782167D01*
X147531462Y-102722700D01*
X151960228Y-102722700D01*
X151972488Y-102847182D01*
X152008798Y-102966880D01*
X152067763Y-103077194D01*
X152147115Y-103173885D01*
X152243806Y-103253237D01*
X152354120Y-103312202D01*
X152473818Y-103348512D01*
X152598300Y-103360772D01*
X152800050Y-103357700D01*
X152958800Y-103198950D01*
X152958800Y-102374700D01*
X152122050Y-102374700D01*
X151963300Y-102533450D01*
X151960228Y-102722700D01*
X147531462Y-102722700D01*
X147563248Y-102617916D01*
X147580072Y-102447100D01*
X147580072Y-101972100D01*
X147566413Y-101833415D01*
X147627128Y-101772700D01*
X151960228Y-101772700D01*
X151963300Y-101961950D01*
X152122050Y-102120700D01*
X152958800Y-102120700D01*
X152958800Y-101296450D01*
X152800050Y-101137700D01*
X152598300Y-101134628D01*
X152473818Y-101146888D01*
X152354120Y-101183198D01*
X152243806Y-101242163D01*
X152147115Y-101321515D01*
X152067763Y-101418206D01*
X152008798Y-101528520D01*
X151972488Y-101648218D01*
X151960228Y-101772700D01*
X147627128Y-101772700D01*
X148701329Y-100698500D01*
X156376773Y-100698500D01*
X156818585Y-101140312D01*
X156705484Y-101151452D01*
X156541233Y-101201277D01*
X156389858Y-101282188D01*
X156257177Y-101391077D01*
X156148288Y-101523758D01*
X156134689Y-101549200D01*
X155902411Y-101549200D01*
X155888812Y-101523758D01*
X155779923Y-101391077D01*
X155647242Y-101282188D01*
X155495867Y-101201277D01*
X155331616Y-101151452D01*
X155160800Y-101134628D01*
X154660800Y-101134628D01*
X154489984Y-101151452D01*
X154325733Y-101201277D01*
X154174358Y-101282188D01*
X154065517Y-101371512D01*
X154024485Y-101321515D01*
X153927794Y-101242163D01*
X153817480Y-101183198D01*
X153697782Y-101146888D01*
X153573300Y-101134628D01*
X153371550Y-101137700D01*
X153212800Y-101296450D01*
X153212800Y-102120700D01*
X153232800Y-102120700D01*
X153232800Y-102374700D01*
X153212800Y-102374700D01*
X153212800Y-103198950D01*
X153371550Y-103357700D01*
X153573300Y-103360772D01*
X153697782Y-103348512D01*
X153817480Y-103312202D01*
X153927794Y-103253237D01*
X154024485Y-103173885D01*
X154065517Y-103123888D01*
X154174358Y-103213212D01*
X154325733Y-103294123D01*
X154489984Y-103343948D01*
X154660800Y-103360772D01*
X155160800Y-103360772D01*
X155331616Y-103343948D01*
X155495867Y-103294123D01*
X155647242Y-103213212D01*
X155779923Y-103104323D01*
X155888812Y-102971642D01*
X155902411Y-102946200D01*
X156134689Y-102946200D01*
X156148288Y-102971642D01*
X156257177Y-103104323D01*
X156389858Y-103213212D01*
X156541233Y-103294123D01*
X156705484Y-103343948D01*
X156876300Y-103360772D01*
X157451300Y-103360772D01*
X157622116Y-103343948D01*
X157786367Y-103294123D01*
X157937742Y-103213212D01*
X158038800Y-103130275D01*
X158139858Y-103213212D01*
X158291233Y-103294123D01*
X158455484Y-103343948D01*
X158626300Y-103360772D01*
X159201300Y-103360772D01*
X159372116Y-103343948D01*
X159536367Y-103294123D01*
X159687742Y-103213212D01*
X159820423Y-103104323D01*
X159929312Y-102971642D01*
X160010223Y-102820267D01*
X160060048Y-102656016D01*
X160076872Y-102485200D01*
X160076872Y-102010200D01*
X160060048Y-101839384D01*
X160010223Y-101675133D01*
X159929312Y-101523758D01*
X159820423Y-101391077D01*
X159687742Y-101282188D01*
X159536367Y-101201277D01*
X159372116Y-101151452D01*
X159201300Y-101134628D01*
X158788556Y-101134628D01*
X157184275Y-99530348D01*
X157162403Y-99503697D01*
X157056043Y-99416409D01*
X156934697Y-99351548D01*
X156803030Y-99311607D01*
X156700409Y-99301500D01*
X156700398Y-99301500D01*
X156666100Y-99298122D01*
X156631802Y-99301500D01*
X148446297Y-99301500D01*
X148411999Y-99298122D01*
X148377701Y-99301500D01*
X148377691Y-99301500D01*
X148275070Y-99311607D01*
X148143403Y-99351548D01*
X148143401Y-99351549D01*
X148096599Y-99376565D01*
X148095204Y-99362406D01*
X148095204Y-96422301D01*
X148231781Y-96331044D01*
X148396704Y-96166121D01*
X148561627Y-96331044D01*
X148776186Y-96474407D01*
X149014591Y-96573158D01*
X149267680Y-96623500D01*
X149525728Y-96623500D01*
X149686831Y-96591455D01*
X151189938Y-98094563D01*
X151211801Y-98121203D01*
X151238441Y-98143066D01*
X151238449Y-98143074D01*
X151318160Y-98208491D01*
X151439505Y-98273351D01*
X151439507Y-98273352D01*
X151571174Y-98313293D01*
X151673795Y-98323400D01*
X151673805Y-98323400D01*
X151708103Y-98326778D01*
X151742401Y-98323400D01*
X166575973Y-98323400D01*
X167043100Y-98790528D01*
X167043101Y-101437392D01*
X167039722Y-101471700D01*
X167043101Y-101506008D01*
X167043101Y-101506009D01*
X167053208Y-101608630D01*
X167071397Y-101668591D01*
X167093149Y-101740298D01*
X167158009Y-101861643D01*
X167223426Y-101941353D01*
X167223430Y-101941357D01*
X167245298Y-101968003D01*
X167271944Y-101989871D01*
X167824428Y-102542355D01*
X167824428Y-102955100D01*
X167841252Y-103125916D01*
X167891077Y-103290167D01*
X167971988Y-103441542D01*
X168080877Y-103574223D01*
X168213558Y-103683112D01*
X168364933Y-103764023D01*
X168529184Y-103813848D01*
X168700000Y-103830672D01*
X169275000Y-103830672D01*
X169445816Y-103813848D01*
X169610067Y-103764023D01*
X169761442Y-103683112D01*
X169862500Y-103600175D01*
X169963558Y-103683112D01*
X170039000Y-103723436D01*
X170039000Y-103873172D01*
X169310673Y-104601500D01*
X167064111Y-104601500D01*
X167050512Y-104576058D01*
X166941623Y-104443377D01*
X166808942Y-104334488D01*
X166657567Y-104253577D01*
X166493316Y-104203752D01*
X166322500Y-104186928D01*
X165822500Y-104186928D01*
X165651684Y-104203752D01*
X165487433Y-104253577D01*
X165336058Y-104334488D01*
X165227217Y-104423812D01*
X165186185Y-104373815D01*
X165089494Y-104294463D01*
X164979180Y-104235498D01*
X164859482Y-104199188D01*
X164735000Y-104186928D01*
X164533250Y-104190000D01*
X164374500Y-104348750D01*
X164374500Y-105173000D01*
X164394500Y-105173000D01*
X164394500Y-105427000D01*
X164374500Y-105427000D01*
X164374500Y-106251250D01*
X164533250Y-106410000D01*
X164735000Y-106413072D01*
X164859482Y-106400812D01*
X164979180Y-106364502D01*
X165089494Y-106305537D01*
X165186185Y-106226185D01*
X165227217Y-106176188D01*
X165336058Y-106265512D01*
X165487433Y-106346423D01*
X165651684Y-106396248D01*
X165822500Y-106413072D01*
X166322500Y-106413072D01*
X166493316Y-106396248D01*
X166657567Y-106346423D01*
X166808942Y-106265512D01*
X166941623Y-106156623D01*
X167050512Y-106023942D01*
X167064111Y-105998500D01*
X169565702Y-105998500D01*
X169600000Y-106001878D01*
X169634298Y-105998500D01*
X169634309Y-105998500D01*
X169736930Y-105988393D01*
X169868597Y-105948452D01*
X169989943Y-105883591D01*
X170096303Y-105796303D01*
X170118175Y-105769652D01*
X171207162Y-104680666D01*
X171233802Y-104658803D01*
X171255667Y-104632161D01*
X171255674Y-104632154D01*
X171321091Y-104552444D01*
X171385951Y-104431098D01*
X171385952Y-104431097D01*
X171425893Y-104299430D01*
X171436000Y-104196809D01*
X171436000Y-104196798D01*
X171439378Y-104162500D01*
X171436000Y-104128202D01*
X171436000Y-103723436D01*
X171511442Y-103683112D01*
X171644123Y-103574223D01*
X171753012Y-103441542D01*
X171833923Y-103290167D01*
X171883748Y-103125916D01*
X171900572Y-102955100D01*
X171900572Y-102480100D01*
X171883748Y-102309284D01*
X171833923Y-102145033D01*
X171753012Y-101993658D01*
X171644123Y-101860977D01*
X171511442Y-101752088D01*
X171436000Y-101711764D01*
X171436000Y-100027736D01*
X171511442Y-99987412D01*
X171644123Y-99878523D01*
X171753012Y-99745842D01*
X171833923Y-99594467D01*
X171883748Y-99430216D01*
X171900572Y-99259400D01*
X171900572Y-98784400D01*
X171883748Y-98613584D01*
X171833923Y-98449333D01*
X171753012Y-98297958D01*
X171644123Y-98165277D01*
X171511442Y-98056388D01*
X171436000Y-98016064D01*
X171436000Y-96319336D01*
X171511442Y-96279012D01*
X171644123Y-96170123D01*
X171753012Y-96037442D01*
X171833923Y-95886067D01*
X171883748Y-95721816D01*
X171900572Y-95551000D01*
X171900572Y-95076000D01*
X171883748Y-94905184D01*
X171833923Y-94740933D01*
X171753012Y-94589558D01*
X171644123Y-94456877D01*
X171511442Y-94347988D01*
X171360067Y-94267077D01*
X171195816Y-94217252D01*
X171025000Y-94200428D01*
X170450000Y-94200428D01*
X170279184Y-94217252D01*
X170114933Y-94267077D01*
X169963558Y-94347988D01*
X169862500Y-94430925D01*
X169761442Y-94347988D01*
X169610067Y-94267077D01*
X169445816Y-94217252D01*
X169275000Y-94200428D01*
X168700000Y-94200428D01*
X168529184Y-94217252D01*
X168364933Y-94267077D01*
X168213558Y-94347988D01*
X168080877Y-94456877D01*
X167971988Y-94589558D01*
X167958389Y-94615000D01*
X154505505Y-94615000D01*
X154414248Y-94478423D01*
X154231781Y-94295956D01*
X154017222Y-94152593D01*
X153778817Y-94053842D01*
X153525728Y-94003500D01*
X153267680Y-94003500D01*
X153014591Y-94053842D01*
X152776186Y-94152593D01*
X152561627Y-94295956D01*
X152396704Y-94460879D01*
X152231781Y-94295956D01*
X152017222Y-94152593D01*
X151778817Y-94053842D01*
X151525728Y-94003500D01*
X151267680Y-94003500D01*
X151014591Y-94053842D01*
X150776186Y-94152593D01*
X150561627Y-94295956D01*
X150396704Y-94460879D01*
X150231781Y-94295956D01*
X150017222Y-94152593D01*
X149778817Y-94053842D01*
X149525728Y-94003500D01*
X149267680Y-94003500D01*
X149014591Y-94053842D01*
X148776186Y-94152593D01*
X148561627Y-94295956D01*
X148396704Y-94460879D01*
X148231781Y-94295956D01*
X148017222Y-94152593D01*
X147778817Y-94053842D01*
X147525728Y-94003500D01*
X147267680Y-94003500D01*
X147014591Y-94053842D01*
X146776186Y-94152593D01*
X146594191Y-94274197D01*
X146522889Y-94187315D01*
X146426198Y-94107963D01*
X146315884Y-94048998D01*
X146196186Y-94012688D01*
X146071704Y-94000428D01*
X145682454Y-94003500D01*
X145523704Y-94162250D01*
X145523704Y-95186500D01*
X145543704Y-95186500D01*
X145543704Y-95440500D01*
X145523704Y-95440500D01*
X145523704Y-96464750D01*
X145682454Y-96623500D01*
X146071704Y-96626572D01*
X146196186Y-96614312D01*
X146315884Y-96578002D01*
X146426198Y-96519037D01*
X146522889Y-96439685D01*
X146594191Y-96352803D01*
X146698204Y-96422302D01*
X146698205Y-99107375D01*
X145947344Y-99858237D01*
X145920697Y-99880106D01*
X145898829Y-99906752D01*
X145898826Y-99906755D01*
X145833409Y-99986465D01*
X145826174Y-100000001D01*
X145768548Y-100107812D01*
X145728607Y-100239479D01*
X145718500Y-100342100D01*
X145718500Y-100342110D01*
X145715122Y-100376408D01*
X145718500Y-100410707D01*
X145718500Y-100523272D01*
X144725575Y-99530348D01*
X144703703Y-99503697D01*
X144597343Y-99416409D01*
X144475997Y-99351548D01*
X144344330Y-99311607D01*
X144241709Y-99301500D01*
X144241698Y-99301500D01*
X144207400Y-99298122D01*
X144173102Y-99301500D01*
X135657397Y-99301500D01*
X135623099Y-99298122D01*
X135588801Y-99301500D01*
X135588791Y-99301500D01*
X135486170Y-99311607D01*
X135354503Y-99351548D01*
X135354501Y-99351549D01*
X135233156Y-99416409D01*
X135153445Y-99481826D01*
X135153437Y-99481834D01*
X135126797Y-99503697D01*
X135104934Y-99530337D01*
X133456913Y-101178360D01*
X133297633Y-101226677D01*
X133146258Y-101307588D01*
X133045200Y-101390525D01*
X132944142Y-101307588D01*
X132792767Y-101226677D01*
X132628516Y-101176852D01*
X132457700Y-101160028D01*
X131882700Y-101160028D01*
X131711884Y-101176852D01*
X131547633Y-101226677D01*
X131396258Y-101307588D01*
X131263577Y-101416477D01*
X131154688Y-101549158D01*
X131141089Y-101574600D01*
X130557011Y-101574600D01*
X130543412Y-101549158D01*
X130434523Y-101416477D01*
X130301842Y-101307588D01*
X130150467Y-101226677D01*
X129986216Y-101176852D01*
X129815400Y-101160028D01*
X129315400Y-101160028D01*
X129144584Y-101176852D01*
X128980333Y-101226677D01*
X128828958Y-101307588D01*
X128720117Y-101396912D01*
X128679085Y-101346915D01*
X128582394Y-101267563D01*
X128472080Y-101208598D01*
X128352382Y-101172288D01*
X128227900Y-101160028D01*
X128026150Y-101163100D01*
X127867400Y-101321850D01*
X127613400Y-101321850D01*
X127454650Y-101163100D01*
X127252900Y-101160028D01*
X127128418Y-101172288D01*
X127008720Y-101208598D01*
X126898406Y-101267563D01*
X126801715Y-101346915D01*
X126722363Y-101443606D01*
X126663398Y-101553920D01*
X126627088Y-101673618D01*
X126614828Y-101798100D01*
X125120101Y-101798100D01*
X125120101Y-94019368D01*
X125132785Y-93809729D01*
X125173330Y-93654769D01*
X125243204Y-93510630D01*
X125339739Y-93382814D01*
X125459263Y-93276182D01*
X125597228Y-93194793D01*
X125748369Y-93141754D01*
X125929619Y-93115837D01*
X126769288Y-93115837D01*
X126548504Y-93159754D01*
G37*
%TD.AperFunction*%
%TD*%
M02*
