G04 #@! TF.GenerationSoftware,KiCad,Pcbnew,(5.1.10-1-10_14)*
G04 #@! TF.CreationDate,2021-06-08T23:18:15-04:00*
G04 #@! TF.ProjectId,tr109-mainboard,74723130-392d-46d6-9169-6e626f617264,1*
G04 #@! TF.SameCoordinates,Original*
G04 #@! TF.FileFunction,Other,User*
%FSLAX46Y46*%
G04 Gerber Fmt 4.6, Leading zero omitted, Abs format (unit mm)*
G04 Created by KiCad (PCBNEW (5.1.10-1-10_14)) date 2021-06-08 23:18:15*
%MOMM*%
%LPD*%
G01*
G04 APERTURE LIST*
%ADD10C,0.050000*%
G04 APERTURE END LIST*
D10*
X114234660Y-80239400D02*
X114234660Y-86389400D01*
X114234660Y-86389400D02*
X117834660Y-86389400D01*
X117834660Y-86389400D02*
X117834660Y-80239400D01*
X117834660Y-80239400D02*
X114234660Y-80239400D01*
X162450600Y-126639400D02*
X133450600Y-126639400D01*
X133450600Y-126639400D02*
X133450600Y-130239400D01*
X133450600Y-130239400D02*
X162450600Y-130239400D01*
X162450600Y-130239400D02*
X162450600Y-126639400D01*
X163050600Y-110239400D02*
X163050600Y-123989400D01*
X163050600Y-123989400D02*
X166650600Y-123989400D01*
X166650600Y-123989400D02*
X166650600Y-110239400D01*
X166650600Y-110239400D02*
X163050600Y-110239400D01*
X146896600Y-84609400D02*
X146896600Y-95009400D01*
X146896600Y-95009400D02*
X154296600Y-95009400D01*
X154296600Y-95009400D02*
X154296600Y-84609400D01*
X154296600Y-84609400D02*
X146896600Y-84609400D01*
X163050600Y-101222400D02*
X163050600Y-107372400D01*
X163050600Y-107372400D02*
X166650600Y-107372400D01*
X166650600Y-107372400D02*
X166650600Y-101222400D01*
X166650600Y-101222400D02*
X163050600Y-101222400D01*
X147850600Y-95589400D02*
X147850600Y-100589400D01*
X147850600Y-100589400D02*
X153150600Y-100589400D01*
X153150600Y-100589400D02*
X153150600Y-95589400D01*
X153150600Y-95589400D02*
X147850600Y-95589400D01*
X124730600Y-121749400D02*
X116080600Y-121749400D01*
X116080600Y-121749400D02*
X116080600Y-125349400D01*
X116080600Y-125349400D02*
X124730600Y-125349400D01*
X124730600Y-125349400D02*
X124730600Y-121749400D01*
X121097800Y-89417400D02*
X121097800Y-87417400D01*
X121097800Y-89417400D02*
X123097800Y-89417400D01*
X123097800Y-87417400D02*
X121097800Y-87417400D01*
X123097800Y-87417400D02*
X123097800Y-89417400D01*
X123735701Y-120980599D02*
X123735701Y-118980599D01*
X123735701Y-120980599D02*
X125735701Y-120980599D01*
X125735701Y-118980599D02*
X123735701Y-118980599D01*
X125735701Y-118980599D02*
X125735701Y-120980599D01*
X167284900Y-83439000D02*
G75*
G03*
X167284900Y-83439000I-2350000J0D01*
G01*
X124689100Y-83426300D02*
G75*
G03*
X124689100Y-83426300I-2350000J0D01*
G01*
X167272200Y-127977900D02*
G75*
G03*
X167272200Y-127977900I-2350000J0D01*
G01*
X124663700Y-127965200D02*
G75*
G03*
X124663700Y-127965200I-2350000J0D01*
G01*
X117601760Y-80376860D02*
X169451760Y-80376860D01*
X169451760Y-80376860D02*
X169451760Y-65476860D01*
X169451760Y-65476860D02*
X117601760Y-65476860D01*
X117601760Y-65476860D02*
X117601760Y-80376860D01*
X166650600Y-96465800D02*
X166650600Y-87815800D01*
X166650600Y-87815800D02*
X163050600Y-87815800D01*
X163050600Y-87815800D02*
X163050600Y-96465800D01*
X163050600Y-96465800D02*
X166650600Y-96465800D01*
X114884660Y-112233260D02*
X114884660Y-116733260D01*
X114884660Y-116733260D02*
X119734660Y-116733260D01*
X119734660Y-116733260D02*
X119734660Y-112233260D01*
X119734660Y-112233260D02*
X114884660Y-112233260D01*
X114884660Y-104139126D02*
X114884660Y-108639126D01*
X114884660Y-108639126D02*
X119734660Y-108639126D01*
X119734660Y-108639126D02*
X119734660Y-104139126D01*
X119734660Y-104139126D02*
X114884660Y-104139126D01*
X114884660Y-96044993D02*
X114884660Y-100544993D01*
X114884660Y-100544993D02*
X119734660Y-100544993D01*
X119734660Y-100544993D02*
X119734660Y-96044993D01*
X119734660Y-96044993D02*
X114884660Y-96044993D01*
X114884660Y-87950860D02*
X114884660Y-92450860D01*
X114884660Y-92450860D02*
X119734660Y-92450860D01*
X119734660Y-92450860D02*
X119734660Y-87950860D01*
X119734660Y-87950860D02*
X114884660Y-87950860D01*
X155176600Y-116213400D02*
X146016600Y-116213400D01*
X146016600Y-116213400D02*
X146016600Y-123613400D01*
X146016600Y-123613400D02*
X155176600Y-123613400D01*
X155176600Y-123613400D02*
X155176600Y-116213400D01*
X135207600Y-92078400D02*
X135207600Y-113428400D01*
X135207600Y-113428400D02*
X138807600Y-113428400D01*
X138807600Y-113428400D02*
X138807600Y-92078400D01*
X138807600Y-92078400D02*
X135207600Y-92078400D01*
X146061600Y-106498400D02*
X146061600Y-101378400D01*
X146061600Y-101378400D02*
X154561600Y-101378400D01*
X154561600Y-101378400D02*
X154561600Y-106498400D01*
X154561600Y-106498400D02*
X146061600Y-106498400D01*
X150850766Y-107241400D02*
X152310766Y-107241400D01*
X152310766Y-107241400D02*
X152310766Y-110541400D01*
X152310766Y-110541400D02*
X150850766Y-110541400D01*
X150850766Y-110541400D02*
X150850766Y-107241400D01*
X145774100Y-107241400D02*
X147234100Y-107241400D01*
X147234100Y-107241400D02*
X147234100Y-110541400D01*
X147234100Y-110541400D02*
X145774100Y-110541400D01*
X145774100Y-110541400D02*
X145774100Y-107241400D01*
X148990600Y-112796400D02*
X148990600Y-111336400D01*
X148990600Y-111336400D02*
X152290600Y-111336400D01*
X152290600Y-111336400D02*
X152290600Y-112796400D01*
X152290600Y-112796400D02*
X148990600Y-112796400D01*
X154849100Y-110541400D02*
X153389100Y-110541400D01*
X153389100Y-110541400D02*
X153389100Y-107241400D01*
X153389100Y-107241400D02*
X154849100Y-107241400D01*
X154849100Y-107241400D02*
X154849100Y-110541400D01*
X149772433Y-110541400D02*
X148312433Y-110541400D01*
X148312433Y-110541400D02*
X148312433Y-107241400D01*
X148312433Y-107241400D02*
X149772433Y-107241400D01*
X149772433Y-107241400D02*
X149772433Y-110541400D01*
X118515400Y-119777000D02*
X115215400Y-119777000D01*
X118515400Y-118317000D02*
X118515400Y-119777000D01*
X115215400Y-118317000D02*
X118515400Y-118317000D01*
X115215400Y-119777000D02*
X115215400Y-118317000D01*
M02*
