G04 #@! TF.GenerationSoftware,KiCad,Pcbnew,(5.1.10-1-10_14)*
G04 #@! TF.CreationDate,2021-06-08T23:18:15-04:00*
G04 #@! TF.ProjectId,tr109-mainboard,74723130-392d-46d6-9169-6e626f617264,1*
G04 #@! TF.SameCoordinates,Original*
G04 #@! TF.FileFunction,Legend,Bot*
G04 #@! TF.FilePolarity,Positive*
%FSLAX46Y46*%
G04 Gerber Fmt 4.6, Leading zero omitted, Abs format (unit mm)*
G04 Created by KiCad (PCBNEW (5.1.10-1-10_14)) date 2021-06-08 23:18:15*
%MOMM*%
%LPD*%
G01*
G04 APERTURE LIST*
%ADD10C,0.100000*%
%ADD11C,0.250000*%
%ADD12C,0.010000*%
G04 APERTURE END LIST*
D10*
X162571993Y-72807485D02*
X162600565Y-72836057D01*
X162686279Y-72864628D01*
X162743422Y-72864628D01*
X162829136Y-72836057D01*
X162886279Y-72778914D01*
X162914850Y-72721771D01*
X162943422Y-72607485D01*
X162943422Y-72521771D01*
X162914850Y-72407485D01*
X162886279Y-72350342D01*
X162829136Y-72293200D01*
X162743422Y-72264628D01*
X162686279Y-72264628D01*
X162600565Y-72293200D01*
X162571993Y-72321771D01*
X162057708Y-72864628D02*
X162057708Y-72550342D01*
X162086279Y-72493200D01*
X162143422Y-72464628D01*
X162257708Y-72464628D01*
X162314850Y-72493200D01*
X162057708Y-72836057D02*
X162114850Y-72864628D01*
X162257708Y-72864628D01*
X162314850Y-72836057D01*
X162343422Y-72778914D01*
X162343422Y-72721771D01*
X162314850Y-72664628D01*
X162257708Y-72636057D01*
X162114850Y-72636057D01*
X162057708Y-72607485D01*
X161514850Y-72464628D02*
X161514850Y-72864628D01*
X161771993Y-72464628D02*
X161771993Y-72778914D01*
X161743422Y-72836057D01*
X161686279Y-72864628D01*
X161600565Y-72864628D01*
X161543422Y-72836057D01*
X161514850Y-72807485D01*
X161314850Y-72464628D02*
X161086279Y-72464628D01*
X161229136Y-72264628D02*
X161229136Y-72778914D01*
X161200565Y-72836057D01*
X161143422Y-72864628D01*
X161086279Y-72864628D01*
X160886279Y-72864628D02*
X160886279Y-72464628D01*
X160886279Y-72264628D02*
X160914850Y-72293200D01*
X160886279Y-72321771D01*
X160857708Y-72293200D01*
X160886279Y-72264628D01*
X160886279Y-72321771D01*
X160514850Y-72864628D02*
X160571993Y-72836057D01*
X160600565Y-72807485D01*
X160629136Y-72750342D01*
X160629136Y-72578914D01*
X160600565Y-72521771D01*
X160571993Y-72493200D01*
X160514850Y-72464628D01*
X160429136Y-72464628D01*
X160371993Y-72493200D01*
X160343422Y-72521771D01*
X160314850Y-72578914D01*
X160314850Y-72750342D01*
X160343422Y-72807485D01*
X160371993Y-72836057D01*
X160429136Y-72864628D01*
X160514850Y-72864628D01*
X160057708Y-72464628D02*
X160057708Y-72864628D01*
X160057708Y-72521771D02*
X160029136Y-72493200D01*
X159971993Y-72464628D01*
X159886279Y-72464628D01*
X159829136Y-72493200D01*
X159800565Y-72550342D01*
X159800565Y-72864628D01*
X159514850Y-72807485D02*
X159486279Y-72836057D01*
X159514850Y-72864628D01*
X159543422Y-72836057D01*
X159514850Y-72807485D01*
X159514850Y-72864628D01*
X159514850Y-72493200D02*
X159486279Y-72521771D01*
X159514850Y-72550342D01*
X159543422Y-72521771D01*
X159514850Y-72493200D01*
X159514850Y-72550342D01*
X158429136Y-72807485D02*
X158457708Y-72836057D01*
X158543422Y-72864628D01*
X158600565Y-72864628D01*
X158686279Y-72836057D01*
X158743422Y-72778914D01*
X158771993Y-72721771D01*
X158800565Y-72607485D01*
X158800565Y-72521771D01*
X158771993Y-72407485D01*
X158743422Y-72350342D01*
X158686279Y-72293200D01*
X158600565Y-72264628D01*
X158543422Y-72264628D01*
X158457708Y-72293200D01*
X158429136Y-72321771D01*
X158086279Y-72864628D02*
X158143422Y-72836057D01*
X158171993Y-72807485D01*
X158200565Y-72750342D01*
X158200565Y-72578914D01*
X158171993Y-72521771D01*
X158143422Y-72493200D01*
X158086279Y-72464628D01*
X158000565Y-72464628D01*
X157943422Y-72493200D01*
X157914850Y-72521771D01*
X157886279Y-72578914D01*
X157886279Y-72750342D01*
X157914850Y-72807485D01*
X157943422Y-72836057D01*
X158000565Y-72864628D01*
X158086279Y-72864628D01*
X157629136Y-72464628D02*
X157629136Y-72864628D01*
X157629136Y-72521771D02*
X157600565Y-72493200D01*
X157543422Y-72464628D01*
X157457708Y-72464628D01*
X157400565Y-72493200D01*
X157371993Y-72550342D01*
X157371993Y-72864628D01*
X157171993Y-72464628D02*
X156943422Y-72464628D01*
X157086279Y-72264628D02*
X157086279Y-72778914D01*
X157057708Y-72836057D01*
X157000565Y-72864628D01*
X156943422Y-72864628D01*
X156743422Y-72864628D02*
X156743422Y-72464628D01*
X156743422Y-72264628D02*
X156771993Y-72293200D01*
X156743422Y-72321771D01*
X156714850Y-72293200D01*
X156743422Y-72264628D01*
X156743422Y-72321771D01*
X156457708Y-72464628D02*
X156457708Y-72864628D01*
X156457708Y-72521771D02*
X156429136Y-72493200D01*
X156371993Y-72464628D01*
X156286279Y-72464628D01*
X156229136Y-72493200D01*
X156200565Y-72550342D01*
X156200565Y-72864628D01*
X155657708Y-72464628D02*
X155657708Y-72864628D01*
X155914850Y-72464628D02*
X155914850Y-72778914D01*
X155886279Y-72836057D01*
X155829136Y-72864628D01*
X155743422Y-72864628D01*
X155686279Y-72836057D01*
X155657708Y-72807485D01*
X155143422Y-72836057D02*
X155200565Y-72864628D01*
X155314850Y-72864628D01*
X155371993Y-72836057D01*
X155400565Y-72778914D01*
X155400565Y-72550342D01*
X155371993Y-72493200D01*
X155314850Y-72464628D01*
X155200565Y-72464628D01*
X155143422Y-72493200D01*
X155114850Y-72550342D01*
X155114850Y-72607485D01*
X155400565Y-72664628D01*
X154600565Y-72864628D02*
X154600565Y-72264628D01*
X154600565Y-72836057D02*
X154657708Y-72864628D01*
X154771993Y-72864628D01*
X154829136Y-72836057D01*
X154857708Y-72807485D01*
X154886279Y-72750342D01*
X154886279Y-72578914D01*
X154857708Y-72521771D01*
X154829136Y-72493200D01*
X154771993Y-72464628D01*
X154657708Y-72464628D01*
X154600565Y-72493200D01*
X153771993Y-72864628D02*
X153829136Y-72836057D01*
X153857708Y-72807485D01*
X153886279Y-72750342D01*
X153886279Y-72578914D01*
X153857708Y-72521771D01*
X153829136Y-72493200D01*
X153771993Y-72464628D01*
X153686279Y-72464628D01*
X153629136Y-72493200D01*
X153600565Y-72521771D01*
X153571993Y-72578914D01*
X153571993Y-72750342D01*
X153600565Y-72807485D01*
X153629136Y-72836057D01*
X153686279Y-72864628D01*
X153771993Y-72864628D01*
X153314850Y-72464628D02*
X153314850Y-73064628D01*
X153314850Y-72493200D02*
X153257708Y-72464628D01*
X153143422Y-72464628D01*
X153086279Y-72493200D01*
X153057708Y-72521771D01*
X153029136Y-72578914D01*
X153029136Y-72750342D01*
X153057708Y-72807485D01*
X153086279Y-72836057D01*
X153143422Y-72864628D01*
X153257708Y-72864628D01*
X153314850Y-72836057D01*
X152543422Y-72836057D02*
X152600565Y-72864628D01*
X152714850Y-72864628D01*
X152771993Y-72836057D01*
X152800565Y-72778914D01*
X152800565Y-72550342D01*
X152771993Y-72493200D01*
X152714850Y-72464628D01*
X152600565Y-72464628D01*
X152543422Y-72493200D01*
X152514850Y-72550342D01*
X152514850Y-72607485D01*
X152800565Y-72664628D01*
X152257708Y-72864628D02*
X152257708Y-72464628D01*
X152257708Y-72578914D02*
X152229136Y-72521771D01*
X152200565Y-72493200D01*
X152143422Y-72464628D01*
X152086279Y-72464628D01*
X151629136Y-72864628D02*
X151629136Y-72550342D01*
X151657708Y-72493200D01*
X151714850Y-72464628D01*
X151829136Y-72464628D01*
X151886279Y-72493200D01*
X151629136Y-72836057D02*
X151686279Y-72864628D01*
X151829136Y-72864628D01*
X151886279Y-72836057D01*
X151914850Y-72778914D01*
X151914850Y-72721771D01*
X151886279Y-72664628D01*
X151829136Y-72636057D01*
X151686279Y-72636057D01*
X151629136Y-72607485D01*
X151429136Y-72464628D02*
X151200565Y-72464628D01*
X151343422Y-72264628D02*
X151343422Y-72778914D01*
X151314850Y-72836057D01*
X151257708Y-72864628D01*
X151200565Y-72864628D01*
X151000565Y-72864628D02*
X151000565Y-72464628D01*
X151000565Y-72264628D02*
X151029136Y-72293200D01*
X151000565Y-72321771D01*
X150971993Y-72293200D01*
X151000565Y-72264628D01*
X151000565Y-72321771D01*
X150629136Y-72864628D02*
X150686279Y-72836057D01*
X150714850Y-72807485D01*
X150743422Y-72750342D01*
X150743422Y-72578914D01*
X150714850Y-72521771D01*
X150686279Y-72493200D01*
X150629136Y-72464628D01*
X150543422Y-72464628D01*
X150486279Y-72493200D01*
X150457708Y-72521771D01*
X150429136Y-72578914D01*
X150429136Y-72750342D01*
X150457708Y-72807485D01*
X150486279Y-72836057D01*
X150543422Y-72864628D01*
X150629136Y-72864628D01*
X150171993Y-72464628D02*
X150171993Y-72864628D01*
X150171993Y-72521771D02*
X150143422Y-72493200D01*
X150086279Y-72464628D01*
X150000565Y-72464628D01*
X149943422Y-72493200D01*
X149914850Y-72550342D01*
X149914850Y-72864628D01*
X149171993Y-72864628D02*
X149171993Y-72264628D01*
X149114850Y-72636057D02*
X148943422Y-72864628D01*
X148943422Y-72464628D02*
X149171993Y-72693200D01*
X148686279Y-72464628D02*
X148686279Y-72864628D01*
X148686279Y-72521771D02*
X148657708Y-72493200D01*
X148600565Y-72464628D01*
X148514850Y-72464628D01*
X148457708Y-72493200D01*
X148429136Y-72550342D01*
X148429136Y-72864628D01*
X148057708Y-72864628D02*
X148114850Y-72836057D01*
X148143422Y-72807485D01*
X148171993Y-72750342D01*
X148171993Y-72578914D01*
X148143422Y-72521771D01*
X148114850Y-72493200D01*
X148057708Y-72464628D01*
X147971993Y-72464628D01*
X147914850Y-72493200D01*
X147886279Y-72521771D01*
X147857708Y-72578914D01*
X147857708Y-72750342D01*
X147886279Y-72807485D01*
X147914850Y-72836057D01*
X147971993Y-72864628D01*
X148057708Y-72864628D01*
X147657708Y-72464628D02*
X147543422Y-72864628D01*
X147429136Y-72578914D01*
X147314850Y-72864628D01*
X147200565Y-72464628D01*
X146971993Y-72464628D02*
X146971993Y-72864628D01*
X146971993Y-72521771D02*
X146943422Y-72493200D01*
X146886279Y-72464628D01*
X146800565Y-72464628D01*
X146743422Y-72493200D01*
X146714850Y-72550342D01*
X146714850Y-72864628D01*
X146057708Y-72464628D02*
X145829136Y-72464628D01*
X145971993Y-72264628D02*
X145971993Y-72778914D01*
X145943422Y-72836057D01*
X145886279Y-72864628D01*
X145829136Y-72864628D01*
X145543422Y-72864628D02*
X145600565Y-72836057D01*
X145629136Y-72807485D01*
X145657708Y-72750342D01*
X145657708Y-72578914D01*
X145629136Y-72521771D01*
X145600565Y-72493200D01*
X145543422Y-72464628D01*
X145457708Y-72464628D01*
X145400565Y-72493200D01*
X145371993Y-72521771D01*
X145343422Y-72578914D01*
X145343422Y-72750342D01*
X145371993Y-72807485D01*
X145400565Y-72836057D01*
X145457708Y-72864628D01*
X145543422Y-72864628D01*
X144371993Y-72836057D02*
X144429136Y-72864628D01*
X144543422Y-72864628D01*
X144600565Y-72836057D01*
X144629136Y-72807485D01*
X144657708Y-72750342D01*
X144657708Y-72578914D01*
X144629136Y-72521771D01*
X144600565Y-72493200D01*
X144543422Y-72464628D01*
X144429136Y-72464628D01*
X144371993Y-72493200D01*
X143857708Y-72864628D02*
X143857708Y-72550342D01*
X143886279Y-72493200D01*
X143943422Y-72464628D01*
X144057708Y-72464628D01*
X144114850Y-72493200D01*
X143857708Y-72836057D02*
X143914850Y-72864628D01*
X144057708Y-72864628D01*
X144114850Y-72836057D01*
X144143422Y-72778914D01*
X144143422Y-72721771D01*
X144114850Y-72664628D01*
X144057708Y-72636057D01*
X143914850Y-72636057D01*
X143857708Y-72607485D01*
X143314850Y-72464628D02*
X143314850Y-72864628D01*
X143571993Y-72464628D02*
X143571993Y-72778914D01*
X143543422Y-72836057D01*
X143486279Y-72864628D01*
X143400565Y-72864628D01*
X143343422Y-72836057D01*
X143314850Y-72807485D01*
X143057708Y-72836057D02*
X143000565Y-72864628D01*
X142886279Y-72864628D01*
X142829136Y-72836057D01*
X142800565Y-72778914D01*
X142800565Y-72750342D01*
X142829136Y-72693200D01*
X142886279Y-72664628D01*
X142971993Y-72664628D01*
X143029136Y-72636057D01*
X143057708Y-72578914D01*
X143057708Y-72550342D01*
X143029136Y-72493200D01*
X142971993Y-72464628D01*
X142886279Y-72464628D01*
X142829136Y-72493200D01*
X142314850Y-72836057D02*
X142371993Y-72864628D01*
X142486279Y-72864628D01*
X142543422Y-72836057D01*
X142571993Y-72778914D01*
X142571993Y-72550342D01*
X142543422Y-72493200D01*
X142486279Y-72464628D01*
X142371993Y-72464628D01*
X142314850Y-72493200D01*
X142286279Y-72550342D01*
X142286279Y-72607485D01*
X142571993Y-72664628D01*
X141571993Y-72864628D02*
X141571993Y-72264628D01*
X141429136Y-72264628D01*
X141343422Y-72293200D01*
X141286279Y-72350342D01*
X141257708Y-72407485D01*
X141229136Y-72521771D01*
X141229136Y-72607485D01*
X141257708Y-72721771D01*
X141286279Y-72778914D01*
X141343422Y-72836057D01*
X141429136Y-72864628D01*
X141571993Y-72864628D01*
X140743422Y-72836057D02*
X140800565Y-72864628D01*
X140914850Y-72864628D01*
X140971993Y-72836057D01*
X141000565Y-72778914D01*
X141000565Y-72550342D01*
X140971993Y-72493200D01*
X140914850Y-72464628D01*
X140800565Y-72464628D01*
X140743422Y-72493200D01*
X140714850Y-72550342D01*
X140714850Y-72607485D01*
X141000565Y-72664628D01*
X140371993Y-72864628D02*
X140429136Y-72836057D01*
X140457708Y-72778914D01*
X140457708Y-72264628D01*
X140229136Y-72464628D02*
X140000565Y-72464628D01*
X140143422Y-72264628D02*
X140143422Y-72778914D01*
X140114850Y-72836057D01*
X140057708Y-72864628D01*
X140000565Y-72864628D01*
X139543422Y-72864628D02*
X139543422Y-72550342D01*
X139571993Y-72493200D01*
X139629136Y-72464628D01*
X139743422Y-72464628D01*
X139800565Y-72493200D01*
X139543422Y-72836057D02*
X139600565Y-72864628D01*
X139743422Y-72864628D01*
X139800565Y-72836057D01*
X139829136Y-72778914D01*
X139829136Y-72721771D01*
X139800565Y-72664628D01*
X139743422Y-72636057D01*
X139600565Y-72636057D01*
X139543422Y-72607485D01*
X138457708Y-72864628D02*
X138657708Y-72578914D01*
X138800565Y-72864628D02*
X138800565Y-72264628D01*
X138571993Y-72264628D01*
X138514850Y-72293200D01*
X138486279Y-72321771D01*
X138457708Y-72378914D01*
X138457708Y-72464628D01*
X138486279Y-72521771D01*
X138514850Y-72550342D01*
X138571993Y-72578914D01*
X138800565Y-72578914D01*
X137943422Y-72864628D02*
X137943422Y-72550342D01*
X137971993Y-72493200D01*
X138029136Y-72464628D01*
X138143422Y-72464628D01*
X138200565Y-72493200D01*
X137943422Y-72836057D02*
X138000565Y-72864628D01*
X138143422Y-72864628D01*
X138200565Y-72836057D01*
X138229136Y-72778914D01*
X138229136Y-72721771D01*
X138200565Y-72664628D01*
X138143422Y-72636057D01*
X138000565Y-72636057D01*
X137943422Y-72607485D01*
X137400565Y-72864628D02*
X137400565Y-72264628D01*
X137400565Y-72836057D02*
X137457708Y-72864628D01*
X137571993Y-72864628D01*
X137629136Y-72836057D01*
X137657708Y-72807485D01*
X137686279Y-72750342D01*
X137686279Y-72578914D01*
X137657708Y-72521771D01*
X137629136Y-72493200D01*
X137571993Y-72464628D01*
X137457708Y-72464628D01*
X137400565Y-72493200D01*
X137114850Y-72864628D02*
X137114850Y-72464628D01*
X137114850Y-72264628D02*
X137143422Y-72293200D01*
X137114850Y-72321771D01*
X137086279Y-72293200D01*
X137114850Y-72264628D01*
X137114850Y-72321771D01*
X136571993Y-72864628D02*
X136571993Y-72550342D01*
X136600565Y-72493200D01*
X136657708Y-72464628D01*
X136771993Y-72464628D01*
X136829136Y-72493200D01*
X136571993Y-72836057D02*
X136629136Y-72864628D01*
X136771993Y-72864628D01*
X136829136Y-72836057D01*
X136857708Y-72778914D01*
X136857708Y-72721771D01*
X136829136Y-72664628D01*
X136771993Y-72636057D01*
X136629136Y-72636057D01*
X136571993Y-72607485D01*
X136371993Y-72464628D02*
X136143422Y-72464628D01*
X136286279Y-72264628D02*
X136286279Y-72778914D01*
X136257708Y-72836057D01*
X136200565Y-72864628D01*
X136143422Y-72864628D01*
X135943422Y-72864628D02*
X135943422Y-72464628D01*
X135943422Y-72264628D02*
X135971993Y-72293200D01*
X135943422Y-72321771D01*
X135914850Y-72293200D01*
X135943422Y-72264628D01*
X135943422Y-72321771D01*
X135571993Y-72864628D02*
X135629136Y-72836057D01*
X135657708Y-72807485D01*
X135686279Y-72750342D01*
X135686279Y-72578914D01*
X135657708Y-72521771D01*
X135629136Y-72493200D01*
X135571993Y-72464628D01*
X135486279Y-72464628D01*
X135429136Y-72493200D01*
X135400565Y-72521771D01*
X135371993Y-72578914D01*
X135371993Y-72750342D01*
X135400565Y-72807485D01*
X135429136Y-72836057D01*
X135486279Y-72864628D01*
X135571993Y-72864628D01*
X135114850Y-72464628D02*
X135114850Y-72864628D01*
X135114850Y-72521771D02*
X135086279Y-72493200D01*
X135029136Y-72464628D01*
X134943422Y-72464628D01*
X134886279Y-72493200D01*
X134857708Y-72550342D01*
X134857708Y-72864628D01*
X134114850Y-72864628D02*
X134114850Y-72264628D01*
X133886279Y-72264628D01*
X133829136Y-72293200D01*
X133800565Y-72321771D01*
X133771993Y-72378914D01*
X133771993Y-72464628D01*
X133800565Y-72521771D01*
X133829136Y-72550342D01*
X133886279Y-72578914D01*
X134114850Y-72578914D01*
X133429136Y-72864628D02*
X133486279Y-72836057D01*
X133514850Y-72807485D01*
X133543422Y-72750342D01*
X133543422Y-72578914D01*
X133514850Y-72521771D01*
X133486279Y-72493200D01*
X133429136Y-72464628D01*
X133343422Y-72464628D01*
X133286279Y-72493200D01*
X133257708Y-72521771D01*
X133229136Y-72578914D01*
X133229136Y-72750342D01*
X133257708Y-72807485D01*
X133286279Y-72836057D01*
X133343422Y-72864628D01*
X133429136Y-72864628D01*
X132971993Y-72864628D02*
X132971993Y-72464628D01*
X132971993Y-72264628D02*
X133000565Y-72293200D01*
X132971993Y-72321771D01*
X132943422Y-72293200D01*
X132971993Y-72264628D01*
X132971993Y-72321771D01*
X132714850Y-72836057D02*
X132657708Y-72864628D01*
X132543422Y-72864628D01*
X132486279Y-72836057D01*
X132457708Y-72778914D01*
X132457708Y-72750342D01*
X132486279Y-72693200D01*
X132543422Y-72664628D01*
X132629136Y-72664628D01*
X132686279Y-72636057D01*
X132714850Y-72578914D01*
X132714850Y-72550342D01*
X132686279Y-72493200D01*
X132629136Y-72464628D01*
X132543422Y-72464628D01*
X132486279Y-72493200D01*
X132114850Y-72864628D02*
X132171993Y-72836057D01*
X132200565Y-72807485D01*
X132229136Y-72750342D01*
X132229136Y-72578914D01*
X132200565Y-72521771D01*
X132171993Y-72493200D01*
X132114850Y-72464628D01*
X132029136Y-72464628D01*
X131971993Y-72493200D01*
X131943422Y-72521771D01*
X131914850Y-72578914D01*
X131914850Y-72750342D01*
X131943422Y-72807485D01*
X131971993Y-72836057D01*
X132029136Y-72864628D01*
X132114850Y-72864628D01*
X131657708Y-72464628D02*
X131657708Y-72864628D01*
X131657708Y-72521771D02*
X131629136Y-72493200D01*
X131571993Y-72464628D01*
X131486279Y-72464628D01*
X131429136Y-72493200D01*
X131400565Y-72550342D01*
X131400565Y-72864628D01*
X131114850Y-72864628D02*
X131114850Y-72464628D01*
X131114850Y-72264628D02*
X131143422Y-72293200D01*
X131114850Y-72321771D01*
X131086279Y-72293200D01*
X131114850Y-72264628D01*
X131114850Y-72321771D01*
X130829136Y-72464628D02*
X130829136Y-72864628D01*
X130829136Y-72521771D02*
X130800565Y-72493200D01*
X130743422Y-72464628D01*
X130657708Y-72464628D01*
X130600565Y-72493200D01*
X130571993Y-72550342D01*
X130571993Y-72864628D01*
X130029136Y-72464628D02*
X130029136Y-72950342D01*
X130057708Y-73007485D01*
X130086279Y-73036057D01*
X130143422Y-73064628D01*
X130229136Y-73064628D01*
X130286279Y-73036057D01*
X130029136Y-72836057D02*
X130086279Y-72864628D01*
X130200565Y-72864628D01*
X130257708Y-72836057D01*
X130286279Y-72807485D01*
X130314850Y-72750342D01*
X130314850Y-72578914D01*
X130286279Y-72521771D01*
X130257708Y-72493200D01*
X130200565Y-72464628D01*
X130086279Y-72464628D01*
X130029136Y-72493200D01*
X129200565Y-72864628D02*
X129257708Y-72836057D01*
X129286279Y-72807485D01*
X129314850Y-72750342D01*
X129314850Y-72578914D01*
X129286279Y-72521771D01*
X129257708Y-72493200D01*
X129200565Y-72464628D01*
X129114850Y-72464628D01*
X129057708Y-72493200D01*
X129029136Y-72521771D01*
X129000565Y-72578914D01*
X129000565Y-72750342D01*
X129029136Y-72807485D01*
X129057708Y-72836057D01*
X129114850Y-72864628D01*
X129200565Y-72864628D01*
X128743422Y-72464628D02*
X128743422Y-72864628D01*
X128743422Y-72521771D02*
X128714850Y-72493200D01*
X128657708Y-72464628D01*
X128571993Y-72464628D01*
X128514850Y-72493200D01*
X128486279Y-72550342D01*
X128486279Y-72864628D01*
X127543422Y-72550342D02*
X127457708Y-72578914D01*
X127429136Y-72607485D01*
X127400565Y-72664628D01*
X127400565Y-72750342D01*
X127429136Y-72807485D01*
X127457708Y-72836057D01*
X127514850Y-72864628D01*
X127743422Y-72864628D01*
X127743422Y-72264628D01*
X127543422Y-72264628D01*
X127486279Y-72293200D01*
X127457708Y-72321771D01*
X127429136Y-72378914D01*
X127429136Y-72436057D01*
X127457708Y-72493200D01*
X127486279Y-72521771D01*
X127543422Y-72550342D01*
X127743422Y-72550342D01*
X126914850Y-72836057D02*
X126971993Y-72864628D01*
X127086279Y-72864628D01*
X127143422Y-72836057D01*
X127171993Y-72778914D01*
X127171993Y-72550342D01*
X127143422Y-72493200D01*
X127086279Y-72464628D01*
X126971993Y-72464628D01*
X126914850Y-72493200D01*
X126886279Y-72550342D01*
X126886279Y-72607485D01*
X127171993Y-72664628D01*
X126714850Y-72464628D02*
X126486279Y-72464628D01*
X126629136Y-72264628D02*
X126629136Y-72778914D01*
X126600565Y-72836057D01*
X126543422Y-72864628D01*
X126486279Y-72864628D01*
X126029136Y-72864628D02*
X126029136Y-72550342D01*
X126057708Y-72493200D01*
X126114850Y-72464628D01*
X126229136Y-72464628D01*
X126286279Y-72493200D01*
X126029136Y-72836057D02*
X126086279Y-72864628D01*
X126229136Y-72864628D01*
X126286279Y-72836057D01*
X126314850Y-72778914D01*
X126314850Y-72721771D01*
X126286279Y-72664628D01*
X126229136Y-72636057D01*
X126086279Y-72636057D01*
X126029136Y-72607485D01*
X125800565Y-72464628D02*
X125486279Y-72464628D01*
X125800565Y-72864628D01*
X125486279Y-72864628D01*
X125029136Y-72836057D02*
X125086279Y-72864628D01*
X125200565Y-72864628D01*
X125257708Y-72836057D01*
X125286279Y-72778914D01*
X125286279Y-72550342D01*
X125257708Y-72493200D01*
X125200565Y-72464628D01*
X125086279Y-72464628D01*
X125029136Y-72493200D01*
X125000565Y-72550342D01*
X125000565Y-72607485D01*
X125286279Y-72664628D01*
X124486279Y-72864628D02*
X124486279Y-72264628D01*
X124486279Y-72836057D02*
X124543422Y-72864628D01*
X124657708Y-72864628D01*
X124714850Y-72836057D01*
X124743422Y-72807485D01*
X124771993Y-72750342D01*
X124771993Y-72578914D01*
X124743422Y-72521771D01*
X124714850Y-72493200D01*
X124657708Y-72464628D01*
X124543422Y-72464628D01*
X124486279Y-72493200D01*
D11*
X158710547Y-93806780D02*
X158139119Y-93806780D01*
X158424833Y-94806780D02*
X158424833Y-93806780D01*
X157234357Y-94806780D02*
X157567690Y-94330590D01*
X157805785Y-94806780D02*
X157805785Y-93806780D01*
X157424833Y-93806780D01*
X157329595Y-93854400D01*
X157281976Y-93902019D01*
X157234357Y-93997257D01*
X157234357Y-94140114D01*
X157281976Y-94235352D01*
X157329595Y-94282971D01*
X157424833Y-94330590D01*
X157805785Y-94330590D01*
X155520071Y-94806780D02*
X156091500Y-94806780D01*
X155805785Y-94806780D02*
X155805785Y-93806780D01*
X155901024Y-93949638D01*
X155996262Y-94044876D01*
X156091500Y-94092495D01*
X154901024Y-93806780D02*
X154805785Y-93806780D01*
X154710547Y-93854400D01*
X154662928Y-93902019D01*
X154615309Y-93997257D01*
X154567690Y-94187733D01*
X154567690Y-94425828D01*
X154615309Y-94616304D01*
X154662928Y-94711542D01*
X154710547Y-94759161D01*
X154805785Y-94806780D01*
X154901024Y-94806780D01*
X154996262Y-94759161D01*
X155043881Y-94711542D01*
X155091500Y-94616304D01*
X155139119Y-94425828D01*
X155139119Y-94187733D01*
X155091500Y-93997257D01*
X155043881Y-93902019D01*
X154996262Y-93854400D01*
X154901024Y-93806780D01*
X154091500Y-94806780D02*
X153901024Y-94806780D01*
X153805785Y-94759161D01*
X153758166Y-94711542D01*
X153662928Y-94568685D01*
X153615309Y-94378209D01*
X153615309Y-93997257D01*
X153662928Y-93902019D01*
X153710547Y-93854400D01*
X153805785Y-93806780D01*
X153996262Y-93806780D01*
X154091500Y-93854400D01*
X154139119Y-93902019D01*
X154186738Y-93997257D01*
X154186738Y-94235352D01*
X154139119Y-94330590D01*
X154091500Y-94378209D01*
X153996262Y-94425828D01*
X153805785Y-94425828D01*
X153710547Y-94378209D01*
X153662928Y-94330590D01*
X153615309Y-94235352D01*
X152424833Y-94425828D02*
X151662928Y-94425828D01*
X150424833Y-94806780D02*
X150424833Y-93806780D01*
X150091500Y-94521066D01*
X149758166Y-93806780D01*
X149758166Y-94806780D01*
X148853404Y-94806780D02*
X148853404Y-94282971D01*
X148901024Y-94187733D01*
X148996262Y-94140114D01*
X149186738Y-94140114D01*
X149281976Y-94187733D01*
X148853404Y-94759161D02*
X148948643Y-94806780D01*
X149186738Y-94806780D01*
X149281976Y-94759161D01*
X149329595Y-94663923D01*
X149329595Y-94568685D01*
X149281976Y-94473447D01*
X149186738Y-94425828D01*
X148948643Y-94425828D01*
X148853404Y-94378209D01*
X148377214Y-94806780D02*
X148377214Y-94140114D01*
X148377214Y-93806780D02*
X148424833Y-93854400D01*
X148377214Y-93902019D01*
X148329595Y-93854400D01*
X148377214Y-93806780D01*
X148377214Y-93902019D01*
X147901024Y-94140114D02*
X147901024Y-94806780D01*
X147901024Y-94235352D02*
X147853404Y-94187733D01*
X147758166Y-94140114D01*
X147615309Y-94140114D01*
X147520071Y-94187733D01*
X147472452Y-94282971D01*
X147472452Y-94806780D01*
X146996262Y-94806780D02*
X146996262Y-93806780D01*
X146996262Y-94187733D02*
X146901024Y-94140114D01*
X146710547Y-94140114D01*
X146615309Y-94187733D01*
X146567690Y-94235352D01*
X146520071Y-94330590D01*
X146520071Y-94616304D01*
X146567690Y-94711542D01*
X146615309Y-94759161D01*
X146710547Y-94806780D01*
X146901024Y-94806780D01*
X146996262Y-94759161D01*
X145948643Y-94806780D02*
X146043881Y-94759161D01*
X146091500Y-94711542D01*
X146139119Y-94616304D01*
X146139119Y-94330590D01*
X146091500Y-94235352D01*
X146043881Y-94187733D01*
X145948643Y-94140114D01*
X145805785Y-94140114D01*
X145710547Y-94187733D01*
X145662928Y-94235352D01*
X145615309Y-94330590D01*
X145615309Y-94616304D01*
X145662928Y-94711542D01*
X145710547Y-94759161D01*
X145805785Y-94806780D01*
X145948643Y-94806780D01*
X144758166Y-94806780D02*
X144758166Y-94282971D01*
X144805785Y-94187733D01*
X144901024Y-94140114D01*
X145091500Y-94140114D01*
X145186738Y-94187733D01*
X144758166Y-94759161D02*
X144853404Y-94806780D01*
X145091500Y-94806780D01*
X145186738Y-94759161D01*
X145234357Y-94663923D01*
X145234357Y-94568685D01*
X145186738Y-94473447D01*
X145091500Y-94425828D01*
X144853404Y-94425828D01*
X144758166Y-94378209D01*
X144281976Y-94806780D02*
X144281976Y-94140114D01*
X144281976Y-94330590D02*
X144234357Y-94235352D01*
X144186738Y-94187733D01*
X144091500Y-94140114D01*
X143996262Y-94140114D01*
X143234357Y-94806780D02*
X143234357Y-93806780D01*
X143234357Y-94759161D02*
X143329595Y-94806780D01*
X143520071Y-94806780D01*
X143615309Y-94759161D01*
X143662928Y-94711542D01*
X143710547Y-94616304D01*
X143710547Y-94330590D01*
X143662928Y-94235352D01*
X143615309Y-94187733D01*
X143520071Y-94140114D01*
X143329595Y-94140114D01*
X143234357Y-94187733D01*
D10*
X157990785Y-109445152D02*
X157990785Y-109045152D01*
X157838404Y-109045152D01*
X157800309Y-109064200D01*
X157781262Y-109083247D01*
X157762214Y-109121342D01*
X157762214Y-109178485D01*
X157781262Y-109216580D01*
X157800309Y-109235628D01*
X157838404Y-109254676D01*
X157990785Y-109254676D01*
X157609833Y-109083247D02*
X157590785Y-109064200D01*
X157552690Y-109045152D01*
X157457452Y-109045152D01*
X157419357Y-109064200D01*
X157400309Y-109083247D01*
X157381262Y-109121342D01*
X157381262Y-109159438D01*
X157400309Y-109216580D01*
X157628881Y-109445152D01*
X157381262Y-109445152D01*
X157209833Y-109292771D02*
X156905071Y-109292771D01*
X156714595Y-109445152D02*
X156714595Y-109045152D01*
X156581262Y-109330866D01*
X156447928Y-109045152D01*
X156447928Y-109445152D01*
X156124119Y-109235628D02*
X156066976Y-109254676D01*
X156047928Y-109273723D01*
X156028881Y-109311819D01*
X156028881Y-109368961D01*
X156047928Y-109407057D01*
X156066976Y-109426104D01*
X156105071Y-109445152D01*
X156257452Y-109445152D01*
X156257452Y-109045152D01*
X156124119Y-109045152D01*
X156086024Y-109064200D01*
X156066976Y-109083247D01*
X156047928Y-109121342D01*
X156047928Y-109159438D01*
X156066976Y-109197533D01*
X156086024Y-109216580D01*
X156124119Y-109235628D01*
X156257452Y-109235628D01*
X155647928Y-109445152D02*
X155876500Y-109445152D01*
X155762214Y-109445152D02*
X155762214Y-109045152D01*
X155800309Y-109102295D01*
X155838404Y-109140390D01*
X155876500Y-109159438D01*
X155400309Y-109045152D02*
X155362214Y-109045152D01*
X155324119Y-109064200D01*
X155305071Y-109083247D01*
X155286024Y-109121342D01*
X155266976Y-109197533D01*
X155266976Y-109292771D01*
X155286024Y-109368961D01*
X155305071Y-109407057D01*
X155324119Y-109426104D01*
X155362214Y-109445152D01*
X155400309Y-109445152D01*
X155438404Y-109426104D01*
X155457452Y-109407057D01*
X155476500Y-109368961D01*
X155495547Y-109292771D01*
X155495547Y-109197533D01*
X155476500Y-109121342D01*
X155457452Y-109083247D01*
X155438404Y-109064200D01*
X155400309Y-109045152D01*
X155076500Y-109445152D02*
X155000309Y-109445152D01*
X154962214Y-109426104D01*
X154943166Y-109407057D01*
X154905071Y-109349914D01*
X154886024Y-109273723D01*
X154886024Y-109121342D01*
X154905071Y-109083247D01*
X154924119Y-109064200D01*
X154962214Y-109045152D01*
X155038404Y-109045152D01*
X155076500Y-109064200D01*
X155095547Y-109083247D01*
X155114595Y-109121342D01*
X155114595Y-109216580D01*
X155095547Y-109254676D01*
X155076500Y-109273723D01*
X155038404Y-109292771D01*
X154962214Y-109292771D01*
X154924119Y-109273723D01*
X154905071Y-109254676D01*
X154886024Y-109216580D01*
X154714595Y-109292771D02*
X154409833Y-109292771D01*
X154143166Y-109045152D02*
X154105071Y-109045152D01*
X154066976Y-109064200D01*
X154047928Y-109083247D01*
X154028881Y-109121342D01*
X154009833Y-109197533D01*
X154009833Y-109292771D01*
X154028881Y-109368961D01*
X154047928Y-109407057D01*
X154066976Y-109426104D01*
X154105071Y-109445152D01*
X154143166Y-109445152D01*
X154181262Y-109426104D01*
X154200309Y-109407057D01*
X154219357Y-109368961D01*
X154238404Y-109292771D01*
X154238404Y-109197533D01*
X154219357Y-109121342D01*
X154200309Y-109083247D01*
X154181262Y-109064200D01*
X154143166Y-109045152D01*
X153876500Y-109045152D02*
X153628881Y-109045152D01*
X153762214Y-109197533D01*
X153705071Y-109197533D01*
X153666976Y-109216580D01*
X153647928Y-109235628D01*
X153628881Y-109273723D01*
X153628881Y-109368961D01*
X153647928Y-109407057D01*
X153666976Y-109426104D01*
X153705071Y-109445152D01*
X153819357Y-109445152D01*
X153857452Y-109426104D01*
X153876500Y-109407057D01*
X153152690Y-109292771D02*
X152847928Y-109292771D01*
X152371738Y-109426104D02*
X152314595Y-109445152D01*
X152219357Y-109445152D01*
X152181262Y-109426104D01*
X152162214Y-109407057D01*
X152143166Y-109368961D01*
X152143166Y-109330866D01*
X152162214Y-109292771D01*
X152181262Y-109273723D01*
X152219357Y-109254676D01*
X152295547Y-109235628D01*
X152333643Y-109216580D01*
X152352690Y-109197533D01*
X152371738Y-109159438D01*
X152371738Y-109121342D01*
X152352690Y-109083247D01*
X152333643Y-109064200D01*
X152295547Y-109045152D01*
X152200309Y-109045152D01*
X152143166Y-109064200D01*
X151971738Y-109445152D02*
X151971738Y-109045152D01*
X151933643Y-109292771D02*
X151819357Y-109445152D01*
X151819357Y-109178485D02*
X151971738Y-109330866D01*
X151476500Y-109178485D02*
X151476500Y-109445152D01*
X151647928Y-109178485D02*
X151647928Y-109388009D01*
X151628881Y-109426104D01*
X151590785Y-109445152D01*
X151533643Y-109445152D01*
X151495547Y-109426104D01*
X151476500Y-109407057D01*
X151286024Y-109445152D02*
X151286024Y-109178485D01*
X151286024Y-109254676D02*
X151266976Y-109216580D01*
X151247928Y-109197533D01*
X151209833Y-109178485D01*
X151171738Y-109178485D01*
X151095547Y-109178485D02*
X150943166Y-109178485D01*
X151038404Y-109445152D02*
X151038404Y-109102295D01*
X151019357Y-109064200D01*
X150981262Y-109045152D01*
X150943166Y-109045152D01*
X150505071Y-109445152D02*
X150505071Y-109045152D01*
X150409833Y-109045152D01*
X150352690Y-109064200D01*
X150314595Y-109102295D01*
X150295547Y-109140390D01*
X150276500Y-109216580D01*
X150276500Y-109273723D01*
X150295547Y-109349914D01*
X150314595Y-109388009D01*
X150352690Y-109426104D01*
X150409833Y-109445152D01*
X150505071Y-109445152D01*
X149933643Y-109178485D02*
X149933643Y-109445152D01*
X150105071Y-109178485D02*
X150105071Y-109388009D01*
X150086024Y-109426104D01*
X150047928Y-109445152D01*
X149990785Y-109445152D01*
X149952690Y-109426104D01*
X149933643Y-109407057D01*
X149686024Y-109445152D02*
X149724119Y-109426104D01*
X149743166Y-109407057D01*
X149762214Y-109368961D01*
X149762214Y-109254676D01*
X149743166Y-109216580D01*
X149724119Y-109197533D01*
X149686024Y-109178485D01*
X149628881Y-109178485D01*
X149590785Y-109197533D01*
X149571738Y-109216580D01*
X149552690Y-109254676D01*
X149552690Y-109368961D01*
X149571738Y-109407057D01*
X149590785Y-109426104D01*
X149628881Y-109445152D01*
X149686024Y-109445152D01*
X149438404Y-109178485D02*
X149286024Y-109178485D01*
X149381262Y-109045152D02*
X149381262Y-109388009D01*
X149362214Y-109426104D01*
X149324119Y-109445152D01*
X149286024Y-109445152D01*
X149152690Y-109445152D02*
X149152690Y-109178485D01*
X149152690Y-109254676D02*
X149133643Y-109216580D01*
X149114595Y-109197533D01*
X149076500Y-109178485D01*
X149038404Y-109178485D01*
X148847928Y-109445152D02*
X148886024Y-109426104D01*
X148905071Y-109407057D01*
X148924119Y-109368961D01*
X148924119Y-109254676D01*
X148905071Y-109216580D01*
X148886024Y-109197533D01*
X148847928Y-109178485D01*
X148790785Y-109178485D01*
X148752690Y-109197533D01*
X148733643Y-109216580D01*
X148714595Y-109254676D01*
X148714595Y-109368961D01*
X148733643Y-109407057D01*
X148752690Y-109426104D01*
X148790785Y-109445152D01*
X148847928Y-109445152D01*
X148543166Y-109178485D02*
X148543166Y-109445152D01*
X148543166Y-109216580D02*
X148524119Y-109197533D01*
X148486024Y-109178485D01*
X148428881Y-109178485D01*
X148390785Y-109197533D01*
X148371738Y-109235628D01*
X148371738Y-109445152D01*
X148181262Y-109445152D02*
X148181262Y-109178485D01*
X148181262Y-109045152D02*
X148200309Y-109064200D01*
X148181262Y-109083247D01*
X148162214Y-109064200D01*
X148181262Y-109045152D01*
X148181262Y-109083247D01*
X147819357Y-109426104D02*
X147857452Y-109445152D01*
X147933643Y-109445152D01*
X147971738Y-109426104D01*
X147990785Y-109407057D01*
X148009833Y-109368961D01*
X148009833Y-109254676D01*
X147990785Y-109216580D01*
X147971738Y-109197533D01*
X147933643Y-109178485D01*
X147857452Y-109178485D01*
X147819357Y-109197533D01*
X147666976Y-109426104D02*
X147628881Y-109445152D01*
X147552690Y-109445152D01*
X147514595Y-109426104D01*
X147495547Y-109388009D01*
X147495547Y-109368961D01*
X147514595Y-109330866D01*
X147552690Y-109311819D01*
X147609833Y-109311819D01*
X147647928Y-109292771D01*
X147666976Y-109254676D01*
X147666976Y-109235628D01*
X147647928Y-109197533D01*
X147609833Y-109178485D01*
X147552690Y-109178485D01*
X147514595Y-109197533D01*
X147019357Y-109292771D02*
X146714595Y-109292771D01*
X146238404Y-109083247D02*
X146219357Y-109064200D01*
X146181262Y-109045152D01*
X146086024Y-109045152D01*
X146047928Y-109064200D01*
X146028881Y-109083247D01*
X146009833Y-109121342D01*
X146009833Y-109159438D01*
X146028881Y-109216580D01*
X146257452Y-109445152D01*
X146009833Y-109445152D01*
X145762214Y-109045152D02*
X145724119Y-109045152D01*
X145686024Y-109064200D01*
X145666976Y-109083247D01*
X145647928Y-109121342D01*
X145628881Y-109197533D01*
X145628881Y-109292771D01*
X145647928Y-109368961D01*
X145666976Y-109407057D01*
X145686024Y-109426104D01*
X145724119Y-109445152D01*
X145762214Y-109445152D01*
X145800309Y-109426104D01*
X145819357Y-109407057D01*
X145838404Y-109368961D01*
X145857452Y-109292771D01*
X145857452Y-109197533D01*
X145838404Y-109121342D01*
X145819357Y-109083247D01*
X145800309Y-109064200D01*
X145762214Y-109045152D01*
X145476500Y-109083247D02*
X145457452Y-109064200D01*
X145419357Y-109045152D01*
X145324119Y-109045152D01*
X145286024Y-109064200D01*
X145266976Y-109083247D01*
X145247928Y-109121342D01*
X145247928Y-109159438D01*
X145266976Y-109216580D01*
X145495547Y-109445152D01*
X145247928Y-109445152D01*
X144866976Y-109445152D02*
X145095547Y-109445152D01*
X144981262Y-109445152D02*
X144981262Y-109045152D01*
X145019357Y-109102295D01*
X145057452Y-109140390D01*
X145095547Y-109159438D01*
D12*
G36*
X148579585Y-96357196D02*
G01*
X147830198Y-96464599D01*
X147331845Y-96645059D01*
X147063727Y-96923331D01*
X147005050Y-97324172D01*
X147135016Y-97872336D01*
X147186839Y-98015110D01*
X147505124Y-98659758D01*
X147942731Y-99144267D01*
X148327982Y-99423042D01*
X148712825Y-99669301D01*
X148016384Y-100369403D01*
X147347050Y-101219949D01*
X146924782Y-102152373D01*
X146749670Y-103128861D01*
X146821809Y-104111596D01*
X147141291Y-105062764D01*
X147708209Y-105944550D01*
X148001931Y-106267021D01*
X148854640Y-106945031D01*
X149784946Y-107364820D01*
X150767996Y-107521902D01*
X151778936Y-107411792D01*
X152642190Y-107104490D01*
X153562096Y-106529259D01*
X154043324Y-106026855D01*
X153211935Y-106026855D01*
X153158873Y-106135211D01*
X152919690Y-106306934D01*
X152564180Y-106501797D01*
X152162136Y-106679574D01*
X151949293Y-106754608D01*
X151275609Y-106907634D01*
X150632233Y-106908501D01*
X149897241Y-106755641D01*
X149797271Y-106726945D01*
X149141446Y-106426130D01*
X148502679Y-105946824D01*
X147955680Y-105360695D01*
X147575161Y-104739409D01*
X147491600Y-104515232D01*
X147404303Y-104113188D01*
X147347624Y-103639833D01*
X147324123Y-103171997D01*
X147336361Y-102786512D01*
X147386897Y-102560206D01*
X147425476Y-102530680D01*
X147550196Y-102640429D01*
X147744240Y-102916105D01*
X147835002Y-103067692D01*
X148257791Y-103611691D01*
X148887396Y-104173064D01*
X149660346Y-104712891D01*
X150513170Y-105192251D01*
X151382398Y-105572226D01*
X152204559Y-105813896D01*
X152360447Y-105842647D01*
X152797364Y-105920954D01*
X153108931Y-105990301D01*
X153211935Y-106026855D01*
X154043324Y-106026855D01*
X154276531Y-105783387D01*
X154768531Y-104893244D01*
X154795921Y-104783939D01*
X153920442Y-104783939D01*
X153882693Y-104978829D01*
X153681643Y-105172347D01*
X153353078Y-105357347D01*
X152945059Y-105414082D01*
X152401631Y-105342128D01*
X151719365Y-105157395D01*
X150923833Y-104849538D01*
X150159507Y-104441149D01*
X149459257Y-103963117D01*
X148855951Y-103446330D01*
X148382460Y-102921676D01*
X148071652Y-102420041D01*
X147956397Y-101972315D01*
X148022011Y-101682951D01*
X148138209Y-101525756D01*
X148320125Y-101447304D01*
X148642398Y-101430668D01*
X149047999Y-101450273D01*
X149843646Y-101593162D01*
X150701592Y-101902178D01*
X151563132Y-102340144D01*
X152369561Y-102869885D01*
X153062174Y-103454224D01*
X153582267Y-104055986D01*
X153812048Y-104467201D01*
X153920442Y-104783939D01*
X154795921Y-104783939D01*
X155021134Y-103885198D01*
X155052197Y-103360927D01*
X154490259Y-103360927D01*
X154482739Y-103828560D01*
X154443596Y-103996503D01*
X154361832Y-104126352D01*
X154251391Y-104056682D01*
X154099857Y-103827858D01*
X153858337Y-103511784D01*
X153492992Y-103120707D01*
X153185867Y-102831969D01*
X152372025Y-102210289D01*
X151460690Y-101672256D01*
X150521365Y-101249176D01*
X149623558Y-100972354D01*
X148836774Y-100873095D01*
X148836630Y-100873095D01*
X148485138Y-100847158D01*
X148372108Y-100761853D01*
X148503114Y-100605942D01*
X148883732Y-100368184D01*
X149160789Y-100219574D01*
X149870958Y-99960282D01*
X150686720Y-99834481D01*
X151507556Y-99845988D01*
X152232946Y-99998621D01*
X152462194Y-100094187D01*
X153181155Y-100584037D01*
X153802341Y-101259722D01*
X154110049Y-101753482D01*
X154288716Y-102221187D01*
X154420518Y-102791069D01*
X154490259Y-103360927D01*
X155052197Y-103360927D01*
X155052378Y-103357878D01*
X154960993Y-102398599D01*
X154667565Y-101567695D01*
X154143186Y-100797116D01*
X153813287Y-100440992D01*
X153036889Y-99663780D01*
X153486309Y-99421751D01*
X153989802Y-99017153D01*
X154408222Y-98434006D01*
X154680944Y-97768764D01*
X154745430Y-97418544D01*
X154756619Y-97212591D01*
X154309705Y-97212591D01*
X154286318Y-97460727D01*
X154092835Y-98057727D01*
X153766484Y-98562462D01*
X153353818Y-98944739D01*
X152901390Y-99174363D01*
X152455755Y-99221140D01*
X152063465Y-99054877D01*
X151968002Y-98964356D01*
X151826330Y-98770179D01*
X151867377Y-98612730D01*
X152050139Y-98429860D01*
X152356125Y-98182525D01*
X152767280Y-97886693D01*
X152947215Y-97766451D01*
X153281170Y-97541691D01*
X153493664Y-97383666D01*
X153533900Y-97341686D01*
X153425908Y-97348098D01*
X153150889Y-97455381D01*
X152782282Y-97628759D01*
X152393523Y-97833451D01*
X152058050Y-98034679D01*
X152027770Y-98054963D01*
X151704053Y-98253576D01*
X151507347Y-98295083D01*
X151350479Y-98196592D01*
X151343142Y-98189325D01*
X151222249Y-97998283D01*
X151248098Y-97795036D01*
X150632873Y-97795036D01*
X150584789Y-98139031D01*
X150426810Y-98274743D01*
X150126832Y-98209191D01*
X149724786Y-97993557D01*
X149238203Y-97716737D01*
X148889626Y-97551010D01*
X148702301Y-97498103D01*
X148699473Y-97559742D01*
X148904386Y-97737654D01*
X149220042Y-97956066D01*
X149637641Y-98254742D01*
X149944034Y-98522598D01*
X150080586Y-98707474D01*
X150082813Y-98723552D01*
X149964981Y-98970570D01*
X149662044Y-99122181D01*
X149249840Y-99173154D01*
X148804208Y-99118264D01*
X148400985Y-98952280D01*
X148263401Y-98848978D01*
X147890736Y-98393337D01*
X147619733Y-97841258D01*
X147520554Y-97394077D01*
X147553919Y-97117551D01*
X147746807Y-96972082D01*
X147928608Y-96920040D01*
X148588767Y-96841921D01*
X149408456Y-96866854D01*
X149646733Y-96891728D01*
X150005672Y-97025735D01*
X150348030Y-97291042D01*
X150582156Y-97603694D01*
X150632873Y-97795036D01*
X151248098Y-97795036D01*
X151254531Y-97744457D01*
X151317337Y-97579045D01*
X151519755Y-97239243D01*
X151827754Y-97017077D01*
X152299192Y-96885034D01*
X152912705Y-96820405D01*
X153404197Y-96831995D01*
X153869559Y-96907250D01*
X153911517Y-96919036D01*
X154212321Y-97039671D01*
X154309705Y-97212591D01*
X154756619Y-97212591D01*
X154766944Y-97022556D01*
X154707211Y-96803480D01*
X154528656Y-96665619D01*
X154431513Y-96619015D01*
X154081349Y-96508210D01*
X153589852Y-96409179D01*
X153267504Y-96365913D01*
X152653746Y-96367802D01*
X152057690Y-96481976D01*
X151549652Y-96683328D01*
X151199950Y-96946745D01*
X151089720Y-97143608D01*
X150965805Y-97388030D01*
X150817463Y-97364638D01*
X150699624Y-97132104D01*
X150472805Y-96830632D01*
X150042377Y-96581797D01*
X149479534Y-96411621D01*
X148855466Y-96346125D01*
X148579585Y-96357196D01*
G37*
X148579585Y-96357196D02*
X147830198Y-96464599D01*
X147331845Y-96645059D01*
X147063727Y-96923331D01*
X147005050Y-97324172D01*
X147135016Y-97872336D01*
X147186839Y-98015110D01*
X147505124Y-98659758D01*
X147942731Y-99144267D01*
X148327982Y-99423042D01*
X148712825Y-99669301D01*
X148016384Y-100369403D01*
X147347050Y-101219949D01*
X146924782Y-102152373D01*
X146749670Y-103128861D01*
X146821809Y-104111596D01*
X147141291Y-105062764D01*
X147708209Y-105944550D01*
X148001931Y-106267021D01*
X148854640Y-106945031D01*
X149784946Y-107364820D01*
X150767996Y-107521902D01*
X151778936Y-107411792D01*
X152642190Y-107104490D01*
X153562096Y-106529259D01*
X154043324Y-106026855D01*
X153211935Y-106026855D01*
X153158873Y-106135211D01*
X152919690Y-106306934D01*
X152564180Y-106501797D01*
X152162136Y-106679574D01*
X151949293Y-106754608D01*
X151275609Y-106907634D01*
X150632233Y-106908501D01*
X149897241Y-106755641D01*
X149797271Y-106726945D01*
X149141446Y-106426130D01*
X148502679Y-105946824D01*
X147955680Y-105360695D01*
X147575161Y-104739409D01*
X147491600Y-104515232D01*
X147404303Y-104113188D01*
X147347624Y-103639833D01*
X147324123Y-103171997D01*
X147336361Y-102786512D01*
X147386897Y-102560206D01*
X147425476Y-102530680D01*
X147550196Y-102640429D01*
X147744240Y-102916105D01*
X147835002Y-103067692D01*
X148257791Y-103611691D01*
X148887396Y-104173064D01*
X149660346Y-104712891D01*
X150513170Y-105192251D01*
X151382398Y-105572226D01*
X152204559Y-105813896D01*
X152360447Y-105842647D01*
X152797364Y-105920954D01*
X153108931Y-105990301D01*
X153211935Y-106026855D01*
X154043324Y-106026855D01*
X154276531Y-105783387D01*
X154768531Y-104893244D01*
X154795921Y-104783939D01*
X153920442Y-104783939D01*
X153882693Y-104978829D01*
X153681643Y-105172347D01*
X153353078Y-105357347D01*
X152945059Y-105414082D01*
X152401631Y-105342128D01*
X151719365Y-105157395D01*
X150923833Y-104849538D01*
X150159507Y-104441149D01*
X149459257Y-103963117D01*
X148855951Y-103446330D01*
X148382460Y-102921676D01*
X148071652Y-102420041D01*
X147956397Y-101972315D01*
X148022011Y-101682951D01*
X148138209Y-101525756D01*
X148320125Y-101447304D01*
X148642398Y-101430668D01*
X149047999Y-101450273D01*
X149843646Y-101593162D01*
X150701592Y-101902178D01*
X151563132Y-102340144D01*
X152369561Y-102869885D01*
X153062174Y-103454224D01*
X153582267Y-104055986D01*
X153812048Y-104467201D01*
X153920442Y-104783939D01*
X154795921Y-104783939D01*
X155021134Y-103885198D01*
X155052197Y-103360927D01*
X154490259Y-103360927D01*
X154482739Y-103828560D01*
X154443596Y-103996503D01*
X154361832Y-104126352D01*
X154251391Y-104056682D01*
X154099857Y-103827858D01*
X153858337Y-103511784D01*
X153492992Y-103120707D01*
X153185867Y-102831969D01*
X152372025Y-102210289D01*
X151460690Y-101672256D01*
X150521365Y-101249176D01*
X149623558Y-100972354D01*
X148836774Y-100873095D01*
X148836630Y-100873095D01*
X148485138Y-100847158D01*
X148372108Y-100761853D01*
X148503114Y-100605942D01*
X148883732Y-100368184D01*
X149160789Y-100219574D01*
X149870958Y-99960282D01*
X150686720Y-99834481D01*
X151507556Y-99845988D01*
X152232946Y-99998621D01*
X152462194Y-100094187D01*
X153181155Y-100584037D01*
X153802341Y-101259722D01*
X154110049Y-101753482D01*
X154288716Y-102221187D01*
X154420518Y-102791069D01*
X154490259Y-103360927D01*
X155052197Y-103360927D01*
X155052378Y-103357878D01*
X154960993Y-102398599D01*
X154667565Y-101567695D01*
X154143186Y-100797116D01*
X153813287Y-100440992D01*
X153036889Y-99663780D01*
X153486309Y-99421751D01*
X153989802Y-99017153D01*
X154408222Y-98434006D01*
X154680944Y-97768764D01*
X154745430Y-97418544D01*
X154756619Y-97212591D01*
X154309705Y-97212591D01*
X154286318Y-97460727D01*
X154092835Y-98057727D01*
X153766484Y-98562462D01*
X153353818Y-98944739D01*
X152901390Y-99174363D01*
X152455755Y-99221140D01*
X152063465Y-99054877D01*
X151968002Y-98964356D01*
X151826330Y-98770179D01*
X151867377Y-98612730D01*
X152050139Y-98429860D01*
X152356125Y-98182525D01*
X152767280Y-97886693D01*
X152947215Y-97766451D01*
X153281170Y-97541691D01*
X153493664Y-97383666D01*
X153533900Y-97341686D01*
X153425908Y-97348098D01*
X153150889Y-97455381D01*
X152782282Y-97628759D01*
X152393523Y-97833451D01*
X152058050Y-98034679D01*
X152027770Y-98054963D01*
X151704053Y-98253576D01*
X151507347Y-98295083D01*
X151350479Y-98196592D01*
X151343142Y-98189325D01*
X151222249Y-97998283D01*
X151248098Y-97795036D01*
X150632873Y-97795036D01*
X150584789Y-98139031D01*
X150426810Y-98274743D01*
X150126832Y-98209191D01*
X149724786Y-97993557D01*
X149238203Y-97716737D01*
X148889626Y-97551010D01*
X148702301Y-97498103D01*
X148699473Y-97559742D01*
X148904386Y-97737654D01*
X149220042Y-97956066D01*
X149637641Y-98254742D01*
X149944034Y-98522598D01*
X150080586Y-98707474D01*
X150082813Y-98723552D01*
X149964981Y-98970570D01*
X149662044Y-99122181D01*
X149249840Y-99173154D01*
X148804208Y-99118264D01*
X148400985Y-98952280D01*
X148263401Y-98848978D01*
X147890736Y-98393337D01*
X147619733Y-97841258D01*
X147520554Y-97394077D01*
X147553919Y-97117551D01*
X147746807Y-96972082D01*
X147928608Y-96920040D01*
X148588767Y-96841921D01*
X149408456Y-96866854D01*
X149646733Y-96891728D01*
X150005672Y-97025735D01*
X150348030Y-97291042D01*
X150582156Y-97603694D01*
X150632873Y-97795036D01*
X151248098Y-97795036D01*
X151254531Y-97744457D01*
X151317337Y-97579045D01*
X151519755Y-97239243D01*
X151827754Y-97017077D01*
X152299192Y-96885034D01*
X152912705Y-96820405D01*
X153404197Y-96831995D01*
X153869559Y-96907250D01*
X153911517Y-96919036D01*
X154212321Y-97039671D01*
X154309705Y-97212591D01*
X154756619Y-97212591D01*
X154766944Y-97022556D01*
X154707211Y-96803480D01*
X154528656Y-96665619D01*
X154431513Y-96619015D01*
X154081349Y-96508210D01*
X153589852Y-96409179D01*
X153267504Y-96365913D01*
X152653746Y-96367802D01*
X152057690Y-96481976D01*
X151549652Y-96683328D01*
X151199950Y-96946745D01*
X151089720Y-97143608D01*
X150965805Y-97388030D01*
X150817463Y-97364638D01*
X150699624Y-97132104D01*
X150472805Y-96830632D01*
X150042377Y-96581797D01*
X149479534Y-96411621D01*
X148855466Y-96346125D01*
X148579585Y-96357196D01*
M02*
