G04 #@! TF.GenerationSoftware,KiCad,Pcbnew,(5.1.10-1-10_14)*
G04 #@! TF.CreationDate,2021-06-08T23:18:15-04:00*
G04 #@! TF.ProjectId,tr109-mainboard,74723130-392d-46d6-9169-6e626f617264,1*
G04 #@! TF.SameCoordinates,Original*
G04 #@! TF.FileFunction,OtherDrawing,Comment*
%FSLAX46Y46*%
G04 Gerber Fmt 4.6, Leading zero omitted, Abs format (unit mm)*
G04 Created by KiCad (PCBNEW (5.1.10-1-10_14)) date 2021-06-08 23:18:15*
%MOMM*%
%LPD*%
G01*
G04 APERTURE LIST*
%ADD10C,0.200000*%
G04 APERTURE END LIST*
D10*
X164667460Y-127004010D02*
X164926260Y-126969970D01*
X113551481Y-72071841D02*
X113551481Y-84368401D01*
X165633350Y-128677050D02*
X165426280Y-128835950D01*
X165892210Y-128228760D02*
X165792320Y-128469920D01*
X123179481Y-128469920D02*
X123020571Y-128677050D01*
X164426300Y-128835950D02*
X164219170Y-128677050D01*
X165892210Y-83691941D02*
X165792320Y-83933161D01*
X121447421Y-127469930D02*
X121606391Y-127262810D01*
X122313481Y-128969950D02*
X122054681Y-128935850D01*
X122313481Y-126969970D02*
X122572281Y-127004010D01*
X123313471Y-83433141D02*
X123279371Y-83691941D01*
X122572281Y-84399091D02*
X122313481Y-84433131D01*
X127276161Y-84868301D02*
X127142171Y-85368321D01*
X113551481Y-72071841D02*
X113685471Y-71571821D01*
X113685471Y-71571821D02*
X114051501Y-71205781D01*
X114051501Y-71205781D02*
X114551521Y-71071791D01*
X132879481Y-85368261D02*
X132745481Y-84868241D01*
X132745481Y-84868241D02*
X132379451Y-84502271D01*
X132379451Y-84502271D02*
X131879491Y-84368281D01*
X168910000Y-130441700D02*
X168776060Y-130941670D01*
X168776060Y-130941670D02*
X168410030Y-131307700D01*
X168410030Y-131307700D02*
X167910010Y-131441690D01*
X172867030Y-71071551D02*
X173366340Y-71205541D01*
X173366340Y-71205541D02*
X173730400Y-71571581D01*
X132879481Y-130441700D02*
X133013471Y-130941670D01*
X133013471Y-130941670D02*
X133379501Y-131307700D01*
X133379501Y-131307700D02*
X133879459Y-131441690D01*
X173684980Y-80597391D02*
X173824280Y-79055481D01*
X173320140Y-81878411D02*
X173684980Y-80597391D01*
X172827510Y-82555281D02*
X173320140Y-81878411D01*
X169173450Y-84882724D02*
X169436960Y-84519081D01*
X168909887Y-86399541D02*
X168980510Y-85571041D01*
X164926260Y-82433151D02*
X165185060Y-82467251D01*
X121813461Y-127103900D02*
X122054681Y-127004010D01*
X121447421Y-128469920D02*
X121347531Y-128228760D01*
X165185060Y-84399091D02*
X164926260Y-84433131D01*
X121347531Y-127711100D02*
X121447421Y-127469930D01*
X165633350Y-127262810D02*
X165792320Y-127469930D01*
X164219170Y-84140231D02*
X164060260Y-83933161D01*
X122572281Y-82467251D02*
X122813441Y-82567141D01*
X164060260Y-127469930D02*
X164219170Y-127262810D01*
X164219170Y-127262810D02*
X164426300Y-127103900D01*
X123279371Y-83691941D02*
X123179481Y-83933161D01*
X121347531Y-83174341D02*
X121447421Y-82933181D01*
X164060260Y-82933181D02*
X164219170Y-82726051D01*
X121606391Y-128677050D02*
X121447421Y-128469920D01*
X165792320Y-82933181D02*
X165892210Y-83174341D01*
X164926260Y-126969970D02*
X165185060Y-127004010D01*
X165185060Y-82467251D02*
X165426280Y-82567141D01*
X123313471Y-127969960D02*
X123279371Y-128228760D01*
X163926270Y-127969960D02*
X163960370Y-127711100D01*
X165426280Y-82567141D02*
X165633350Y-82726051D01*
X121313491Y-83433141D02*
X121347531Y-83174341D01*
X163960370Y-128228760D02*
X163926270Y-127969960D01*
X123179481Y-83933161D02*
X123020571Y-84140231D01*
X165792320Y-83933161D02*
X165633350Y-84140231D01*
X165633350Y-84140231D02*
X165426280Y-84299191D01*
X121347531Y-128228760D02*
X121313491Y-127969960D01*
X122813441Y-127103900D02*
X123020571Y-127262810D01*
X122313481Y-84433131D02*
X122054681Y-84399091D01*
X165426280Y-84299191D02*
X165185060Y-84399091D01*
X123179481Y-127469930D02*
X123279371Y-127711100D01*
X121813461Y-82567141D02*
X122054681Y-82467251D01*
X123020571Y-84140231D02*
X122813441Y-84299191D01*
X165926250Y-83433141D02*
X165892210Y-83691941D01*
X164426300Y-84299191D02*
X164219170Y-84140231D01*
X165426280Y-127103900D02*
X165633350Y-127262810D01*
X164426300Y-127103900D02*
X164667460Y-127004010D01*
X163960370Y-83174341D02*
X164060260Y-82933181D01*
X164219170Y-128677050D02*
X164060260Y-128469920D01*
X121813461Y-84299191D02*
X121606391Y-84140231D01*
X165426280Y-128835950D02*
X165185060Y-128935850D01*
X123279371Y-127711100D02*
X123313471Y-127969960D01*
X121606391Y-127262810D02*
X121813461Y-127103900D01*
X121813461Y-128835950D02*
X121606391Y-128677050D01*
X165926250Y-127969960D02*
X165892210Y-128228760D01*
X122572281Y-128935850D02*
X122313481Y-128969950D01*
X163960370Y-83691941D02*
X163926270Y-83433141D01*
X122054681Y-127004010D02*
X122313481Y-126969970D01*
X122813441Y-82567141D02*
X123020571Y-82726051D01*
X123179481Y-82933181D02*
X123279371Y-83174341D01*
X164060260Y-128469920D02*
X163960370Y-128228760D01*
X164426300Y-82567141D02*
X164667460Y-82467251D01*
X121347531Y-83691941D02*
X121313491Y-83433141D01*
X123020571Y-127262810D02*
X123179481Y-127469930D01*
X164219170Y-82726051D02*
X164426300Y-82567141D01*
X132879481Y-85368261D02*
X132879481Y-130441700D01*
X127142471Y-130441700D02*
X127008481Y-130941670D01*
X127008481Y-130941670D02*
X126642451Y-131307700D01*
X126642451Y-131307700D02*
X126142421Y-131441690D01*
X114551521Y-131441690D02*
X114051501Y-131307700D01*
X114051501Y-131307700D02*
X113685471Y-130941670D01*
X113685471Y-130941670D02*
X113551481Y-130441700D01*
X128142161Y-84368281D02*
X127642191Y-84502271D01*
X127642191Y-84502271D02*
X127276161Y-84868301D01*
X164667460Y-84399091D02*
X164426300Y-84299191D01*
X122813441Y-84299191D02*
X122572281Y-84399091D01*
X168980510Y-85571041D02*
X169173450Y-84882724D01*
X122054681Y-128935850D02*
X121813461Y-128835950D01*
X169436960Y-84519081D02*
X172827510Y-82555281D01*
X122572281Y-127004010D02*
X122813441Y-127103900D01*
X122054681Y-84399091D02*
X121940121Y-84351651D01*
X122054681Y-82467251D02*
X122313481Y-82433151D01*
X121940121Y-84351651D02*
X121813461Y-84299191D01*
X165185060Y-127004010D02*
X165426280Y-127103900D01*
X173859860Y-72071541D02*
X173824280Y-79055481D01*
X164060260Y-83933161D02*
X163960370Y-83691941D01*
X164926260Y-128969950D02*
X164667460Y-128935850D01*
X163926270Y-83433141D02*
X163960370Y-83174341D01*
X114551521Y-71071791D02*
X172867030Y-71071551D01*
X127142471Y-130441700D02*
X127142171Y-85368321D01*
X114551521Y-131441690D02*
X126142421Y-131441690D01*
X122313481Y-82433151D02*
X122572281Y-82467251D01*
X122813441Y-128835950D02*
X122572281Y-128935850D01*
X165792320Y-128469920D02*
X165633350Y-128677050D01*
X121447421Y-83933161D02*
X121347531Y-83691941D01*
X165185060Y-128935850D02*
X164926260Y-128969950D01*
X173859860Y-72071541D02*
X173730400Y-71571581D01*
X113551481Y-130441700D02*
X113551481Y-84368401D01*
X164667460Y-128935850D02*
X164426300Y-128835950D01*
X165633350Y-82726051D02*
X165792320Y-82933181D01*
X121447421Y-82933181D02*
X121606391Y-82726051D01*
X164667460Y-82467251D02*
X164926260Y-82433151D01*
X121606391Y-84140231D02*
X121447421Y-83933161D01*
X123020571Y-128677050D02*
X122813441Y-128835950D01*
X121606391Y-82726051D02*
X121813461Y-82567141D01*
X123020571Y-82726051D02*
X123179481Y-82933181D01*
X165792320Y-127469930D02*
X165892210Y-127711100D01*
X164926260Y-84433131D02*
X164667460Y-84399091D01*
X123279371Y-83174341D02*
X123313471Y-83433141D01*
X121313491Y-127969960D02*
X121347531Y-127711100D01*
X123279371Y-128228760D02*
X123179481Y-128469920D01*
X165892210Y-127711100D02*
X165926250Y-127969960D01*
X163960370Y-127711100D02*
X164060260Y-127469930D01*
X165892210Y-83174341D02*
X165926250Y-83433141D01*
X128142161Y-84368281D02*
X131879491Y-84368281D01*
X133879459Y-131441690D02*
X167910010Y-131441690D01*
X168910000Y-130441700D02*
X168909887Y-86399541D01*
X-31907365Y-123267459D02*
X-31815133Y-123090218D01*
X-31961911Y-123841700D02*
X-31981281Y-123645010D01*
X-30143966Y-123083237D02*
X-30267771Y-122932140D01*
X-73954810Y-109881280D02*
X-73935970Y-109683990D01*
X-33223861Y-105997800D02*
X-33223861Y-107149660D01*
X-28763831Y-107149660D02*
X-28763831Y-125737490D01*
X-33223861Y-105726300D02*
X-33223861Y-105648520D01*
X-28763831Y-105683920D02*
X-28763831Y-105622230D01*
X-74943770Y-105726300D02*
X-74943770Y-105648520D01*
X-70496310Y-105683920D02*
X-70496310Y-105622230D01*
X-28763831Y-69113331D02*
X-33223861Y-69113331D01*
X-74943770Y-79025872D02*
X-70496310Y-79025872D01*
X-74943770Y-69113331D02*
X-70483790Y-69113331D01*
X-74943770Y-105555650D02*
X-74943770Y-99734131D01*
X-31365512Y-122717740D02*
X-31536451Y-122807210D01*
X-31686002Y-122934700D02*
X-31815133Y-123090218D01*
X-31813141Y-124199630D02*
X-31681048Y-124362281D01*
X-73340658Y-108956120D02*
X-73509080Y-109045450D01*
X-73954810Y-109881280D02*
X-73935730Y-110078100D01*
X-73935730Y-110078100D02*
X-73877380Y-110264720D01*
X-73786840Y-110437220D02*
X-73661610Y-110591410D01*
X-72117020Y-110441750D02*
X-72176326Y-110514152D01*
X-72115880Y-109324340D02*
X-72241470Y-109169720D01*
X-72241470Y-109169720D02*
X-72394060Y-109048900D01*
X-72394060Y-109048900D02*
X-72569830Y-108954430D01*
X-72569830Y-108954430D02*
X-72755620Y-108895480D01*
X-82663040Y-64456121D02*
X-82663040Y-65766291D01*
X-80698060Y-56989261D02*
X-80698060Y-57470931D01*
X-84391520Y-62591561D02*
X-80698060Y-62591561D01*
X-83773900Y-58685611D02*
X-83773900Y-56150211D01*
X-81254230Y-58685611D02*
X-83773900Y-56150211D01*
X-81254287Y-56106342D02*
X-81254230Y-58685611D01*
X-83773900Y-56150211D02*
X-81295830Y-56044171D01*
X-81254287Y-56106342D02*
X-83773900Y-56150211D01*
X-83773900Y-55821191D02*
X-81254230Y-55210071D01*
X-34765361Y-122063400D02*
X-35024161Y-122029310D01*
X-34058211Y-120356320D02*
X-33899301Y-120563390D01*
X-35765341Y-121063410D02*
X-35731251Y-120804610D01*
X-32933411Y-55769101D02*
X-32933411Y-55310621D01*
X-28541561Y-55328201D02*
X-25618431Y-55328201D01*
X-32933411Y-63593761D02*
X-32933411Y-56753231D01*
X-34506491Y-122029310D02*
X-34765361Y-122063400D01*
X-32933411Y-55769101D02*
X-32933411Y-56753231D01*
X-25618431Y-55802541D02*
X-25618431Y-129151050D01*
X-33223861Y-125737490D02*
X-28763831Y-125737490D01*
X-33223861Y-105854150D02*
X-33223861Y-105726300D01*
X-33223861Y-105997800D02*
X-33223861Y-105854150D01*
X-33223861Y-105648520D02*
X-28763831Y-105648520D01*
X-68833043Y-117716190D02*
X-69333000Y-117582260D01*
X-82054000Y-76418231D02*
X-78689860Y-76418231D01*
X-29543779Y-68792181D02*
X-29309451Y-68656461D01*
X-88292940Y-117716190D02*
X-76224490Y-117716190D01*
X-28438921Y-67155311D02*
X-28390221Y-57753221D01*
X-31363183Y-124572640D02*
X-31175431Y-124627170D01*
X-29995322Y-123841580D02*
X-29975831Y-123645130D01*
X-29975831Y-123645130D02*
X-29993591Y-123446640D01*
X-77020090Y-56508371D02*
X-76978490Y-56931031D01*
X-76855170Y-57337411D02*
X-76978490Y-56931031D01*
X-80497910Y-53413761D02*
X-80374640Y-53820201D01*
X-83711130Y-51506831D02*
X-84258600Y-51610061D01*
X-80260440Y-56481791D02*
X-79866630Y-56001971D01*
X-79866630Y-56001971D02*
X-79574030Y-55454561D01*
X-79393850Y-54860541D02*
X-79574030Y-55454561D01*
X-79332990Y-54242861D02*
X-79393850Y-54860541D01*
X-79393850Y-53625121D02*
X-79332990Y-54242861D01*
X-79565510Y-53024421D02*
X-79858170Y-52477011D01*
X-79858170Y-52477011D02*
X-80260440Y-52003871D01*
X-80740260Y-51610061D02*
X-80260440Y-52003871D01*
X-85463150Y-55328201D02*
X-85424770Y-55454561D01*
X-85424770Y-55454561D02*
X-85132170Y-56001971D01*
X-84738420Y-56481791D02*
X-85132170Y-56001971D01*
X-79545899Y-53123845D02*
X-79557729Y-53051962D01*
X-90707760Y-129650360D02*
X-89195710Y-129907610D01*
X-89141530Y-129743990D02*
X-90707760Y-129650360D01*
X-89195710Y-129907610D02*
X-89141530Y-129743990D01*
X-25618431Y-129151050D02*
X-92238410Y-129151050D01*
X-89315280Y-55328201D02*
X-89315280Y-51391081D01*
X-89159000Y-57253491D02*
X-88792960Y-56887461D01*
X-70496310Y-105726300D02*
X-74943770Y-105726300D01*
X-33223861Y-107149660D02*
X-28763831Y-107149660D01*
X-70496310Y-107149660D02*
X-74943770Y-107149660D01*
X-30054981Y-123262290D02*
X-30143966Y-123083237D01*
X-31813141Y-124199630D02*
X-31904166Y-124026600D01*
X-74943770Y-105622230D02*
X-74943770Y-105648520D01*
X-70496310Y-105854150D02*
X-74943770Y-105854150D01*
X-70496310Y-106009900D02*
X-70496310Y-105854150D01*
X-33223861Y-105854150D02*
X-28763831Y-106009900D01*
X-28763831Y-105726300D02*
X-33223861Y-105726300D01*
X-74943770Y-105622230D02*
X-70496310Y-105622230D01*
X-34265331Y-64508931D02*
X-34506491Y-64608821D01*
X-33765311Y-63642931D02*
X-33771811Y-63593701D01*
X-33799401Y-120804610D02*
X-33765311Y-121063410D01*
X-75224500Y-116716210D02*
X-75224740Y-71448401D01*
X-68833043Y-117716190D02*
X-34390801Y-117716190D01*
X-72568940Y-110811180D02*
X-72758480Y-110867260D01*
X-72568940Y-110811180D02*
X-72394480Y-110719210D01*
X-72337655Y-110672663D02*
X-72394480Y-110719210D01*
X-72023367Y-110257966D02*
X-72117020Y-110441750D01*
X-71971580Y-110078570D02*
X-72023367Y-110257966D01*
X-71971580Y-110078570D02*
X-71952330Y-109879850D01*
X-71952330Y-109879850D02*
X-71967830Y-109683040D01*
X-71967830Y-109683040D02*
X-72028680Y-109499870D01*
X-72028680Y-109499870D02*
X-72115880Y-109324340D01*
X-72956430Y-108879450D02*
X-72827228Y-108889399D01*
X-80497910Y-55071901D02*
X-80698120Y-55446461D01*
X-84300740Y-55446461D02*
X-84391520Y-55276641D01*
X-83773900Y-55821191D02*
X-83773900Y-55986001D01*
X-83928870Y-55858801D02*
X-83773900Y-55821191D01*
X-83773900Y-55986001D02*
X-83928870Y-55858801D01*
X-84258600Y-56875601D02*
X-83773900Y-58685611D01*
X-30596131Y-122716850D02*
X-30420422Y-122811380D01*
X-70483790Y-71272211D02*
X-70483790Y-71160151D01*
X-70496310Y-72288291D02*
X-70483790Y-71272211D01*
X-70496310Y-106009900D02*
X-70496310Y-107149660D01*
X-28763831Y-106009900D02*
X-28763831Y-107149660D01*
X-33223861Y-71258911D02*
X-28763831Y-71258911D01*
X-33223861Y-69113331D02*
X-33223861Y-68792181D01*
X-31365512Y-122717740D02*
X-31333917Y-122708003D01*
X-31536222Y-124478640D02*
X-31631478Y-124400263D01*
X-31536222Y-124478640D02*
X-31363183Y-124572640D01*
X-31049825Y-124641749D02*
X-31175431Y-124627170D01*
X-30979932Y-122641090D02*
X-30854655Y-122651725D01*
X-73011189Y-108883920D02*
X-72956430Y-108879450D01*
X-73340658Y-108956120D02*
X-73306923Y-108945386D01*
X-73509080Y-109045450D02*
X-73659700Y-109172290D01*
X-73659700Y-109172290D02*
X-73786780Y-109325350D01*
X-73877380Y-110264720D02*
X-73786840Y-110437220D01*
X-73509920Y-110716220D02*
X-73336880Y-110810220D01*
X-73147940Y-110865950D02*
X-73336880Y-110810220D01*
X-84091530Y-121063410D02*
X-84057440Y-120804610D01*
X-82591520Y-120197360D02*
X-82384390Y-120356320D01*
X-34765361Y-120063430D02*
X-34506491Y-120097460D01*
X-34058211Y-121770500D02*
X-34265331Y-121929410D01*
X-35265321Y-121929410D02*
X-35472451Y-121770500D01*
X-35631351Y-64142951D02*
X-35731251Y-63901731D01*
X-34506491Y-120097460D02*
X-34265331Y-120197360D01*
X-82384390Y-121770500D02*
X-82591520Y-121929410D01*
X-33899301Y-120563390D02*
X-33799401Y-120804610D01*
X-73879050Y-109499040D02*
X-73786780Y-109325350D01*
X-30784784Y-124629680D02*
X-30594053Y-124574660D01*
X-30594053Y-124574660D02*
X-30421491Y-124482750D01*
X-83957540Y-120563390D02*
X-83798630Y-120356320D01*
X-35024161Y-120097460D02*
X-34765361Y-120063430D01*
X-83798630Y-121770500D02*
X-83957540Y-121563440D01*
X-83957540Y-121563440D02*
X-84057440Y-121322220D01*
X-35024161Y-64608821D02*
X-35265321Y-64508931D01*
X-84057440Y-121322220D02*
X-84091530Y-121063410D01*
X-83091480Y-120063430D02*
X-82832680Y-120097460D01*
X-74943770Y-106009900D02*
X-74943770Y-105854150D01*
X-28763831Y-106009900D02*
X-33223861Y-105997800D01*
X-74943770Y-105648520D02*
X-70496310Y-105648520D01*
X-70496310Y-105622230D02*
X-70496310Y-105648520D01*
X-70496310Y-105555650D02*
X-74943770Y-105555650D01*
X-70483790Y-68792181D02*
X-74943770Y-68792181D01*
X-74943770Y-69113331D02*
X-74943770Y-68792181D01*
X-28763831Y-69113331D02*
X-28763831Y-68792181D01*
X-74943770Y-71258911D02*
X-70483790Y-71272211D01*
X-35024161Y-122029310D02*
X-35265321Y-121929410D01*
X-25870741Y-128962171D02*
X-25870741Y-128919863D01*
X-28661131Y-129907610D02*
X-30471741Y-130084280D01*
X-28885781Y-56887221D02*
X-28521651Y-57253191D01*
X-89141530Y-129743990D02*
X-28715311Y-129743990D01*
X-25618431Y-129151050D02*
X-25870741Y-129260600D01*
X-28541561Y-55328201D02*
X-28541561Y-51391081D01*
X-30471741Y-130084280D02*
X-87385100Y-130084280D01*
X-70496310Y-105555650D02*
X-70496310Y-99734131D01*
X-33223861Y-105622230D02*
X-28763831Y-105622230D01*
X-33223861Y-105622230D02*
X-33223861Y-105648520D01*
X-28763831Y-105854150D02*
X-33223861Y-105854150D01*
X-28763831Y-106009900D02*
X-28763831Y-105854150D01*
X-92238410Y-129151050D02*
X-92238410Y-55802541D01*
X-25870741Y-129260600D02*
X-28715311Y-129743990D01*
X-27149081Y-129650360D02*
X-25870741Y-129260600D01*
X-28715311Y-129743990D02*
X-28661131Y-129907610D01*
X-27149081Y-129650360D02*
X-28715311Y-129743990D01*
X-28661131Y-129907610D02*
X-27149081Y-129650360D01*
X-71620270Y-54087171D02*
X-32933411Y-54087231D01*
X-84923430Y-51391021D02*
X-32933411Y-51391021D01*
X-25618431Y-55802541D02*
X-25618431Y-55328201D01*
X-32933411Y-55769101D02*
X-25618431Y-55802541D01*
X-33771811Y-63593701D02*
X-32933411Y-63593761D01*
X-32933411Y-54087231D02*
X-32933411Y-55310621D01*
X-84624220Y-53820201D02*
X-84665820Y-54242861D01*
X-84665820Y-54242861D02*
X-84624220Y-54665461D01*
X-84624220Y-54665461D02*
X-84500950Y-55071901D01*
X-84300740Y-55446461D02*
X-84031330Y-55774701D01*
X-80698060Y-58685611D02*
X-80698060Y-57470931D01*
X-73096140Y-58685611D02*
X-76479360Y-58685611D01*
X-79081340Y-64456121D02*
X-80698060Y-62591561D01*
X-84923430Y-52229301D02*
X-84923430Y-51499501D01*
X-84738420Y-52003871D02*
X-84923430Y-52229301D01*
X-73096140Y-53434681D02*
X-71620270Y-53434681D01*
X-84391520Y-51719155D02*
X-84391520Y-51499501D01*
X-84391520Y-62591561D02*
X-85399617Y-58685611D01*
X-84391520Y-58685611D02*
X-84391520Y-62591561D01*
X-76479360Y-54075384D02*
X-76479360Y-53434681D01*
X-72564031Y-58685611D02*
X-71620270Y-58685611D01*
X-86319730Y-55328201D02*
X-86319730Y-58685611D01*
X-77365680Y-53875641D02*
X-76612820Y-53875641D01*
X-77092630Y-54269381D02*
X-77486440Y-54749201D01*
X-77779040Y-55296671D02*
X-77959220Y-55890631D01*
X-71928310Y-57720141D02*
X-72220910Y-58267541D01*
X-71748120Y-57126121D02*
X-71928310Y-57720141D01*
X-71687270Y-56508371D02*
X-71748120Y-57126121D01*
X-71748120Y-55890691D02*
X-71687270Y-56508371D01*
X-71748120Y-55890691D02*
X-71928310Y-55296671D01*
X-72220910Y-54749201D02*
X-71928310Y-55296671D01*
X-72220910Y-54749201D02*
X-72614710Y-54269381D01*
X-72614710Y-54269381D02*
X-73094530Y-53875641D01*
X-77845500Y-54269381D02*
X-77092630Y-54269381D01*
X-77365680Y-53875641D02*
X-77845500Y-54269381D01*
X-78531850Y-55296671D02*
X-77779040Y-55296671D01*
X-78239250Y-54749201D02*
X-78531850Y-55296671D01*
X-78531850Y-55296671D02*
X-78712090Y-55890631D01*
X-78712090Y-55890631D02*
X-78772890Y-56508371D01*
X-77959220Y-55890631D02*
X-78712090Y-55890631D01*
X-77959220Y-57126121D02*
X-78020080Y-56508371D01*
X-78712090Y-57126121D02*
X-77959220Y-57126121D01*
X-85242790Y-64456121D02*
X-84391520Y-62591561D01*
X-81295830Y-56044171D02*
X-83703030Y-56044171D01*
X-83703030Y-56044171D02*
X-81254230Y-55210071D01*
X-83773900Y-58685611D02*
X-81254230Y-58685611D01*
X-85242790Y-64456121D02*
X-86076386Y-58685611D01*
X-85517615Y-58685611D02*
X-84391520Y-62591561D01*
X-81254230Y-58685611D02*
X-80698060Y-58685611D01*
X-80967530Y-55774761D02*
X-81254230Y-55210071D01*
X-79737252Y-52264283D02*
X-71620270Y-53434681D01*
X-80698060Y-56989261D02*
X-81254230Y-58685611D01*
X-80740260Y-56875601D02*
X-80698060Y-56989261D01*
X-80698109Y-55075133D02*
X-81254230Y-55210071D01*
X-80497910Y-53413761D02*
X-80698060Y-53434681D01*
X-84391520Y-58685611D02*
X-84391520Y-56766521D01*
X-73096140Y-58265931D02*
X-73096140Y-58685611D01*
X-73096140Y-53434681D02*
X-73094530Y-53875641D01*
X-76479360Y-53434681D02*
X-73096140Y-53434681D01*
X-85242790Y-65766291D02*
X-85242790Y-64456121D01*
X-81323010Y-65766291D02*
X-81323010Y-64456121D01*
X-77177474Y-57470931D02*
X-76479360Y-57470931D01*
X-80698060Y-57470931D02*
X-78314971Y-57470931D01*
X-82663040Y-64456121D02*
X-81323010Y-64456121D01*
X-84391520Y-58685611D02*
X-83773900Y-58685611D01*
X-84057440Y-120804610D02*
X-83957540Y-120563390D01*
X-34765361Y-64642921D02*
X-35024161Y-64608821D01*
X-35265321Y-64508931D02*
X-35472451Y-64350021D01*
X-77779040Y-57720141D02*
X-77959220Y-57126121D01*
X-77959220Y-57126121D02*
X-78531850Y-57370081D01*
X-73052330Y-57711971D02*
X-72852180Y-57337411D01*
X-72852180Y-57337411D02*
X-72728860Y-56931031D01*
X-72728860Y-56931031D02*
X-72687250Y-56508371D01*
X-72687250Y-56508371D02*
X-72728860Y-56085721D01*
X-72728860Y-56085721D02*
X-72852180Y-55679331D01*
X-72852180Y-55679331D02*
X-73052330Y-55304781D01*
X-31686002Y-122934700D02*
X-31536451Y-122807210D01*
X-30142182Y-124203442D02*
X-30052361Y-124029040D01*
X-30052361Y-124029040D02*
X-29995322Y-123841580D01*
X-70496310Y-106009900D02*
X-74943770Y-106009900D01*
X-74943770Y-105622230D02*
X-74943770Y-105555650D01*
X-33223861Y-105622230D02*
X-33223861Y-105555650D01*
X-79081340Y-65766291D02*
X-79081340Y-64456121D01*
X-76479360Y-58685611D02*
X-80698060Y-58685611D01*
X-85242790Y-65766291D02*
X-86203856Y-58685611D01*
X-29993591Y-123446640D02*
X-30054981Y-123262290D01*
X-30420422Y-122811380D02*
X-30267771Y-122932140D01*
X-35631351Y-121563440D02*
X-35731251Y-121322220D01*
X-82384390Y-120356320D02*
X-82225490Y-120563390D01*
X-82125590Y-121322220D02*
X-82225490Y-121563440D01*
X-83591510Y-121929410D02*
X-83798630Y-121770500D01*
X-28758221Y-55328201D02*
X-28873861Y-55329161D01*
X-91986100Y-129260600D02*
X-90707760Y-129650360D01*
X-89141530Y-129743990D02*
X-91986100Y-129260600D01*
X-33899301Y-121563440D02*
X-34058211Y-121770500D01*
X-35631351Y-120563390D02*
X-35472451Y-120356320D01*
X-35472451Y-64350021D02*
X-35631351Y-64142951D01*
X-84391520Y-56766521D02*
X-84258600Y-56875601D01*
X-84738420Y-56481791D02*
X-84391520Y-56766521D01*
X-80967530Y-55774761D02*
X-81254230Y-56010021D01*
X-80967530Y-55774761D02*
X-80698120Y-55446461D01*
X-84391520Y-55276641D02*
X-84500950Y-55071901D01*
X-83703030Y-56044171D02*
X-83773900Y-55986001D01*
X-33390871Y-72983221D02*
X-33390871Y-71557651D01*
X-37357441Y-109907870D02*
X-67144801Y-109907870D01*
X-69113240Y-78386612D02*
X-69113240Y-107939480D01*
X-70333050Y-70582281D02*
X-69967020Y-70948311D01*
X-76224490Y-117716190D02*
X-75724470Y-117582260D01*
X-75224740Y-71448401D02*
X-75090750Y-70948371D01*
X-33524751Y-117216230D02*
X-33390761Y-116716210D01*
X-76721470Y-78386612D02*
X-78689860Y-76418231D01*
X-70479535Y-70543041D02*
X-70333050Y-70582281D01*
X-86584066Y-56753441D02*
X-88292940Y-56753471D01*
X-89159000Y-57253491D02*
X-89292990Y-57753451D01*
X-33390871Y-71557651D02*
X-33328591Y-71252951D01*
X-28390221Y-57753221D02*
X-28521651Y-57253191D01*
X-89292990Y-57753451D02*
X-89292990Y-116716210D01*
X-75724470Y-117582260D02*
X-75358440Y-117216230D01*
X-89159000Y-117216230D02*
X-88792960Y-117582260D01*
X-35758851Y-63593521D02*
X-35765091Y-63644845D01*
X-28876121Y-68271891D02*
X-28557471Y-67722451D01*
X-82054000Y-109907930D02*
X-78689860Y-109907870D01*
X-75358440Y-117216230D02*
X-75224500Y-116716210D01*
X-84022390Y-78386612D02*
X-84022390Y-107939480D01*
X-33390871Y-72983221D02*
X-33390761Y-116716210D01*
X-28885781Y-56887221D02*
X-29385081Y-56753231D01*
X-35389061Y-107939480D02*
X-35389061Y-78386612D01*
X-69967020Y-70948311D02*
X-69833030Y-71448341D01*
X-76721470Y-107939480D02*
X-76721470Y-78386612D01*
X-67144801Y-76418231D02*
X-37357441Y-76418231D01*
X-88792960Y-117582260D02*
X-88292940Y-117716190D01*
X-28557471Y-67722451D02*
X-28438921Y-67155311D01*
X-33890781Y-117582260D02*
X-33524751Y-117216230D01*
X-88292940Y-56753471D02*
X-88792960Y-56887461D01*
X-75090750Y-70948371D02*
X-74943770Y-70801391D01*
X-32933411Y-56753231D02*
X-29385081Y-56753231D01*
X-34390801Y-117716190D02*
X-33890781Y-117582260D01*
X-37357441Y-76418231D02*
X-35389061Y-78386612D01*
X-29309451Y-68656461D02*
X-28876121Y-68271891D01*
X-76721470Y-107939480D02*
X-78689860Y-109907870D01*
X-84022390Y-78386612D02*
X-82054000Y-76418231D01*
X-82054000Y-109907930D02*
X-84022390Y-107939480D01*
X-69113240Y-78386612D02*
X-67144801Y-76418231D01*
X-67144801Y-109907870D02*
X-69113240Y-107939480D01*
X-35389061Y-107939480D02*
X-37357441Y-109907870D01*
X-70496310Y-99734131D02*
X-74943770Y-99734131D01*
X-74943770Y-122392240D02*
X-74943770Y-107149660D01*
X-74943770Y-107149660D02*
X-74943770Y-106009900D01*
X-92238410Y-55802541D02*
X-92238410Y-55328201D01*
X-89159000Y-117216230D02*
X-89292990Y-116716210D01*
X-83091480Y-122063400D02*
X-83350350Y-122029310D01*
X-34265331Y-120197360D02*
X-34058211Y-120356320D01*
X-79645881Y-63593521D02*
X-35758851Y-63593521D01*
X-86319730Y-55328201D02*
X-85463150Y-55328201D01*
X-28763831Y-105622230D02*
X-28763831Y-105648520D01*
X-28763831Y-105555650D02*
X-33223861Y-105555650D01*
X-74943770Y-105854150D02*
X-74943770Y-105726300D01*
X-92238410Y-55328201D02*
X-89315280Y-55328201D01*
X-32933411Y-51391021D02*
X-28541561Y-51391081D01*
X-89315280Y-51391081D02*
X-84923430Y-51391021D01*
X-33765311Y-63642931D02*
X-33799401Y-63901731D01*
X-33223861Y-69113331D02*
X-33223861Y-71114687D01*
X-74943770Y-71258911D02*
X-74943770Y-70801391D01*
X-30784784Y-124629680D02*
X-30979691Y-124649290D01*
X-30421491Y-124482750D02*
X-30267772Y-124355381D01*
X-30142182Y-124203442D02*
X-30267772Y-124355381D01*
X-73935970Y-109683990D02*
X-73879050Y-109499040D01*
X-73509920Y-110716220D02*
X-73661610Y-110591410D01*
X-73147940Y-110865950D02*
X-72953330Y-110886810D01*
X-72758480Y-110867260D02*
X-72953330Y-110886810D01*
X-33223861Y-71258911D02*
X-33223861Y-71114687D01*
X-70496310Y-79025872D02*
X-70496310Y-72288291D01*
X-86787090Y-55328201D02*
X-88788344Y-55328258D01*
X-29068498Y-55328258D02*
X-31140981Y-55328201D01*
X-86787090Y-55328201D02*
X-86319730Y-55328201D01*
X-29068498Y-55328258D02*
X-28873861Y-55329161D01*
X-88827420Y-55328201D02*
X-89315280Y-55328201D01*
X-28758221Y-55328201D02*
X-28541561Y-55328201D01*
X-92238410Y-51391081D02*
X-89315280Y-51391081D01*
X-92238410Y-55328201D02*
X-92238410Y-51391081D01*
X-28541561Y-51391081D02*
X-25618431Y-51391081D01*
X-25618431Y-55328201D02*
X-25618431Y-51391081D01*
X-28763831Y-105854150D02*
X-28763831Y-105726300D01*
X-70496310Y-105854150D02*
X-70496310Y-105726300D01*
X-28763831Y-71258911D02*
X-28763831Y-69113331D01*
X-70483790Y-69113331D02*
X-70483790Y-68792181D01*
X-30979932Y-122641090D02*
X-31182521Y-122659544D01*
X-31962271Y-123446410D02*
X-31907365Y-123267459D01*
X-80740260Y-51610061D02*
X-81287670Y-51506831D01*
X-73321800Y-58040271D02*
X-73052330Y-57711971D01*
X-73052330Y-55304781D02*
X-73321800Y-54976471D01*
X-81323010Y-64456121D02*
X-79081340Y-64456121D01*
X-82663040Y-64456121D02*
X-85242790Y-64456121D01*
X-79081340Y-65766291D02*
X-81323010Y-65766291D01*
X-85242790Y-65766291D02*
X-82663040Y-65766291D01*
X-76479360Y-57470931D02*
X-76479360Y-55090773D01*
X-80740260Y-56875601D02*
X-80260440Y-56481791D01*
X-81287670Y-51506831D02*
X-83711130Y-51506831D01*
X-79545899Y-53123845D02*
X-79451615Y-53434681D01*
X-35765091Y-63644845D02*
X-35731251Y-63901731D01*
X-84300740Y-53039201D02*
X-84500950Y-53413761D01*
X-85463150Y-55328201D02*
X-84923430Y-55328201D01*
X-81287670Y-51506831D02*
X-79987930Y-51499501D01*
X-86076386Y-58685611D02*
X-85517615Y-58685611D01*
X-86203856Y-58685611D02*
X-86076386Y-58685611D01*
X-86717609Y-55777303D02*
X-86787090Y-55328201D01*
X-86649736Y-56273425D02*
X-86717609Y-55777303D01*
X-32933411Y-55310621D02*
X-31140981Y-55328201D01*
X-84391520Y-55276641D02*
X-84500950Y-53413761D01*
X-85517615Y-58685611D02*
X-85399617Y-58685611D01*
X-86584066Y-56753441D02*
X-86649736Y-56273425D01*
X-72676460Y-58685611D02*
X-72614710Y-58747361D01*
X-73096140Y-58265931D02*
X-72676460Y-58685611D01*
X-76479360Y-54075384D02*
X-76612820Y-53875641D01*
X-76110666Y-54627191D02*
X-76479360Y-54075384D01*
X-79451615Y-53434681D02*
X-79393850Y-53625121D01*
X-84031330Y-55774701D02*
X-83928870Y-55858801D01*
X-33223861Y-105555650D02*
X-33390871Y-72983221D01*
X-84923430Y-51499501D02*
X-84923430Y-51391021D01*
X-73052330Y-55304781D02*
X-73052330Y-57711971D01*
X-82663040Y-65766291D02*
X-81323010Y-65766291D01*
X-86319730Y-58685611D02*
X-86203856Y-58685611D01*
X-70479535Y-70543041D02*
X-70483790Y-69334641D01*
X-70483790Y-71160151D02*
X-70479535Y-70543041D01*
X-33223861Y-71258911D02*
X-33223861Y-105555650D01*
X-73147940Y-108896380D02*
X-73306923Y-108945386D01*
X-80698060Y-61985823D02*
X-80698060Y-58685611D01*
X-80698060Y-62591561D02*
X-80698060Y-61985823D01*
X-79353620Y-53434681D02*
X-79451615Y-53434681D01*
X-86319730Y-58685611D02*
X-86584066Y-56753441D01*
X-73321800Y-58040271D02*
X-73096140Y-58265931D01*
X-76057300Y-54707061D02*
X-76110666Y-54627191D01*
X-81254287Y-56106342D02*
X-80740260Y-56875601D01*
X-81295830Y-56044171D02*
X-81254287Y-56106342D01*
X-84391520Y-51719155D02*
X-84258600Y-51610061D01*
X-84738420Y-52003871D02*
X-84391520Y-51719155D01*
X-84923430Y-55328201D02*
X-84923430Y-52229301D01*
X-32933411Y-54087231D02*
X-32933411Y-51391021D01*
X-72827228Y-108889399D02*
X-72755620Y-108895480D01*
X-28763831Y-105683920D02*
X-28763831Y-105648520D01*
X-28763831Y-105726300D02*
X-28763831Y-105683920D01*
X-70496310Y-105683920D02*
X-70496310Y-105648520D01*
X-70496310Y-105726300D02*
X-70496310Y-105683920D01*
X-28763831Y-105622230D02*
X-28763831Y-105555650D01*
X-29543779Y-68792181D02*
X-33223861Y-68792181D01*
X-28763831Y-68792181D02*
X-29543779Y-68792181D01*
X-70496310Y-105622230D02*
X-70496310Y-105555650D01*
X-74943770Y-69113331D02*
X-74943770Y-70801391D01*
X-70483790Y-69113331D02*
X-70483790Y-69334641D01*
X-28763831Y-105555650D02*
X-28763831Y-71258911D01*
X-73011189Y-108883920D02*
X-73147940Y-108896380D01*
X-72337655Y-110672663D02*
X-72241470Y-110592960D01*
X-72176326Y-110514152D02*
X-72241470Y-110592960D01*
X-80698109Y-55075133D02*
X-80698060Y-53434681D01*
X-80698120Y-55446461D02*
X-80698109Y-55075133D01*
X-84391520Y-51499501D02*
X-83711130Y-51506831D01*
X-76479360Y-53434681D02*
X-79353620Y-53434681D01*
X-76479360Y-58685611D02*
X-76479360Y-57470931D01*
X-79645881Y-63593521D02*
X-79081340Y-64456121D01*
X-80698060Y-61985823D02*
X-79645881Y-63593521D01*
X-79737252Y-52264283D02*
X-79987930Y-51499501D01*
X-79353620Y-53434681D02*
X-79737252Y-52264283D01*
X-71620270Y-54087171D02*
X-71620270Y-58685611D01*
X-71620270Y-53434681D02*
X-71620270Y-54087171D01*
X-85399617Y-58685611D02*
X-84391520Y-58685611D01*
X-72614710Y-58747361D02*
X-72564031Y-58685611D01*
X-73596685Y-54627191D02*
X-73650050Y-54707061D01*
X-73094530Y-53875641D02*
X-73596685Y-54627191D01*
X-77177474Y-57470931D02*
X-76855170Y-57337411D01*
X-77779040Y-57720141D02*
X-77177474Y-57470931D01*
X-78314971Y-57470931D02*
X-77779040Y-57720141D01*
X-78531850Y-57370081D02*
X-78314971Y-57470931D01*
X-76479360Y-55090773D02*
X-76655020Y-55304781D01*
X-76385540Y-54976471D02*
X-76479360Y-55090773D01*
X-83773900Y-56150211D02*
X-83703030Y-56044171D01*
X-79557729Y-53051962D02*
X-79565510Y-53024421D01*
X-31333917Y-122708003D02*
X-31182521Y-122659544D01*
X-31681048Y-124362281D02*
X-31631478Y-124400263D01*
X-31049825Y-124641749D02*
X-30979691Y-124649290D01*
X-30854655Y-122651725D02*
X-30788406Y-122655843D01*
X-33223861Y-71258911D02*
X-33390871Y-71557651D01*
X-33328591Y-71252951D02*
X-33223861Y-71114687D01*
X-74943770Y-71258911D02*
X-74943770Y-79025872D01*
X-31981281Y-123645010D02*
X-31962271Y-123446410D01*
X-69833030Y-116716210D02*
X-69833030Y-71448341D01*
X-69699030Y-117216230D02*
X-69833030Y-116716210D01*
X-69333000Y-117582260D02*
X-69699030Y-117216230D01*
X-73321800Y-54976471D02*
X-73650050Y-54707061D01*
X-76057300Y-54707061D02*
X-76385540Y-54976471D01*
X-76655020Y-55304781D02*
X-76855170Y-55679331D01*
X-76855170Y-55679331D02*
X-76978490Y-56085721D01*
X-76978490Y-56085721D02*
X-77020090Y-56508371D01*
X-31904166Y-124026600D02*
X-31961911Y-123841700D01*
X-81254230Y-56010021D02*
X-81295830Y-56044171D01*
X-80497910Y-55071901D02*
X-80374640Y-54665461D01*
X-80374640Y-54665461D02*
X-80332980Y-54242861D01*
X-80332980Y-54242861D02*
X-80374640Y-53820201D01*
X-80698120Y-53039201D02*
X-80497910Y-53413761D01*
X-80698120Y-53039201D02*
X-80967530Y-52710961D01*
X-80967530Y-52710961D02*
X-81295830Y-52441491D01*
X-81295830Y-52441491D02*
X-81670330Y-52241341D01*
X-81670330Y-52241341D02*
X-82076770Y-52118011D01*
X-82076770Y-52118011D02*
X-82499430Y-52076411D01*
X-82499430Y-52076411D02*
X-82922090Y-52118011D01*
X-82922090Y-52118011D02*
X-83328470Y-52241341D01*
X-83328470Y-52241341D02*
X-83703030Y-52441551D01*
X-84031330Y-52710961D02*
X-83703030Y-52441551D01*
X-84031330Y-52710961D02*
X-84300740Y-53039201D01*
X-84500950Y-53413761D02*
X-84624220Y-53820201D01*
X-82225490Y-121563440D02*
X-82384390Y-121770500D01*
X-83350350Y-122029310D02*
X-83591510Y-121929410D01*
X-83350350Y-120097460D02*
X-83091480Y-120063430D01*
X-35265321Y-120197360D02*
X-35024161Y-120097460D01*
X-35472451Y-121770500D02*
X-35631351Y-121563440D01*
X-33799401Y-63901731D02*
X-33899301Y-64142951D01*
X-33899301Y-64142951D02*
X-34058211Y-64350021D01*
X-82832680Y-122029310D02*
X-83091480Y-122063400D01*
X-82225490Y-120563390D02*
X-82125590Y-120804610D01*
X-83798630Y-120356320D02*
X-83591510Y-120197360D01*
X-82091500Y-121063410D02*
X-82125590Y-121322220D01*
X-35731251Y-121322220D02*
X-35765341Y-121063410D01*
X-33799401Y-121322220D02*
X-33899301Y-121563440D01*
X-82832680Y-120097460D02*
X-82591520Y-120197360D01*
X-35472451Y-120356320D02*
X-35265321Y-120197360D01*
X-34265331Y-121929410D02*
X-34506491Y-122029310D01*
X-33223861Y-125737490D02*
X-33223861Y-107149660D01*
X-70496310Y-107149660D02*
X-70496310Y-122392240D01*
X-74943770Y-122392240D02*
X-70496310Y-122392240D01*
X-35731251Y-120804610D02*
X-35631351Y-120563390D01*
X-34506491Y-64608821D02*
X-34765361Y-64642921D01*
X-33765311Y-121063410D02*
X-33799401Y-121322220D01*
X-83591510Y-120197360D02*
X-83350350Y-120097460D01*
X-30788406Y-122655843D02*
X-30596131Y-122716850D01*
X-83773900Y-55821191D02*
X-83703030Y-56044171D01*
X-81254230Y-56010021D02*
X-81254230Y-55210071D01*
X-76110666Y-54627191D02*
X-73596685Y-54627191D01*
X-84923430Y-51499501D02*
X-84391520Y-51499501D01*
X-73096140Y-58685611D02*
X-72676460Y-58685611D01*
X-72564031Y-58685611D02*
X-72220910Y-58267541D01*
X-77092630Y-54269381D02*
X-76612820Y-53875641D01*
X-77845500Y-54269381D02*
X-78239250Y-54749201D01*
X-77486440Y-54749201D02*
X-78239250Y-54749201D01*
X-77779040Y-55296671D02*
X-77486440Y-54749201D01*
X-78020080Y-56508371D02*
X-77959220Y-55890631D01*
X-78772890Y-56508371D02*
X-78712090Y-57126121D01*
X-78020080Y-56508371D02*
X-78772890Y-56508371D01*
X-78712090Y-57126121D02*
X-78531850Y-57370081D01*
X-84258600Y-56875601D02*
X-83773900Y-56150211D01*
X-82125590Y-120804610D02*
X-82091500Y-121063410D01*
X-34058211Y-64350021D02*
X-34265331Y-64508931D01*
X-88827420Y-55328201D02*
X-88788344Y-55328258D01*
X-82591520Y-121929410D02*
X-82832680Y-122029310D01*
X-86717609Y-55777303D02*
X-92238410Y-55802541D01*
X-86649736Y-56273425D02*
X-88292940Y-56753471D01*
X-89195710Y-129907610D02*
X-87385100Y-130084280D01*
X-91986100Y-129260600D02*
X-92238410Y-129151050D01*
M02*
