G04 #@! TF.GenerationSoftware,KiCad,Pcbnew,(5.1.10-1-10_14)*
G04 #@! TF.CreationDate,2021-06-08T23:18:15-04:00*
G04 #@! TF.ProjectId,tr109-mainboard,74723130-392d-46d6-9169-6e626f617264,1*
G04 #@! TF.SameCoordinates,Original*
G04 #@! TF.FileFunction,Other,Fab,Top*
%FSLAX46Y46*%
G04 Gerber Fmt 4.6, Leading zero omitted, Abs format (unit mm)*
G04 Created by KiCad (PCBNEW (5.1.10-1-10_14)) date 2021-06-08 23:18:15*
%MOMM*%
%LPD*%
G01*
G04 APERTURE LIST*
%ADD10C,0.100000*%
%ADD11C,0.150000*%
%ADD12C,0.060000*%
G04 APERTURE END LIST*
D10*
X115399660Y-80769400D02*
X117304660Y-80769400D01*
X117304660Y-80769400D02*
X117304660Y-85849400D01*
X117304660Y-85849400D02*
X114764660Y-85849400D01*
X114764660Y-85849400D02*
X114764660Y-81404400D01*
X114764660Y-81404400D02*
X115399660Y-80769400D01*
X161920600Y-127804400D02*
X161920600Y-129709400D01*
X161920600Y-129709400D02*
X133980600Y-129709400D01*
X133980600Y-129709400D02*
X133980600Y-127169400D01*
X133980600Y-127169400D02*
X161285600Y-127169400D01*
X161285600Y-127169400D02*
X161920600Y-127804400D01*
X164215600Y-110769400D02*
X166120600Y-110769400D01*
X166120600Y-110769400D02*
X166120600Y-123469400D01*
X166120600Y-123469400D02*
X163580600Y-123469400D01*
X163580600Y-123469400D02*
X163580600Y-111404400D01*
X163580600Y-111404400D02*
X164215600Y-110769400D01*
X149621600Y-84859400D02*
X152546600Y-84859400D01*
X152546600Y-84859400D02*
X152546600Y-94759400D01*
X152546600Y-94759400D02*
X148646600Y-94759400D01*
X148646600Y-94759400D02*
X148646600Y-85834400D01*
X148646600Y-85834400D02*
X149621600Y-84859400D01*
X164215600Y-101752400D02*
X166120600Y-101752400D01*
X166120600Y-101752400D02*
X166120600Y-106832400D01*
X166120600Y-106832400D02*
X163580600Y-106832400D01*
X163580600Y-106832400D02*
X163580600Y-102387400D01*
X163580600Y-102387400D02*
X164215600Y-101752400D01*
X150050600Y-98739400D02*
G75*
G03*
X150050600Y-98739400I-750000J0D01*
G01*
X148100600Y-96339400D02*
X148100600Y-99839400D01*
X148100600Y-99839400D02*
X152900600Y-99839400D01*
X152900600Y-99839400D02*
X152900600Y-96339400D01*
X152900600Y-96339400D02*
X148100600Y-96339400D01*
X149300600Y-99482400D02*
X149301600Y-97997400D01*
X149300600Y-99482400D02*
X149301600Y-97997400D01*
X124200600Y-122914400D02*
X124200600Y-124819400D01*
X124200600Y-124819400D02*
X116580600Y-124819400D01*
X116580600Y-124819400D02*
X116580600Y-122279400D01*
X116580600Y-122279400D02*
X123565600Y-122279400D01*
X123565600Y-122279400D02*
X124200600Y-122914400D01*
X118131760Y-73901860D02*
X118131760Y-71996860D01*
X118131760Y-71996860D02*
X168931760Y-71996860D01*
X168931760Y-71996860D02*
X168931760Y-74536860D01*
X168931760Y-74536860D02*
X118766760Y-74536860D01*
X118766760Y-74536860D02*
X118131760Y-73901860D01*
X119081760Y-78896860D02*
X119081760Y-74536860D01*
X119081760Y-78896860D02*
X119721760Y-78896860D01*
X119721760Y-78896860D02*
X119721760Y-74536860D01*
X119081760Y-71996860D02*
X119081760Y-65996860D01*
X119081760Y-65996860D02*
X119721760Y-65996860D01*
X119721760Y-71996860D02*
X119721760Y-65996860D01*
X121621760Y-78896860D02*
X121621760Y-74536860D01*
X121621760Y-78896860D02*
X122261760Y-78896860D01*
X122261760Y-78896860D02*
X122261760Y-74536860D01*
X121621760Y-71996860D02*
X121621760Y-65996860D01*
X121621760Y-65996860D02*
X122261760Y-65996860D01*
X122261760Y-71996860D02*
X122261760Y-65996860D01*
X124161760Y-78896860D02*
X124161760Y-74536860D01*
X124161760Y-78896860D02*
X124801760Y-78896860D01*
X124801760Y-78896860D02*
X124801760Y-74536860D01*
X124161760Y-71996860D02*
X124161760Y-65996860D01*
X124161760Y-65996860D02*
X124801760Y-65996860D01*
X124801760Y-71996860D02*
X124801760Y-65996860D01*
X126701760Y-78896860D02*
X126701760Y-74536860D01*
X126701760Y-78896860D02*
X127341760Y-78896860D01*
X127341760Y-78896860D02*
X127341760Y-74536860D01*
X126701760Y-71996860D02*
X126701760Y-65996860D01*
X126701760Y-65996860D02*
X127341760Y-65996860D01*
X127341760Y-71996860D02*
X127341760Y-65996860D01*
X129241760Y-78896860D02*
X129241760Y-74536860D01*
X129241760Y-78896860D02*
X129881760Y-78896860D01*
X129881760Y-78896860D02*
X129881760Y-74536860D01*
X129241760Y-71996860D02*
X129241760Y-65996860D01*
X129241760Y-65996860D02*
X129881760Y-65996860D01*
X129881760Y-71996860D02*
X129881760Y-65996860D01*
X131781760Y-78896860D02*
X131781760Y-74536860D01*
X131781760Y-78896860D02*
X132421760Y-78896860D01*
X132421760Y-78896860D02*
X132421760Y-74536860D01*
X131781760Y-71996860D02*
X131781760Y-65996860D01*
X131781760Y-65996860D02*
X132421760Y-65996860D01*
X132421760Y-71996860D02*
X132421760Y-65996860D01*
X134321760Y-78896860D02*
X134321760Y-74536860D01*
X134321760Y-78896860D02*
X134961760Y-78896860D01*
X134961760Y-78896860D02*
X134961760Y-74536860D01*
X134321760Y-71996860D02*
X134321760Y-65996860D01*
X134321760Y-65996860D02*
X134961760Y-65996860D01*
X134961760Y-71996860D02*
X134961760Y-65996860D01*
X136861760Y-78896860D02*
X136861760Y-74536860D01*
X136861760Y-78896860D02*
X137501760Y-78896860D01*
X137501760Y-78896860D02*
X137501760Y-74536860D01*
X136861760Y-71996860D02*
X136861760Y-65996860D01*
X136861760Y-65996860D02*
X137501760Y-65996860D01*
X137501760Y-71996860D02*
X137501760Y-65996860D01*
X139401760Y-78896860D02*
X139401760Y-74536860D01*
X139401760Y-78896860D02*
X140041760Y-78896860D01*
X140041760Y-78896860D02*
X140041760Y-74536860D01*
X139401760Y-71996860D02*
X139401760Y-65996860D01*
X139401760Y-65996860D02*
X140041760Y-65996860D01*
X140041760Y-71996860D02*
X140041760Y-65996860D01*
X141941760Y-78896860D02*
X141941760Y-74536860D01*
X141941760Y-78896860D02*
X142581760Y-78896860D01*
X142581760Y-78896860D02*
X142581760Y-74536860D01*
X141941760Y-71996860D02*
X141941760Y-65996860D01*
X141941760Y-65996860D02*
X142581760Y-65996860D01*
X142581760Y-71996860D02*
X142581760Y-65996860D01*
X144481760Y-78896860D02*
X144481760Y-74536860D01*
X144481760Y-78896860D02*
X145121760Y-78896860D01*
X145121760Y-78896860D02*
X145121760Y-74536860D01*
X144481760Y-71996860D02*
X144481760Y-65996860D01*
X144481760Y-65996860D02*
X145121760Y-65996860D01*
X145121760Y-71996860D02*
X145121760Y-65996860D01*
X147021760Y-78896860D02*
X147021760Y-74536860D01*
X147021760Y-78896860D02*
X147661760Y-78896860D01*
X147661760Y-78896860D02*
X147661760Y-74536860D01*
X147021760Y-71996860D02*
X147021760Y-65996860D01*
X147021760Y-65996860D02*
X147661760Y-65996860D01*
X147661760Y-71996860D02*
X147661760Y-65996860D01*
X149561760Y-78896860D02*
X149561760Y-74536860D01*
X149561760Y-78896860D02*
X150201760Y-78896860D01*
X150201760Y-78896860D02*
X150201760Y-74536860D01*
X149561760Y-71996860D02*
X149561760Y-65996860D01*
X149561760Y-65996860D02*
X150201760Y-65996860D01*
X150201760Y-71996860D02*
X150201760Y-65996860D01*
X152101760Y-78896860D02*
X152101760Y-74536860D01*
X152101760Y-78896860D02*
X152741760Y-78896860D01*
X152741760Y-78896860D02*
X152741760Y-74536860D01*
X152101760Y-71996860D02*
X152101760Y-65996860D01*
X152101760Y-65996860D02*
X152741760Y-65996860D01*
X152741760Y-71996860D02*
X152741760Y-65996860D01*
X154641760Y-78896860D02*
X154641760Y-74536860D01*
X154641760Y-78896860D02*
X155281760Y-78896860D01*
X155281760Y-78896860D02*
X155281760Y-74536860D01*
X154641760Y-71996860D02*
X154641760Y-65996860D01*
X154641760Y-65996860D02*
X155281760Y-65996860D01*
X155281760Y-71996860D02*
X155281760Y-65996860D01*
X157181760Y-78896860D02*
X157181760Y-74536860D01*
X157181760Y-78896860D02*
X157821760Y-78896860D01*
X157821760Y-78896860D02*
X157821760Y-74536860D01*
X157181760Y-71996860D02*
X157181760Y-65996860D01*
X157181760Y-65996860D02*
X157821760Y-65996860D01*
X157821760Y-71996860D02*
X157821760Y-65996860D01*
X159721760Y-78896860D02*
X159721760Y-74536860D01*
X159721760Y-78896860D02*
X160361760Y-78896860D01*
X160361760Y-78896860D02*
X160361760Y-74536860D01*
X159721760Y-71996860D02*
X159721760Y-65996860D01*
X159721760Y-65996860D02*
X160361760Y-65996860D01*
X160361760Y-71996860D02*
X160361760Y-65996860D01*
X162261760Y-78896860D02*
X162261760Y-74536860D01*
X162261760Y-78896860D02*
X162901760Y-78896860D01*
X162901760Y-78896860D02*
X162901760Y-74536860D01*
X162261760Y-71996860D02*
X162261760Y-65996860D01*
X162261760Y-65996860D02*
X162901760Y-65996860D01*
X162901760Y-71996860D02*
X162901760Y-65996860D01*
X164801760Y-78896860D02*
X164801760Y-74536860D01*
X164801760Y-78896860D02*
X165441760Y-78896860D01*
X165441760Y-78896860D02*
X165441760Y-74536860D01*
X164801760Y-71996860D02*
X164801760Y-65996860D01*
X164801760Y-65996860D02*
X165441760Y-65996860D01*
X165441760Y-71996860D02*
X165441760Y-65996860D01*
X167341760Y-78896860D02*
X167341760Y-74536860D01*
X167341760Y-78896860D02*
X167981760Y-78896860D01*
X167981760Y-78896860D02*
X167981760Y-74536860D01*
X167341760Y-71996860D02*
X167341760Y-65996860D01*
X167341760Y-65996860D02*
X167981760Y-65996860D01*
X167981760Y-71996860D02*
X167981760Y-65996860D01*
X165485600Y-95935800D02*
X163580600Y-95935800D01*
X163580600Y-95935800D02*
X163580600Y-88315800D01*
X163580600Y-88315800D02*
X166120600Y-88315800D01*
X166120600Y-88315800D02*
X166120600Y-95300800D01*
X166120600Y-95300800D02*
X165485600Y-95935800D01*
X115804105Y-115648736D02*
G75*
G03*
X115804660Y-113317070I1500555J1165476D01*
G01*
X118804660Y-114483260D02*
G75*
G03*
X118804660Y-114483260I-1500000J0D01*
G01*
X115804660Y-113317070D02*
X115804660Y-115649450D01*
X115804105Y-107554602D02*
G75*
G03*
X115804660Y-105222936I1500555J1165476D01*
G01*
X118804660Y-106389126D02*
G75*
G03*
X118804660Y-106389126I-1500000J0D01*
G01*
X115804660Y-105222936D02*
X115804660Y-107555316D01*
X115804105Y-99460469D02*
G75*
G03*
X115804660Y-97128803I1500555J1165476D01*
G01*
X118804660Y-98294993D02*
G75*
G03*
X118804660Y-98294993I-1500000J0D01*
G01*
X115804660Y-97128803D02*
X115804660Y-99461183D01*
X115804105Y-91366336D02*
G75*
G03*
X115804660Y-89034670I1500555J1165476D01*
G01*
X118804660Y-90200860D02*
G75*
G03*
X118804660Y-90200860I-1500000J0D01*
G01*
X115804660Y-89034670D02*
X115804660Y-91367050D01*
X154921600Y-118938400D02*
X154921600Y-121863400D01*
X154921600Y-121863400D02*
X146271600Y-121863400D01*
X146271600Y-121863400D02*
X146271600Y-117963400D01*
X146271600Y-117963400D02*
X153946600Y-117963400D01*
X153946600Y-117963400D02*
X154921600Y-118938400D01*
X136372600Y-92608400D02*
X138277600Y-92608400D01*
X138277600Y-92608400D02*
X138277600Y-112928400D01*
X138277600Y-112928400D02*
X135737600Y-112928400D01*
X135737600Y-112928400D02*
X135737600Y-93243400D01*
X135737600Y-93243400D02*
X136372600Y-92608400D01*
X151180766Y-108091400D02*
X151980766Y-108091400D01*
X151980766Y-108091400D02*
X151980766Y-109691400D01*
X151980766Y-109691400D02*
X151180766Y-109691400D01*
X151180766Y-109691400D02*
X151180766Y-108091400D01*
X146104100Y-108091400D02*
X146904100Y-108091400D01*
X146904100Y-108091400D02*
X146904100Y-109691400D01*
X146904100Y-109691400D02*
X146104100Y-109691400D01*
X146104100Y-109691400D02*
X146104100Y-108091400D01*
X149840600Y-112466400D02*
X149840600Y-111666400D01*
X149840600Y-111666400D02*
X151440600Y-111666400D01*
X151440600Y-111666400D02*
X151440600Y-112466400D01*
X151440600Y-112466400D02*
X149840600Y-112466400D01*
X154519100Y-109691400D02*
X153719100Y-109691400D01*
X153719100Y-109691400D02*
X153719100Y-108091400D01*
X153719100Y-108091400D02*
X154519100Y-108091400D01*
X154519100Y-108091400D02*
X154519100Y-109691400D01*
X149442433Y-109691400D02*
X148642433Y-109691400D01*
X148642433Y-109691400D02*
X148642433Y-108091400D01*
X148642433Y-108091400D02*
X149442433Y-108091400D01*
X149442433Y-108091400D02*
X149442433Y-109691400D01*
X117665400Y-119447000D02*
X116065400Y-119447000D01*
X117665400Y-118647000D02*
X117665400Y-119447000D01*
X116065400Y-118647000D02*
X117665400Y-118647000D01*
X116065400Y-119447000D02*
X116065400Y-118647000D01*
D11*
X114106088Y-87361780D02*
X113629898Y-87361780D01*
X113629898Y-86361780D01*
X114820374Y-87314161D02*
X114725136Y-87361780D01*
X114534660Y-87361780D01*
X114439421Y-87314161D01*
X114391802Y-87218923D01*
X114391802Y-86837971D01*
X114439421Y-86742733D01*
X114534660Y-86695114D01*
X114725136Y-86695114D01*
X114820374Y-86742733D01*
X114867993Y-86837971D01*
X114867993Y-86933209D01*
X114391802Y-87028447D01*
X115725136Y-87361780D02*
X115725136Y-86361780D01*
X115725136Y-87314161D02*
X115629898Y-87361780D01*
X115439421Y-87361780D01*
X115344183Y-87314161D01*
X115296564Y-87266542D01*
X115248945Y-87171304D01*
X115248945Y-86885590D01*
X115296564Y-86790352D01*
X115344183Y-86742733D01*
X115439421Y-86695114D01*
X115629898Y-86695114D01*
X115725136Y-86742733D01*
X115963231Y-87457019D02*
X116725136Y-87457019D01*
X117153707Y-86361780D02*
X117344183Y-86361780D01*
X117439421Y-86409400D01*
X117534660Y-86504638D01*
X117582279Y-86695114D01*
X117582279Y-87028447D01*
X117534660Y-87218923D01*
X117439421Y-87314161D01*
X117344183Y-87361780D01*
X117153707Y-87361780D01*
X117058469Y-87314161D01*
X116963231Y-87218923D01*
X116915612Y-87028447D01*
X116915612Y-86695114D01*
X116963231Y-86504638D01*
X117058469Y-86409400D01*
X117153707Y-86361780D01*
X118010850Y-86695114D02*
X118010850Y-87361780D01*
X118010850Y-86790352D02*
X118058469Y-86742733D01*
X118153707Y-86695114D01*
X118296564Y-86695114D01*
X118391802Y-86742733D01*
X118439421Y-86837971D01*
X118439421Y-87361780D01*
X115487040Y-83642733D02*
X116201326Y-83642733D01*
X116344183Y-83690352D01*
X116439421Y-83785590D01*
X116487040Y-83928447D01*
X116487040Y-84023685D01*
X115915612Y-83023685D02*
X115867993Y-83118923D01*
X115820374Y-83166542D01*
X115725136Y-83214161D01*
X115677517Y-83214161D01*
X115582279Y-83166542D01*
X115534660Y-83118923D01*
X115487040Y-83023685D01*
X115487040Y-82833209D01*
X115534660Y-82737971D01*
X115582279Y-82690352D01*
X115677517Y-82642733D01*
X115725136Y-82642733D01*
X115820374Y-82690352D01*
X115867993Y-82737971D01*
X115915612Y-82833209D01*
X115915612Y-83023685D01*
X115963231Y-83118923D01*
X116010850Y-83166542D01*
X116106088Y-83214161D01*
X116296564Y-83214161D01*
X116391802Y-83166542D01*
X116439421Y-83118923D01*
X116487040Y-83023685D01*
X116487040Y-82833209D01*
X116439421Y-82737971D01*
X116391802Y-82690352D01*
X116296564Y-82642733D01*
X116106088Y-82642733D01*
X116010850Y-82690352D01*
X115963231Y-82737971D01*
X115915612Y-82833209D01*
X150157266Y-127891780D02*
X150157266Y-128606066D01*
X150109647Y-128748923D01*
X150014409Y-128844161D01*
X149871552Y-128891780D01*
X149776314Y-128891780D01*
X151062028Y-128225114D02*
X151062028Y-128891780D01*
X150823933Y-127844161D02*
X150585838Y-128558447D01*
X151204885Y-128558447D01*
X165398219Y-116786066D02*
X164683933Y-116786066D01*
X164541076Y-116738447D01*
X164445838Y-116643209D01*
X164398219Y-116500352D01*
X164398219Y-116405114D01*
X165398219Y-117167019D02*
X165398219Y-117786066D01*
X165017266Y-117452733D01*
X165017266Y-117595590D01*
X164969647Y-117690828D01*
X164922028Y-117738447D01*
X164826790Y-117786066D01*
X164588695Y-117786066D01*
X164493457Y-117738447D01*
X164445838Y-117690828D01*
X164398219Y-117595590D01*
X164398219Y-117309876D01*
X164445838Y-117214638D01*
X164493457Y-117167019D01*
X149849933Y-89272733D02*
X149849933Y-90066066D01*
X149896600Y-90159400D01*
X149943266Y-90206066D01*
X150036600Y-90252733D01*
X150223266Y-90252733D01*
X150316600Y-90206066D01*
X150363266Y-90159400D01*
X150409933Y-90066066D01*
X150409933Y-89272733D01*
X150829933Y-89366066D02*
X150876600Y-89319400D01*
X150969933Y-89272733D01*
X151203266Y-89272733D01*
X151296600Y-89319400D01*
X151343266Y-89366066D01*
X151389933Y-89459400D01*
X151389933Y-89552733D01*
X151343266Y-89692733D01*
X150783266Y-90252733D01*
X151389933Y-90252733D01*
X164302980Y-104625733D02*
X165017266Y-104625733D01*
X165160123Y-104673352D01*
X165255361Y-104768590D01*
X165302980Y-104911447D01*
X165302980Y-105006685D01*
X164302980Y-103720971D02*
X164302980Y-103911447D01*
X164350600Y-104006685D01*
X164398219Y-104054304D01*
X164541076Y-104149542D01*
X164731552Y-104197161D01*
X165112504Y-104197161D01*
X165207742Y-104149542D01*
X165255361Y-104101923D01*
X165302980Y-104006685D01*
X165302980Y-103816209D01*
X165255361Y-103720971D01*
X165207742Y-103673352D01*
X165112504Y-103625733D01*
X164874409Y-103625733D01*
X164779171Y-103673352D01*
X164731552Y-103720971D01*
X164683933Y-103816209D01*
X164683933Y-104006685D01*
X164731552Y-104101923D01*
X164779171Y-104149542D01*
X164874409Y-104197161D01*
X149810123Y-102041780D02*
X149238695Y-102041780D01*
X149524409Y-102041780D02*
X149524409Y-101041780D01*
X149429171Y-101184638D01*
X149333933Y-101279876D01*
X149238695Y-101327495D01*
X150429171Y-101041780D02*
X150524409Y-101041780D01*
X150619647Y-101089400D01*
X150667266Y-101137019D01*
X150714885Y-101232257D01*
X150762504Y-101422733D01*
X150762504Y-101660828D01*
X150714885Y-101851304D01*
X150667266Y-101946542D01*
X150619647Y-101994161D01*
X150524409Y-102041780D01*
X150429171Y-102041780D01*
X150333933Y-101994161D01*
X150286314Y-101946542D01*
X150238695Y-101851304D01*
X150191076Y-101660828D01*
X150191076Y-101422733D01*
X150238695Y-101232257D01*
X150286314Y-101137019D01*
X150333933Y-101089400D01*
X150429171Y-101041780D01*
X151191076Y-102041780D02*
X151191076Y-101041780D01*
X151762504Y-102041780D02*
X151333933Y-101470352D01*
X151762504Y-101041780D02*
X151191076Y-101613209D01*
X150743457Y-98360828D02*
X150543457Y-98075114D01*
X150400600Y-98360828D02*
X150400600Y-97760828D01*
X150629171Y-97760828D01*
X150686314Y-97789400D01*
X150714885Y-97817971D01*
X150743457Y-97875114D01*
X150743457Y-97960828D01*
X150714885Y-98017971D01*
X150686314Y-98046542D01*
X150629171Y-98075114D01*
X150400600Y-98075114D01*
X150914885Y-97760828D02*
X151114885Y-98360828D01*
X151314885Y-97760828D01*
X151829171Y-98360828D02*
X151486314Y-98360828D01*
X151657742Y-98360828D02*
X151657742Y-97760828D01*
X151600600Y-97846542D01*
X151543457Y-97903685D01*
X151486314Y-97932257D01*
X120057266Y-123001780D02*
X120057266Y-123716066D01*
X120009647Y-123858923D01*
X119914409Y-123954161D01*
X119771552Y-124001780D01*
X119676314Y-124001780D01*
X120438219Y-123001780D02*
X121104885Y-123001780D01*
X120676314Y-124001780D01*
X123100180Y-91750733D02*
X123100180Y-91179304D01*
X124100180Y-91465019D02*
X123100180Y-91465019D01*
X124052561Y-90465019D02*
X124100180Y-90560257D01*
X124100180Y-90750733D01*
X124052561Y-90845971D01*
X123957323Y-90893590D01*
X123576371Y-90893590D01*
X123481133Y-90845971D01*
X123433514Y-90750733D01*
X123433514Y-90560257D01*
X123481133Y-90465019D01*
X123576371Y-90417400D01*
X123671609Y-90417400D01*
X123766847Y-90893590D01*
X124052561Y-90036447D02*
X124100180Y-89941209D01*
X124100180Y-89750733D01*
X124052561Y-89655495D01*
X123957323Y-89607876D01*
X123909704Y-89607876D01*
X123814466Y-89655495D01*
X123766847Y-89750733D01*
X123766847Y-89893590D01*
X123719228Y-89988828D01*
X123623990Y-90036447D01*
X123576371Y-90036447D01*
X123481133Y-89988828D01*
X123433514Y-89893590D01*
X123433514Y-89750733D01*
X123481133Y-89655495D01*
X123433514Y-89322161D02*
X123433514Y-88941209D01*
X123100180Y-89179304D02*
X123957323Y-89179304D01*
X124052561Y-89131685D01*
X124100180Y-89036447D01*
X124100180Y-88941209D01*
X124100180Y-88607876D02*
X123100180Y-88607876D01*
X123100180Y-88226923D01*
X123147800Y-88131685D01*
X123195419Y-88084066D01*
X123290657Y-88036447D01*
X123433514Y-88036447D01*
X123528752Y-88084066D01*
X123576371Y-88131685D01*
X123623990Y-88226923D01*
X123623990Y-88607876D01*
X124100180Y-87465019D02*
X124052561Y-87560257D01*
X124004942Y-87607876D01*
X123909704Y-87655495D01*
X123623990Y-87655495D01*
X123528752Y-87607876D01*
X123481133Y-87560257D01*
X123433514Y-87465019D01*
X123433514Y-87322161D01*
X123481133Y-87226923D01*
X123528752Y-87179304D01*
X123623990Y-87131685D01*
X123909704Y-87131685D01*
X124004942Y-87179304D01*
X124052561Y-87226923D01*
X124100180Y-87322161D01*
X124100180Y-87465019D01*
X124100180Y-86703114D02*
X123433514Y-86703114D01*
X123100180Y-86703114D02*
X123147800Y-86750733D01*
X123195419Y-86703114D01*
X123147800Y-86655495D01*
X123100180Y-86703114D01*
X123195419Y-86703114D01*
X123433514Y-86226923D02*
X124100180Y-86226923D01*
X123528752Y-86226923D02*
X123481133Y-86179304D01*
X123433514Y-86084066D01*
X123433514Y-85941209D01*
X123481133Y-85845971D01*
X123576371Y-85798352D01*
X124100180Y-85798352D01*
X123433514Y-85465019D02*
X123433514Y-85084066D01*
X123100180Y-85322161D02*
X123957323Y-85322161D01*
X124052561Y-85274542D01*
X124100180Y-85179304D01*
X124100180Y-85084066D01*
X120100180Y-89679304D02*
X120100180Y-89107876D01*
X121100180Y-89393590D02*
X120100180Y-89393590D01*
X121100180Y-88774542D02*
X120100180Y-88774542D01*
X120100180Y-88393590D01*
X120147800Y-88298352D01*
X120195419Y-88250733D01*
X120290657Y-88203114D01*
X120433514Y-88203114D01*
X120528752Y-88250733D01*
X120576371Y-88298352D01*
X120623990Y-88393590D01*
X120623990Y-88774542D01*
X120195419Y-87822161D02*
X120147800Y-87774542D01*
X120100180Y-87679304D01*
X120100180Y-87441209D01*
X120147800Y-87345971D01*
X120195419Y-87298352D01*
X120290657Y-87250733D01*
X120385895Y-87250733D01*
X120528752Y-87298352D01*
X121100180Y-87869780D01*
X121100180Y-87250733D01*
X125738081Y-123313932D02*
X125738081Y-122742503D01*
X126738081Y-123028218D02*
X125738081Y-123028218D01*
X126690462Y-122028218D02*
X126738081Y-122123456D01*
X126738081Y-122313932D01*
X126690462Y-122409170D01*
X126595224Y-122456789D01*
X126214272Y-122456789D01*
X126119034Y-122409170D01*
X126071415Y-122313932D01*
X126071415Y-122123456D01*
X126119034Y-122028218D01*
X126214272Y-121980599D01*
X126309510Y-121980599D01*
X126404748Y-122456789D01*
X126690462Y-121599646D02*
X126738081Y-121504408D01*
X126738081Y-121313932D01*
X126690462Y-121218694D01*
X126595224Y-121171075D01*
X126547605Y-121171075D01*
X126452367Y-121218694D01*
X126404748Y-121313932D01*
X126404748Y-121456789D01*
X126357129Y-121552027D01*
X126261891Y-121599646D01*
X126214272Y-121599646D01*
X126119034Y-121552027D01*
X126071415Y-121456789D01*
X126071415Y-121313932D01*
X126119034Y-121218694D01*
X126071415Y-120885360D02*
X126071415Y-120504408D01*
X125738081Y-120742503D02*
X126595224Y-120742503D01*
X126690462Y-120694884D01*
X126738081Y-120599646D01*
X126738081Y-120504408D01*
X126738081Y-120171075D02*
X125738081Y-120171075D01*
X125738081Y-119790122D01*
X125785701Y-119694884D01*
X125833320Y-119647265D01*
X125928558Y-119599646D01*
X126071415Y-119599646D01*
X126166653Y-119647265D01*
X126214272Y-119694884D01*
X126261891Y-119790122D01*
X126261891Y-120171075D01*
X126738081Y-119028218D02*
X126690462Y-119123456D01*
X126642843Y-119171075D01*
X126547605Y-119218694D01*
X126261891Y-119218694D01*
X126166653Y-119171075D01*
X126119034Y-119123456D01*
X126071415Y-119028218D01*
X126071415Y-118885360D01*
X126119034Y-118790122D01*
X126166653Y-118742503D01*
X126261891Y-118694884D01*
X126547605Y-118694884D01*
X126642843Y-118742503D01*
X126690462Y-118790122D01*
X126738081Y-118885360D01*
X126738081Y-119028218D01*
X126738081Y-118266313D02*
X126071415Y-118266313D01*
X125738081Y-118266313D02*
X125785701Y-118313932D01*
X125833320Y-118266313D01*
X125785701Y-118218694D01*
X125738081Y-118266313D01*
X125833320Y-118266313D01*
X126071415Y-117790122D02*
X126738081Y-117790122D01*
X126166653Y-117790122D02*
X126119034Y-117742503D01*
X126071415Y-117647265D01*
X126071415Y-117504408D01*
X126119034Y-117409170D01*
X126214272Y-117361551D01*
X126738081Y-117361551D01*
X126071415Y-117028218D02*
X126071415Y-116647265D01*
X125738081Y-116885360D02*
X126595224Y-116885360D01*
X126690462Y-116837741D01*
X126738081Y-116742503D01*
X126738081Y-116647265D01*
X122738081Y-121242503D02*
X122738081Y-120671075D01*
X123738081Y-120956789D02*
X122738081Y-120956789D01*
X123738081Y-120337741D02*
X122738081Y-120337741D01*
X122738081Y-119956789D01*
X122785701Y-119861551D01*
X122833320Y-119813932D01*
X122928558Y-119766313D01*
X123071415Y-119766313D01*
X123166653Y-119813932D01*
X123214272Y-119861551D01*
X123261891Y-119956789D01*
X123261891Y-120337741D01*
X123738081Y-118813932D02*
X123738081Y-119385360D01*
X123738081Y-119099646D02*
X122738081Y-119099646D01*
X122880939Y-119194884D01*
X122976177Y-119290122D01*
X123023796Y-119385360D01*
X157244423Y-87091380D02*
X157244423Y-86091380D01*
X157577757Y-86805666D01*
X157911090Y-86091380D01*
X157911090Y-87091380D01*
X158530138Y-87091380D02*
X158434900Y-87043761D01*
X158387280Y-86996142D01*
X158339661Y-86900904D01*
X158339661Y-86615190D01*
X158387280Y-86519952D01*
X158434900Y-86472333D01*
X158530138Y-86424714D01*
X158672995Y-86424714D01*
X158768233Y-86472333D01*
X158815852Y-86519952D01*
X158863471Y-86615190D01*
X158863471Y-86900904D01*
X158815852Y-86996142D01*
X158768233Y-87043761D01*
X158672995Y-87091380D01*
X158530138Y-87091380D01*
X159720614Y-86424714D02*
X159720614Y-87091380D01*
X159292042Y-86424714D02*
X159292042Y-86948523D01*
X159339661Y-87043761D01*
X159434900Y-87091380D01*
X159577757Y-87091380D01*
X159672995Y-87043761D01*
X159720614Y-86996142D01*
X160196804Y-86424714D02*
X160196804Y-87091380D01*
X160196804Y-86519952D02*
X160244423Y-86472333D01*
X160339661Y-86424714D01*
X160482519Y-86424714D01*
X160577757Y-86472333D01*
X160625376Y-86567571D01*
X160625376Y-87091380D01*
X160958709Y-86424714D02*
X161339661Y-86424714D01*
X161101566Y-86091380D02*
X161101566Y-86948523D01*
X161149185Y-87043761D01*
X161244423Y-87091380D01*
X161339661Y-87091380D01*
X161672995Y-87091380D02*
X161672995Y-86424714D01*
X161672995Y-86091380D02*
X161625376Y-86139000D01*
X161672995Y-86186619D01*
X161720614Y-86139000D01*
X161672995Y-86091380D01*
X161672995Y-86186619D01*
X162149185Y-86424714D02*
X162149185Y-87091380D01*
X162149185Y-86519952D02*
X162196804Y-86472333D01*
X162292042Y-86424714D01*
X162434900Y-86424714D01*
X162530138Y-86472333D01*
X162577757Y-86567571D01*
X162577757Y-87091380D01*
X163482519Y-86424714D02*
X163482519Y-87234238D01*
X163434900Y-87329476D01*
X163387280Y-87377095D01*
X163292042Y-87424714D01*
X163149185Y-87424714D01*
X163053947Y-87377095D01*
X163482519Y-87043761D02*
X163387280Y-87091380D01*
X163196804Y-87091380D01*
X163101566Y-87043761D01*
X163053947Y-86996142D01*
X163006328Y-86900904D01*
X163006328Y-86615190D01*
X163053947Y-86519952D01*
X163101566Y-86472333D01*
X163196804Y-86424714D01*
X163387280Y-86424714D01*
X163482519Y-86472333D01*
X163958709Y-87091380D02*
X163958709Y-86091380D01*
X163958709Y-86567571D02*
X164530138Y-86567571D01*
X164530138Y-87091380D02*
X164530138Y-86091380D01*
X165149185Y-87091380D02*
X165053947Y-87043761D01*
X165006328Y-86996142D01*
X164958709Y-86900904D01*
X164958709Y-86615190D01*
X165006328Y-86519952D01*
X165053947Y-86472333D01*
X165149185Y-86424714D01*
X165292042Y-86424714D01*
X165387280Y-86472333D01*
X165434900Y-86519952D01*
X165482519Y-86615190D01*
X165482519Y-86900904D01*
X165434900Y-86996142D01*
X165387280Y-87043761D01*
X165292042Y-87091380D01*
X165149185Y-87091380D01*
X166053947Y-87091380D02*
X165958709Y-87043761D01*
X165911090Y-86948523D01*
X165911090Y-86091380D01*
X166815852Y-87043761D02*
X166720614Y-87091380D01*
X166530138Y-87091380D01*
X166434900Y-87043761D01*
X166387280Y-86948523D01*
X166387280Y-86567571D01*
X166434900Y-86472333D01*
X166530138Y-86424714D01*
X166720614Y-86424714D01*
X166815852Y-86472333D01*
X166863471Y-86567571D01*
X166863471Y-86662809D01*
X166387280Y-86758047D01*
X167053947Y-87186619D02*
X167815852Y-87186619D01*
X168006328Y-86186619D02*
X168053947Y-86139000D01*
X168149185Y-86091380D01*
X168387280Y-86091380D01*
X168482519Y-86139000D01*
X168530138Y-86186619D01*
X168577757Y-86281857D01*
X168577757Y-86377095D01*
X168530138Y-86519952D01*
X167958709Y-87091380D01*
X168577757Y-87091380D01*
X169006328Y-86996142D02*
X169053947Y-87043761D01*
X169006328Y-87091380D01*
X168958709Y-87043761D01*
X169006328Y-86996142D01*
X169006328Y-87091380D01*
X170006328Y-87091380D02*
X169434900Y-87091380D01*
X169720614Y-87091380D02*
X169720614Y-86091380D01*
X169625376Y-86234238D01*
X169530138Y-86329476D01*
X169434900Y-86377095D01*
X170434900Y-87091380D02*
X170434900Y-86424714D01*
X170434900Y-86519952D02*
X170482519Y-86472333D01*
X170577757Y-86424714D01*
X170720614Y-86424714D01*
X170815852Y-86472333D01*
X170863471Y-86567571D01*
X170863471Y-87091380D01*
X170863471Y-86567571D02*
X170911090Y-86472333D01*
X171006328Y-86424714D01*
X171149185Y-86424714D01*
X171244423Y-86472333D01*
X171292042Y-86567571D01*
X171292042Y-87091380D01*
X171768233Y-87091380D02*
X171768233Y-86424714D01*
X171768233Y-86519952D02*
X171815852Y-86472333D01*
X171911090Y-86424714D01*
X172053947Y-86424714D01*
X172149185Y-86472333D01*
X172196804Y-86567571D01*
X172196804Y-87091380D01*
X172196804Y-86567571D02*
X172244423Y-86472333D01*
X172339661Y-86424714D01*
X172482519Y-86424714D01*
X172577757Y-86472333D01*
X172625376Y-86567571D01*
X172625376Y-87091380D01*
X163901566Y-83891380D02*
X163568233Y-83415190D01*
X163330138Y-83891380D02*
X163330138Y-82891380D01*
X163711090Y-82891380D01*
X163806328Y-82939000D01*
X163853947Y-82986619D01*
X163901566Y-83081857D01*
X163901566Y-83224714D01*
X163853947Y-83319952D01*
X163806328Y-83367571D01*
X163711090Y-83415190D01*
X163330138Y-83415190D01*
X164330138Y-83367571D02*
X164663471Y-83367571D01*
X164806328Y-83891380D02*
X164330138Y-83891380D01*
X164330138Y-82891380D01*
X164806328Y-82891380D01*
X165568233Y-83367571D02*
X165234900Y-83367571D01*
X165234900Y-83891380D02*
X165234900Y-82891380D01*
X165711090Y-82891380D01*
X166234900Y-82891380D02*
X166234900Y-83129476D01*
X165996804Y-83034238D02*
X166234900Y-83129476D01*
X166472995Y-83034238D01*
X166092042Y-83319952D02*
X166234900Y-83129476D01*
X166377757Y-83319952D01*
X166996804Y-82891380D02*
X166996804Y-83129476D01*
X166758709Y-83034238D02*
X166996804Y-83129476D01*
X167234900Y-83034238D01*
X166853947Y-83319952D02*
X166996804Y-83129476D01*
X167139661Y-83319952D01*
X114648623Y-87078680D02*
X114648623Y-86078680D01*
X114981957Y-86792966D01*
X115315290Y-86078680D01*
X115315290Y-87078680D01*
X115934338Y-87078680D02*
X115839100Y-87031061D01*
X115791480Y-86983442D01*
X115743861Y-86888204D01*
X115743861Y-86602490D01*
X115791480Y-86507252D01*
X115839100Y-86459633D01*
X115934338Y-86412014D01*
X116077195Y-86412014D01*
X116172433Y-86459633D01*
X116220052Y-86507252D01*
X116267671Y-86602490D01*
X116267671Y-86888204D01*
X116220052Y-86983442D01*
X116172433Y-87031061D01*
X116077195Y-87078680D01*
X115934338Y-87078680D01*
X117124814Y-86412014D02*
X117124814Y-87078680D01*
X116696242Y-86412014D02*
X116696242Y-86935823D01*
X116743861Y-87031061D01*
X116839100Y-87078680D01*
X116981957Y-87078680D01*
X117077195Y-87031061D01*
X117124814Y-86983442D01*
X117601004Y-86412014D02*
X117601004Y-87078680D01*
X117601004Y-86507252D02*
X117648623Y-86459633D01*
X117743861Y-86412014D01*
X117886719Y-86412014D01*
X117981957Y-86459633D01*
X118029576Y-86554871D01*
X118029576Y-87078680D01*
X118362909Y-86412014D02*
X118743861Y-86412014D01*
X118505766Y-86078680D02*
X118505766Y-86935823D01*
X118553385Y-87031061D01*
X118648623Y-87078680D01*
X118743861Y-87078680D01*
X119077195Y-87078680D02*
X119077195Y-86412014D01*
X119077195Y-86078680D02*
X119029576Y-86126300D01*
X119077195Y-86173919D01*
X119124814Y-86126300D01*
X119077195Y-86078680D01*
X119077195Y-86173919D01*
X119553385Y-86412014D02*
X119553385Y-87078680D01*
X119553385Y-86507252D02*
X119601004Y-86459633D01*
X119696242Y-86412014D01*
X119839100Y-86412014D01*
X119934338Y-86459633D01*
X119981957Y-86554871D01*
X119981957Y-87078680D01*
X120886719Y-86412014D02*
X120886719Y-87221538D01*
X120839100Y-87316776D01*
X120791480Y-87364395D01*
X120696242Y-87412014D01*
X120553385Y-87412014D01*
X120458147Y-87364395D01*
X120886719Y-87031061D02*
X120791480Y-87078680D01*
X120601004Y-87078680D01*
X120505766Y-87031061D01*
X120458147Y-86983442D01*
X120410528Y-86888204D01*
X120410528Y-86602490D01*
X120458147Y-86507252D01*
X120505766Y-86459633D01*
X120601004Y-86412014D01*
X120791480Y-86412014D01*
X120886719Y-86459633D01*
X121362909Y-87078680D02*
X121362909Y-86078680D01*
X121362909Y-86554871D02*
X121934338Y-86554871D01*
X121934338Y-87078680D02*
X121934338Y-86078680D01*
X122553385Y-87078680D02*
X122458147Y-87031061D01*
X122410528Y-86983442D01*
X122362909Y-86888204D01*
X122362909Y-86602490D01*
X122410528Y-86507252D01*
X122458147Y-86459633D01*
X122553385Y-86412014D01*
X122696242Y-86412014D01*
X122791480Y-86459633D01*
X122839100Y-86507252D01*
X122886719Y-86602490D01*
X122886719Y-86888204D01*
X122839100Y-86983442D01*
X122791480Y-87031061D01*
X122696242Y-87078680D01*
X122553385Y-87078680D01*
X123458147Y-87078680D02*
X123362909Y-87031061D01*
X123315290Y-86935823D01*
X123315290Y-86078680D01*
X124220052Y-87031061D02*
X124124814Y-87078680D01*
X123934338Y-87078680D01*
X123839100Y-87031061D01*
X123791480Y-86935823D01*
X123791480Y-86554871D01*
X123839100Y-86459633D01*
X123934338Y-86412014D01*
X124124814Y-86412014D01*
X124220052Y-86459633D01*
X124267671Y-86554871D01*
X124267671Y-86650109D01*
X123791480Y-86745347D01*
X124458147Y-87173919D02*
X125220052Y-87173919D01*
X125410528Y-86173919D02*
X125458147Y-86126300D01*
X125553385Y-86078680D01*
X125791480Y-86078680D01*
X125886719Y-86126300D01*
X125934338Y-86173919D01*
X125981957Y-86269157D01*
X125981957Y-86364395D01*
X125934338Y-86507252D01*
X125362909Y-87078680D01*
X125981957Y-87078680D01*
X126410528Y-86983442D02*
X126458147Y-87031061D01*
X126410528Y-87078680D01*
X126362909Y-87031061D01*
X126410528Y-86983442D01*
X126410528Y-87078680D01*
X127410528Y-87078680D02*
X126839099Y-87078680D01*
X127124814Y-87078680D02*
X127124814Y-86078680D01*
X127029576Y-86221538D01*
X126934338Y-86316776D01*
X126839099Y-86364395D01*
X127839099Y-87078680D02*
X127839099Y-86412014D01*
X127839099Y-86507252D02*
X127886719Y-86459633D01*
X127981957Y-86412014D01*
X128124814Y-86412014D01*
X128220052Y-86459633D01*
X128267671Y-86554871D01*
X128267671Y-87078680D01*
X128267671Y-86554871D02*
X128315290Y-86459633D01*
X128410528Y-86412014D01*
X128553385Y-86412014D01*
X128648623Y-86459633D01*
X128696242Y-86554871D01*
X128696242Y-87078680D01*
X129172433Y-87078680D02*
X129172433Y-86412014D01*
X129172433Y-86507252D02*
X129220052Y-86459633D01*
X129315290Y-86412014D01*
X129458147Y-86412014D01*
X129553385Y-86459633D01*
X129601004Y-86554871D01*
X129601004Y-87078680D01*
X129601004Y-86554871D02*
X129648623Y-86459633D01*
X129743861Y-86412014D01*
X129886719Y-86412014D01*
X129981957Y-86459633D01*
X130029576Y-86554871D01*
X130029576Y-87078680D01*
X121305766Y-83878680D02*
X120972433Y-83402490D01*
X120734338Y-83878680D02*
X120734338Y-82878680D01*
X121115290Y-82878680D01*
X121210528Y-82926300D01*
X121258147Y-82973919D01*
X121305766Y-83069157D01*
X121305766Y-83212014D01*
X121258147Y-83307252D01*
X121210528Y-83354871D01*
X121115290Y-83402490D01*
X120734338Y-83402490D01*
X121734338Y-83354871D02*
X122067671Y-83354871D01*
X122210528Y-83878680D02*
X121734338Y-83878680D01*
X121734338Y-82878680D01*
X122210528Y-82878680D01*
X122972433Y-83354871D02*
X122639100Y-83354871D01*
X122639100Y-83878680D02*
X122639100Y-82878680D01*
X123115290Y-82878680D01*
X123639100Y-82878680D02*
X123639100Y-83116776D01*
X123401004Y-83021538D02*
X123639100Y-83116776D01*
X123877195Y-83021538D01*
X123496242Y-83307252D02*
X123639100Y-83116776D01*
X123781957Y-83307252D01*
X124401004Y-82878680D02*
X124401004Y-83116776D01*
X124162909Y-83021538D02*
X124401004Y-83116776D01*
X124639100Y-83021538D01*
X124258147Y-83307252D02*
X124401004Y-83116776D01*
X124543861Y-83307252D01*
X157231723Y-131630280D02*
X157231723Y-130630280D01*
X157565057Y-131344566D01*
X157898390Y-130630280D01*
X157898390Y-131630280D01*
X158517438Y-131630280D02*
X158422200Y-131582661D01*
X158374580Y-131535042D01*
X158326961Y-131439804D01*
X158326961Y-131154090D01*
X158374580Y-131058852D01*
X158422200Y-131011233D01*
X158517438Y-130963614D01*
X158660295Y-130963614D01*
X158755533Y-131011233D01*
X158803152Y-131058852D01*
X158850771Y-131154090D01*
X158850771Y-131439804D01*
X158803152Y-131535042D01*
X158755533Y-131582661D01*
X158660295Y-131630280D01*
X158517438Y-131630280D01*
X159707914Y-130963614D02*
X159707914Y-131630280D01*
X159279342Y-130963614D02*
X159279342Y-131487423D01*
X159326961Y-131582661D01*
X159422200Y-131630280D01*
X159565057Y-131630280D01*
X159660295Y-131582661D01*
X159707914Y-131535042D01*
X160184104Y-130963614D02*
X160184104Y-131630280D01*
X160184104Y-131058852D02*
X160231723Y-131011233D01*
X160326961Y-130963614D01*
X160469819Y-130963614D01*
X160565057Y-131011233D01*
X160612676Y-131106471D01*
X160612676Y-131630280D01*
X160946009Y-130963614D02*
X161326961Y-130963614D01*
X161088866Y-130630280D02*
X161088866Y-131487423D01*
X161136485Y-131582661D01*
X161231723Y-131630280D01*
X161326961Y-131630280D01*
X161660295Y-131630280D02*
X161660295Y-130963614D01*
X161660295Y-130630280D02*
X161612676Y-130677900D01*
X161660295Y-130725519D01*
X161707914Y-130677900D01*
X161660295Y-130630280D01*
X161660295Y-130725519D01*
X162136485Y-130963614D02*
X162136485Y-131630280D01*
X162136485Y-131058852D02*
X162184104Y-131011233D01*
X162279342Y-130963614D01*
X162422200Y-130963614D01*
X162517438Y-131011233D01*
X162565057Y-131106471D01*
X162565057Y-131630280D01*
X163469819Y-130963614D02*
X163469819Y-131773138D01*
X163422200Y-131868376D01*
X163374580Y-131915995D01*
X163279342Y-131963614D01*
X163136485Y-131963614D01*
X163041247Y-131915995D01*
X163469819Y-131582661D02*
X163374580Y-131630280D01*
X163184104Y-131630280D01*
X163088866Y-131582661D01*
X163041247Y-131535042D01*
X162993628Y-131439804D01*
X162993628Y-131154090D01*
X163041247Y-131058852D01*
X163088866Y-131011233D01*
X163184104Y-130963614D01*
X163374580Y-130963614D01*
X163469819Y-131011233D01*
X163946009Y-131630280D02*
X163946009Y-130630280D01*
X163946009Y-131106471D02*
X164517438Y-131106471D01*
X164517438Y-131630280D02*
X164517438Y-130630280D01*
X165136485Y-131630280D02*
X165041247Y-131582661D01*
X164993628Y-131535042D01*
X164946009Y-131439804D01*
X164946009Y-131154090D01*
X164993628Y-131058852D01*
X165041247Y-131011233D01*
X165136485Y-130963614D01*
X165279342Y-130963614D01*
X165374580Y-131011233D01*
X165422200Y-131058852D01*
X165469819Y-131154090D01*
X165469819Y-131439804D01*
X165422200Y-131535042D01*
X165374580Y-131582661D01*
X165279342Y-131630280D01*
X165136485Y-131630280D01*
X166041247Y-131630280D02*
X165946009Y-131582661D01*
X165898390Y-131487423D01*
X165898390Y-130630280D01*
X166803152Y-131582661D02*
X166707914Y-131630280D01*
X166517438Y-131630280D01*
X166422200Y-131582661D01*
X166374580Y-131487423D01*
X166374580Y-131106471D01*
X166422200Y-131011233D01*
X166517438Y-130963614D01*
X166707914Y-130963614D01*
X166803152Y-131011233D01*
X166850771Y-131106471D01*
X166850771Y-131201709D01*
X166374580Y-131296947D01*
X167041247Y-131725519D02*
X167803152Y-131725519D01*
X167993628Y-130725519D02*
X168041247Y-130677900D01*
X168136485Y-130630280D01*
X168374580Y-130630280D01*
X168469819Y-130677900D01*
X168517438Y-130725519D01*
X168565057Y-130820757D01*
X168565057Y-130915995D01*
X168517438Y-131058852D01*
X167946009Y-131630280D01*
X168565057Y-131630280D01*
X168993628Y-131535042D02*
X169041247Y-131582661D01*
X168993628Y-131630280D01*
X168946009Y-131582661D01*
X168993628Y-131535042D01*
X168993628Y-131630280D01*
X169993628Y-131630280D02*
X169422200Y-131630280D01*
X169707914Y-131630280D02*
X169707914Y-130630280D01*
X169612676Y-130773138D01*
X169517438Y-130868376D01*
X169422200Y-130915995D01*
X170422200Y-131630280D02*
X170422200Y-130963614D01*
X170422200Y-131058852D02*
X170469819Y-131011233D01*
X170565057Y-130963614D01*
X170707914Y-130963614D01*
X170803152Y-131011233D01*
X170850771Y-131106471D01*
X170850771Y-131630280D01*
X170850771Y-131106471D02*
X170898390Y-131011233D01*
X170993628Y-130963614D01*
X171136485Y-130963614D01*
X171231723Y-131011233D01*
X171279342Y-131106471D01*
X171279342Y-131630280D01*
X171755533Y-131630280D02*
X171755533Y-130963614D01*
X171755533Y-131058852D02*
X171803152Y-131011233D01*
X171898390Y-130963614D01*
X172041247Y-130963614D01*
X172136485Y-131011233D01*
X172184104Y-131106471D01*
X172184104Y-131630280D01*
X172184104Y-131106471D02*
X172231723Y-131011233D01*
X172326961Y-130963614D01*
X172469819Y-130963614D01*
X172565057Y-131011233D01*
X172612676Y-131106471D01*
X172612676Y-131630280D01*
X163888866Y-128430280D02*
X163555533Y-127954090D01*
X163317438Y-128430280D02*
X163317438Y-127430280D01*
X163698390Y-127430280D01*
X163793628Y-127477900D01*
X163841247Y-127525519D01*
X163888866Y-127620757D01*
X163888866Y-127763614D01*
X163841247Y-127858852D01*
X163793628Y-127906471D01*
X163698390Y-127954090D01*
X163317438Y-127954090D01*
X164317438Y-127906471D02*
X164650771Y-127906471D01*
X164793628Y-128430280D02*
X164317438Y-128430280D01*
X164317438Y-127430280D01*
X164793628Y-127430280D01*
X165555533Y-127906471D02*
X165222200Y-127906471D01*
X165222200Y-128430280D02*
X165222200Y-127430280D01*
X165698390Y-127430280D01*
X166222200Y-127430280D02*
X166222200Y-127668376D01*
X165984104Y-127573138D02*
X166222200Y-127668376D01*
X166460295Y-127573138D01*
X166079342Y-127858852D02*
X166222200Y-127668376D01*
X166365057Y-127858852D01*
X166984104Y-127430280D02*
X166984104Y-127668376D01*
X166746009Y-127573138D02*
X166984104Y-127668376D01*
X167222200Y-127573138D01*
X166841247Y-127858852D02*
X166984104Y-127668376D01*
X167126961Y-127858852D01*
X114623223Y-131617580D02*
X114623223Y-130617580D01*
X114956557Y-131331866D01*
X115289890Y-130617580D01*
X115289890Y-131617580D01*
X115908938Y-131617580D02*
X115813700Y-131569961D01*
X115766080Y-131522342D01*
X115718461Y-131427104D01*
X115718461Y-131141390D01*
X115766080Y-131046152D01*
X115813700Y-130998533D01*
X115908938Y-130950914D01*
X116051795Y-130950914D01*
X116147033Y-130998533D01*
X116194652Y-131046152D01*
X116242271Y-131141390D01*
X116242271Y-131427104D01*
X116194652Y-131522342D01*
X116147033Y-131569961D01*
X116051795Y-131617580D01*
X115908938Y-131617580D01*
X117099414Y-130950914D02*
X117099414Y-131617580D01*
X116670842Y-130950914D02*
X116670842Y-131474723D01*
X116718461Y-131569961D01*
X116813700Y-131617580D01*
X116956557Y-131617580D01*
X117051795Y-131569961D01*
X117099414Y-131522342D01*
X117575604Y-130950914D02*
X117575604Y-131617580D01*
X117575604Y-131046152D02*
X117623223Y-130998533D01*
X117718461Y-130950914D01*
X117861319Y-130950914D01*
X117956557Y-130998533D01*
X118004176Y-131093771D01*
X118004176Y-131617580D01*
X118337509Y-130950914D02*
X118718461Y-130950914D01*
X118480366Y-130617580D02*
X118480366Y-131474723D01*
X118527985Y-131569961D01*
X118623223Y-131617580D01*
X118718461Y-131617580D01*
X119051795Y-131617580D02*
X119051795Y-130950914D01*
X119051795Y-130617580D02*
X119004176Y-130665200D01*
X119051795Y-130712819D01*
X119099414Y-130665200D01*
X119051795Y-130617580D01*
X119051795Y-130712819D01*
X119527985Y-130950914D02*
X119527985Y-131617580D01*
X119527985Y-131046152D02*
X119575604Y-130998533D01*
X119670842Y-130950914D01*
X119813700Y-130950914D01*
X119908938Y-130998533D01*
X119956557Y-131093771D01*
X119956557Y-131617580D01*
X120861319Y-130950914D02*
X120861319Y-131760438D01*
X120813700Y-131855676D01*
X120766080Y-131903295D01*
X120670842Y-131950914D01*
X120527985Y-131950914D01*
X120432747Y-131903295D01*
X120861319Y-131569961D02*
X120766080Y-131617580D01*
X120575604Y-131617580D01*
X120480366Y-131569961D01*
X120432747Y-131522342D01*
X120385128Y-131427104D01*
X120385128Y-131141390D01*
X120432747Y-131046152D01*
X120480366Y-130998533D01*
X120575604Y-130950914D01*
X120766080Y-130950914D01*
X120861319Y-130998533D01*
X121337509Y-131617580D02*
X121337509Y-130617580D01*
X121337509Y-131093771D02*
X121908938Y-131093771D01*
X121908938Y-131617580D02*
X121908938Y-130617580D01*
X122527985Y-131617580D02*
X122432747Y-131569961D01*
X122385128Y-131522342D01*
X122337509Y-131427104D01*
X122337509Y-131141390D01*
X122385128Y-131046152D01*
X122432747Y-130998533D01*
X122527985Y-130950914D01*
X122670842Y-130950914D01*
X122766080Y-130998533D01*
X122813700Y-131046152D01*
X122861319Y-131141390D01*
X122861319Y-131427104D01*
X122813700Y-131522342D01*
X122766080Y-131569961D01*
X122670842Y-131617580D01*
X122527985Y-131617580D01*
X123432747Y-131617580D02*
X123337509Y-131569961D01*
X123289890Y-131474723D01*
X123289890Y-130617580D01*
X124194652Y-131569961D02*
X124099414Y-131617580D01*
X123908938Y-131617580D01*
X123813700Y-131569961D01*
X123766080Y-131474723D01*
X123766080Y-131093771D01*
X123813700Y-130998533D01*
X123908938Y-130950914D01*
X124099414Y-130950914D01*
X124194652Y-130998533D01*
X124242271Y-131093771D01*
X124242271Y-131189009D01*
X123766080Y-131284247D01*
X124432747Y-131712819D02*
X125194652Y-131712819D01*
X125385128Y-130712819D02*
X125432747Y-130665200D01*
X125527985Y-130617580D01*
X125766080Y-130617580D01*
X125861319Y-130665200D01*
X125908938Y-130712819D01*
X125956557Y-130808057D01*
X125956557Y-130903295D01*
X125908938Y-131046152D01*
X125337509Y-131617580D01*
X125956557Y-131617580D01*
X126385128Y-131522342D02*
X126432747Y-131569961D01*
X126385128Y-131617580D01*
X126337509Y-131569961D01*
X126385128Y-131522342D01*
X126385128Y-131617580D01*
X127385128Y-131617580D02*
X126813699Y-131617580D01*
X127099414Y-131617580D02*
X127099414Y-130617580D01*
X127004176Y-130760438D01*
X126908938Y-130855676D01*
X126813699Y-130903295D01*
X127813699Y-131617580D02*
X127813699Y-130950914D01*
X127813699Y-131046152D02*
X127861319Y-130998533D01*
X127956557Y-130950914D01*
X128099414Y-130950914D01*
X128194652Y-130998533D01*
X128242271Y-131093771D01*
X128242271Y-131617580D01*
X128242271Y-131093771D02*
X128289890Y-130998533D01*
X128385128Y-130950914D01*
X128527985Y-130950914D01*
X128623223Y-130998533D01*
X128670842Y-131093771D01*
X128670842Y-131617580D01*
X129147033Y-131617580D02*
X129147033Y-130950914D01*
X129147033Y-131046152D02*
X129194652Y-130998533D01*
X129289890Y-130950914D01*
X129432747Y-130950914D01*
X129527985Y-130998533D01*
X129575604Y-131093771D01*
X129575604Y-131617580D01*
X129575604Y-131093771D02*
X129623223Y-130998533D01*
X129718461Y-130950914D01*
X129861319Y-130950914D01*
X129956557Y-130998533D01*
X130004176Y-131093771D01*
X130004176Y-131617580D01*
X121280366Y-128417580D02*
X120947033Y-127941390D01*
X120708938Y-128417580D02*
X120708938Y-127417580D01*
X121089890Y-127417580D01*
X121185128Y-127465200D01*
X121232747Y-127512819D01*
X121280366Y-127608057D01*
X121280366Y-127750914D01*
X121232747Y-127846152D01*
X121185128Y-127893771D01*
X121089890Y-127941390D01*
X120708938Y-127941390D01*
X121708938Y-127893771D02*
X122042271Y-127893771D01*
X122185128Y-128417580D02*
X121708938Y-128417580D01*
X121708938Y-127417580D01*
X122185128Y-127417580D01*
X122947033Y-127893771D02*
X122613700Y-127893771D01*
X122613700Y-128417580D02*
X122613700Y-127417580D01*
X123089890Y-127417580D01*
X123613700Y-127417580D02*
X123613700Y-127655676D01*
X123375604Y-127560438D02*
X123613700Y-127655676D01*
X123851795Y-127560438D01*
X123470842Y-127846152D02*
X123613700Y-127655676D01*
X123756557Y-127846152D01*
X124375604Y-127417580D02*
X124375604Y-127655676D01*
X124137509Y-127560438D02*
X124375604Y-127655676D01*
X124613700Y-127560438D01*
X124232747Y-127846152D02*
X124375604Y-127655676D01*
X124518461Y-127846152D01*
X143198426Y-72719240D02*
X143198426Y-73433526D01*
X143150807Y-73576383D01*
X143055569Y-73671621D01*
X142912712Y-73719240D01*
X142817474Y-73719240D01*
X144198426Y-73719240D02*
X143626998Y-73719240D01*
X143912712Y-73719240D02*
X143912712Y-72719240D01*
X143817474Y-72862098D01*
X143722236Y-72957336D01*
X143626998Y-73004955D01*
X164302980Y-92459133D02*
X165017266Y-92459133D01*
X165160123Y-92506752D01*
X165255361Y-92601990D01*
X165302980Y-92744847D01*
X165302980Y-92840085D01*
X164302980Y-91506752D02*
X164302980Y-91982942D01*
X164779171Y-92030561D01*
X164731552Y-91982942D01*
X164683933Y-91887704D01*
X164683933Y-91649609D01*
X164731552Y-91554371D01*
X164779171Y-91506752D01*
X164874409Y-91459133D01*
X165112504Y-91459133D01*
X165207742Y-91506752D01*
X165255361Y-91554371D01*
X165302980Y-91649609D01*
X165302980Y-91887704D01*
X165255361Y-91982942D01*
X165207742Y-92030561D01*
X116661802Y-117895640D02*
X116185612Y-117895640D01*
X116185612Y-116895640D01*
X116995136Y-117371831D02*
X117328469Y-117371831D01*
X117471326Y-117895640D02*
X116995136Y-117895640D01*
X116995136Y-116895640D01*
X117471326Y-116895640D01*
X117899898Y-117895640D02*
X117899898Y-116895640D01*
X118137993Y-116895640D01*
X118280850Y-116943260D01*
X118376088Y-117038498D01*
X118423707Y-117133736D01*
X118471326Y-117324212D01*
X118471326Y-117467069D01*
X118423707Y-117657545D01*
X118376088Y-117752783D01*
X118280850Y-117848021D01*
X118137993Y-117895640D01*
X117899898Y-117895640D01*
X116661802Y-109801506D02*
X116185612Y-109801506D01*
X116185612Y-108801506D01*
X116995136Y-109277697D02*
X117328469Y-109277697D01*
X117471326Y-109801506D02*
X116995136Y-109801506D01*
X116995136Y-108801506D01*
X117471326Y-108801506D01*
X117899898Y-109801506D02*
X117899898Y-108801506D01*
X118137993Y-108801506D01*
X118280850Y-108849126D01*
X118376088Y-108944364D01*
X118423707Y-109039602D01*
X118471326Y-109230078D01*
X118471326Y-109372935D01*
X118423707Y-109563411D01*
X118376088Y-109658649D01*
X118280850Y-109753887D01*
X118137993Y-109801506D01*
X117899898Y-109801506D01*
X116661802Y-101707373D02*
X116185612Y-101707373D01*
X116185612Y-100707373D01*
X116995136Y-101183564D02*
X117328469Y-101183564D01*
X117471326Y-101707373D02*
X116995136Y-101707373D01*
X116995136Y-100707373D01*
X117471326Y-100707373D01*
X117899898Y-101707373D02*
X117899898Y-100707373D01*
X118137993Y-100707373D01*
X118280850Y-100754993D01*
X118376088Y-100850231D01*
X118423707Y-100945469D01*
X118471326Y-101135945D01*
X118471326Y-101278802D01*
X118423707Y-101469278D01*
X118376088Y-101564516D01*
X118280850Y-101659754D01*
X118137993Y-101707373D01*
X117899898Y-101707373D01*
X116661802Y-93613240D02*
X116185612Y-93613240D01*
X116185612Y-92613240D01*
X116995136Y-93089431D02*
X117328469Y-93089431D01*
X117471326Y-93613240D02*
X116995136Y-93613240D01*
X116995136Y-92613240D01*
X117471326Y-92613240D01*
X117899898Y-93613240D02*
X117899898Y-92613240D01*
X118137993Y-92613240D01*
X118280850Y-92660860D01*
X118376088Y-92756098D01*
X118423707Y-92851336D01*
X118471326Y-93041812D01*
X118471326Y-93184669D01*
X118423707Y-93375145D01*
X118376088Y-93470383D01*
X118280850Y-93565621D01*
X118137993Y-93613240D01*
X117899898Y-93613240D01*
X136459980Y-103101733D02*
X137174266Y-103101733D01*
X137317123Y-103149352D01*
X137412361Y-103244590D01*
X137459980Y-103387447D01*
X137459980Y-103482685D01*
X136555219Y-102673161D02*
X136507600Y-102625542D01*
X136459980Y-102530304D01*
X136459980Y-102292209D01*
X136507600Y-102196971D01*
X136555219Y-102149352D01*
X136650457Y-102101733D01*
X136745695Y-102101733D01*
X136888552Y-102149352D01*
X137459980Y-102720780D01*
X137459980Y-102101733D01*
X150763980Y-108438400D02*
X149763980Y-108438400D01*
X149763980Y-108057447D01*
X149811600Y-107962209D01*
X149859219Y-107914590D01*
X149954457Y-107866971D01*
X150097314Y-107866971D01*
X150192552Y-107914590D01*
X150240171Y-107962209D01*
X150287790Y-108057447D01*
X150287790Y-108438400D01*
X150478266Y-107486019D02*
X150478266Y-107009828D01*
X150763980Y-107581257D02*
X149763980Y-107247923D01*
X150763980Y-106914590D01*
X150763980Y-106581257D02*
X149763980Y-106581257D01*
X150478266Y-106247923D01*
X149763980Y-105914590D01*
X150763980Y-105914590D01*
X150192552Y-105295542D02*
X150144933Y-105390780D01*
X150097314Y-105438400D01*
X150002076Y-105486019D01*
X149954457Y-105486019D01*
X149859219Y-105438400D01*
X149811600Y-105390780D01*
X149763980Y-105295542D01*
X149763980Y-105105066D01*
X149811600Y-105009828D01*
X149859219Y-104962209D01*
X149954457Y-104914590D01*
X150002076Y-104914590D01*
X150097314Y-104962209D01*
X150144933Y-105009828D01*
X150192552Y-105105066D01*
X150192552Y-105295542D01*
X150240171Y-105390780D01*
X150287790Y-105438400D01*
X150383028Y-105486019D01*
X150573504Y-105486019D01*
X150668742Y-105438400D01*
X150716361Y-105390780D01*
X150763980Y-105295542D01*
X150763980Y-105105066D01*
X150716361Y-105009828D01*
X150668742Y-104962209D01*
X150573504Y-104914590D01*
X150383028Y-104914590D01*
X150287790Y-104962209D01*
X150240171Y-105009828D01*
X150192552Y-105105066D01*
X149763980Y-104581257D02*
X149763980Y-103962209D01*
X150144933Y-104295542D01*
X150144933Y-104152685D01*
X150192552Y-104057447D01*
X150240171Y-104009828D01*
X150335409Y-103962209D01*
X150573504Y-103962209D01*
X150668742Y-104009828D01*
X150716361Y-104057447D01*
X150763980Y-104152685D01*
X150763980Y-104438400D01*
X150716361Y-104533638D01*
X150668742Y-104581257D01*
X149763980Y-103343161D02*
X149763980Y-103247923D01*
X149811600Y-103152685D01*
X149859219Y-103105066D01*
X149954457Y-103057447D01*
X150144933Y-103009828D01*
X150383028Y-103009828D01*
X150573504Y-103057447D01*
X150668742Y-103105066D01*
X150716361Y-103152685D01*
X150763980Y-103247923D01*
X150763980Y-103343161D01*
X150716361Y-103438400D01*
X150668742Y-103486019D01*
X150573504Y-103533638D01*
X150383028Y-103581257D01*
X150144933Y-103581257D01*
X149954457Y-103533638D01*
X149859219Y-103486019D01*
X149811600Y-103438400D01*
X149763980Y-103343161D01*
X149859219Y-102628876D02*
X149811600Y-102581257D01*
X149763980Y-102486019D01*
X149763980Y-102247923D01*
X149811600Y-102152685D01*
X149859219Y-102105066D01*
X149954457Y-102057447D01*
X150049695Y-102057447D01*
X150192552Y-102105066D01*
X150763980Y-102676495D01*
X150763980Y-102057447D01*
X150478266Y-101676495D02*
X150478266Y-101200304D01*
X150763980Y-101771733D02*
X149763980Y-101438400D01*
X150763980Y-101105066D01*
X150478266Y-100819352D02*
X150478266Y-100343161D01*
X150763980Y-100914590D02*
X149763980Y-100581257D01*
X150763980Y-100247923D01*
X150716361Y-99962209D02*
X150763980Y-99819352D01*
X150763980Y-99581257D01*
X150716361Y-99486019D01*
X150668742Y-99438400D01*
X150573504Y-99390780D01*
X150478266Y-99390780D01*
X150383028Y-99438400D01*
X150335409Y-99486019D01*
X150287790Y-99581257D01*
X150240171Y-99771733D01*
X150192552Y-99866971D01*
X150144933Y-99914590D01*
X150049695Y-99962209D01*
X149954457Y-99962209D01*
X149859219Y-99914590D01*
X149811600Y-99866971D01*
X149763980Y-99771733D01*
X149763980Y-99533638D01*
X149811600Y-99390780D01*
X150603146Y-109558066D02*
X150603146Y-110129495D01*
X150603146Y-109843780D02*
X149603146Y-109843780D01*
X149746004Y-109939019D01*
X149841242Y-110034257D01*
X149888861Y-110129495D01*
X149603146Y-108939019D02*
X149603146Y-108843780D01*
X149650766Y-108748542D01*
X149698385Y-108700923D01*
X149793623Y-108653304D01*
X149984099Y-108605685D01*
X150222194Y-108605685D01*
X150412670Y-108653304D01*
X150507908Y-108700923D01*
X150555527Y-108748542D01*
X150603146Y-108843780D01*
X150603146Y-108939019D01*
X150555527Y-109034257D01*
X150507908Y-109081876D01*
X150412670Y-109129495D01*
X150222194Y-109177114D01*
X149984099Y-109177114D01*
X149793623Y-109129495D01*
X149698385Y-109081876D01*
X149650766Y-109034257D01*
X149603146Y-108939019D01*
X149603146Y-107986638D02*
X149603146Y-107891400D01*
X149650766Y-107796161D01*
X149698385Y-107748542D01*
X149793623Y-107700923D01*
X149984099Y-107653304D01*
X150222194Y-107653304D01*
X150412670Y-107700923D01*
X150507908Y-107748542D01*
X150555527Y-107796161D01*
X150603146Y-107891400D01*
X150603146Y-107986638D01*
X150555527Y-108081876D01*
X150507908Y-108129495D01*
X150412670Y-108177114D01*
X150222194Y-108224733D01*
X149984099Y-108224733D01*
X149793623Y-108177114D01*
X149698385Y-108129495D01*
X149650766Y-108081876D01*
X149603146Y-107986638D01*
D12*
X151761718Y-108958066D02*
X151571242Y-109091400D01*
X151761718Y-109186638D02*
X151361718Y-109186638D01*
X151361718Y-109034257D01*
X151380766Y-108996161D01*
X151399813Y-108977114D01*
X151437908Y-108958066D01*
X151495051Y-108958066D01*
X151533146Y-108977114D01*
X151552194Y-108996161D01*
X151571242Y-109034257D01*
X151571242Y-109186638D01*
X151399813Y-108805685D02*
X151380766Y-108786638D01*
X151361718Y-108748542D01*
X151361718Y-108653304D01*
X151380766Y-108615209D01*
X151399813Y-108596161D01*
X151437908Y-108577114D01*
X151476004Y-108577114D01*
X151533146Y-108596161D01*
X151761718Y-108824733D01*
X151761718Y-108577114D01*
D11*
X145526480Y-109558066D02*
X145526480Y-110129495D01*
X145526480Y-109843780D02*
X144526480Y-109843780D01*
X144669338Y-109939019D01*
X144764576Y-110034257D01*
X144812195Y-110129495D01*
X144526480Y-108939019D02*
X144526480Y-108843780D01*
X144574100Y-108748542D01*
X144621719Y-108700923D01*
X144716957Y-108653304D01*
X144907433Y-108605685D01*
X145145528Y-108605685D01*
X145336004Y-108653304D01*
X145431242Y-108700923D01*
X145478861Y-108748542D01*
X145526480Y-108843780D01*
X145526480Y-108939019D01*
X145478861Y-109034257D01*
X145431242Y-109081876D01*
X145336004Y-109129495D01*
X145145528Y-109177114D01*
X144907433Y-109177114D01*
X144716957Y-109129495D01*
X144621719Y-109081876D01*
X144574100Y-109034257D01*
X144526480Y-108939019D01*
X144526480Y-107986638D02*
X144526480Y-107891400D01*
X144574100Y-107796161D01*
X144621719Y-107748542D01*
X144716957Y-107700923D01*
X144907433Y-107653304D01*
X145145528Y-107653304D01*
X145336004Y-107700923D01*
X145431242Y-107748542D01*
X145478861Y-107796161D01*
X145526480Y-107891400D01*
X145526480Y-107986638D01*
X145478861Y-108081876D01*
X145431242Y-108129495D01*
X145336004Y-108177114D01*
X145145528Y-108224733D01*
X144907433Y-108224733D01*
X144716957Y-108177114D01*
X144621719Y-108129495D01*
X144574100Y-108081876D01*
X144526480Y-107986638D01*
D12*
X146437433Y-109072352D02*
X146304100Y-108881876D01*
X146208861Y-109072352D02*
X146208861Y-108672352D01*
X146361242Y-108672352D01*
X146399338Y-108691400D01*
X146418385Y-108710447D01*
X146437433Y-108748542D01*
X146437433Y-108805685D01*
X146418385Y-108843780D01*
X146399338Y-108862828D01*
X146361242Y-108881876D01*
X146208861Y-108881876D01*
X146818385Y-109072352D02*
X146589814Y-109072352D01*
X146704100Y-109072352D02*
X146704100Y-108672352D01*
X146666004Y-108729495D01*
X146627909Y-108767590D01*
X146589814Y-108786638D01*
D11*
X149569171Y-113948780D02*
X148997742Y-113948780D01*
X149283457Y-113948780D02*
X149283457Y-112948780D01*
X149188219Y-113091638D01*
X149092980Y-113186876D01*
X148997742Y-113234495D01*
X150188219Y-112948780D02*
X150283457Y-112948780D01*
X150378695Y-112996400D01*
X150426314Y-113044019D01*
X150473933Y-113139257D01*
X150521552Y-113329733D01*
X150521552Y-113567828D01*
X150473933Y-113758304D01*
X150426314Y-113853542D01*
X150378695Y-113901161D01*
X150283457Y-113948780D01*
X150188219Y-113948780D01*
X150092980Y-113901161D01*
X150045361Y-113853542D01*
X149997742Y-113758304D01*
X149950123Y-113567828D01*
X149950123Y-113329733D01*
X149997742Y-113139257D01*
X150045361Y-113044019D01*
X150092980Y-112996400D01*
X150188219Y-112948780D01*
X151378695Y-113282114D02*
X151378695Y-113948780D01*
X150950123Y-113282114D02*
X150950123Y-113805923D01*
X150997742Y-113901161D01*
X151092980Y-113948780D01*
X151235838Y-113948780D01*
X151331076Y-113901161D01*
X151378695Y-113853542D01*
X152188219Y-113424971D02*
X151854885Y-113424971D01*
X151854885Y-113948780D02*
X151854885Y-112948780D01*
X152331076Y-112948780D01*
D12*
X150573933Y-112209257D02*
X150554885Y-112228304D01*
X150497742Y-112247352D01*
X150459647Y-112247352D01*
X150402504Y-112228304D01*
X150364409Y-112190209D01*
X150345361Y-112152114D01*
X150326314Y-112075923D01*
X150326314Y-112018780D01*
X150345361Y-111942590D01*
X150364409Y-111904495D01*
X150402504Y-111866400D01*
X150459647Y-111847352D01*
X150497742Y-111847352D01*
X150554885Y-111866400D01*
X150573933Y-111885447D01*
X150707266Y-111847352D02*
X150954885Y-111847352D01*
X150821552Y-111999733D01*
X150878695Y-111999733D01*
X150916790Y-112018780D01*
X150935838Y-112037828D01*
X150954885Y-112075923D01*
X150954885Y-112171161D01*
X150935838Y-112209257D01*
X150916790Y-112228304D01*
X150878695Y-112247352D01*
X150764409Y-112247352D01*
X150726314Y-112228304D01*
X150707266Y-112209257D01*
D11*
X156001480Y-109486638D02*
X156001480Y-110058066D01*
X156001480Y-109772352D02*
X155001480Y-109772352D01*
X155144338Y-109867590D01*
X155239576Y-109962828D01*
X155287195Y-110058066D01*
X155334814Y-108629495D02*
X156001480Y-108629495D01*
X155334814Y-109058066D02*
X155858623Y-109058066D01*
X155953861Y-109010447D01*
X156001480Y-108915209D01*
X156001480Y-108772352D01*
X155953861Y-108677114D01*
X155906242Y-108629495D01*
X155477671Y-107819971D02*
X155477671Y-108153304D01*
X156001480Y-108153304D02*
X155001480Y-108153304D01*
X155001480Y-107677114D01*
D12*
X154261957Y-108958066D02*
X154281004Y-108977114D01*
X154300052Y-109034257D01*
X154300052Y-109072352D01*
X154281004Y-109129495D01*
X154242909Y-109167590D01*
X154204814Y-109186638D01*
X154128623Y-109205685D01*
X154071480Y-109205685D01*
X153995290Y-109186638D01*
X153957195Y-109167590D01*
X153919100Y-109129495D01*
X153900052Y-109072352D01*
X153900052Y-109034257D01*
X153919100Y-108977114D01*
X153938147Y-108958066D01*
X153938147Y-108805685D02*
X153919100Y-108786638D01*
X153900052Y-108748542D01*
X153900052Y-108653304D01*
X153919100Y-108615209D01*
X153938147Y-108596161D01*
X153976242Y-108577114D01*
X154014338Y-108577114D01*
X154071480Y-108596161D01*
X154300052Y-108824733D01*
X154300052Y-108577114D01*
D11*
X150924813Y-109486638D02*
X150924813Y-110058066D01*
X150924813Y-109772352D02*
X149924813Y-109772352D01*
X150067671Y-109867590D01*
X150162909Y-109962828D01*
X150210528Y-110058066D01*
X150258147Y-108629495D02*
X150924813Y-108629495D01*
X150258147Y-109058066D02*
X150781956Y-109058066D01*
X150877194Y-109010447D01*
X150924813Y-108915209D01*
X150924813Y-108772352D01*
X150877194Y-108677114D01*
X150829575Y-108629495D01*
X150401004Y-107819971D02*
X150401004Y-108153304D01*
X150924813Y-108153304D02*
X149924813Y-108153304D01*
X149924813Y-107677114D01*
D12*
X149185290Y-108958066D02*
X149204337Y-108977114D01*
X149223385Y-109034257D01*
X149223385Y-109072352D01*
X149204337Y-109129495D01*
X149166242Y-109167590D01*
X149128147Y-109186638D01*
X149051956Y-109205685D01*
X148994813Y-109205685D01*
X148918623Y-109186638D01*
X148880528Y-109167590D01*
X148842433Y-109129495D01*
X148823385Y-109072352D01*
X148823385Y-109034257D01*
X148842433Y-108977114D01*
X148861480Y-108958066D01*
X149223385Y-108577114D02*
X149223385Y-108805685D01*
X149223385Y-108691400D02*
X148823385Y-108691400D01*
X148880528Y-108729495D01*
X148918623Y-108767590D01*
X148937671Y-108805685D01*
D11*
X116198733Y-120929380D02*
X115627304Y-120929380D01*
X115913019Y-120929380D02*
X115913019Y-119929380D01*
X115817780Y-120072238D01*
X115722542Y-120167476D01*
X115627304Y-120215095D01*
X116817780Y-119929380D02*
X116913019Y-119929380D01*
X117008257Y-119977000D01*
X117055876Y-120024619D01*
X117103495Y-120119857D01*
X117151114Y-120310333D01*
X117151114Y-120548428D01*
X117103495Y-120738904D01*
X117055876Y-120834142D01*
X117008257Y-120881761D01*
X116913019Y-120929380D01*
X116817780Y-120929380D01*
X116722542Y-120881761D01*
X116674923Y-120834142D01*
X116627304Y-120738904D01*
X116579685Y-120548428D01*
X116579685Y-120310333D01*
X116627304Y-120119857D01*
X116674923Y-120024619D01*
X116722542Y-119977000D01*
X116817780Y-119929380D01*
X117770161Y-119929380D02*
X117865400Y-119929380D01*
X117960638Y-119977000D01*
X118008257Y-120024619D01*
X118055876Y-120119857D01*
X118103495Y-120310333D01*
X118103495Y-120548428D01*
X118055876Y-120738904D01*
X118008257Y-120834142D01*
X117960638Y-120881761D01*
X117865400Y-120929380D01*
X117770161Y-120929380D01*
X117674923Y-120881761D01*
X117627304Y-120834142D01*
X117579685Y-120738904D01*
X117532066Y-120548428D01*
X117532066Y-120310333D01*
X117579685Y-120119857D01*
X117627304Y-120024619D01*
X117674923Y-119977000D01*
X117770161Y-119929380D01*
D12*
X116798733Y-119227952D02*
X116665400Y-119037476D01*
X116570161Y-119227952D02*
X116570161Y-118827952D01*
X116722542Y-118827952D01*
X116760638Y-118847000D01*
X116779685Y-118866047D01*
X116798733Y-118904142D01*
X116798733Y-118961285D01*
X116779685Y-118999380D01*
X116760638Y-119018428D01*
X116722542Y-119037476D01*
X116570161Y-119037476D01*
X117160638Y-118827952D02*
X116970161Y-118827952D01*
X116951114Y-119018428D01*
X116970161Y-118999380D01*
X117008257Y-118980333D01*
X117103495Y-118980333D01*
X117141590Y-118999380D01*
X117160638Y-119018428D01*
X117179685Y-119056523D01*
X117179685Y-119151761D01*
X117160638Y-119189857D01*
X117141590Y-119208904D01*
X117103495Y-119227952D01*
X117008257Y-119227952D01*
X116970161Y-119208904D01*
X116951114Y-119189857D01*
M02*
