G04 #@! TF.GenerationSoftware,KiCad,Pcbnew,(5.1.10-1-10_14)*
G04 #@! TF.CreationDate,2021-06-08T23:18:15-04:00*
G04 #@! TF.ProjectId,tr109-mainboard,74723130-392d-46d6-9169-6e626f617264,1*
G04 #@! TF.SameCoordinates,Original*
G04 #@! TF.FileFunction,Soldermask,Bot*
G04 #@! TF.FilePolarity,Negative*
%FSLAX46Y46*%
G04 Gerber Fmt 4.6, Leading zero omitted, Abs format (unit mm)*
G04 Created by KiCad (PCBNEW (5.1.10-1-10_14)) date 2021-06-08 23:18:15*
%MOMM*%
%LPD*%
G01*
G04 APERTURE LIST*
%ADD10O,1.700000X1.700000*%
%ADD11R,1.700000X1.700000*%
%ADD12C,2.100000*%
%ADD13C,1.800000*%
%ADD14R,1.800000X1.800000*%
G04 APERTURE END LIST*
D10*
X116034660Y-84579400D03*
D11*
X116034660Y-82039400D03*
D10*
X135250600Y-128439400D03*
X137790600Y-128439400D03*
X140330600Y-128439400D03*
X142870600Y-128439400D03*
X145410600Y-128439400D03*
X147950600Y-128439400D03*
X150490600Y-128439400D03*
X153030600Y-128439400D03*
X155570600Y-128439400D03*
X158110600Y-128439400D03*
D11*
X160650600Y-128439400D03*
D10*
X164850600Y-122199400D03*
X164850600Y-119659400D03*
X164850600Y-117119400D03*
X164850600Y-114579400D03*
D11*
X164850600Y-112039400D03*
D10*
X164850600Y-105562400D03*
D11*
X164850600Y-103022400D03*
D10*
X117850600Y-123549400D03*
X120390600Y-123549400D03*
D11*
X122930600Y-123549400D03*
D12*
X164934900Y-83439000D03*
X122339100Y-83426300D03*
X164922200Y-127977900D03*
X122313700Y-127965200D03*
D10*
X167661760Y-76036860D03*
X167661760Y-78576860D03*
X165121760Y-76036860D03*
X165121760Y-78576860D03*
X162581760Y-76036860D03*
X162581760Y-78576860D03*
X160041760Y-76036860D03*
X160041760Y-78576860D03*
X157501760Y-76036860D03*
X157501760Y-78576860D03*
X154961760Y-76036860D03*
X154961760Y-78576860D03*
X152421760Y-76036860D03*
X152421760Y-78576860D03*
X149881760Y-76036860D03*
X149881760Y-78576860D03*
X147341760Y-76036860D03*
X147341760Y-78576860D03*
X144801760Y-76036860D03*
X144801760Y-78576860D03*
X142261760Y-76036860D03*
X142261760Y-78576860D03*
X139721760Y-76036860D03*
X139721760Y-78576860D03*
X137181760Y-76036860D03*
X137181760Y-78576860D03*
X134641760Y-76036860D03*
X134641760Y-78576860D03*
X132101760Y-76036860D03*
X132101760Y-78576860D03*
X129561760Y-76036860D03*
X129561760Y-78576860D03*
X127021760Y-76036860D03*
X127021760Y-78576860D03*
X124481760Y-76036860D03*
X124481760Y-78576860D03*
X121941760Y-76036860D03*
X121941760Y-78576860D03*
X119401760Y-76036860D03*
D11*
X119401760Y-78576860D03*
D10*
X164850600Y-89585800D03*
X164850600Y-92125800D03*
D11*
X164850600Y-94665800D03*
D13*
X118574660Y-114483260D03*
D14*
X116034660Y-114483260D03*
D13*
X118574660Y-106389126D03*
D14*
X116034660Y-106389126D03*
D13*
X118574660Y-98294993D03*
D14*
X116034660Y-98294993D03*
D13*
X118574660Y-90200860D03*
D14*
X116034660Y-90200860D03*
D10*
X137007600Y-111658400D03*
X137007600Y-109118400D03*
X137007600Y-106578400D03*
X137007600Y-104038400D03*
X137007600Y-101498400D03*
X137007600Y-98958400D03*
X137007600Y-96418400D03*
D11*
X137007600Y-93878400D03*
M02*
