M48
; DRILL file {KiCad (5.1.10-1-10_14)} date Tuesday, June 08, 2021 at 11:18:18 PM
; FORMAT={-:-/ absolute / inch / decimal}
; #@! TF.CreationDate,2021-06-08T23:18:18-04:00
; #@! TF.GenerationSoftware,Kicad,Pcbnew,(5.1.10-1-10_14)
; #@! TF.FileFunction,Plated,1,2,PTH
FMAT,2
INCH
T1C0.0157
T2C0.0354
T3C0.0394
%
G90
G05
T1
X4.7305Y-4.6864
X4.8583Y-3.3706
X4.9488Y-3.1364
X5.3071Y-3.3815
X5.3238Y-3.1473
X5.3524Y-3.4897
X5.4429Y-3.3795
X5.533Y-4.5387
X5.5351Y-4.5012
X5.5559Y-4.4701
X5.5847Y-4.6571
X5.6268Y-3.5567
X5.6268Y-3.6118
X5.6268Y-3.663
X5.628Y-3.5094
X5.6359Y-3.1669
X5.6477Y-4.6118
X5.6752Y-4.6866
X5.689Y-3.3795
X5.6929Y-3.1814
X5.7067Y-4.7811
X5.7185Y-4.1984
X5.7205Y-4.1512
X5.7303Y-3.1827
X5.7382Y-4.6571
X5.7618Y-3.2575
X5.7658Y-3.5606
X5.7658Y-3.6118
X5.7658Y-3.663
X5.7677Y-3.5094
X5.7973Y-3.8027
X5.8051Y-4.7456
X5.8288Y-3.2575
X5.8347Y-4.413
X5.8465Y-4.098
X5.8563Y-4.1689
X5.8662Y-4.0311
X5.8681Y-4.533
X5.8937Y-4.1916
X5.8957Y-3.289
X5.8977Y-4.0651
X5.9036Y-3.7102
X5.9213Y-3.6295
X5.9311Y-3.2575
X5.9311Y-4.5055
X5.9587Y-3.5134
X5.9626Y-3.3047
X5.9626Y-3.3598
X5.9902Y-4.1669
X5.9961Y-4.0665
X5.9981Y-4.537
X6.0009Y-3.1956
X6.0296Y-4.7417
X6.0512Y-3.8047
X6.0925Y-3.6079
X6.1004Y-3.4582
X6.1024Y-3.3598
X6.1103Y-4.2102
X6.1359Y-3.1669
X6.1457Y-4.2732
X6.1673Y-4.5173
X6.1752Y-3.2338
X6.1752Y-4.7614
X6.2638Y-3.5271
X6.3012Y-3.7712
X6.3366Y-3.4582
X6.3681Y-3.6039
X6.3839Y-4.4779
X6.3862Y-4.811
X6.3878Y-4.7102
X6.3977Y-3.2614
X6.5689Y-3.4346
X6.6142Y-3.3618
X6.6142Y-4.2752
T2
X4.5683Y-3.5512
X4.5683Y-3.8699
X4.5683Y-4.1885
X4.5683Y-4.5072
X4.6683Y-3.5512
X4.6683Y-3.8699
X4.6683Y-4.1885
X4.6683Y-4.5072
T3
X4.5683Y-3.2299
X4.5683Y-3.3299
X4.6398Y-4.8641
X4.7009Y-2.9936
X4.7009Y-3.0936
X4.7398Y-4.8641
X4.8009Y-2.9936
X4.8009Y-3.0936
X4.8398Y-4.8641
X4.9009Y-2.9936
X4.9009Y-3.0936
X5.0009Y-2.9936
X5.0009Y-3.0936
X5.1009Y-2.9936
X5.1009Y-3.0936
X5.2009Y-2.9936
X5.2009Y-3.0936
X5.3009Y-2.9936
X5.3009Y-3.0936
X5.3248Y-5.0567
X5.394Y-3.696
X5.394Y-3.796
X5.394Y-3.896
X5.394Y-3.996
X5.394Y-4.096
X5.394Y-4.196
X5.394Y-4.296
X5.394Y-4.396
X5.4009Y-2.9936
X5.4009Y-3.0936
X5.4248Y-5.0567
X5.5009Y-2.9936
X5.5009Y-3.0936
X5.5248Y-5.0567
X5.6009Y-2.9936
X5.6009Y-3.0936
X5.6248Y-5.0567
X5.7009Y-2.9936
X5.7009Y-3.0936
X5.7248Y-5.0567
X5.8009Y-2.9936
X5.8009Y-3.0936
X5.8248Y-5.0567
X5.9009Y-2.9936
X5.9009Y-3.0936
X5.9248Y-5.0567
X6.0009Y-2.9936
X6.0009Y-3.0936
X6.0248Y-5.0567
X6.1009Y-2.9936
X6.1009Y-3.0936
X6.1248Y-5.0567
X6.2009Y-2.9936
X6.2009Y-3.0936
X6.2248Y-5.0567
X6.3009Y-2.9936
X6.3009Y-3.0936
X6.3248Y-5.0567
X6.4009Y-2.9936
X6.4009Y-3.0936
X6.4902Y-3.527
X6.4902Y-3.627
X6.4902Y-3.727
X6.4902Y-4.056
X6.4902Y-4.156
X6.4902Y-4.411
X6.4902Y-4.511
X6.4902Y-4.611
X6.4902Y-4.711
X6.4902Y-4.811
X6.5009Y-2.9936
X6.5009Y-3.0936
X6.6009Y-2.9936
X6.6009Y-3.0936
T0
M30
